G04 #@! TF.FileFunction,Legend,Bot*
%FSLAX46Y46*%
G04 Gerber Fmt 4.6, Leading zero omitted, Abs format (unit mm)*
G04 Created by KiCad (PCBNEW 4.0.7-e2-6376~58~ubuntu16.04.1) date Mon Aug  6 23:00:42 2018*
%MOMM*%
%LPD*%
G01*
G04 APERTURE LIST*
%ADD10C,0.100000*%
%ADD11C,0.300000*%
%ADD12C,0.200000*%
G04 APERTURE END LIST*
D10*
D11*
X20782143Y-40250000D02*
X20853571Y-40107143D01*
X20853571Y-39821429D01*
X20782143Y-39678571D01*
X20710714Y-39607143D01*
X20567857Y-39535714D01*
X20139286Y-39535714D01*
X19996429Y-39607143D01*
X19925000Y-39678571D01*
X19853571Y-39821429D01*
X19853571Y-40107143D01*
X19925000Y-40250000D01*
X19853571Y-40892857D02*
X20853571Y-40892857D01*
X19996429Y-40892857D02*
X19925000Y-40964285D01*
X19853571Y-41107143D01*
X19853571Y-41321428D01*
X19925000Y-41464285D01*
X20067857Y-41535714D01*
X20853571Y-41535714D01*
X19853571Y-42250000D02*
X21353571Y-42250000D01*
X19925000Y-42250000D02*
X19853571Y-42392857D01*
X19853571Y-42678571D01*
X19925000Y-42821428D01*
X19996429Y-42892857D01*
X20139286Y-42964286D01*
X20567857Y-42964286D01*
X20710714Y-42892857D01*
X20782143Y-42821428D01*
X20853571Y-42678571D01*
X20853571Y-42392857D01*
X20782143Y-42250000D01*
X20853571Y-43607143D02*
X19853571Y-43607143D01*
X19353571Y-43607143D02*
X19425000Y-43535714D01*
X19496429Y-43607143D01*
X19425000Y-43678571D01*
X19353571Y-43607143D01*
X19496429Y-43607143D01*
X20853571Y-44321429D02*
X19353571Y-44321429D01*
X20853571Y-44964286D02*
X20067857Y-44964286D01*
X19925000Y-44892857D01*
X19853571Y-44750000D01*
X19853571Y-44535715D01*
X19925000Y-44392857D01*
X19996429Y-44321429D01*
X20853571Y-46321429D02*
X20067857Y-46321429D01*
X19925000Y-46250000D01*
X19853571Y-46107143D01*
X19853571Y-45821429D01*
X19925000Y-45678572D01*
X20782143Y-46321429D02*
X20853571Y-46178572D01*
X20853571Y-45821429D01*
X20782143Y-45678572D01*
X20639286Y-45607143D01*
X20496429Y-45607143D01*
X20353571Y-45678572D01*
X20282143Y-45821429D01*
X20282143Y-46178572D01*
X20210714Y-46321429D01*
X19853571Y-46821429D02*
X19853571Y-47392858D01*
X19353571Y-47035715D02*
X20639286Y-47035715D01*
X20782143Y-47107143D01*
X20853571Y-47250001D01*
X20853571Y-47392858D01*
X20782143Y-47821429D02*
X20853571Y-47964286D01*
X20853571Y-48250001D01*
X20782143Y-48392858D01*
X20639286Y-48464286D01*
X20567857Y-48464286D01*
X20425000Y-48392858D01*
X20353571Y-48250001D01*
X20353571Y-48035715D01*
X20282143Y-47892858D01*
X20139286Y-47821429D01*
X20067857Y-47821429D01*
X19925000Y-47892858D01*
X19853571Y-48035715D01*
X19853571Y-48250001D01*
X19925000Y-48392858D01*
X23403571Y-35857143D02*
X22403571Y-35857143D01*
X22689286Y-35857143D02*
X22546429Y-35928571D01*
X22475000Y-36000000D01*
X22403571Y-36142857D01*
X22403571Y-36285714D01*
X22403571Y-36785714D02*
X23903571Y-36785714D01*
X22475000Y-36785714D02*
X22403571Y-36928571D01*
X22403571Y-37214285D01*
X22475000Y-37357142D01*
X22546429Y-37428571D01*
X22689286Y-37500000D01*
X23117857Y-37500000D01*
X23260714Y-37428571D01*
X23332143Y-37357142D01*
X23403571Y-37214285D01*
X23403571Y-36928571D01*
X23332143Y-36785714D01*
X23403571Y-38142857D02*
X22403571Y-38142857D01*
X21903571Y-38142857D02*
X21975000Y-38071428D01*
X22046429Y-38142857D01*
X21975000Y-38214285D01*
X21903571Y-38142857D01*
X22046429Y-38142857D01*
X23546429Y-38500000D02*
X23546429Y-39642857D01*
X22403571Y-39857143D02*
X23403571Y-40142857D01*
X22689286Y-40428571D01*
X23403571Y-40714286D01*
X22403571Y-41000000D01*
X23403571Y-41571429D02*
X22403571Y-41571429D01*
X21903571Y-41571429D02*
X21975000Y-41500000D01*
X22046429Y-41571429D01*
X21975000Y-41642857D01*
X21903571Y-41571429D01*
X22046429Y-41571429D01*
X22403571Y-42071429D02*
X22403571Y-42642858D01*
X21903571Y-42285715D02*
X23189286Y-42285715D01*
X23332143Y-42357143D01*
X23403571Y-42500001D01*
X23403571Y-42642858D01*
X23403571Y-43142858D02*
X21903571Y-43142858D01*
X23403571Y-43785715D02*
X22617857Y-43785715D01*
X22475000Y-43714286D01*
X22403571Y-43571429D01*
X22403571Y-43357144D01*
X22475000Y-43214286D01*
X22546429Y-43142858D01*
X23546429Y-44142858D02*
X23546429Y-45285715D01*
X23332143Y-45571429D02*
X23403571Y-45714286D01*
X23403571Y-46000001D01*
X23332143Y-46142858D01*
X23189286Y-46214286D01*
X23117857Y-46214286D01*
X22975000Y-46142858D01*
X22903571Y-46000001D01*
X22903571Y-45785715D01*
X22832143Y-45642858D01*
X22689286Y-45571429D01*
X22617857Y-45571429D01*
X22475000Y-45642858D01*
X22403571Y-45785715D01*
X22403571Y-46000001D01*
X22475000Y-46142858D01*
X22403571Y-47500001D02*
X23403571Y-47500001D01*
X22403571Y-46857144D02*
X23189286Y-46857144D01*
X23332143Y-46928572D01*
X23403571Y-47071430D01*
X23403571Y-47285715D01*
X23332143Y-47428572D01*
X23260714Y-47500001D01*
X22403571Y-48214287D02*
X23903571Y-48214287D01*
X22475000Y-48214287D02*
X22403571Y-48357144D01*
X22403571Y-48642858D01*
X22475000Y-48785715D01*
X22546429Y-48857144D01*
X22689286Y-48928573D01*
X23117857Y-48928573D01*
X23260714Y-48857144D01*
X23332143Y-48785715D01*
X23403571Y-48642858D01*
X23403571Y-48357144D01*
X23332143Y-48214287D01*
X22403571Y-49571430D02*
X23903571Y-49571430D01*
X22475000Y-49571430D02*
X22403571Y-49714287D01*
X22403571Y-50000001D01*
X22475000Y-50142858D01*
X22546429Y-50214287D01*
X22689286Y-50285716D01*
X23117857Y-50285716D01*
X23260714Y-50214287D01*
X23332143Y-50142858D01*
X23403571Y-50000001D01*
X23403571Y-49714287D01*
X23332143Y-49571430D01*
X23403571Y-51142859D02*
X23332143Y-51000001D01*
X23189286Y-50928573D01*
X21903571Y-50928573D01*
X22403571Y-51571430D02*
X23403571Y-51928573D01*
X22403571Y-52285715D02*
X23403571Y-51928573D01*
X23760714Y-51785715D01*
X23832143Y-51714287D01*
X23903571Y-51571430D01*
X25953571Y-42035715D02*
X24953571Y-42035715D01*
X25239286Y-42035715D02*
X25096429Y-42107143D01*
X25025000Y-42178572D01*
X24953571Y-42321429D01*
X24953571Y-42464286D01*
X25882143Y-43535714D02*
X25953571Y-43392857D01*
X25953571Y-43107143D01*
X25882143Y-42964286D01*
X25739286Y-42892857D01*
X25167857Y-42892857D01*
X25025000Y-42964286D01*
X24953571Y-43107143D01*
X24953571Y-43392857D01*
X25025000Y-43535714D01*
X25167857Y-43607143D01*
X25310714Y-43607143D01*
X25453571Y-42892857D01*
X24953571Y-44107143D02*
X25953571Y-44464286D01*
X24953571Y-44821428D01*
X25525000Y-45321428D02*
X25525000Y-46035714D01*
X25953571Y-45178571D02*
X24453571Y-45678571D01*
X25953571Y-46178571D01*
X29075000Y-31571429D02*
X29003571Y-31500001D01*
X28789286Y-31357144D01*
X28646429Y-31285715D01*
X28432143Y-31214286D01*
X28075000Y-31142858D01*
X27789286Y-31142858D01*
X27432143Y-31214286D01*
X27217857Y-31285715D01*
X27075000Y-31357144D01*
X26860714Y-31500001D01*
X26789286Y-31571429D01*
X28360714Y-33000001D02*
X28432143Y-32928572D01*
X28503571Y-32714286D01*
X28503571Y-32571429D01*
X28432143Y-32357144D01*
X28289286Y-32214286D01*
X28146429Y-32142858D01*
X27860714Y-32071429D01*
X27646429Y-32071429D01*
X27360714Y-32142858D01*
X27217857Y-32214286D01*
X27075000Y-32357144D01*
X27003571Y-32571429D01*
X27003571Y-32714286D01*
X27075000Y-32928572D01*
X27146429Y-33000001D01*
X29075000Y-33500001D02*
X29003571Y-33571429D01*
X28789286Y-33714286D01*
X28646429Y-33785715D01*
X28432143Y-33857144D01*
X28075000Y-33928572D01*
X27789286Y-33928572D01*
X27432143Y-33857144D01*
X27217857Y-33785715D01*
X27075000Y-33714286D01*
X26860714Y-33571429D01*
X26789286Y-33500001D01*
X27503571Y-36928572D02*
X27932143Y-35785715D01*
X28360714Y-36928572D01*
X27503571Y-37642858D02*
X27932143Y-38785715D01*
X28360714Y-37642858D01*
X27503571Y-40642858D02*
X27932143Y-39500001D01*
X28360714Y-40642858D01*
X27146429Y-42428572D02*
X27075000Y-42500001D01*
X27003571Y-42642858D01*
X27003571Y-43000001D01*
X27075000Y-43142858D01*
X27146429Y-43214287D01*
X27289286Y-43285715D01*
X27432143Y-43285715D01*
X27646429Y-43214287D01*
X28503571Y-42357144D01*
X28503571Y-43285715D01*
X27003571Y-44214286D02*
X27003571Y-44357143D01*
X27075000Y-44500000D01*
X27146429Y-44571429D01*
X27289286Y-44642858D01*
X27575000Y-44714286D01*
X27932143Y-44714286D01*
X28217857Y-44642858D01*
X28360714Y-44571429D01*
X28432143Y-44500000D01*
X28503571Y-44357143D01*
X28503571Y-44214286D01*
X28432143Y-44071429D01*
X28360714Y-44000000D01*
X28217857Y-43928572D01*
X27932143Y-43857143D01*
X27575000Y-43857143D01*
X27289286Y-43928572D01*
X27146429Y-44000000D01*
X27075000Y-44071429D01*
X27003571Y-44214286D01*
X28503571Y-46142857D02*
X28503571Y-45285714D01*
X28503571Y-45714286D02*
X27003571Y-45714286D01*
X27217857Y-45571429D01*
X27360714Y-45428571D01*
X27432143Y-45285714D01*
X27646429Y-47000000D02*
X27575000Y-46857142D01*
X27503571Y-46785714D01*
X27360714Y-46714285D01*
X27289286Y-46714285D01*
X27146429Y-46785714D01*
X27075000Y-46857142D01*
X27003571Y-47000000D01*
X27003571Y-47285714D01*
X27075000Y-47428571D01*
X27146429Y-47500000D01*
X27289286Y-47571428D01*
X27360714Y-47571428D01*
X27503571Y-47500000D01*
X27575000Y-47428571D01*
X27646429Y-47285714D01*
X27646429Y-47000000D01*
X27717857Y-46857142D01*
X27789286Y-46785714D01*
X27932143Y-46714285D01*
X28217857Y-46714285D01*
X28360714Y-46785714D01*
X28432143Y-46857142D01*
X28503571Y-47000000D01*
X28503571Y-47285714D01*
X28432143Y-47428571D01*
X28360714Y-47500000D01*
X28217857Y-47571428D01*
X27932143Y-47571428D01*
X27789286Y-47500000D01*
X27717857Y-47428571D01*
X27646429Y-47285714D01*
X28360714Y-50214285D02*
X28432143Y-50142856D01*
X28503571Y-49928570D01*
X28503571Y-49785713D01*
X28432143Y-49571428D01*
X28289286Y-49428570D01*
X28146429Y-49357142D01*
X27860714Y-49285713D01*
X27646429Y-49285713D01*
X27360714Y-49357142D01*
X27217857Y-49428570D01*
X27075000Y-49571428D01*
X27003571Y-49785713D01*
X27003571Y-49928570D01*
X27075000Y-50142856D01*
X27146429Y-50214285D01*
X28360714Y-50857142D02*
X28432143Y-50928570D01*
X28503571Y-50857142D01*
X28432143Y-50785713D01*
X28360714Y-50857142D01*
X28503571Y-50857142D01*
X28503571Y-53428571D02*
X28503571Y-52714285D01*
X27003571Y-52714285D01*
X28503571Y-54142857D02*
X28432143Y-53999999D01*
X28360714Y-53928571D01*
X28217857Y-53857142D01*
X27789286Y-53857142D01*
X27646429Y-53928571D01*
X27575000Y-53999999D01*
X27503571Y-54142857D01*
X27503571Y-54357142D01*
X27575000Y-54499999D01*
X27646429Y-54571428D01*
X27789286Y-54642857D01*
X28217857Y-54642857D01*
X28360714Y-54571428D01*
X28432143Y-54499999D01*
X28503571Y-54357142D01*
X28503571Y-54142857D01*
X28503571Y-55285714D02*
X27003571Y-55285714D01*
X28503571Y-55928571D02*
X27717857Y-55928571D01*
X27575000Y-55857142D01*
X27503571Y-55714285D01*
X27503571Y-55500000D01*
X27575000Y-55357142D01*
X27646429Y-55285714D01*
X28503571Y-56642857D02*
X27503571Y-56642857D01*
X27789286Y-56642857D02*
X27646429Y-56714285D01*
X27575000Y-56785714D01*
X27503571Y-56928571D01*
X27503571Y-57071428D01*
D12*
X67532000Y-53340000D02*
X68548000Y-53340000D01*
X67024000Y-53848000D02*
X67532000Y-53340000D01*
X67024000Y-54356000D02*
X67024000Y-53848000D01*
X67532000Y-54356000D02*
X67024000Y-54356000D01*
X68040000Y-53848000D02*
X67532000Y-54356000D01*
X68040000Y-52832000D02*
X68040000Y-53848000D01*
X68548000Y-53340000D02*
X68040000Y-52832000D01*
M02*
