M48
;DRILL file {KiCad 4.0.7-e2-6376~58~ubuntu16.04.1} date Mon Aug  6 23:00:43 2018
;FORMAT={-:-/ absolute / inch / decimal}
FMAT,2
INCH,TZ
T1C0.012
T2C0.013
T3C0.016
T4C0.039
T5C0.040
T6C0.057
T7C0.118
%
G90
G05
M72
T1
X0.8882Y-2.3956
X0.8882Y-2.4419
X0.967Y-2.3956
X0.967Y-2.4419
T2
X0.7843Y-1.4248
X0.7843Y-1.7248
X0.8343Y-1.3748
X0.8343Y-1.7748
X0.8843Y-1.4248
X0.8843Y-1.7248
X0.9343Y-1.3748
X0.9343Y-1.7748
X0.9843Y-1.4248
X0.9843Y-1.7248
X1.0343Y-1.3748
X1.0343Y-1.7748
X1.0843Y-1.4248
X1.0843Y-1.7248
X1.1343Y-1.3748
X1.1343Y-1.7748
T3
X0.7512Y-2.3937
X0.7622Y-2.2768
X0.8362Y-2.2567
X0.9031Y-2.2193
X0.9488Y-1.2287
X0.9543Y-2.1378
X1.0031Y-1.0406
X1.0909Y-1.0441
X1.1232Y-1.2343
X1.2937Y-2.1862
X1.3248Y-1.2209
X1.8248Y-1.076
X2.6159Y-2.6612
X2.6193Y-1.0055
X2.6839Y-1.9516
X2.7764Y-1.1039
X2.7807Y-2.7512
X2.7941Y-1.363
X3.1106Y-1.3587
T4
X1.3927Y-1.1325
X1.4634Y-1.0618
T5
X0.9791Y-0.7374
X0.9791Y-0.8374
X1.0791Y-0.7374
X1.0791Y-0.8374
X1.1791Y-0.7374
X1.1791Y-0.8374
X1.2791Y-0.7374
X1.2791Y-0.8374
X1.3791Y-0.7374
X1.3791Y-0.8374
X1.4791Y-0.7374
X1.4791Y-0.8374
X1.5791Y-0.7374
X1.5791Y-0.8374
X1.6791Y-0.7374
X1.6791Y-0.8374
X1.7791Y-0.7374
X1.7791Y-0.8374
X1.8791Y-0.7374
X1.8791Y-0.8374
X1.9791Y-0.7374
X1.9791Y-0.8374
X2.0791Y-0.7374
X2.0791Y-0.8374
X2.1791Y-0.7374
X2.1791Y-0.8374
X2.2791Y-0.7374
X2.2791Y-0.8374
X2.3791Y-0.7374
X2.3791Y-0.8374
X2.4791Y-0.7374
X2.4791Y-0.8374
X2.5791Y-0.7374
X2.5791Y-0.8374
X2.6791Y-0.7374
X2.6791Y-0.8374
X2.7791Y-0.7374
X2.7791Y-0.8374
X2.8791Y-0.7374
X2.8791Y-0.8374
X3.0209Y-0.9785
X3.0209Y-1.0785
X3.1209Y-0.9785
X3.1209Y-1.0785
T6
X1.1571Y-2.6803
X1.3539Y-2.6803
X2.0031Y-2.676
X2.2Y-2.676
T7
X0.7874Y-0.7874
X0.7874Y-2.7165
X1.5567Y-1.3587
X1.5567Y-2.3193
X2.5173Y-1.3587
X2.5173Y-2.3193
X3.0709Y-0.7874
X3.0709Y-2.7165
T0
M30
