G04 #@! TF.FileFunction,Copper,L2,Bot,Signal*
%FSLAX46Y46*%
G04 Gerber Fmt 4.6, Leading zero omitted, Abs format (unit mm)*
G04 Created by KiCad (PCBNEW 4.0.7-e2-6376~58~ubuntu16.04.1) date Mon Aug  6 23:00:42 2018*
%MOMM*%
%LPD*%
G01*
G04 APERTURE LIST*
%ADD10C,0.100000*%
%ADD11C,2.159000*%
%ADD12R,1.727200X1.727200*%
%ADD13O,1.727200X1.727200*%
%ADD14C,1.524000*%
%ADD15C,6.000000*%
%ADD16R,2.500000X1.175000*%
%ADD17C,1.700000*%
%ADD18C,0.600000*%
%ADD19C,0.330200*%
%ADD20C,0.270000*%
%ADD21C,0.254000*%
G04 APERTURE END LIST*
D10*
D11*
X50880000Y-67970000D03*
X55880000Y-67970000D03*
X29390000Y-68080000D03*
X34390000Y-68080000D03*
D12*
X24870000Y-21270000D03*
D13*
X24870000Y-18730000D03*
X27410000Y-21270000D03*
X27410000Y-18730000D03*
X29950000Y-21270000D03*
X29950000Y-18730000D03*
X32490000Y-21270000D03*
X32490000Y-18730000D03*
X35030000Y-21270000D03*
X35030000Y-18730000D03*
X37570000Y-21270000D03*
X37570000Y-18730000D03*
X40110000Y-21270000D03*
X40110000Y-18730000D03*
X42650000Y-21270000D03*
X42650000Y-18730000D03*
X45190000Y-21270000D03*
X45190000Y-18730000D03*
X47730000Y-21270000D03*
X47730000Y-18730000D03*
X50270000Y-21270000D03*
X50270000Y-18730000D03*
X52810000Y-21270000D03*
X52810000Y-18730000D03*
X55350000Y-21270000D03*
X55350000Y-18730000D03*
X57890000Y-21270000D03*
X57890000Y-18730000D03*
X60430000Y-21270000D03*
X60430000Y-18730000D03*
X62970000Y-21270000D03*
X62970000Y-18730000D03*
X65510000Y-21270000D03*
X65510000Y-18730000D03*
X68050000Y-21270000D03*
X68050000Y-18730000D03*
X70590000Y-21270000D03*
X70590000Y-18730000D03*
X73130000Y-21270000D03*
X73130000Y-18730000D03*
D14*
X25000000Y-36190000D03*
X23730000Y-34920000D03*
X22460000Y-36190000D03*
X19920000Y-36190000D03*
X21190000Y-34920000D03*
X27540000Y-36190000D03*
X26270000Y-34920000D03*
X28810000Y-34920000D03*
X23730000Y-45080000D03*
X22460000Y-43810000D03*
X19920000Y-43810000D03*
X21190000Y-45080000D03*
X27540000Y-43810000D03*
X26270000Y-45080000D03*
X28810000Y-45080000D03*
X25000000Y-43810000D03*
D15*
X20000000Y-69000000D03*
X78000000Y-69000000D03*
X78000000Y-20000000D03*
X20000000Y-20000000D03*
X63940000Y-58910000D03*
X39540000Y-34510000D03*
X39540000Y-58910000D03*
X63940000Y-34510000D03*
D16*
X24561000Y-60849500D03*
X22561000Y-60849500D03*
X24561000Y-62024500D03*
X22561000Y-62024500D03*
D12*
X76730000Y-24853000D03*
D13*
X79270000Y-24853000D03*
X76730000Y-27393000D03*
X79270000Y-27393000D03*
D10*
G36*
X35967918Y-26970000D02*
X37170000Y-25767918D01*
X38372082Y-26970000D01*
X37170000Y-28172082D01*
X35967918Y-26970000D01*
X35967918Y-26970000D01*
G37*
D17*
X35373949Y-28766051D02*
X35373949Y-28766051D01*
D18*
X32860000Y-55530000D03*
X24240000Y-54300000D03*
X25480000Y-26430000D03*
X27710000Y-26520000D03*
X33650000Y-31010000D03*
X79010000Y-34510000D03*
X70970000Y-34620000D03*
X66445000Y-67595000D03*
X24100000Y-31210000D03*
X28530000Y-31350000D03*
X70520000Y-28040000D03*
X46350000Y-27330000D03*
X21240000Y-57320000D03*
X19360000Y-57830000D03*
X22940000Y-56370000D03*
X19080000Y-60800000D03*
X70630000Y-69880000D03*
X68170000Y-49570000D03*
X66530000Y-25540000D03*
D19*
X29235000Y-49305000D02*
X29235000Y-51905000D01*
X29235000Y-51905000D02*
X32860000Y-55530000D01*
X28810000Y-35840000D02*
X28810000Y-34920000D01*
X31250000Y-38280000D02*
X28810000Y-35840000D01*
X31250000Y-47290000D02*
X31250000Y-38280000D01*
X24240000Y-54300000D02*
X29235000Y-49305000D01*
X29235000Y-49305000D02*
X31250000Y-47290000D01*
X23550000Y-20050000D02*
X24870000Y-18730000D01*
X23550000Y-24500000D02*
X23550000Y-20050000D01*
X25480000Y-26430000D02*
X23550000Y-24500000D01*
X27410000Y-18730000D02*
X27380000Y-18730000D01*
X27380000Y-18730000D02*
X26140000Y-19970000D01*
X27710000Y-23640000D02*
X27710000Y-26520000D01*
X26140000Y-22070000D02*
X27710000Y-23640000D01*
X26140000Y-19970000D02*
X26140000Y-22070000D01*
X31240000Y-20150000D02*
X31710000Y-20150000D01*
X33770000Y-20220000D02*
X33770000Y-21670000D01*
X33550000Y-20000000D02*
X33770000Y-20220000D01*
X31860000Y-20000000D02*
X33550000Y-20000000D01*
X31710000Y-20150000D02*
X31860000Y-20000000D01*
X29950000Y-18730000D02*
X30070000Y-18730000D01*
X30070000Y-18730000D02*
X31240000Y-19900000D01*
X31240000Y-19900000D02*
X31240000Y-20150000D01*
X31240000Y-20150000D02*
X31240000Y-22240000D01*
X37170000Y-26970000D02*
X37140000Y-26970000D01*
X37140000Y-26970000D02*
X36280000Y-27830000D01*
X79010000Y-34510000D02*
X78990000Y-34510000D01*
X40110000Y-18730000D02*
X40110000Y-18840000D01*
X40110000Y-18840000D02*
X41390000Y-20120000D01*
X41390000Y-20120000D02*
X41390000Y-22130000D01*
X66445000Y-67595000D02*
X66445000Y-61415000D01*
X66445000Y-61415000D02*
X63940000Y-58910000D01*
X64890000Y-59860000D02*
X63940000Y-58910000D01*
X76730000Y-24853000D02*
X76730000Y-21270000D01*
X76730000Y-21270000D02*
X78000000Y-20000000D01*
X76730000Y-27393000D02*
X76730000Y-24853000D01*
X28390000Y-31210000D02*
X24100000Y-31210000D01*
X28530000Y-31350000D02*
X28390000Y-31210000D01*
X34390000Y-68080000D02*
X34390000Y-33104150D01*
X34390000Y-33104150D02*
X40924150Y-26570000D01*
X40924150Y-26570000D02*
X71440000Y-26570000D01*
X71440000Y-26570000D02*
X75050000Y-30180000D01*
X75050000Y-30180000D02*
X76483000Y-30180000D01*
X76483000Y-30180000D02*
X79270000Y-27393000D01*
X45820000Y-26880000D02*
X40968480Y-26880000D01*
X40968480Y-26880000D02*
X34650000Y-33198480D01*
X34650000Y-33198480D02*
X34650000Y-67820000D01*
X34650000Y-67820000D02*
X34390000Y-68080000D01*
X70520000Y-28040000D02*
X71470000Y-27090000D01*
X71470000Y-27090000D02*
X71600000Y-27090000D01*
X46350000Y-27330000D02*
X45900000Y-26880000D01*
X45900000Y-26880000D02*
X45820000Y-26960000D01*
X45820000Y-26960000D02*
X45820000Y-26880000D01*
X79270000Y-27393000D02*
X79270000Y-27760000D01*
X79270000Y-27760000D02*
X76550000Y-30480000D01*
X76550000Y-30480000D02*
X74990000Y-30480000D01*
X74990000Y-30480000D02*
X71600000Y-27090000D01*
X71600000Y-27090000D02*
X71390000Y-26880000D01*
X71390000Y-26880000D02*
X45820000Y-26880000D01*
X34390000Y-68080000D02*
X33970000Y-68080000D01*
X33970000Y-68080000D02*
X31750000Y-65860000D01*
X31750000Y-65860000D02*
X21820000Y-65860000D01*
X21820000Y-65860000D02*
X17690000Y-61730000D01*
X17690000Y-61730000D02*
X17690000Y-59030000D01*
X17690000Y-59030000D02*
X19400000Y-57320000D01*
X19400000Y-57320000D02*
X21240000Y-57320000D01*
X26700000Y-65570000D02*
X31880000Y-65570000D01*
X31880000Y-65570000D02*
X34390000Y-68080000D01*
X21990000Y-65570000D02*
X26700000Y-65570000D01*
X26700000Y-65570000D02*
X26970000Y-65570000D01*
X17960000Y-61540000D02*
X21990000Y-65570000D01*
X17960000Y-59230000D02*
X17960000Y-61540000D01*
X19360000Y-57830000D02*
X17960000Y-59230000D01*
D20*
X22940000Y-56940000D02*
X22940000Y-56370000D01*
X19080000Y-60800000D02*
X22940000Y-56940000D01*
X61950000Y-19970000D02*
X56590000Y-19970000D01*
X56590000Y-19970000D02*
X55350000Y-18730000D01*
X70630000Y-69880000D02*
X73500000Y-67010000D01*
X73500000Y-67010000D02*
X73500000Y-55260000D01*
X73500000Y-55260000D02*
X68170000Y-49930000D01*
X68170000Y-49930000D02*
X68170000Y-49570000D01*
X66530000Y-25540000D02*
X64240000Y-23250000D01*
X64240000Y-23250000D02*
X64240000Y-20620000D01*
X64240000Y-20620000D02*
X63590000Y-19970000D01*
X63590000Y-19970000D02*
X61950000Y-19970000D01*
D21*
G36*
X76093671Y-17132220D02*
X76080036Y-17141331D01*
X75732016Y-17552411D01*
X78000000Y-19820395D01*
X78014143Y-19806253D01*
X78193748Y-19985858D01*
X78179605Y-20000000D01*
X80447589Y-22267984D01*
X80858669Y-21919964D01*
X80998000Y-21660780D01*
X80998000Y-67338697D01*
X80867780Y-67093671D01*
X80858669Y-67080036D01*
X80447589Y-66732016D01*
X78179605Y-69000000D01*
X78193748Y-69014143D01*
X78014143Y-69193748D01*
X78000000Y-69179605D01*
X75732016Y-71447589D01*
X76080036Y-71858669D01*
X76339220Y-71998000D01*
X21661303Y-71998000D01*
X21906329Y-71867780D01*
X21919964Y-71858669D01*
X22267984Y-71447589D01*
X20000000Y-69179605D01*
X19985858Y-69193748D01*
X19806253Y-69014143D01*
X19820395Y-69000000D01*
X20179605Y-69000000D01*
X22447589Y-71267984D01*
X22858669Y-70919964D01*
X23178307Y-70325373D01*
X23375804Y-69679849D01*
X23428187Y-69160668D01*
X28488937Y-69160668D01*
X28606099Y-69375012D01*
X28873806Y-69503060D01*
X29161349Y-69576421D01*
X29457680Y-69592275D01*
X29751410Y-69550013D01*
X30031251Y-69451260D01*
X30173901Y-69375012D01*
X30291063Y-69160668D01*
X29390000Y-68259605D01*
X28488937Y-69160668D01*
X23428187Y-69160668D01*
X23443571Y-69008199D01*
X23379004Y-68336234D01*
X23322297Y-68147680D01*
X27877725Y-68147680D01*
X27919987Y-68441410D01*
X28018740Y-68721251D01*
X28094988Y-68863901D01*
X28309332Y-68981063D01*
X29210395Y-68080000D01*
X29569605Y-68080000D01*
X30470668Y-68981063D01*
X30685012Y-68863901D01*
X30813060Y-68596194D01*
X30886421Y-68308651D01*
X30902275Y-68012320D01*
X30860013Y-67718590D01*
X30761260Y-67438749D01*
X30685012Y-67296099D01*
X30470668Y-67178937D01*
X29569605Y-68080000D01*
X29210395Y-68080000D01*
X28309332Y-67178937D01*
X28094988Y-67296099D01*
X27966940Y-67563806D01*
X27893579Y-67851349D01*
X27877725Y-68147680D01*
X23322297Y-68147680D01*
X23184583Y-67689777D01*
X22867780Y-67093671D01*
X22858669Y-67080036D01*
X22763342Y-66999332D01*
X28488937Y-66999332D01*
X29390000Y-67900395D01*
X30291063Y-66999332D01*
X30173901Y-66784988D01*
X29906194Y-66656940D01*
X29618651Y-66583579D01*
X29322320Y-66567725D01*
X29028590Y-66609987D01*
X28748749Y-66708740D01*
X28606099Y-66784988D01*
X28488937Y-66999332D01*
X22763342Y-66999332D01*
X22447589Y-66732016D01*
X20179605Y-69000000D01*
X19820395Y-69000000D01*
X17552411Y-66732016D01*
X17141331Y-67080036D01*
X17002000Y-67339220D01*
X17002000Y-59030000D01*
X17097900Y-59030000D01*
X17097900Y-61730000D01*
X17103237Y-61784429D01*
X17108004Y-61838918D01*
X17108872Y-61841906D01*
X17109176Y-61845006D01*
X17124999Y-61897415D01*
X17140244Y-61949887D01*
X17141675Y-61952648D01*
X17142576Y-61955632D01*
X17168279Y-62003973D01*
X17193423Y-62052480D01*
X17195364Y-62054911D01*
X17196827Y-62057663D01*
X17231419Y-62100077D01*
X17265517Y-62142791D01*
X17269789Y-62147124D01*
X17269863Y-62147214D01*
X17269947Y-62147283D01*
X17271322Y-62148678D01*
X20776371Y-65653727D01*
X20679849Y-65624196D01*
X20008199Y-65556429D01*
X19336234Y-65620996D01*
X18689777Y-65815417D01*
X18093671Y-66132220D01*
X18080036Y-66141331D01*
X17732016Y-66552411D01*
X20000000Y-68820395D01*
X22267984Y-66552411D01*
X22183061Y-66452100D01*
X31504744Y-66452100D01*
X32899363Y-67846719D01*
X32885645Y-67911260D01*
X32881520Y-68206671D01*
X32934853Y-68497257D01*
X33043611Y-68771950D01*
X33203653Y-69020287D01*
X33408883Y-69232808D01*
X33651483Y-69401420D01*
X33922213Y-69519699D01*
X34210761Y-69583140D01*
X34506136Y-69589327D01*
X34797088Y-69538025D01*
X35072533Y-69431187D01*
X35321982Y-69272882D01*
X35535931Y-69069141D01*
X35548962Y-69050668D01*
X49978937Y-69050668D01*
X50096099Y-69265012D01*
X50363806Y-69393060D01*
X50651349Y-69466421D01*
X50947680Y-69482275D01*
X51241410Y-69440013D01*
X51521251Y-69341260D01*
X51663901Y-69265012D01*
X51781063Y-69050668D01*
X50880000Y-68149605D01*
X49978937Y-69050668D01*
X35548962Y-69050668D01*
X35706232Y-68827724D01*
X35826398Y-68557826D01*
X35891852Y-68269728D01*
X35895092Y-68037680D01*
X49367725Y-68037680D01*
X49409987Y-68331410D01*
X49508740Y-68611251D01*
X49584988Y-68753901D01*
X49799332Y-68871063D01*
X50700395Y-67970000D01*
X51059605Y-67970000D01*
X51960668Y-68871063D01*
X52175012Y-68753901D01*
X52303060Y-68486194D01*
X52376421Y-68198651D01*
X52381877Y-68096671D01*
X54371520Y-68096671D01*
X54424853Y-68387257D01*
X54533611Y-68661950D01*
X54693653Y-68910287D01*
X54898883Y-69122808D01*
X55141483Y-69291420D01*
X55412213Y-69409699D01*
X55700761Y-69473140D01*
X55996136Y-69479327D01*
X56287088Y-69428025D01*
X56562533Y-69321187D01*
X56811982Y-69162882D01*
X57025931Y-68959141D01*
X57196232Y-68717724D01*
X57316398Y-68447826D01*
X57381852Y-68159728D01*
X57386564Y-67822280D01*
X57329180Y-67532467D01*
X57216596Y-67259319D01*
X57053102Y-67013241D01*
X56844925Y-66803606D01*
X56599995Y-66638398D01*
X56327640Y-66523910D01*
X56038234Y-66464504D01*
X55742801Y-66462441D01*
X55452595Y-66517801D01*
X55178668Y-66628475D01*
X54931454Y-66790247D01*
X54720370Y-66996955D01*
X54553457Y-67240727D01*
X54437070Y-67512276D01*
X54375645Y-67801260D01*
X54371520Y-68096671D01*
X52381877Y-68096671D01*
X52392275Y-67902320D01*
X52350013Y-67608590D01*
X52251260Y-67328749D01*
X52175012Y-67186099D01*
X51960668Y-67068937D01*
X51059605Y-67970000D01*
X50700395Y-67970000D01*
X49799332Y-67068937D01*
X49584988Y-67186099D01*
X49456940Y-67453806D01*
X49383579Y-67741349D01*
X49367725Y-68037680D01*
X35895092Y-68037680D01*
X35896564Y-67932280D01*
X35839180Y-67642467D01*
X35726596Y-67369319D01*
X35563102Y-67123241D01*
X35354925Y-66913606D01*
X35318938Y-66889332D01*
X49978937Y-66889332D01*
X50880000Y-67790395D01*
X51781063Y-66889332D01*
X51663901Y-66674988D01*
X51396194Y-66546940D01*
X51108651Y-66473579D01*
X50812320Y-66457725D01*
X50518590Y-66499987D01*
X50238749Y-66598740D01*
X50096099Y-66674988D01*
X49978937Y-66889332D01*
X35318938Y-66889332D01*
X35242100Y-66837504D01*
X35242100Y-61357589D01*
X37272016Y-61357589D01*
X37620036Y-61768669D01*
X38214627Y-62088307D01*
X38860151Y-62285804D01*
X39531801Y-62353571D01*
X40203766Y-62289004D01*
X40850223Y-62094583D01*
X41446329Y-61777780D01*
X41459964Y-61768669D01*
X41807984Y-61357589D01*
X61672016Y-61357589D01*
X62020036Y-61768669D01*
X62614627Y-62088307D01*
X63260151Y-62285804D01*
X63931801Y-62353571D01*
X64603766Y-62289004D01*
X65250223Y-62094583D01*
X65846329Y-61777780D01*
X65859964Y-61768669D01*
X66207984Y-61357589D01*
X63940000Y-59089605D01*
X61672016Y-61357589D01*
X41807984Y-61357589D01*
X39540000Y-59089605D01*
X37272016Y-61357589D01*
X35242100Y-61357589D01*
X35242100Y-58901801D01*
X36096429Y-58901801D01*
X36160996Y-59573766D01*
X36355417Y-60220223D01*
X36672220Y-60816329D01*
X36681331Y-60829964D01*
X37092411Y-61177984D01*
X39360395Y-58910000D01*
X37092411Y-56642016D01*
X36681331Y-56990036D01*
X36361693Y-57584627D01*
X36164196Y-58230151D01*
X36096429Y-58901801D01*
X35242100Y-58901801D01*
X35242100Y-36957589D01*
X37272016Y-36957589D01*
X37620036Y-37368669D01*
X38214627Y-37688307D01*
X38860151Y-37885804D01*
X39531801Y-37953571D01*
X40203766Y-37889004D01*
X40699288Y-37739977D01*
X39256489Y-39847132D01*
X38161231Y-42402561D01*
X37583184Y-45122059D01*
X37544365Y-47902041D01*
X38046254Y-50636618D01*
X39069734Y-53221632D01*
X40575820Y-55558620D01*
X40691619Y-55678533D01*
X40219849Y-55534196D01*
X39548199Y-55466429D01*
X38876234Y-55530996D01*
X38229777Y-55725417D01*
X37633671Y-56042220D01*
X37620036Y-56051331D01*
X37272016Y-56462411D01*
X39540000Y-58730395D01*
X39554143Y-58716253D01*
X39733748Y-58895858D01*
X39719605Y-58910000D01*
X41987589Y-61177984D01*
X42398669Y-60829964D01*
X42718307Y-60235373D01*
X42915804Y-59589849D01*
X42983571Y-58918199D01*
X42919004Y-58246234D01*
X42766375Y-57738736D01*
X44790148Y-59145295D01*
X47337869Y-60258367D01*
X50053265Y-60855385D01*
X52832908Y-60913611D01*
X55570923Y-60430825D01*
X58163019Y-59425417D01*
X60510465Y-57935683D01*
X60713419Y-57742413D01*
X60564196Y-58230151D01*
X60496429Y-58901801D01*
X60560996Y-59573766D01*
X60755417Y-60220223D01*
X61072220Y-60816329D01*
X61081331Y-60829964D01*
X61492411Y-61177984D01*
X63760395Y-58910000D01*
X64119605Y-58910000D01*
X66387589Y-61177984D01*
X66798669Y-60829964D01*
X67118307Y-60235373D01*
X67315804Y-59589849D01*
X67383571Y-58918199D01*
X67319004Y-58246234D01*
X67124583Y-57599777D01*
X66807780Y-57003671D01*
X66798669Y-56990036D01*
X66387589Y-56642016D01*
X64119605Y-58910000D01*
X63760395Y-58910000D01*
X63746253Y-58895858D01*
X63925858Y-58716253D01*
X63940000Y-58730395D01*
X66207984Y-56462411D01*
X65859964Y-56051331D01*
X65265373Y-55731693D01*
X64619849Y-55534196D01*
X63948199Y-55466429D01*
X63276234Y-55530996D01*
X62757621Y-55686968D01*
X64126473Y-53746496D01*
X65257304Y-51206609D01*
X65615244Y-49631128D01*
X67442044Y-49631128D01*
X67467781Y-49771358D01*
X67520265Y-49903918D01*
X67597498Y-50023760D01*
X67621584Y-50048701D01*
X67633721Y-50088903D01*
X67648191Y-50138709D01*
X67649550Y-50141332D01*
X67650405Y-50144162D01*
X67674785Y-50190014D01*
X67698667Y-50236087D01*
X67700510Y-50238396D01*
X67701898Y-50241006D01*
X67734721Y-50281251D01*
X67767096Y-50321806D01*
X67771152Y-50325920D01*
X67771221Y-50326004D01*
X67771299Y-50326069D01*
X67772606Y-50327394D01*
X72938000Y-55492788D01*
X72938000Y-66777212D01*
X70562471Y-69152741D01*
X70423744Y-69179204D01*
X70291554Y-69232612D01*
X70172255Y-69310680D01*
X70070391Y-69410432D01*
X69989842Y-69528070D01*
X69933677Y-69659113D01*
X69904035Y-69798570D01*
X69902044Y-69941128D01*
X69927781Y-70081358D01*
X69980265Y-70213918D01*
X70057498Y-70333760D01*
X70156537Y-70436317D01*
X70273610Y-70517685D01*
X70404258Y-70574764D01*
X70543504Y-70605379D01*
X70686045Y-70608365D01*
X70826451Y-70583608D01*
X70959374Y-70532050D01*
X71079752Y-70455656D01*
X71182999Y-70357336D01*
X71265182Y-70240833D01*
X71323171Y-70110587D01*
X71354758Y-69971558D01*
X71355063Y-69949725D01*
X72312987Y-68991801D01*
X74556429Y-68991801D01*
X74620996Y-69663766D01*
X74815417Y-70310223D01*
X75132220Y-70906329D01*
X75141331Y-70919964D01*
X75552411Y-71267984D01*
X77820395Y-69000000D01*
X75552411Y-66732016D01*
X75141331Y-67080036D01*
X74821693Y-67674627D01*
X74624196Y-68320151D01*
X74556429Y-68991801D01*
X72312987Y-68991801D01*
X73897394Y-67407394D01*
X73930351Y-67367272D01*
X73963714Y-67327511D01*
X73965136Y-67324924D01*
X73967014Y-67322638D01*
X73991582Y-67276820D01*
X74016554Y-67231395D01*
X74017446Y-67228583D01*
X74018845Y-67225974D01*
X74034048Y-67176247D01*
X74049719Y-67126846D01*
X74050048Y-67123914D01*
X74050913Y-67121084D01*
X74056165Y-67069374D01*
X74061945Y-67017847D01*
X74061985Y-67012076D01*
X74061997Y-67011962D01*
X74061987Y-67011856D01*
X74062000Y-67010000D01*
X74062000Y-66552411D01*
X75732016Y-66552411D01*
X78000000Y-68820395D01*
X80267984Y-66552411D01*
X79919964Y-66141331D01*
X79325373Y-65821693D01*
X78679849Y-65624196D01*
X78008199Y-65556429D01*
X77336234Y-65620996D01*
X76689777Y-65815417D01*
X76093671Y-66132220D01*
X76080036Y-66141331D01*
X75732016Y-66552411D01*
X74062000Y-66552411D01*
X74062000Y-55260000D01*
X74056929Y-55208285D01*
X74052409Y-55156619D01*
X74051586Y-55153785D01*
X74051297Y-55150840D01*
X74036279Y-55101097D01*
X74021809Y-55051291D01*
X74020450Y-55048668D01*
X74019595Y-55045838D01*
X73995205Y-54999967D01*
X73971332Y-54953912D01*
X73969490Y-54951605D01*
X73968102Y-54948994D01*
X73935294Y-54908768D01*
X73902904Y-54868193D01*
X73898847Y-54864079D01*
X73898779Y-54863996D01*
X73898702Y-54863932D01*
X73897394Y-54862606D01*
X68854608Y-49819820D01*
X68863171Y-49800587D01*
X68894758Y-49661558D01*
X68897032Y-49498714D01*
X68869339Y-49358857D01*
X68815009Y-49227043D01*
X68736111Y-49108291D01*
X68635650Y-49007126D01*
X68517452Y-48927401D01*
X68386020Y-48872152D01*
X68246360Y-48843484D01*
X68103791Y-48842489D01*
X67963744Y-48869204D01*
X67831554Y-48922612D01*
X67712255Y-49000680D01*
X67610391Y-49100432D01*
X67529842Y-49218070D01*
X67473677Y-49349113D01*
X67444035Y-49488570D01*
X67442044Y-49631128D01*
X65615244Y-49631128D01*
X65873265Y-48495447D01*
X65917607Y-45319873D01*
X65377587Y-42592570D01*
X64318115Y-40022098D01*
X62806563Y-37747029D01*
X63260151Y-37885804D01*
X63931801Y-37953571D01*
X64603766Y-37889004D01*
X65250223Y-37694583D01*
X65846329Y-37377780D01*
X65859964Y-37368669D01*
X66207984Y-36957589D01*
X63940000Y-34689605D01*
X63925858Y-34703748D01*
X63746253Y-34524143D01*
X63760395Y-34510000D01*
X64119605Y-34510000D01*
X66387589Y-36777984D01*
X66798669Y-36429964D01*
X67118307Y-35835373D01*
X67315804Y-35189849D01*
X67383571Y-34518199D01*
X67319004Y-33846234D01*
X67124583Y-33199777D01*
X66807780Y-32603671D01*
X66798669Y-32590036D01*
X66387589Y-32242016D01*
X64119605Y-34510000D01*
X63760395Y-34510000D01*
X61492411Y-32242016D01*
X61081331Y-32590036D01*
X60761693Y-33184627D01*
X60564196Y-33830151D01*
X60496429Y-34501801D01*
X60560996Y-35173766D01*
X60706169Y-35656473D01*
X58515550Y-34178882D01*
X55952537Y-33101490D01*
X53229070Y-32542443D01*
X50448885Y-32523033D01*
X47717878Y-33044001D01*
X45140072Y-34085502D01*
X42813655Y-35607866D01*
X42776900Y-35643859D01*
X42915804Y-35189849D01*
X42983571Y-34518199D01*
X42919004Y-33846234D01*
X42724583Y-33199777D01*
X42407780Y-32603671D01*
X42398669Y-32590036D01*
X41987589Y-32242016D01*
X39719605Y-34510000D01*
X39733748Y-34524143D01*
X39554143Y-34703748D01*
X39540000Y-34689605D01*
X37272016Y-36957589D01*
X35242100Y-36957589D01*
X35242100Y-34501801D01*
X36096429Y-34501801D01*
X36160996Y-35173766D01*
X36355417Y-35820223D01*
X36672220Y-36416329D01*
X36681331Y-36429964D01*
X37092411Y-36777984D01*
X39360395Y-34510000D01*
X37092411Y-32242016D01*
X36681331Y-32590036D01*
X36361693Y-33184627D01*
X36164196Y-33830151D01*
X36096429Y-34501801D01*
X35242100Y-34501801D01*
X35242100Y-33443736D01*
X36623425Y-32062411D01*
X37272016Y-32062411D01*
X39540000Y-34330395D01*
X41807984Y-32062411D01*
X61672016Y-32062411D01*
X63940000Y-34330395D01*
X66207984Y-32062411D01*
X65859964Y-31651331D01*
X65265373Y-31331693D01*
X64619849Y-31134196D01*
X63948199Y-31066429D01*
X63276234Y-31130996D01*
X62629777Y-31325417D01*
X62033671Y-31642220D01*
X62020036Y-31651331D01*
X61672016Y-32062411D01*
X41807984Y-32062411D01*
X41459964Y-31651331D01*
X40865373Y-31331693D01*
X40219849Y-31134196D01*
X39548199Y-31066429D01*
X38876234Y-31130996D01*
X38229777Y-31325417D01*
X37633671Y-31642220D01*
X37620036Y-31651331D01*
X37272016Y-32062411D01*
X36623425Y-32062411D01*
X41213736Y-27472100D01*
X45528160Y-27472100D01*
X45538673Y-27477784D01*
X45588648Y-27505032D01*
X45589644Y-27505344D01*
X45590552Y-27505835D01*
X45644709Y-27522600D01*
X45646263Y-27523087D01*
X45647781Y-27531358D01*
X45700265Y-27663918D01*
X45777498Y-27783760D01*
X45876537Y-27886317D01*
X45993610Y-27967685D01*
X46124258Y-28024764D01*
X46263504Y-28055379D01*
X46406045Y-28058365D01*
X46546451Y-28033608D01*
X46679374Y-27982050D01*
X46799752Y-27905656D01*
X46902999Y-27807336D01*
X46985182Y-27690833D01*
X47043171Y-27560587D01*
X47063275Y-27472100D01*
X70060805Y-27472100D01*
X69960391Y-27570432D01*
X69879842Y-27688070D01*
X69823677Y-27819113D01*
X69794035Y-27958570D01*
X69792044Y-28101128D01*
X69817781Y-28241358D01*
X69870265Y-28373918D01*
X69947498Y-28493760D01*
X70046537Y-28596317D01*
X70163610Y-28677685D01*
X70294258Y-28734764D01*
X70433504Y-28765379D01*
X70576045Y-28768365D01*
X70716451Y-28743608D01*
X70849374Y-28692050D01*
X70969752Y-28615656D01*
X71072999Y-28517336D01*
X71155182Y-28400833D01*
X71213171Y-28270587D01*
X71238572Y-28158784D01*
X71535000Y-27862356D01*
X74571322Y-30898678D01*
X74613588Y-30933395D01*
X74655483Y-30968550D01*
X74658211Y-30970050D01*
X74660617Y-30972026D01*
X74708824Y-30997874D01*
X74756747Y-31024220D01*
X74759714Y-31025161D01*
X74762459Y-31026633D01*
X74814792Y-31042633D01*
X74866895Y-31059161D01*
X74869987Y-31059508D01*
X74872967Y-31060419D01*
X74927451Y-31065953D01*
X74981733Y-31072042D01*
X74987811Y-31072085D01*
X74987933Y-31072097D01*
X74988046Y-31072086D01*
X74990000Y-31072100D01*
X76550000Y-31072100D01*
X76604429Y-31066763D01*
X76658918Y-31061996D01*
X76661906Y-31061128D01*
X76665006Y-31060824D01*
X76717415Y-31045001D01*
X76769887Y-31029756D01*
X76772648Y-31028325D01*
X76775632Y-31027424D01*
X76823973Y-31001721D01*
X76872480Y-30976577D01*
X76874911Y-30974636D01*
X76877663Y-30973173D01*
X76920077Y-30938581D01*
X76962791Y-30904483D01*
X76967124Y-30900211D01*
X76967214Y-30900137D01*
X76967283Y-30900053D01*
X76968678Y-30898678D01*
X79190120Y-28677236D01*
X79245735Y-28683474D01*
X79263755Y-28683600D01*
X79276245Y-28683600D01*
X79526924Y-28659021D01*
X79768054Y-28586219D01*
X79990452Y-28467968D01*
X80185646Y-28308772D01*
X80346201Y-28114694D01*
X80466002Y-27893128D01*
X80540485Y-27652511D01*
X80566814Y-27402010D01*
X80543985Y-27151166D01*
X80472868Y-26909533D01*
X80356173Y-26686315D01*
X80198343Y-26490014D01*
X80005391Y-26328109D01*
X79784666Y-26206764D01*
X79544576Y-26130603D01*
X79481248Y-26123500D01*
X79526924Y-26119021D01*
X79768054Y-26046219D01*
X79990452Y-25927968D01*
X80185646Y-25768772D01*
X80346201Y-25574694D01*
X80466002Y-25353128D01*
X80540485Y-25112511D01*
X80566814Y-24862010D01*
X80543985Y-24611166D01*
X80472868Y-24369533D01*
X80356173Y-24146315D01*
X80198343Y-23950014D01*
X80005391Y-23788109D01*
X79784666Y-23666764D01*
X79544576Y-23590603D01*
X79294265Y-23562526D01*
X79276245Y-23562400D01*
X79263755Y-23562400D01*
X79013076Y-23586979D01*
X78771946Y-23659781D01*
X78549548Y-23778032D01*
X78354354Y-23937228D01*
X78193799Y-24131306D01*
X78073998Y-24352872D01*
X78020600Y-24525374D01*
X78020600Y-23947344D01*
X78004191Y-23864849D01*
X77972003Y-23787140D01*
X77925273Y-23717203D01*
X77865797Y-23657728D01*
X77795861Y-23610998D01*
X77718151Y-23578809D01*
X77635656Y-23562400D01*
X76963750Y-23562400D01*
X76857000Y-23669150D01*
X76857000Y-24726000D01*
X76877000Y-24726000D01*
X76877000Y-24980000D01*
X76857000Y-24980000D01*
X76857000Y-26036850D01*
X76963750Y-26143600D01*
X77635656Y-26143600D01*
X77718151Y-26127191D01*
X77795861Y-26095002D01*
X77865797Y-26048272D01*
X77925273Y-25988797D01*
X77972003Y-25918860D01*
X78004191Y-25841151D01*
X78020600Y-25758656D01*
X78020600Y-25178366D01*
X78067132Y-25336467D01*
X78183827Y-25559685D01*
X78341657Y-25755986D01*
X78534609Y-25917891D01*
X78755334Y-26039236D01*
X78995424Y-26115397D01*
X79058752Y-26122500D01*
X79013076Y-26126979D01*
X78771946Y-26199781D01*
X78549548Y-26318032D01*
X78354354Y-26477228D01*
X78193799Y-26671306D01*
X78073998Y-26892872D01*
X77999515Y-27133489D01*
X77985588Y-27265998D01*
X77907019Y-27265998D01*
X77978657Y-27066649D01*
X77949536Y-26970632D01*
X77843703Y-26740828D01*
X77695071Y-26536087D01*
X77509352Y-26364276D01*
X77293683Y-26231999D01*
X77056352Y-26144338D01*
X76857000Y-26215408D01*
X76857000Y-27266000D01*
X76877000Y-27266000D01*
X76877000Y-27520000D01*
X76857000Y-27520000D01*
X76857000Y-28570592D01*
X77056352Y-28641662D01*
X77258734Y-28566910D01*
X76237744Y-29587900D01*
X75295256Y-29587900D01*
X73426707Y-27719351D01*
X75481343Y-27719351D01*
X75510464Y-27815368D01*
X75616297Y-28045172D01*
X75764929Y-28249913D01*
X75950648Y-28421724D01*
X76166317Y-28554001D01*
X76403648Y-28641662D01*
X76603000Y-28570592D01*
X76603000Y-27520000D01*
X75552982Y-27520000D01*
X75481343Y-27719351D01*
X73426707Y-27719351D01*
X72774005Y-27066649D01*
X75481343Y-27066649D01*
X75552982Y-27266000D01*
X76603000Y-27266000D01*
X76603000Y-26215408D01*
X76403648Y-26144338D01*
X76166317Y-26231999D01*
X75950648Y-26364276D01*
X75764929Y-26536087D01*
X75616297Y-26740828D01*
X75510464Y-26970632D01*
X75481343Y-27066649D01*
X72774005Y-27066649D01*
X71858678Y-26151322D01*
X71816412Y-26116605D01*
X71774517Y-26081450D01*
X71771789Y-26079950D01*
X71769383Y-26077974D01*
X71721176Y-26052126D01*
X71673253Y-26025780D01*
X71670286Y-26024839D01*
X71667541Y-26023367D01*
X71615208Y-26007367D01*
X71563105Y-25990839D01*
X71560013Y-25990492D01*
X71557033Y-25989581D01*
X71502549Y-25984047D01*
X71448267Y-25977958D01*
X71442189Y-25977915D01*
X71442067Y-25977903D01*
X71441954Y-25977914D01*
X71440000Y-25977900D01*
X67110818Y-25977900D01*
X67165182Y-25900833D01*
X67223171Y-25770587D01*
X67254758Y-25631558D01*
X67257032Y-25468714D01*
X67229339Y-25328857D01*
X67175009Y-25197043D01*
X67101732Y-25086750D01*
X75439400Y-25086750D01*
X75439400Y-25758656D01*
X75455809Y-25841151D01*
X75487997Y-25918860D01*
X75534727Y-25988797D01*
X75594203Y-26048272D01*
X75664139Y-26095002D01*
X75741849Y-26127191D01*
X75824344Y-26143600D01*
X76496250Y-26143600D01*
X76603000Y-26036850D01*
X76603000Y-24980000D01*
X75546150Y-24980000D01*
X75439400Y-25086750D01*
X67101732Y-25086750D01*
X67096111Y-25078291D01*
X66995650Y-24977126D01*
X66877452Y-24897401D01*
X66746020Y-24842152D01*
X66606360Y-24813484D01*
X66598215Y-24813427D01*
X65732132Y-23947344D01*
X75439400Y-23947344D01*
X75439400Y-24619250D01*
X75546150Y-24726000D01*
X76603000Y-24726000D01*
X76603000Y-23669150D01*
X76496250Y-23562400D01*
X75824344Y-23562400D01*
X75741849Y-23578809D01*
X75664139Y-23610998D01*
X75594203Y-23657728D01*
X75534727Y-23717203D01*
X75487997Y-23787140D01*
X75455809Y-23864849D01*
X75439400Y-23947344D01*
X65732132Y-23947344D01*
X64802000Y-23017212D01*
X64802000Y-22349949D01*
X64995334Y-22456236D01*
X65235424Y-22532397D01*
X65485735Y-22560474D01*
X65503755Y-22560600D01*
X65516245Y-22560600D01*
X65766924Y-22536021D01*
X66008054Y-22463219D01*
X66230452Y-22344968D01*
X66425646Y-22185772D01*
X66586201Y-21991694D01*
X66706002Y-21770128D01*
X66780485Y-21529511D01*
X66780678Y-21527677D01*
X66847132Y-21753467D01*
X66963827Y-21976685D01*
X67121657Y-22172986D01*
X67314609Y-22334891D01*
X67535334Y-22456236D01*
X67775424Y-22532397D01*
X68025735Y-22560474D01*
X68043755Y-22560600D01*
X68056245Y-22560600D01*
X68306924Y-22536021D01*
X68548054Y-22463219D01*
X68770452Y-22344968D01*
X68965646Y-22185772D01*
X69126201Y-21991694D01*
X69246002Y-21770128D01*
X69320485Y-21529511D01*
X69320678Y-21527677D01*
X69387132Y-21753467D01*
X69503827Y-21976685D01*
X69661657Y-22172986D01*
X69854609Y-22334891D01*
X70075334Y-22456236D01*
X70315424Y-22532397D01*
X70565735Y-22560474D01*
X70583755Y-22560600D01*
X70596245Y-22560600D01*
X70846924Y-22536021D01*
X71088054Y-22463219D01*
X71310452Y-22344968D01*
X71505646Y-22185772D01*
X71666201Y-21991694D01*
X71786002Y-21770128D01*
X71860485Y-21529511D01*
X71874412Y-21397002D01*
X71952981Y-21397002D01*
X71881343Y-21596351D01*
X71910464Y-21692368D01*
X72016297Y-21922172D01*
X72164929Y-22126913D01*
X72350648Y-22298724D01*
X72566317Y-22431001D01*
X72803648Y-22518662D01*
X73003000Y-22447592D01*
X73003000Y-21397000D01*
X73257000Y-21397000D01*
X73257000Y-22447592D01*
X73456352Y-22518662D01*
X73648773Y-22447589D01*
X75732016Y-22447589D01*
X76080036Y-22858669D01*
X76674627Y-23178307D01*
X77320151Y-23375804D01*
X77991801Y-23443571D01*
X78663766Y-23379004D01*
X79310223Y-23184583D01*
X79906329Y-22867780D01*
X79919964Y-22858669D01*
X80267984Y-22447589D01*
X78000000Y-20179605D01*
X75732016Y-22447589D01*
X73648773Y-22447589D01*
X73693683Y-22431001D01*
X73909352Y-22298724D01*
X74095071Y-22126913D01*
X74243703Y-21922172D01*
X74349536Y-21692368D01*
X74378657Y-21596351D01*
X74307018Y-21397000D01*
X73257000Y-21397000D01*
X73003000Y-21397000D01*
X72983000Y-21397000D01*
X72983000Y-21143000D01*
X73003000Y-21143000D01*
X73003000Y-21123000D01*
X73257000Y-21123000D01*
X73257000Y-21143000D01*
X74307018Y-21143000D01*
X74378657Y-20943649D01*
X74349536Y-20847632D01*
X74243703Y-20617828D01*
X74095071Y-20413087D01*
X73909352Y-20241276D01*
X73693683Y-20108999D01*
X73456352Y-20021338D01*
X73257002Y-20092407D01*
X73257002Y-20008760D01*
X73386924Y-19996021D01*
X73400901Y-19991801D01*
X74556429Y-19991801D01*
X74620996Y-20663766D01*
X74815417Y-21310223D01*
X75132220Y-21906329D01*
X75141331Y-21919964D01*
X75552411Y-22267984D01*
X77820395Y-20000000D01*
X75552411Y-17732016D01*
X75141331Y-18080036D01*
X74821693Y-18674627D01*
X74624196Y-19320151D01*
X74556429Y-19991801D01*
X73400901Y-19991801D01*
X73628054Y-19923219D01*
X73850452Y-19804968D01*
X74045646Y-19645772D01*
X74206201Y-19451694D01*
X74326002Y-19230128D01*
X74400485Y-18989511D01*
X74426814Y-18739010D01*
X74403985Y-18488166D01*
X74332868Y-18246533D01*
X74216173Y-18023315D01*
X74058343Y-17827014D01*
X73865391Y-17665109D01*
X73644666Y-17543764D01*
X73404576Y-17467603D01*
X73154265Y-17439526D01*
X73136245Y-17439400D01*
X73123755Y-17439400D01*
X72873076Y-17463979D01*
X72631946Y-17536781D01*
X72409548Y-17655032D01*
X72214354Y-17814228D01*
X72053799Y-18008306D01*
X71933998Y-18229872D01*
X71859515Y-18470489D01*
X71859322Y-18472323D01*
X71792868Y-18246533D01*
X71676173Y-18023315D01*
X71518343Y-17827014D01*
X71325391Y-17665109D01*
X71104666Y-17543764D01*
X70864576Y-17467603D01*
X70614265Y-17439526D01*
X70596245Y-17439400D01*
X70583755Y-17439400D01*
X70333076Y-17463979D01*
X70091946Y-17536781D01*
X69869548Y-17655032D01*
X69674354Y-17814228D01*
X69513799Y-18008306D01*
X69393998Y-18229872D01*
X69319515Y-18470489D01*
X69319322Y-18472323D01*
X69252868Y-18246533D01*
X69136173Y-18023315D01*
X68978343Y-17827014D01*
X68785391Y-17665109D01*
X68564666Y-17543764D01*
X68324576Y-17467603D01*
X68074265Y-17439526D01*
X68056245Y-17439400D01*
X68043755Y-17439400D01*
X67793076Y-17463979D01*
X67551946Y-17536781D01*
X67329548Y-17655032D01*
X67134354Y-17814228D01*
X66973799Y-18008306D01*
X66853998Y-18229872D01*
X66779515Y-18470489D01*
X66765588Y-18602998D01*
X66687019Y-18602998D01*
X66758657Y-18403649D01*
X66729536Y-18307632D01*
X66623703Y-18077828D01*
X66475071Y-17873087D01*
X66289352Y-17701276D01*
X66073683Y-17568999D01*
X65836352Y-17481338D01*
X65637000Y-17552408D01*
X65637000Y-18603000D01*
X65657000Y-18603000D01*
X65657000Y-18857000D01*
X65637000Y-18857000D01*
X65637000Y-18877000D01*
X65383000Y-18877000D01*
X65383000Y-18857000D01*
X65363000Y-18857000D01*
X65363000Y-18603000D01*
X65383000Y-18603000D01*
X65383000Y-17552408D01*
X65183648Y-17481338D01*
X64946317Y-17568999D01*
X64730648Y-17701276D01*
X64544929Y-17873087D01*
X64396297Y-18077828D01*
X64290464Y-18307632D01*
X64261343Y-18403649D01*
X64332981Y-18602998D01*
X64254436Y-18602998D01*
X64243985Y-18488166D01*
X64172868Y-18246533D01*
X64056173Y-18023315D01*
X63898343Y-17827014D01*
X63705391Y-17665109D01*
X63484666Y-17543764D01*
X63244576Y-17467603D01*
X62994265Y-17439526D01*
X62976245Y-17439400D01*
X62963755Y-17439400D01*
X62713076Y-17463979D01*
X62471946Y-17536781D01*
X62249548Y-17655032D01*
X62054354Y-17814228D01*
X61893799Y-18008306D01*
X61773998Y-18229872D01*
X61699515Y-18470489D01*
X61685588Y-18602998D01*
X61607019Y-18602998D01*
X61678657Y-18403649D01*
X61649536Y-18307632D01*
X61543703Y-18077828D01*
X61395071Y-17873087D01*
X61209352Y-17701276D01*
X60993683Y-17568999D01*
X60756352Y-17481338D01*
X60557000Y-17552408D01*
X60557000Y-18603000D01*
X60577000Y-18603000D01*
X60577000Y-18857000D01*
X60557000Y-18857000D01*
X60557000Y-18877000D01*
X60303000Y-18877000D01*
X60303000Y-18857000D01*
X60283000Y-18857000D01*
X60283000Y-18603000D01*
X60303000Y-18603000D01*
X60303000Y-17552408D01*
X60103648Y-17481338D01*
X59866317Y-17568999D01*
X59650648Y-17701276D01*
X59464929Y-17873087D01*
X59316297Y-18077828D01*
X59210464Y-18307632D01*
X59181343Y-18403649D01*
X59252981Y-18602998D01*
X59174436Y-18602998D01*
X59163985Y-18488166D01*
X59092868Y-18246533D01*
X58976173Y-18023315D01*
X58818343Y-17827014D01*
X58625391Y-17665109D01*
X58404666Y-17543764D01*
X58164576Y-17467603D01*
X57914265Y-17439526D01*
X57896245Y-17439400D01*
X57883755Y-17439400D01*
X57633076Y-17463979D01*
X57391946Y-17536781D01*
X57169548Y-17655032D01*
X56974354Y-17814228D01*
X56813799Y-18008306D01*
X56693998Y-18229872D01*
X56619515Y-18470489D01*
X56619322Y-18472323D01*
X56552868Y-18246533D01*
X56436173Y-18023315D01*
X56278343Y-17827014D01*
X56085391Y-17665109D01*
X55864666Y-17543764D01*
X55624576Y-17467603D01*
X55374265Y-17439526D01*
X55356245Y-17439400D01*
X55343755Y-17439400D01*
X55093076Y-17463979D01*
X54851946Y-17536781D01*
X54629548Y-17655032D01*
X54434354Y-17814228D01*
X54273799Y-18008306D01*
X54153998Y-18229872D01*
X54079515Y-18470489D01*
X54079322Y-18472323D01*
X54012868Y-18246533D01*
X53896173Y-18023315D01*
X53738343Y-17827014D01*
X53545391Y-17665109D01*
X53324666Y-17543764D01*
X53084576Y-17467603D01*
X52834265Y-17439526D01*
X52816245Y-17439400D01*
X52803755Y-17439400D01*
X52553076Y-17463979D01*
X52311946Y-17536781D01*
X52089548Y-17655032D01*
X51894354Y-17814228D01*
X51733799Y-18008306D01*
X51613998Y-18229872D01*
X51539515Y-18470489D01*
X51539322Y-18472323D01*
X51472868Y-18246533D01*
X51356173Y-18023315D01*
X51198343Y-17827014D01*
X51005391Y-17665109D01*
X50784666Y-17543764D01*
X50544576Y-17467603D01*
X50294265Y-17439526D01*
X50276245Y-17439400D01*
X50263755Y-17439400D01*
X50013076Y-17463979D01*
X49771946Y-17536781D01*
X49549548Y-17655032D01*
X49354354Y-17814228D01*
X49193799Y-18008306D01*
X49073998Y-18229872D01*
X48999515Y-18470489D01*
X48985588Y-18602998D01*
X48907019Y-18602998D01*
X48978657Y-18403649D01*
X48949536Y-18307632D01*
X48843703Y-18077828D01*
X48695071Y-17873087D01*
X48509352Y-17701276D01*
X48293683Y-17568999D01*
X48056352Y-17481338D01*
X47857000Y-17552408D01*
X47857000Y-18603000D01*
X47877000Y-18603000D01*
X47877000Y-18857000D01*
X47857000Y-18857000D01*
X47857000Y-18877000D01*
X47603000Y-18877000D01*
X47603000Y-18857000D01*
X47583000Y-18857000D01*
X47583000Y-18603000D01*
X47603000Y-18603000D01*
X47603000Y-17552408D01*
X47403648Y-17481338D01*
X47166317Y-17568999D01*
X46950648Y-17701276D01*
X46764929Y-17873087D01*
X46616297Y-18077828D01*
X46510464Y-18307632D01*
X46481343Y-18403649D01*
X46552981Y-18602998D01*
X46474436Y-18602998D01*
X46463985Y-18488166D01*
X46392868Y-18246533D01*
X46276173Y-18023315D01*
X46118343Y-17827014D01*
X45925391Y-17665109D01*
X45704666Y-17543764D01*
X45464576Y-17467603D01*
X45214265Y-17439526D01*
X45196245Y-17439400D01*
X45183755Y-17439400D01*
X44933076Y-17463979D01*
X44691946Y-17536781D01*
X44469548Y-17655032D01*
X44274354Y-17814228D01*
X44113799Y-18008306D01*
X43993998Y-18229872D01*
X43919515Y-18470489D01*
X43919322Y-18472323D01*
X43852868Y-18246533D01*
X43736173Y-18023315D01*
X43578343Y-17827014D01*
X43385391Y-17665109D01*
X43164666Y-17543764D01*
X42924576Y-17467603D01*
X42674265Y-17439526D01*
X42656245Y-17439400D01*
X42643755Y-17439400D01*
X42393076Y-17463979D01*
X42151946Y-17536781D01*
X41929548Y-17655032D01*
X41734354Y-17814228D01*
X41573799Y-18008306D01*
X41453998Y-18229872D01*
X41379515Y-18470489D01*
X41365588Y-18602998D01*
X41287019Y-18602998D01*
X41358657Y-18403649D01*
X41329536Y-18307632D01*
X41223703Y-18077828D01*
X41075071Y-17873087D01*
X40889352Y-17701276D01*
X40673683Y-17568999D01*
X40436352Y-17481338D01*
X40237000Y-17552408D01*
X40237000Y-18603000D01*
X40257000Y-18603000D01*
X40257000Y-18857000D01*
X40237000Y-18857000D01*
X40237000Y-18877000D01*
X39983000Y-18877000D01*
X39983000Y-18857000D01*
X39963000Y-18857000D01*
X39963000Y-18603000D01*
X39983000Y-18603000D01*
X39983000Y-17552408D01*
X39783648Y-17481338D01*
X39546317Y-17568999D01*
X39330648Y-17701276D01*
X39144929Y-17873087D01*
X38996297Y-18077828D01*
X38890464Y-18307632D01*
X38861343Y-18403649D01*
X38932981Y-18602998D01*
X38854436Y-18602998D01*
X38843985Y-18488166D01*
X38772868Y-18246533D01*
X38656173Y-18023315D01*
X38498343Y-17827014D01*
X38305391Y-17665109D01*
X38084666Y-17543764D01*
X37844576Y-17467603D01*
X37594265Y-17439526D01*
X37576245Y-17439400D01*
X37563755Y-17439400D01*
X37313076Y-17463979D01*
X37071946Y-17536781D01*
X36849548Y-17655032D01*
X36654354Y-17814228D01*
X36493799Y-18008306D01*
X36373998Y-18229872D01*
X36299515Y-18470489D01*
X36299322Y-18472323D01*
X36232868Y-18246533D01*
X36116173Y-18023315D01*
X35958343Y-17827014D01*
X35765391Y-17665109D01*
X35544666Y-17543764D01*
X35304576Y-17467603D01*
X35054265Y-17439526D01*
X35036245Y-17439400D01*
X35023755Y-17439400D01*
X34773076Y-17463979D01*
X34531946Y-17536781D01*
X34309548Y-17655032D01*
X34114354Y-17814228D01*
X33953799Y-18008306D01*
X33833998Y-18229872D01*
X33759515Y-18470489D01*
X33759322Y-18472323D01*
X33692868Y-18246533D01*
X33576173Y-18023315D01*
X33418343Y-17827014D01*
X33225391Y-17665109D01*
X33004666Y-17543764D01*
X32764576Y-17467603D01*
X32514265Y-17439526D01*
X32496245Y-17439400D01*
X32483755Y-17439400D01*
X32233076Y-17463979D01*
X31991946Y-17536781D01*
X31769548Y-17655032D01*
X31574354Y-17814228D01*
X31413799Y-18008306D01*
X31293998Y-18229872D01*
X31219515Y-18470489D01*
X31205588Y-18602998D01*
X31127019Y-18602998D01*
X31198657Y-18403649D01*
X31169536Y-18307632D01*
X31063703Y-18077828D01*
X30915071Y-17873087D01*
X30729352Y-17701276D01*
X30513683Y-17568999D01*
X30276352Y-17481338D01*
X30077000Y-17552408D01*
X30077000Y-18603000D01*
X30097000Y-18603000D01*
X30097000Y-18857000D01*
X30077000Y-18857000D01*
X30077000Y-18877000D01*
X29823000Y-18877000D01*
X29823000Y-18857000D01*
X29803000Y-18857000D01*
X29803000Y-18603000D01*
X29823000Y-18603000D01*
X29823000Y-17552408D01*
X29623648Y-17481338D01*
X29386317Y-17568999D01*
X29170648Y-17701276D01*
X28984929Y-17873087D01*
X28836297Y-18077828D01*
X28730464Y-18307632D01*
X28701343Y-18403649D01*
X28772981Y-18602998D01*
X28694436Y-18602998D01*
X28683985Y-18488166D01*
X28612868Y-18246533D01*
X28496173Y-18023315D01*
X28338343Y-17827014D01*
X28145391Y-17665109D01*
X27924666Y-17543764D01*
X27684576Y-17467603D01*
X27434265Y-17439526D01*
X27416245Y-17439400D01*
X27403755Y-17439400D01*
X27153076Y-17463979D01*
X26911946Y-17536781D01*
X26689548Y-17655032D01*
X26494354Y-17814228D01*
X26333799Y-18008306D01*
X26213998Y-18229872D01*
X26139515Y-18470489D01*
X26139322Y-18472323D01*
X26072868Y-18246533D01*
X25956173Y-18023315D01*
X25798343Y-17827014D01*
X25605391Y-17665109D01*
X25384666Y-17543764D01*
X25144576Y-17467603D01*
X24894265Y-17439526D01*
X24876245Y-17439400D01*
X24863755Y-17439400D01*
X24613076Y-17463979D01*
X24371946Y-17536781D01*
X24149548Y-17655032D01*
X23954354Y-17814228D01*
X23793799Y-18008306D01*
X23673998Y-18229872D01*
X23599515Y-18470489D01*
X23573186Y-18720990D01*
X23596015Y-18971834D01*
X23640310Y-19122334D01*
X23383160Y-19379484D01*
X23379004Y-19336234D01*
X23184583Y-18689777D01*
X22867780Y-18093671D01*
X22858669Y-18080036D01*
X22447589Y-17732016D01*
X20179605Y-20000000D01*
X22447589Y-22267984D01*
X22858669Y-21919964D01*
X22957900Y-21735374D01*
X22957900Y-24500000D01*
X22963237Y-24554429D01*
X22968004Y-24608918D01*
X22968872Y-24611906D01*
X22969176Y-24615006D01*
X22984999Y-24667415D01*
X23000244Y-24719887D01*
X23001675Y-24722648D01*
X23002576Y-24725632D01*
X23028279Y-24773973D01*
X23053423Y-24822480D01*
X23055364Y-24824911D01*
X23056827Y-24827663D01*
X23091419Y-24870077D01*
X23125517Y-24912791D01*
X23129789Y-24917124D01*
X23129863Y-24917214D01*
X23129947Y-24917283D01*
X23131322Y-24918678D01*
X24762895Y-26550251D01*
X24777781Y-26631358D01*
X24830265Y-26763918D01*
X24907498Y-26883760D01*
X25006537Y-26986317D01*
X25123610Y-27067685D01*
X25254258Y-27124764D01*
X25393504Y-27155379D01*
X25536045Y-27158365D01*
X25676451Y-27133608D01*
X25809374Y-27082050D01*
X25929752Y-27005656D01*
X26032999Y-26907336D01*
X26115182Y-26790833D01*
X26173171Y-26660587D01*
X26204758Y-26521558D01*
X26207032Y-26358714D01*
X26179339Y-26218857D01*
X26125009Y-26087043D01*
X26046111Y-25968291D01*
X25945650Y-25867126D01*
X25827452Y-25787401D01*
X25696020Y-25732152D01*
X25599746Y-25712390D01*
X24142100Y-24254744D01*
X24142100Y-22562666D01*
X25733600Y-22562666D01*
X25790753Y-22558109D01*
X27117900Y-23885256D01*
X27117900Y-26097884D01*
X27069842Y-26168070D01*
X27013677Y-26299113D01*
X26984035Y-26438570D01*
X26982044Y-26581128D01*
X27007781Y-26721358D01*
X27060265Y-26853918D01*
X27137498Y-26973760D01*
X27236537Y-27076317D01*
X27353610Y-27157685D01*
X27484258Y-27214764D01*
X27623504Y-27245379D01*
X27766045Y-27248365D01*
X27906451Y-27223608D01*
X28039374Y-27172050D01*
X28159752Y-27095656D01*
X28262999Y-26997336D01*
X28345182Y-26880833D01*
X28403171Y-26750587D01*
X28434758Y-26611558D01*
X28437032Y-26448714D01*
X28409339Y-26308857D01*
X28355009Y-26177043D01*
X28302100Y-26097408D01*
X28302100Y-25901738D01*
X36432311Y-25901738D01*
X36432311Y-26052706D01*
X37170000Y-26790395D01*
X37907689Y-26052706D01*
X37907689Y-25901738D01*
X37442197Y-25436246D01*
X37372261Y-25389516D01*
X37294550Y-25357328D01*
X37212055Y-25340919D01*
X37127944Y-25340918D01*
X37045448Y-25357328D01*
X36967739Y-25389516D01*
X36897803Y-25436246D01*
X36432311Y-25901738D01*
X28302100Y-25901738D01*
X28302100Y-23640000D01*
X28296759Y-23585526D01*
X28291996Y-23531082D01*
X28291128Y-23528094D01*
X28290824Y-23524994D01*
X28275001Y-23472585D01*
X28259756Y-23420113D01*
X28258325Y-23417352D01*
X28257424Y-23414368D01*
X28231721Y-23366027D01*
X28206577Y-23317520D01*
X28204636Y-23315089D01*
X28203173Y-23312337D01*
X28168556Y-23269892D01*
X28134482Y-23227209D01*
X28130212Y-23222878D01*
X28130137Y-23222786D01*
X28130052Y-23222716D01*
X28128678Y-23221322D01*
X27463338Y-22555982D01*
X27666924Y-22536021D01*
X27908054Y-22463219D01*
X28130452Y-22344968D01*
X28325646Y-22185772D01*
X28486201Y-21991694D01*
X28606002Y-21770128D01*
X28680485Y-21529511D01*
X28680678Y-21527677D01*
X28747132Y-21753467D01*
X28863827Y-21976685D01*
X29021657Y-22172986D01*
X29214609Y-22334891D01*
X29435334Y-22456236D01*
X29675424Y-22532397D01*
X29925735Y-22560474D01*
X29943755Y-22560600D01*
X29956245Y-22560600D01*
X30206924Y-22536021D01*
X30448054Y-22463219D01*
X30670452Y-22344968D01*
X30865646Y-22185772D01*
X31026201Y-21991694D01*
X31146002Y-21770128D01*
X31220485Y-21529511D01*
X31220678Y-21527677D01*
X31287132Y-21753467D01*
X31403827Y-21976685D01*
X31561657Y-22172986D01*
X31754609Y-22334891D01*
X31975334Y-22456236D01*
X32215424Y-22532397D01*
X32465735Y-22560474D01*
X32483755Y-22560600D01*
X32496245Y-22560600D01*
X32746924Y-22536021D01*
X32988054Y-22463219D01*
X33210452Y-22344968D01*
X33405646Y-22185772D01*
X33566201Y-21991694D01*
X33686002Y-21770128D01*
X33760485Y-21529511D01*
X33774412Y-21397002D01*
X33852981Y-21397002D01*
X33781343Y-21596351D01*
X33810464Y-21692368D01*
X33916297Y-21922172D01*
X34064929Y-22126913D01*
X34250648Y-22298724D01*
X34466317Y-22431001D01*
X34703648Y-22518662D01*
X34903000Y-22447592D01*
X34903000Y-21397000D01*
X34883000Y-21397000D01*
X34883000Y-21143000D01*
X34903000Y-21143000D01*
X34903000Y-21123000D01*
X35157000Y-21123000D01*
X35157000Y-21143000D01*
X35177000Y-21143000D01*
X35177000Y-21397000D01*
X35157000Y-21397000D01*
X35157000Y-22447592D01*
X35356352Y-22518662D01*
X35593683Y-22431001D01*
X35809352Y-22298724D01*
X35995071Y-22126913D01*
X36143703Y-21922172D01*
X36249536Y-21692368D01*
X36278657Y-21596351D01*
X36207019Y-21397002D01*
X36285564Y-21397002D01*
X36296015Y-21511834D01*
X36367132Y-21753467D01*
X36483827Y-21976685D01*
X36641657Y-22172986D01*
X36834609Y-22334891D01*
X37055334Y-22456236D01*
X37295424Y-22532397D01*
X37545735Y-22560474D01*
X37563755Y-22560600D01*
X37576245Y-22560600D01*
X37826924Y-22536021D01*
X38068054Y-22463219D01*
X38290452Y-22344968D01*
X38485646Y-22185772D01*
X38646201Y-21991694D01*
X38766002Y-21770128D01*
X38840485Y-21529511D01*
X38840678Y-21527677D01*
X38907132Y-21753467D01*
X39023827Y-21976685D01*
X39181657Y-22172986D01*
X39374609Y-22334891D01*
X39595334Y-22456236D01*
X39835424Y-22532397D01*
X40085735Y-22560474D01*
X40103755Y-22560600D01*
X40116245Y-22560600D01*
X40366924Y-22536021D01*
X40608054Y-22463219D01*
X40830452Y-22344968D01*
X41025646Y-22185772D01*
X41186201Y-21991694D01*
X41306002Y-21770128D01*
X41380485Y-21529511D01*
X41380678Y-21527677D01*
X41447132Y-21753467D01*
X41563827Y-21976685D01*
X41721657Y-22172986D01*
X41914609Y-22334891D01*
X42135334Y-22456236D01*
X42375424Y-22532397D01*
X42625735Y-22560474D01*
X42643755Y-22560600D01*
X42656245Y-22560600D01*
X42906924Y-22536021D01*
X43148054Y-22463219D01*
X43370452Y-22344968D01*
X43565646Y-22185772D01*
X43726201Y-21991694D01*
X43846002Y-21770128D01*
X43920485Y-21529511D01*
X43920678Y-21527677D01*
X43987132Y-21753467D01*
X44103827Y-21976685D01*
X44261657Y-22172986D01*
X44454609Y-22334891D01*
X44675334Y-22456236D01*
X44915424Y-22532397D01*
X45165735Y-22560474D01*
X45183755Y-22560600D01*
X45196245Y-22560600D01*
X45446924Y-22536021D01*
X45688054Y-22463219D01*
X45910452Y-22344968D01*
X46105646Y-22185772D01*
X46266201Y-21991694D01*
X46386002Y-21770128D01*
X46460485Y-21529511D01*
X46460678Y-21527677D01*
X46527132Y-21753467D01*
X46643827Y-21976685D01*
X46801657Y-22172986D01*
X46994609Y-22334891D01*
X47215334Y-22456236D01*
X47455424Y-22532397D01*
X47705735Y-22560474D01*
X47723755Y-22560600D01*
X47736245Y-22560600D01*
X47986924Y-22536021D01*
X48228054Y-22463219D01*
X48450452Y-22344968D01*
X48645646Y-22185772D01*
X48806201Y-21991694D01*
X48926002Y-21770128D01*
X49000485Y-21529511D01*
X49000678Y-21527677D01*
X49067132Y-21753467D01*
X49183827Y-21976685D01*
X49341657Y-22172986D01*
X49534609Y-22334891D01*
X49755334Y-22456236D01*
X49995424Y-22532397D01*
X50245735Y-22560474D01*
X50263755Y-22560600D01*
X50276245Y-22560600D01*
X50526924Y-22536021D01*
X50768054Y-22463219D01*
X50990452Y-22344968D01*
X51185646Y-22185772D01*
X51346201Y-21991694D01*
X51466002Y-21770128D01*
X51540485Y-21529511D01*
X51540678Y-21527677D01*
X51607132Y-21753467D01*
X51723827Y-21976685D01*
X51881657Y-22172986D01*
X52074609Y-22334891D01*
X52295334Y-22456236D01*
X52535424Y-22532397D01*
X52785735Y-22560474D01*
X52803755Y-22560600D01*
X52816245Y-22560600D01*
X53066924Y-22536021D01*
X53308054Y-22463219D01*
X53530452Y-22344968D01*
X53725646Y-22185772D01*
X53886201Y-21991694D01*
X54006002Y-21770128D01*
X54080485Y-21529511D01*
X54094412Y-21397002D01*
X54172981Y-21397002D01*
X54101343Y-21596351D01*
X54130464Y-21692368D01*
X54236297Y-21922172D01*
X54384929Y-22126913D01*
X54570648Y-22298724D01*
X54786317Y-22431001D01*
X55023648Y-22518662D01*
X55223000Y-22447592D01*
X55223000Y-21397000D01*
X55203000Y-21397000D01*
X55203000Y-21143000D01*
X55223000Y-21143000D01*
X55223000Y-21123000D01*
X55477000Y-21123000D01*
X55477000Y-21143000D01*
X55497000Y-21143000D01*
X55497000Y-21397000D01*
X55477000Y-21397000D01*
X55477000Y-22447592D01*
X55676352Y-22518662D01*
X55913683Y-22431001D01*
X56129352Y-22298724D01*
X56315071Y-22126913D01*
X56463703Y-21922172D01*
X56569536Y-21692368D01*
X56598657Y-21596351D01*
X56527019Y-21397002D01*
X56605564Y-21397002D01*
X56616015Y-21511834D01*
X56687132Y-21753467D01*
X56803827Y-21976685D01*
X56961657Y-22172986D01*
X57154609Y-22334891D01*
X57375334Y-22456236D01*
X57615424Y-22532397D01*
X57865735Y-22560474D01*
X57883755Y-22560600D01*
X57896245Y-22560600D01*
X58146924Y-22536021D01*
X58388054Y-22463219D01*
X58610452Y-22344968D01*
X58805646Y-22185772D01*
X58966201Y-21991694D01*
X59086002Y-21770128D01*
X59160485Y-21529511D01*
X59160678Y-21527677D01*
X59227132Y-21753467D01*
X59343827Y-21976685D01*
X59501657Y-22172986D01*
X59694609Y-22334891D01*
X59915334Y-22456236D01*
X60155424Y-22532397D01*
X60405735Y-22560474D01*
X60423755Y-22560600D01*
X60436245Y-22560600D01*
X60686924Y-22536021D01*
X60928054Y-22463219D01*
X61150452Y-22344968D01*
X61345646Y-22185772D01*
X61506201Y-21991694D01*
X61626002Y-21770128D01*
X61700485Y-21529511D01*
X61700678Y-21527677D01*
X61767132Y-21753467D01*
X61883827Y-21976685D01*
X62041657Y-22172986D01*
X62234609Y-22334891D01*
X62455334Y-22456236D01*
X62695424Y-22532397D01*
X62945735Y-22560474D01*
X62963755Y-22560600D01*
X62976245Y-22560600D01*
X63226924Y-22536021D01*
X63468054Y-22463219D01*
X63678000Y-22351589D01*
X63678000Y-23250000D01*
X63683066Y-23301670D01*
X63687591Y-23353381D01*
X63688414Y-23356215D01*
X63688703Y-23359160D01*
X63703721Y-23408903D01*
X63718191Y-23458709D01*
X63719550Y-23461332D01*
X63720405Y-23464162D01*
X63744785Y-23510014D01*
X63768667Y-23556087D01*
X63770510Y-23558396D01*
X63771898Y-23561006D01*
X63804721Y-23601251D01*
X63837096Y-23641806D01*
X63841152Y-23645920D01*
X63841221Y-23646004D01*
X63841299Y-23646069D01*
X63842606Y-23647394D01*
X65803326Y-25608114D01*
X65827781Y-25741358D01*
X65880265Y-25873918D01*
X65947277Y-25977900D01*
X40924150Y-25977900D01*
X40869767Y-25983232D01*
X40815233Y-25988003D01*
X40812241Y-25988872D01*
X40809144Y-25989176D01*
X40756811Y-26004976D01*
X40704263Y-26020243D01*
X40701498Y-26021676D01*
X40698518Y-26022576D01*
X40650213Y-26048260D01*
X40601670Y-26073423D01*
X40599239Y-26075364D01*
X40596487Y-26076827D01*
X40554073Y-26111419D01*
X40511359Y-26145517D01*
X40507026Y-26149789D01*
X40506936Y-26149863D01*
X40506867Y-26149947D01*
X40505472Y-26151322D01*
X33971322Y-32685472D01*
X33936605Y-32727738D01*
X33901450Y-32769633D01*
X33899950Y-32772361D01*
X33897974Y-32774767D01*
X33872126Y-32822974D01*
X33845780Y-32870897D01*
X33844839Y-32873864D01*
X33843367Y-32876609D01*
X33827367Y-32928942D01*
X33810839Y-32981045D01*
X33810492Y-32984137D01*
X33809581Y-32987117D01*
X33804047Y-33041601D01*
X33797958Y-33095883D01*
X33797915Y-33101961D01*
X33797903Y-33102083D01*
X33797914Y-33102196D01*
X33797900Y-33104150D01*
X33797900Y-66650544D01*
X32298678Y-65151322D01*
X32256412Y-65116605D01*
X32214517Y-65081450D01*
X32211789Y-65079950D01*
X32209383Y-65077974D01*
X32161176Y-65052126D01*
X32113253Y-65025780D01*
X32110286Y-65024839D01*
X32107541Y-65023367D01*
X32055208Y-65007367D01*
X32003105Y-64990839D01*
X32000013Y-64990492D01*
X31997033Y-64989581D01*
X31942549Y-64984047D01*
X31888267Y-64977958D01*
X31882189Y-64977915D01*
X31882067Y-64977903D01*
X31881954Y-64977914D01*
X31880000Y-64977900D01*
X22235256Y-64977900D01*
X19515606Y-62258250D01*
X20884000Y-62258250D01*
X20884000Y-62654056D01*
X20900409Y-62736551D01*
X20932598Y-62814261D01*
X20979328Y-62884197D01*
X21038803Y-62943673D01*
X21108740Y-62990403D01*
X21186449Y-63022591D01*
X21268944Y-63039000D01*
X22327250Y-63039000D01*
X22434000Y-62932250D01*
X22434000Y-62151500D01*
X22688000Y-62151500D01*
X22688000Y-62932250D01*
X22794750Y-63039000D01*
X24327250Y-63039000D01*
X24434000Y-62932250D01*
X24434000Y-62151500D01*
X24688000Y-62151500D01*
X24688000Y-62932250D01*
X24794750Y-63039000D01*
X25853056Y-63039000D01*
X25935551Y-63022591D01*
X26013260Y-62990403D01*
X26083197Y-62943673D01*
X26142672Y-62884197D01*
X26189402Y-62814261D01*
X26221591Y-62736551D01*
X26238000Y-62654056D01*
X26238000Y-62258250D01*
X26131250Y-62151500D01*
X24688000Y-62151500D01*
X24434000Y-62151500D01*
X22688000Y-62151500D01*
X22434000Y-62151500D01*
X20990750Y-62151500D01*
X20884000Y-62258250D01*
X19515606Y-62258250D01*
X18629935Y-61372579D01*
X18723610Y-61437685D01*
X18854258Y-61494764D01*
X18993504Y-61525379D01*
X19136045Y-61528365D01*
X19276451Y-61503608D01*
X19409374Y-61452050D01*
X19529752Y-61375656D01*
X19632999Y-61277336D01*
X19715182Y-61160833D01*
X19749724Y-61083250D01*
X20884000Y-61083250D01*
X20884000Y-61790750D01*
X20990750Y-61897500D01*
X22434000Y-61897500D01*
X22434000Y-60976500D01*
X22688000Y-60976500D01*
X22688000Y-61897500D01*
X24434000Y-61897500D01*
X24434000Y-60976500D01*
X24688000Y-60976500D01*
X24688000Y-61897500D01*
X26131250Y-61897500D01*
X26238000Y-61790750D01*
X26238000Y-61083250D01*
X26131250Y-60976500D01*
X24688000Y-60976500D01*
X24434000Y-60976500D01*
X22688000Y-60976500D01*
X22434000Y-60976500D01*
X20990750Y-60976500D01*
X20884000Y-61083250D01*
X19749724Y-61083250D01*
X19773171Y-61030587D01*
X19804758Y-60891558D01*
X19805063Y-60869725D01*
X20454844Y-60219944D01*
X20884000Y-60219944D01*
X20884000Y-60615750D01*
X20990750Y-60722500D01*
X22434000Y-60722500D01*
X22434000Y-59941750D01*
X22688000Y-59941750D01*
X22688000Y-60722500D01*
X24434000Y-60722500D01*
X24434000Y-59941750D01*
X24688000Y-59941750D01*
X24688000Y-60722500D01*
X26131250Y-60722500D01*
X26238000Y-60615750D01*
X26238000Y-60219944D01*
X26221591Y-60137449D01*
X26189402Y-60059739D01*
X26142672Y-59989803D01*
X26083197Y-59930327D01*
X26013260Y-59883597D01*
X25935551Y-59851409D01*
X25853056Y-59835000D01*
X24794750Y-59835000D01*
X24688000Y-59941750D01*
X24434000Y-59941750D01*
X24327250Y-59835000D01*
X22794750Y-59835000D01*
X22688000Y-59941750D01*
X22434000Y-59941750D01*
X22327250Y-59835000D01*
X21268944Y-59835000D01*
X21186449Y-59851409D01*
X21108740Y-59883597D01*
X21038803Y-59930327D01*
X20979328Y-59989803D01*
X20932598Y-60059739D01*
X20900409Y-60137449D01*
X20884000Y-60219944D01*
X20454844Y-60219944D01*
X23337394Y-57337394D01*
X23370329Y-57297298D01*
X23403714Y-57257511D01*
X23405138Y-57254921D01*
X23407013Y-57252638D01*
X23431541Y-57206894D01*
X23456554Y-57161395D01*
X23457447Y-57158579D01*
X23458844Y-57155974D01*
X23474020Y-57106334D01*
X23489719Y-57056846D01*
X23490049Y-57053908D01*
X23490912Y-57051084D01*
X23496155Y-56999469D01*
X23501945Y-56947847D01*
X23501986Y-56942065D01*
X23501996Y-56941962D01*
X23501987Y-56941866D01*
X23502000Y-56940000D01*
X23502000Y-56834576D01*
X23575182Y-56730833D01*
X23633171Y-56600587D01*
X23664758Y-56461558D01*
X23667032Y-56298714D01*
X23639339Y-56158857D01*
X23585009Y-56027043D01*
X23506111Y-55908291D01*
X23405650Y-55807126D01*
X23287452Y-55727401D01*
X23156020Y-55672152D01*
X23016360Y-55643484D01*
X22873791Y-55642489D01*
X22733744Y-55669204D01*
X22601554Y-55722612D01*
X22482255Y-55800680D01*
X22380391Y-55900432D01*
X22299842Y-56018070D01*
X22243677Y-56149113D01*
X22214035Y-56288570D01*
X22212044Y-56431128D01*
X22237781Y-56571358D01*
X22290265Y-56703918D01*
X22325939Y-56759273D01*
X21945457Y-57139755D01*
X21939339Y-57108857D01*
X21885009Y-56977043D01*
X21806111Y-56858291D01*
X21705650Y-56757126D01*
X21587452Y-56677401D01*
X21456020Y-56622152D01*
X21316360Y-56593484D01*
X21173791Y-56592489D01*
X21033744Y-56619204D01*
X20901554Y-56672612D01*
X20817066Y-56727900D01*
X19400000Y-56727900D01*
X19345526Y-56733241D01*
X19291082Y-56738004D01*
X19288094Y-56738872D01*
X19284994Y-56739176D01*
X19232585Y-56754999D01*
X19180113Y-56770244D01*
X19177352Y-56771675D01*
X19174368Y-56772576D01*
X19126027Y-56798279D01*
X19077520Y-56823423D01*
X19075089Y-56825364D01*
X19072337Y-56826827D01*
X19029892Y-56861444D01*
X18987209Y-56895518D01*
X18982878Y-56899788D01*
X18982786Y-56899863D01*
X18982716Y-56899948D01*
X18981322Y-56901322D01*
X17271322Y-58611322D01*
X17236605Y-58653588D01*
X17201450Y-58695483D01*
X17199950Y-58698211D01*
X17197974Y-58700617D01*
X17172126Y-58748824D01*
X17145780Y-58796747D01*
X17144839Y-58799714D01*
X17143367Y-58802459D01*
X17127367Y-58854792D01*
X17110839Y-58906895D01*
X17110492Y-58909987D01*
X17109581Y-58912967D01*
X17104047Y-58967451D01*
X17097958Y-59021733D01*
X17097915Y-59027811D01*
X17097903Y-59027933D01*
X17097914Y-59028046D01*
X17097900Y-59030000D01*
X17002000Y-59030000D01*
X17002000Y-43909974D01*
X18729437Y-43909974D01*
X18771530Y-44139319D01*
X18857367Y-44356119D01*
X18983680Y-44552118D01*
X19145657Y-44719850D01*
X19337128Y-44852926D01*
X19550801Y-44946278D01*
X19778537Y-44996349D01*
X20001936Y-45001028D01*
X19999437Y-45179974D01*
X20041530Y-45409319D01*
X20127367Y-45626119D01*
X20253680Y-45822118D01*
X20415657Y-45989850D01*
X20607128Y-46122926D01*
X20820801Y-46216278D01*
X21048537Y-46266349D01*
X21281660Y-46271232D01*
X21511293Y-46230741D01*
X21728687Y-46146420D01*
X21925563Y-46021478D01*
X22094422Y-45860676D01*
X22228832Y-45670139D01*
X22323672Y-45457123D01*
X22375332Y-45229742D01*
X22378574Y-44997607D01*
X22541936Y-45001028D01*
X22539437Y-45179974D01*
X22581530Y-45409319D01*
X22667367Y-45626119D01*
X22793680Y-45822118D01*
X22955657Y-45989850D01*
X23147128Y-46122926D01*
X23360801Y-46216278D01*
X23588537Y-46266349D01*
X23821660Y-46271232D01*
X24051293Y-46230741D01*
X24268687Y-46146420D01*
X24465563Y-46021478D01*
X24634422Y-45860676D01*
X24768832Y-45670139D01*
X24863672Y-45457123D01*
X24915332Y-45229742D01*
X24918574Y-44997607D01*
X25081936Y-45001028D01*
X25079437Y-45179974D01*
X25121530Y-45409319D01*
X25207367Y-45626119D01*
X25333680Y-45822118D01*
X25495657Y-45989850D01*
X25687128Y-46122926D01*
X25900801Y-46216278D01*
X26128537Y-46266349D01*
X26361660Y-46271232D01*
X26591293Y-46230741D01*
X26808687Y-46146420D01*
X27005563Y-46021478D01*
X27174422Y-45860676D01*
X27308832Y-45670139D01*
X27403672Y-45457123D01*
X27455332Y-45229742D01*
X27458574Y-44997607D01*
X27621936Y-45001028D01*
X27619437Y-45179974D01*
X27661530Y-45409319D01*
X27747367Y-45626119D01*
X27873680Y-45822118D01*
X28035657Y-45989850D01*
X28227128Y-46122926D01*
X28440801Y-46216278D01*
X28668537Y-46266349D01*
X28901660Y-46271232D01*
X29131293Y-46230741D01*
X29348687Y-46146420D01*
X29545563Y-46021478D01*
X29714422Y-45860676D01*
X29848832Y-45670139D01*
X29943672Y-45457123D01*
X29995332Y-45229742D01*
X29999051Y-44963413D01*
X29953760Y-44734678D01*
X29864904Y-44519097D01*
X29735867Y-44324881D01*
X29571564Y-44159427D01*
X29378253Y-44029037D01*
X29163298Y-43938678D01*
X28934886Y-43891792D01*
X28726301Y-43890336D01*
X28729051Y-43693413D01*
X28683760Y-43464678D01*
X28594904Y-43249097D01*
X28465867Y-43054881D01*
X28301564Y-42889427D01*
X28108253Y-42759037D01*
X27893298Y-42668678D01*
X27664886Y-42621792D01*
X27431716Y-42620164D01*
X27202672Y-42663857D01*
X26986476Y-42751206D01*
X26791363Y-42878884D01*
X26624766Y-43042028D01*
X26493030Y-43234423D01*
X26401173Y-43448743D01*
X26352693Y-43676822D01*
X26349695Y-43891476D01*
X26186301Y-43890336D01*
X26189051Y-43693413D01*
X26143760Y-43464678D01*
X26054904Y-43249097D01*
X25925867Y-43054881D01*
X25761564Y-42889427D01*
X25568253Y-42759037D01*
X25353298Y-42668678D01*
X25124886Y-42621792D01*
X24891716Y-42620164D01*
X24662672Y-42663857D01*
X24446476Y-42751206D01*
X24251363Y-42878884D01*
X24084766Y-43042028D01*
X23953030Y-43234423D01*
X23861173Y-43448743D01*
X23812693Y-43676822D01*
X23809695Y-43891476D01*
X23646301Y-43890336D01*
X23649051Y-43693413D01*
X23603760Y-43464678D01*
X23514904Y-43249097D01*
X23385867Y-43054881D01*
X23221564Y-42889427D01*
X23028253Y-42759037D01*
X22813298Y-42668678D01*
X22584886Y-42621792D01*
X22351716Y-42620164D01*
X22122672Y-42663857D01*
X21906476Y-42751206D01*
X21711363Y-42878884D01*
X21544766Y-43042028D01*
X21413030Y-43234423D01*
X21321173Y-43448743D01*
X21272693Y-43676822D01*
X21269695Y-43891476D01*
X21106301Y-43890336D01*
X21109051Y-43693413D01*
X21063760Y-43464678D01*
X20974904Y-43249097D01*
X20845867Y-43054881D01*
X20681564Y-42889427D01*
X20488253Y-42759037D01*
X20273298Y-42668678D01*
X20044886Y-42621792D01*
X19811716Y-42620164D01*
X19582672Y-42663857D01*
X19366476Y-42751206D01*
X19171363Y-42878884D01*
X19004766Y-43042028D01*
X18873030Y-43234423D01*
X18781173Y-43448743D01*
X18732693Y-43676822D01*
X18729437Y-43909974D01*
X17002000Y-43909974D01*
X17002000Y-36289974D01*
X18729437Y-36289974D01*
X18771530Y-36519319D01*
X18857367Y-36736119D01*
X18983680Y-36932118D01*
X19145657Y-37099850D01*
X19337128Y-37232926D01*
X19550801Y-37326278D01*
X19778537Y-37376349D01*
X20011660Y-37381232D01*
X20241293Y-37340741D01*
X20458687Y-37256420D01*
X20655563Y-37131478D01*
X20824422Y-36970676D01*
X20958832Y-36780139D01*
X21053672Y-36567123D01*
X21105332Y-36339742D01*
X21108574Y-36107607D01*
X21271936Y-36111028D01*
X21269437Y-36289974D01*
X21311530Y-36519319D01*
X21397367Y-36736119D01*
X21523680Y-36932118D01*
X21685657Y-37099850D01*
X21877128Y-37232926D01*
X22090801Y-37326278D01*
X22318537Y-37376349D01*
X22551660Y-37381232D01*
X22781293Y-37340741D01*
X22998687Y-37256420D01*
X23195563Y-37131478D01*
X23364422Y-36970676D01*
X23498832Y-36780139D01*
X23593672Y-36567123D01*
X23645332Y-36339742D01*
X23648574Y-36107607D01*
X23811936Y-36111028D01*
X23809437Y-36289974D01*
X23851530Y-36519319D01*
X23937367Y-36736119D01*
X24063680Y-36932118D01*
X24225657Y-37099850D01*
X24417128Y-37232926D01*
X24630801Y-37326278D01*
X24858537Y-37376349D01*
X25091660Y-37381232D01*
X25321293Y-37340741D01*
X25538687Y-37256420D01*
X25735563Y-37131478D01*
X25904422Y-36970676D01*
X26038832Y-36780139D01*
X26133672Y-36567123D01*
X26185332Y-36339742D01*
X26188574Y-36107607D01*
X26351936Y-36111028D01*
X26349437Y-36289974D01*
X26391530Y-36519319D01*
X26477367Y-36736119D01*
X26603680Y-36932118D01*
X26765657Y-37099850D01*
X26957128Y-37232926D01*
X27170801Y-37326278D01*
X27398537Y-37376349D01*
X27631660Y-37381232D01*
X27861293Y-37340741D01*
X28078687Y-37256420D01*
X28275563Y-37131478D01*
X28444422Y-36970676D01*
X28578832Y-36780139D01*
X28673672Y-36567123D01*
X28678503Y-36545859D01*
X30657900Y-38525256D01*
X30657900Y-47044744D01*
X24119869Y-53582775D01*
X24033744Y-53599204D01*
X23901554Y-53652612D01*
X23782255Y-53730680D01*
X23680391Y-53830432D01*
X23599842Y-53948070D01*
X23543677Y-54079113D01*
X23514035Y-54218570D01*
X23512044Y-54361128D01*
X23537781Y-54501358D01*
X23590265Y-54633918D01*
X23667498Y-54753760D01*
X23766537Y-54856317D01*
X23883610Y-54937685D01*
X24014258Y-54994764D01*
X24153504Y-55025379D01*
X24296045Y-55028365D01*
X24436451Y-55003608D01*
X24569374Y-54952050D01*
X24689752Y-54875656D01*
X24792999Y-54777336D01*
X24875182Y-54660833D01*
X24933171Y-54530587D01*
X24958572Y-54418784D01*
X28642900Y-50734456D01*
X28642900Y-51905000D01*
X28648237Y-51959429D01*
X28653004Y-52013918D01*
X28653872Y-52016906D01*
X28654176Y-52020006D01*
X28669999Y-52072415D01*
X28685244Y-52124887D01*
X28686675Y-52127648D01*
X28687576Y-52130632D01*
X28713279Y-52178973D01*
X28738423Y-52227480D01*
X28740364Y-52229911D01*
X28741827Y-52232663D01*
X28776419Y-52275077D01*
X28810517Y-52317791D01*
X28814789Y-52322124D01*
X28814863Y-52322214D01*
X28814947Y-52322283D01*
X28816322Y-52323678D01*
X32142895Y-55650251D01*
X32157781Y-55731358D01*
X32210265Y-55863918D01*
X32287498Y-55983760D01*
X32386537Y-56086317D01*
X32503610Y-56167685D01*
X32634258Y-56224764D01*
X32773504Y-56255379D01*
X32916045Y-56258365D01*
X33056451Y-56233608D01*
X33189374Y-56182050D01*
X33309752Y-56105656D01*
X33412999Y-56007336D01*
X33495182Y-55890833D01*
X33553171Y-55760587D01*
X33584758Y-55621558D01*
X33587032Y-55458714D01*
X33559339Y-55318857D01*
X33505009Y-55187043D01*
X33426111Y-55068291D01*
X33325650Y-54967126D01*
X33207452Y-54887401D01*
X33076020Y-54832152D01*
X32979746Y-54812390D01*
X29827100Y-51659744D01*
X29827100Y-49550256D01*
X31668678Y-47708678D01*
X31703395Y-47666412D01*
X31738550Y-47624517D01*
X31740050Y-47621789D01*
X31742026Y-47619383D01*
X31767884Y-47571158D01*
X31794220Y-47523253D01*
X31795160Y-47520288D01*
X31796633Y-47517542D01*
X31812624Y-47465236D01*
X31829161Y-47413105D01*
X31829508Y-47410009D01*
X31830418Y-47407033D01*
X31835943Y-47352643D01*
X31842042Y-47298267D01*
X31842085Y-47292178D01*
X31842096Y-47292067D01*
X31842086Y-47291964D01*
X31842100Y-47290000D01*
X31842100Y-38280000D01*
X31836763Y-38225571D01*
X31831996Y-38171082D01*
X31831128Y-38168094D01*
X31830824Y-38164994D01*
X31815001Y-38112585D01*
X31799756Y-38060113D01*
X31798325Y-38057352D01*
X31797424Y-38054368D01*
X31771721Y-38006027D01*
X31746577Y-37957520D01*
X31744636Y-37955089D01*
X31743173Y-37952337D01*
X31708556Y-37909892D01*
X31674482Y-37867209D01*
X31670212Y-37862878D01*
X31670137Y-37862786D01*
X31670052Y-37862716D01*
X31668678Y-37861322D01*
X29608705Y-35801349D01*
X29714422Y-35700676D01*
X29848832Y-35510139D01*
X29943672Y-35297123D01*
X29995332Y-35069742D01*
X29999051Y-34803413D01*
X29953760Y-34574678D01*
X29864904Y-34359097D01*
X29735867Y-34164881D01*
X29571564Y-33999427D01*
X29378253Y-33869037D01*
X29163298Y-33778678D01*
X28934886Y-33731792D01*
X28701716Y-33730164D01*
X28472672Y-33773857D01*
X28256476Y-33861206D01*
X28061363Y-33988884D01*
X27894766Y-34152028D01*
X27763030Y-34344423D01*
X27671173Y-34558743D01*
X27622693Y-34786822D01*
X27619695Y-35001476D01*
X27456301Y-35000336D01*
X27459051Y-34803413D01*
X27413760Y-34574678D01*
X27324904Y-34359097D01*
X27195867Y-34164881D01*
X27031564Y-33999427D01*
X26838253Y-33869037D01*
X26623298Y-33778678D01*
X26394886Y-33731792D01*
X26161716Y-33730164D01*
X25932672Y-33773857D01*
X25716476Y-33861206D01*
X25521363Y-33988884D01*
X25354766Y-34152028D01*
X25223030Y-34344423D01*
X25131173Y-34558743D01*
X25082693Y-34786822D01*
X25079695Y-35001476D01*
X24916301Y-35000336D01*
X24919051Y-34803413D01*
X24873760Y-34574678D01*
X24784904Y-34359097D01*
X24655867Y-34164881D01*
X24491564Y-33999427D01*
X24298253Y-33869037D01*
X24083298Y-33778678D01*
X23854886Y-33731792D01*
X23621716Y-33730164D01*
X23392672Y-33773857D01*
X23176476Y-33861206D01*
X22981363Y-33988884D01*
X22814766Y-34152028D01*
X22683030Y-34344423D01*
X22591173Y-34558743D01*
X22542693Y-34786822D01*
X22539695Y-35001476D01*
X22376301Y-35000336D01*
X22379051Y-34803413D01*
X22333760Y-34574678D01*
X22244904Y-34359097D01*
X22115867Y-34164881D01*
X21951564Y-33999427D01*
X21758253Y-33869037D01*
X21543298Y-33778678D01*
X21314886Y-33731792D01*
X21081716Y-33730164D01*
X20852672Y-33773857D01*
X20636476Y-33861206D01*
X20441363Y-33988884D01*
X20274766Y-34152028D01*
X20143030Y-34344423D01*
X20051173Y-34558743D01*
X20002693Y-34786822D01*
X19999695Y-35001476D01*
X19811716Y-35000164D01*
X19582672Y-35043857D01*
X19366476Y-35131206D01*
X19171363Y-35258884D01*
X19004766Y-35422028D01*
X18873030Y-35614423D01*
X18781173Y-35828743D01*
X18732693Y-36056822D01*
X18729437Y-36289974D01*
X17002000Y-36289974D01*
X17002000Y-28748309D01*
X34092650Y-28748309D01*
X34114371Y-28996588D01*
X34183903Y-29235919D01*
X34298598Y-29457186D01*
X34454085Y-29651962D01*
X34466605Y-29664657D01*
X34475342Y-29673395D01*
X34667928Y-29831587D01*
X34887573Y-29949359D01*
X35125910Y-30022226D01*
X35373860Y-30047412D01*
X35621981Y-30023957D01*
X35860821Y-29952756D01*
X36081282Y-29836521D01*
X36274967Y-29679677D01*
X36434500Y-29488200D01*
X36553803Y-29269383D01*
X36628331Y-29031561D01*
X36655248Y-28783793D01*
X36633526Y-28535514D01*
X36563994Y-28296183D01*
X36449300Y-28074916D01*
X36358471Y-27961137D01*
X36432311Y-27887297D01*
X36432311Y-28038262D01*
X36897803Y-28503754D01*
X36967739Y-28550484D01*
X37045450Y-28582672D01*
X37127945Y-28599081D01*
X37212056Y-28599082D01*
X37294552Y-28582672D01*
X37372261Y-28550484D01*
X37442197Y-28503754D01*
X37907689Y-28038262D01*
X37907689Y-27887294D01*
X37170000Y-27149605D01*
X37155858Y-27163748D01*
X36976253Y-26984143D01*
X36990395Y-26970000D01*
X37349605Y-26970000D01*
X38087294Y-27707689D01*
X38238262Y-27707689D01*
X38703754Y-27242197D01*
X38750484Y-27172261D01*
X38782672Y-27094552D01*
X38799082Y-27012056D01*
X38799081Y-26927945D01*
X38782672Y-26845450D01*
X38750484Y-26767739D01*
X38703754Y-26697803D01*
X38238262Y-26232311D01*
X38087294Y-26232311D01*
X37349605Y-26970000D01*
X36990395Y-26970000D01*
X36252706Y-26232311D01*
X36101738Y-26232311D01*
X35636246Y-26697803D01*
X35589516Y-26767739D01*
X35557328Y-26845448D01*
X35540918Y-26927944D01*
X35540919Y-27012055D01*
X35557328Y-27094550D01*
X35589516Y-27172261D01*
X35636246Y-27242197D01*
X36101738Y-27707689D01*
X36252703Y-27707689D01*
X36178743Y-27781649D01*
X36079970Y-27700515D01*
X35860325Y-27582743D01*
X35621988Y-27509876D01*
X35374038Y-27484690D01*
X35125917Y-27508144D01*
X34887077Y-27579346D01*
X34666616Y-27695581D01*
X34472930Y-27852425D01*
X34313398Y-28043901D01*
X34194095Y-28262718D01*
X34119567Y-28500540D01*
X34092650Y-28748309D01*
X17002000Y-28748309D01*
X17002000Y-22447589D01*
X17732016Y-22447589D01*
X18080036Y-22858669D01*
X18674627Y-23178307D01*
X19320151Y-23375804D01*
X19991801Y-23443571D01*
X20663766Y-23379004D01*
X21310223Y-23184583D01*
X21906329Y-22867780D01*
X21919964Y-22858669D01*
X22267984Y-22447589D01*
X20000000Y-20179605D01*
X17732016Y-22447589D01*
X17002000Y-22447589D01*
X17002000Y-21661303D01*
X17132220Y-21906329D01*
X17141331Y-21919964D01*
X17552411Y-22267984D01*
X19820395Y-20000000D01*
X19806253Y-19985858D01*
X19985858Y-19806253D01*
X20000000Y-19820395D01*
X22267984Y-17552411D01*
X21919964Y-17141331D01*
X21660780Y-17002000D01*
X76338697Y-17002000D01*
X76093671Y-17132220D01*
X76093671Y-17132220D01*
G37*
X76093671Y-17132220D02*
X76080036Y-17141331D01*
X75732016Y-17552411D01*
X78000000Y-19820395D01*
X78014143Y-19806253D01*
X78193748Y-19985858D01*
X78179605Y-20000000D01*
X80447589Y-22267984D01*
X80858669Y-21919964D01*
X80998000Y-21660780D01*
X80998000Y-67338697D01*
X80867780Y-67093671D01*
X80858669Y-67080036D01*
X80447589Y-66732016D01*
X78179605Y-69000000D01*
X78193748Y-69014143D01*
X78014143Y-69193748D01*
X78000000Y-69179605D01*
X75732016Y-71447589D01*
X76080036Y-71858669D01*
X76339220Y-71998000D01*
X21661303Y-71998000D01*
X21906329Y-71867780D01*
X21919964Y-71858669D01*
X22267984Y-71447589D01*
X20000000Y-69179605D01*
X19985858Y-69193748D01*
X19806253Y-69014143D01*
X19820395Y-69000000D01*
X20179605Y-69000000D01*
X22447589Y-71267984D01*
X22858669Y-70919964D01*
X23178307Y-70325373D01*
X23375804Y-69679849D01*
X23428187Y-69160668D01*
X28488937Y-69160668D01*
X28606099Y-69375012D01*
X28873806Y-69503060D01*
X29161349Y-69576421D01*
X29457680Y-69592275D01*
X29751410Y-69550013D01*
X30031251Y-69451260D01*
X30173901Y-69375012D01*
X30291063Y-69160668D01*
X29390000Y-68259605D01*
X28488937Y-69160668D01*
X23428187Y-69160668D01*
X23443571Y-69008199D01*
X23379004Y-68336234D01*
X23322297Y-68147680D01*
X27877725Y-68147680D01*
X27919987Y-68441410D01*
X28018740Y-68721251D01*
X28094988Y-68863901D01*
X28309332Y-68981063D01*
X29210395Y-68080000D01*
X29569605Y-68080000D01*
X30470668Y-68981063D01*
X30685012Y-68863901D01*
X30813060Y-68596194D01*
X30886421Y-68308651D01*
X30902275Y-68012320D01*
X30860013Y-67718590D01*
X30761260Y-67438749D01*
X30685012Y-67296099D01*
X30470668Y-67178937D01*
X29569605Y-68080000D01*
X29210395Y-68080000D01*
X28309332Y-67178937D01*
X28094988Y-67296099D01*
X27966940Y-67563806D01*
X27893579Y-67851349D01*
X27877725Y-68147680D01*
X23322297Y-68147680D01*
X23184583Y-67689777D01*
X22867780Y-67093671D01*
X22858669Y-67080036D01*
X22763342Y-66999332D01*
X28488937Y-66999332D01*
X29390000Y-67900395D01*
X30291063Y-66999332D01*
X30173901Y-66784988D01*
X29906194Y-66656940D01*
X29618651Y-66583579D01*
X29322320Y-66567725D01*
X29028590Y-66609987D01*
X28748749Y-66708740D01*
X28606099Y-66784988D01*
X28488937Y-66999332D01*
X22763342Y-66999332D01*
X22447589Y-66732016D01*
X20179605Y-69000000D01*
X19820395Y-69000000D01*
X17552411Y-66732016D01*
X17141331Y-67080036D01*
X17002000Y-67339220D01*
X17002000Y-59030000D01*
X17097900Y-59030000D01*
X17097900Y-61730000D01*
X17103237Y-61784429D01*
X17108004Y-61838918D01*
X17108872Y-61841906D01*
X17109176Y-61845006D01*
X17124999Y-61897415D01*
X17140244Y-61949887D01*
X17141675Y-61952648D01*
X17142576Y-61955632D01*
X17168279Y-62003973D01*
X17193423Y-62052480D01*
X17195364Y-62054911D01*
X17196827Y-62057663D01*
X17231419Y-62100077D01*
X17265517Y-62142791D01*
X17269789Y-62147124D01*
X17269863Y-62147214D01*
X17269947Y-62147283D01*
X17271322Y-62148678D01*
X20776371Y-65653727D01*
X20679849Y-65624196D01*
X20008199Y-65556429D01*
X19336234Y-65620996D01*
X18689777Y-65815417D01*
X18093671Y-66132220D01*
X18080036Y-66141331D01*
X17732016Y-66552411D01*
X20000000Y-68820395D01*
X22267984Y-66552411D01*
X22183061Y-66452100D01*
X31504744Y-66452100D01*
X32899363Y-67846719D01*
X32885645Y-67911260D01*
X32881520Y-68206671D01*
X32934853Y-68497257D01*
X33043611Y-68771950D01*
X33203653Y-69020287D01*
X33408883Y-69232808D01*
X33651483Y-69401420D01*
X33922213Y-69519699D01*
X34210761Y-69583140D01*
X34506136Y-69589327D01*
X34797088Y-69538025D01*
X35072533Y-69431187D01*
X35321982Y-69272882D01*
X35535931Y-69069141D01*
X35548962Y-69050668D01*
X49978937Y-69050668D01*
X50096099Y-69265012D01*
X50363806Y-69393060D01*
X50651349Y-69466421D01*
X50947680Y-69482275D01*
X51241410Y-69440013D01*
X51521251Y-69341260D01*
X51663901Y-69265012D01*
X51781063Y-69050668D01*
X50880000Y-68149605D01*
X49978937Y-69050668D01*
X35548962Y-69050668D01*
X35706232Y-68827724D01*
X35826398Y-68557826D01*
X35891852Y-68269728D01*
X35895092Y-68037680D01*
X49367725Y-68037680D01*
X49409987Y-68331410D01*
X49508740Y-68611251D01*
X49584988Y-68753901D01*
X49799332Y-68871063D01*
X50700395Y-67970000D01*
X51059605Y-67970000D01*
X51960668Y-68871063D01*
X52175012Y-68753901D01*
X52303060Y-68486194D01*
X52376421Y-68198651D01*
X52381877Y-68096671D01*
X54371520Y-68096671D01*
X54424853Y-68387257D01*
X54533611Y-68661950D01*
X54693653Y-68910287D01*
X54898883Y-69122808D01*
X55141483Y-69291420D01*
X55412213Y-69409699D01*
X55700761Y-69473140D01*
X55996136Y-69479327D01*
X56287088Y-69428025D01*
X56562533Y-69321187D01*
X56811982Y-69162882D01*
X57025931Y-68959141D01*
X57196232Y-68717724D01*
X57316398Y-68447826D01*
X57381852Y-68159728D01*
X57386564Y-67822280D01*
X57329180Y-67532467D01*
X57216596Y-67259319D01*
X57053102Y-67013241D01*
X56844925Y-66803606D01*
X56599995Y-66638398D01*
X56327640Y-66523910D01*
X56038234Y-66464504D01*
X55742801Y-66462441D01*
X55452595Y-66517801D01*
X55178668Y-66628475D01*
X54931454Y-66790247D01*
X54720370Y-66996955D01*
X54553457Y-67240727D01*
X54437070Y-67512276D01*
X54375645Y-67801260D01*
X54371520Y-68096671D01*
X52381877Y-68096671D01*
X52392275Y-67902320D01*
X52350013Y-67608590D01*
X52251260Y-67328749D01*
X52175012Y-67186099D01*
X51960668Y-67068937D01*
X51059605Y-67970000D01*
X50700395Y-67970000D01*
X49799332Y-67068937D01*
X49584988Y-67186099D01*
X49456940Y-67453806D01*
X49383579Y-67741349D01*
X49367725Y-68037680D01*
X35895092Y-68037680D01*
X35896564Y-67932280D01*
X35839180Y-67642467D01*
X35726596Y-67369319D01*
X35563102Y-67123241D01*
X35354925Y-66913606D01*
X35318938Y-66889332D01*
X49978937Y-66889332D01*
X50880000Y-67790395D01*
X51781063Y-66889332D01*
X51663901Y-66674988D01*
X51396194Y-66546940D01*
X51108651Y-66473579D01*
X50812320Y-66457725D01*
X50518590Y-66499987D01*
X50238749Y-66598740D01*
X50096099Y-66674988D01*
X49978937Y-66889332D01*
X35318938Y-66889332D01*
X35242100Y-66837504D01*
X35242100Y-61357589D01*
X37272016Y-61357589D01*
X37620036Y-61768669D01*
X38214627Y-62088307D01*
X38860151Y-62285804D01*
X39531801Y-62353571D01*
X40203766Y-62289004D01*
X40850223Y-62094583D01*
X41446329Y-61777780D01*
X41459964Y-61768669D01*
X41807984Y-61357589D01*
X61672016Y-61357589D01*
X62020036Y-61768669D01*
X62614627Y-62088307D01*
X63260151Y-62285804D01*
X63931801Y-62353571D01*
X64603766Y-62289004D01*
X65250223Y-62094583D01*
X65846329Y-61777780D01*
X65859964Y-61768669D01*
X66207984Y-61357589D01*
X63940000Y-59089605D01*
X61672016Y-61357589D01*
X41807984Y-61357589D01*
X39540000Y-59089605D01*
X37272016Y-61357589D01*
X35242100Y-61357589D01*
X35242100Y-58901801D01*
X36096429Y-58901801D01*
X36160996Y-59573766D01*
X36355417Y-60220223D01*
X36672220Y-60816329D01*
X36681331Y-60829964D01*
X37092411Y-61177984D01*
X39360395Y-58910000D01*
X37092411Y-56642016D01*
X36681331Y-56990036D01*
X36361693Y-57584627D01*
X36164196Y-58230151D01*
X36096429Y-58901801D01*
X35242100Y-58901801D01*
X35242100Y-36957589D01*
X37272016Y-36957589D01*
X37620036Y-37368669D01*
X38214627Y-37688307D01*
X38860151Y-37885804D01*
X39531801Y-37953571D01*
X40203766Y-37889004D01*
X40699288Y-37739977D01*
X39256489Y-39847132D01*
X38161231Y-42402561D01*
X37583184Y-45122059D01*
X37544365Y-47902041D01*
X38046254Y-50636618D01*
X39069734Y-53221632D01*
X40575820Y-55558620D01*
X40691619Y-55678533D01*
X40219849Y-55534196D01*
X39548199Y-55466429D01*
X38876234Y-55530996D01*
X38229777Y-55725417D01*
X37633671Y-56042220D01*
X37620036Y-56051331D01*
X37272016Y-56462411D01*
X39540000Y-58730395D01*
X39554143Y-58716253D01*
X39733748Y-58895858D01*
X39719605Y-58910000D01*
X41987589Y-61177984D01*
X42398669Y-60829964D01*
X42718307Y-60235373D01*
X42915804Y-59589849D01*
X42983571Y-58918199D01*
X42919004Y-58246234D01*
X42766375Y-57738736D01*
X44790148Y-59145295D01*
X47337869Y-60258367D01*
X50053265Y-60855385D01*
X52832908Y-60913611D01*
X55570923Y-60430825D01*
X58163019Y-59425417D01*
X60510465Y-57935683D01*
X60713419Y-57742413D01*
X60564196Y-58230151D01*
X60496429Y-58901801D01*
X60560996Y-59573766D01*
X60755417Y-60220223D01*
X61072220Y-60816329D01*
X61081331Y-60829964D01*
X61492411Y-61177984D01*
X63760395Y-58910000D01*
X64119605Y-58910000D01*
X66387589Y-61177984D01*
X66798669Y-60829964D01*
X67118307Y-60235373D01*
X67315804Y-59589849D01*
X67383571Y-58918199D01*
X67319004Y-58246234D01*
X67124583Y-57599777D01*
X66807780Y-57003671D01*
X66798669Y-56990036D01*
X66387589Y-56642016D01*
X64119605Y-58910000D01*
X63760395Y-58910000D01*
X63746253Y-58895858D01*
X63925858Y-58716253D01*
X63940000Y-58730395D01*
X66207984Y-56462411D01*
X65859964Y-56051331D01*
X65265373Y-55731693D01*
X64619849Y-55534196D01*
X63948199Y-55466429D01*
X63276234Y-55530996D01*
X62757621Y-55686968D01*
X64126473Y-53746496D01*
X65257304Y-51206609D01*
X65615244Y-49631128D01*
X67442044Y-49631128D01*
X67467781Y-49771358D01*
X67520265Y-49903918D01*
X67597498Y-50023760D01*
X67621584Y-50048701D01*
X67633721Y-50088903D01*
X67648191Y-50138709D01*
X67649550Y-50141332D01*
X67650405Y-50144162D01*
X67674785Y-50190014D01*
X67698667Y-50236087D01*
X67700510Y-50238396D01*
X67701898Y-50241006D01*
X67734721Y-50281251D01*
X67767096Y-50321806D01*
X67771152Y-50325920D01*
X67771221Y-50326004D01*
X67771299Y-50326069D01*
X67772606Y-50327394D01*
X72938000Y-55492788D01*
X72938000Y-66777212D01*
X70562471Y-69152741D01*
X70423744Y-69179204D01*
X70291554Y-69232612D01*
X70172255Y-69310680D01*
X70070391Y-69410432D01*
X69989842Y-69528070D01*
X69933677Y-69659113D01*
X69904035Y-69798570D01*
X69902044Y-69941128D01*
X69927781Y-70081358D01*
X69980265Y-70213918D01*
X70057498Y-70333760D01*
X70156537Y-70436317D01*
X70273610Y-70517685D01*
X70404258Y-70574764D01*
X70543504Y-70605379D01*
X70686045Y-70608365D01*
X70826451Y-70583608D01*
X70959374Y-70532050D01*
X71079752Y-70455656D01*
X71182999Y-70357336D01*
X71265182Y-70240833D01*
X71323171Y-70110587D01*
X71354758Y-69971558D01*
X71355063Y-69949725D01*
X72312987Y-68991801D01*
X74556429Y-68991801D01*
X74620996Y-69663766D01*
X74815417Y-70310223D01*
X75132220Y-70906329D01*
X75141331Y-70919964D01*
X75552411Y-71267984D01*
X77820395Y-69000000D01*
X75552411Y-66732016D01*
X75141331Y-67080036D01*
X74821693Y-67674627D01*
X74624196Y-68320151D01*
X74556429Y-68991801D01*
X72312987Y-68991801D01*
X73897394Y-67407394D01*
X73930351Y-67367272D01*
X73963714Y-67327511D01*
X73965136Y-67324924D01*
X73967014Y-67322638D01*
X73991582Y-67276820D01*
X74016554Y-67231395D01*
X74017446Y-67228583D01*
X74018845Y-67225974D01*
X74034048Y-67176247D01*
X74049719Y-67126846D01*
X74050048Y-67123914D01*
X74050913Y-67121084D01*
X74056165Y-67069374D01*
X74061945Y-67017847D01*
X74061985Y-67012076D01*
X74061997Y-67011962D01*
X74061987Y-67011856D01*
X74062000Y-67010000D01*
X74062000Y-66552411D01*
X75732016Y-66552411D01*
X78000000Y-68820395D01*
X80267984Y-66552411D01*
X79919964Y-66141331D01*
X79325373Y-65821693D01*
X78679849Y-65624196D01*
X78008199Y-65556429D01*
X77336234Y-65620996D01*
X76689777Y-65815417D01*
X76093671Y-66132220D01*
X76080036Y-66141331D01*
X75732016Y-66552411D01*
X74062000Y-66552411D01*
X74062000Y-55260000D01*
X74056929Y-55208285D01*
X74052409Y-55156619D01*
X74051586Y-55153785D01*
X74051297Y-55150840D01*
X74036279Y-55101097D01*
X74021809Y-55051291D01*
X74020450Y-55048668D01*
X74019595Y-55045838D01*
X73995205Y-54999967D01*
X73971332Y-54953912D01*
X73969490Y-54951605D01*
X73968102Y-54948994D01*
X73935294Y-54908768D01*
X73902904Y-54868193D01*
X73898847Y-54864079D01*
X73898779Y-54863996D01*
X73898702Y-54863932D01*
X73897394Y-54862606D01*
X68854608Y-49819820D01*
X68863171Y-49800587D01*
X68894758Y-49661558D01*
X68897032Y-49498714D01*
X68869339Y-49358857D01*
X68815009Y-49227043D01*
X68736111Y-49108291D01*
X68635650Y-49007126D01*
X68517452Y-48927401D01*
X68386020Y-48872152D01*
X68246360Y-48843484D01*
X68103791Y-48842489D01*
X67963744Y-48869204D01*
X67831554Y-48922612D01*
X67712255Y-49000680D01*
X67610391Y-49100432D01*
X67529842Y-49218070D01*
X67473677Y-49349113D01*
X67444035Y-49488570D01*
X67442044Y-49631128D01*
X65615244Y-49631128D01*
X65873265Y-48495447D01*
X65917607Y-45319873D01*
X65377587Y-42592570D01*
X64318115Y-40022098D01*
X62806563Y-37747029D01*
X63260151Y-37885804D01*
X63931801Y-37953571D01*
X64603766Y-37889004D01*
X65250223Y-37694583D01*
X65846329Y-37377780D01*
X65859964Y-37368669D01*
X66207984Y-36957589D01*
X63940000Y-34689605D01*
X63925858Y-34703748D01*
X63746253Y-34524143D01*
X63760395Y-34510000D01*
X64119605Y-34510000D01*
X66387589Y-36777984D01*
X66798669Y-36429964D01*
X67118307Y-35835373D01*
X67315804Y-35189849D01*
X67383571Y-34518199D01*
X67319004Y-33846234D01*
X67124583Y-33199777D01*
X66807780Y-32603671D01*
X66798669Y-32590036D01*
X66387589Y-32242016D01*
X64119605Y-34510000D01*
X63760395Y-34510000D01*
X61492411Y-32242016D01*
X61081331Y-32590036D01*
X60761693Y-33184627D01*
X60564196Y-33830151D01*
X60496429Y-34501801D01*
X60560996Y-35173766D01*
X60706169Y-35656473D01*
X58515550Y-34178882D01*
X55952537Y-33101490D01*
X53229070Y-32542443D01*
X50448885Y-32523033D01*
X47717878Y-33044001D01*
X45140072Y-34085502D01*
X42813655Y-35607866D01*
X42776900Y-35643859D01*
X42915804Y-35189849D01*
X42983571Y-34518199D01*
X42919004Y-33846234D01*
X42724583Y-33199777D01*
X42407780Y-32603671D01*
X42398669Y-32590036D01*
X41987589Y-32242016D01*
X39719605Y-34510000D01*
X39733748Y-34524143D01*
X39554143Y-34703748D01*
X39540000Y-34689605D01*
X37272016Y-36957589D01*
X35242100Y-36957589D01*
X35242100Y-34501801D01*
X36096429Y-34501801D01*
X36160996Y-35173766D01*
X36355417Y-35820223D01*
X36672220Y-36416329D01*
X36681331Y-36429964D01*
X37092411Y-36777984D01*
X39360395Y-34510000D01*
X37092411Y-32242016D01*
X36681331Y-32590036D01*
X36361693Y-33184627D01*
X36164196Y-33830151D01*
X36096429Y-34501801D01*
X35242100Y-34501801D01*
X35242100Y-33443736D01*
X36623425Y-32062411D01*
X37272016Y-32062411D01*
X39540000Y-34330395D01*
X41807984Y-32062411D01*
X61672016Y-32062411D01*
X63940000Y-34330395D01*
X66207984Y-32062411D01*
X65859964Y-31651331D01*
X65265373Y-31331693D01*
X64619849Y-31134196D01*
X63948199Y-31066429D01*
X63276234Y-31130996D01*
X62629777Y-31325417D01*
X62033671Y-31642220D01*
X62020036Y-31651331D01*
X61672016Y-32062411D01*
X41807984Y-32062411D01*
X41459964Y-31651331D01*
X40865373Y-31331693D01*
X40219849Y-31134196D01*
X39548199Y-31066429D01*
X38876234Y-31130996D01*
X38229777Y-31325417D01*
X37633671Y-31642220D01*
X37620036Y-31651331D01*
X37272016Y-32062411D01*
X36623425Y-32062411D01*
X41213736Y-27472100D01*
X45528160Y-27472100D01*
X45538673Y-27477784D01*
X45588648Y-27505032D01*
X45589644Y-27505344D01*
X45590552Y-27505835D01*
X45644709Y-27522600D01*
X45646263Y-27523087D01*
X45647781Y-27531358D01*
X45700265Y-27663918D01*
X45777498Y-27783760D01*
X45876537Y-27886317D01*
X45993610Y-27967685D01*
X46124258Y-28024764D01*
X46263504Y-28055379D01*
X46406045Y-28058365D01*
X46546451Y-28033608D01*
X46679374Y-27982050D01*
X46799752Y-27905656D01*
X46902999Y-27807336D01*
X46985182Y-27690833D01*
X47043171Y-27560587D01*
X47063275Y-27472100D01*
X70060805Y-27472100D01*
X69960391Y-27570432D01*
X69879842Y-27688070D01*
X69823677Y-27819113D01*
X69794035Y-27958570D01*
X69792044Y-28101128D01*
X69817781Y-28241358D01*
X69870265Y-28373918D01*
X69947498Y-28493760D01*
X70046537Y-28596317D01*
X70163610Y-28677685D01*
X70294258Y-28734764D01*
X70433504Y-28765379D01*
X70576045Y-28768365D01*
X70716451Y-28743608D01*
X70849374Y-28692050D01*
X70969752Y-28615656D01*
X71072999Y-28517336D01*
X71155182Y-28400833D01*
X71213171Y-28270587D01*
X71238572Y-28158784D01*
X71535000Y-27862356D01*
X74571322Y-30898678D01*
X74613588Y-30933395D01*
X74655483Y-30968550D01*
X74658211Y-30970050D01*
X74660617Y-30972026D01*
X74708824Y-30997874D01*
X74756747Y-31024220D01*
X74759714Y-31025161D01*
X74762459Y-31026633D01*
X74814792Y-31042633D01*
X74866895Y-31059161D01*
X74869987Y-31059508D01*
X74872967Y-31060419D01*
X74927451Y-31065953D01*
X74981733Y-31072042D01*
X74987811Y-31072085D01*
X74987933Y-31072097D01*
X74988046Y-31072086D01*
X74990000Y-31072100D01*
X76550000Y-31072100D01*
X76604429Y-31066763D01*
X76658918Y-31061996D01*
X76661906Y-31061128D01*
X76665006Y-31060824D01*
X76717415Y-31045001D01*
X76769887Y-31029756D01*
X76772648Y-31028325D01*
X76775632Y-31027424D01*
X76823973Y-31001721D01*
X76872480Y-30976577D01*
X76874911Y-30974636D01*
X76877663Y-30973173D01*
X76920077Y-30938581D01*
X76962791Y-30904483D01*
X76967124Y-30900211D01*
X76967214Y-30900137D01*
X76967283Y-30900053D01*
X76968678Y-30898678D01*
X79190120Y-28677236D01*
X79245735Y-28683474D01*
X79263755Y-28683600D01*
X79276245Y-28683600D01*
X79526924Y-28659021D01*
X79768054Y-28586219D01*
X79990452Y-28467968D01*
X80185646Y-28308772D01*
X80346201Y-28114694D01*
X80466002Y-27893128D01*
X80540485Y-27652511D01*
X80566814Y-27402010D01*
X80543985Y-27151166D01*
X80472868Y-26909533D01*
X80356173Y-26686315D01*
X80198343Y-26490014D01*
X80005391Y-26328109D01*
X79784666Y-26206764D01*
X79544576Y-26130603D01*
X79481248Y-26123500D01*
X79526924Y-26119021D01*
X79768054Y-26046219D01*
X79990452Y-25927968D01*
X80185646Y-25768772D01*
X80346201Y-25574694D01*
X80466002Y-25353128D01*
X80540485Y-25112511D01*
X80566814Y-24862010D01*
X80543985Y-24611166D01*
X80472868Y-24369533D01*
X80356173Y-24146315D01*
X80198343Y-23950014D01*
X80005391Y-23788109D01*
X79784666Y-23666764D01*
X79544576Y-23590603D01*
X79294265Y-23562526D01*
X79276245Y-23562400D01*
X79263755Y-23562400D01*
X79013076Y-23586979D01*
X78771946Y-23659781D01*
X78549548Y-23778032D01*
X78354354Y-23937228D01*
X78193799Y-24131306D01*
X78073998Y-24352872D01*
X78020600Y-24525374D01*
X78020600Y-23947344D01*
X78004191Y-23864849D01*
X77972003Y-23787140D01*
X77925273Y-23717203D01*
X77865797Y-23657728D01*
X77795861Y-23610998D01*
X77718151Y-23578809D01*
X77635656Y-23562400D01*
X76963750Y-23562400D01*
X76857000Y-23669150D01*
X76857000Y-24726000D01*
X76877000Y-24726000D01*
X76877000Y-24980000D01*
X76857000Y-24980000D01*
X76857000Y-26036850D01*
X76963750Y-26143600D01*
X77635656Y-26143600D01*
X77718151Y-26127191D01*
X77795861Y-26095002D01*
X77865797Y-26048272D01*
X77925273Y-25988797D01*
X77972003Y-25918860D01*
X78004191Y-25841151D01*
X78020600Y-25758656D01*
X78020600Y-25178366D01*
X78067132Y-25336467D01*
X78183827Y-25559685D01*
X78341657Y-25755986D01*
X78534609Y-25917891D01*
X78755334Y-26039236D01*
X78995424Y-26115397D01*
X79058752Y-26122500D01*
X79013076Y-26126979D01*
X78771946Y-26199781D01*
X78549548Y-26318032D01*
X78354354Y-26477228D01*
X78193799Y-26671306D01*
X78073998Y-26892872D01*
X77999515Y-27133489D01*
X77985588Y-27265998D01*
X77907019Y-27265998D01*
X77978657Y-27066649D01*
X77949536Y-26970632D01*
X77843703Y-26740828D01*
X77695071Y-26536087D01*
X77509352Y-26364276D01*
X77293683Y-26231999D01*
X77056352Y-26144338D01*
X76857000Y-26215408D01*
X76857000Y-27266000D01*
X76877000Y-27266000D01*
X76877000Y-27520000D01*
X76857000Y-27520000D01*
X76857000Y-28570592D01*
X77056352Y-28641662D01*
X77258734Y-28566910D01*
X76237744Y-29587900D01*
X75295256Y-29587900D01*
X73426707Y-27719351D01*
X75481343Y-27719351D01*
X75510464Y-27815368D01*
X75616297Y-28045172D01*
X75764929Y-28249913D01*
X75950648Y-28421724D01*
X76166317Y-28554001D01*
X76403648Y-28641662D01*
X76603000Y-28570592D01*
X76603000Y-27520000D01*
X75552982Y-27520000D01*
X75481343Y-27719351D01*
X73426707Y-27719351D01*
X72774005Y-27066649D01*
X75481343Y-27066649D01*
X75552982Y-27266000D01*
X76603000Y-27266000D01*
X76603000Y-26215408D01*
X76403648Y-26144338D01*
X76166317Y-26231999D01*
X75950648Y-26364276D01*
X75764929Y-26536087D01*
X75616297Y-26740828D01*
X75510464Y-26970632D01*
X75481343Y-27066649D01*
X72774005Y-27066649D01*
X71858678Y-26151322D01*
X71816412Y-26116605D01*
X71774517Y-26081450D01*
X71771789Y-26079950D01*
X71769383Y-26077974D01*
X71721176Y-26052126D01*
X71673253Y-26025780D01*
X71670286Y-26024839D01*
X71667541Y-26023367D01*
X71615208Y-26007367D01*
X71563105Y-25990839D01*
X71560013Y-25990492D01*
X71557033Y-25989581D01*
X71502549Y-25984047D01*
X71448267Y-25977958D01*
X71442189Y-25977915D01*
X71442067Y-25977903D01*
X71441954Y-25977914D01*
X71440000Y-25977900D01*
X67110818Y-25977900D01*
X67165182Y-25900833D01*
X67223171Y-25770587D01*
X67254758Y-25631558D01*
X67257032Y-25468714D01*
X67229339Y-25328857D01*
X67175009Y-25197043D01*
X67101732Y-25086750D01*
X75439400Y-25086750D01*
X75439400Y-25758656D01*
X75455809Y-25841151D01*
X75487997Y-25918860D01*
X75534727Y-25988797D01*
X75594203Y-26048272D01*
X75664139Y-26095002D01*
X75741849Y-26127191D01*
X75824344Y-26143600D01*
X76496250Y-26143600D01*
X76603000Y-26036850D01*
X76603000Y-24980000D01*
X75546150Y-24980000D01*
X75439400Y-25086750D01*
X67101732Y-25086750D01*
X67096111Y-25078291D01*
X66995650Y-24977126D01*
X66877452Y-24897401D01*
X66746020Y-24842152D01*
X66606360Y-24813484D01*
X66598215Y-24813427D01*
X65732132Y-23947344D01*
X75439400Y-23947344D01*
X75439400Y-24619250D01*
X75546150Y-24726000D01*
X76603000Y-24726000D01*
X76603000Y-23669150D01*
X76496250Y-23562400D01*
X75824344Y-23562400D01*
X75741849Y-23578809D01*
X75664139Y-23610998D01*
X75594203Y-23657728D01*
X75534727Y-23717203D01*
X75487997Y-23787140D01*
X75455809Y-23864849D01*
X75439400Y-23947344D01*
X65732132Y-23947344D01*
X64802000Y-23017212D01*
X64802000Y-22349949D01*
X64995334Y-22456236D01*
X65235424Y-22532397D01*
X65485735Y-22560474D01*
X65503755Y-22560600D01*
X65516245Y-22560600D01*
X65766924Y-22536021D01*
X66008054Y-22463219D01*
X66230452Y-22344968D01*
X66425646Y-22185772D01*
X66586201Y-21991694D01*
X66706002Y-21770128D01*
X66780485Y-21529511D01*
X66780678Y-21527677D01*
X66847132Y-21753467D01*
X66963827Y-21976685D01*
X67121657Y-22172986D01*
X67314609Y-22334891D01*
X67535334Y-22456236D01*
X67775424Y-22532397D01*
X68025735Y-22560474D01*
X68043755Y-22560600D01*
X68056245Y-22560600D01*
X68306924Y-22536021D01*
X68548054Y-22463219D01*
X68770452Y-22344968D01*
X68965646Y-22185772D01*
X69126201Y-21991694D01*
X69246002Y-21770128D01*
X69320485Y-21529511D01*
X69320678Y-21527677D01*
X69387132Y-21753467D01*
X69503827Y-21976685D01*
X69661657Y-22172986D01*
X69854609Y-22334891D01*
X70075334Y-22456236D01*
X70315424Y-22532397D01*
X70565735Y-22560474D01*
X70583755Y-22560600D01*
X70596245Y-22560600D01*
X70846924Y-22536021D01*
X71088054Y-22463219D01*
X71310452Y-22344968D01*
X71505646Y-22185772D01*
X71666201Y-21991694D01*
X71786002Y-21770128D01*
X71860485Y-21529511D01*
X71874412Y-21397002D01*
X71952981Y-21397002D01*
X71881343Y-21596351D01*
X71910464Y-21692368D01*
X72016297Y-21922172D01*
X72164929Y-22126913D01*
X72350648Y-22298724D01*
X72566317Y-22431001D01*
X72803648Y-22518662D01*
X73003000Y-22447592D01*
X73003000Y-21397000D01*
X73257000Y-21397000D01*
X73257000Y-22447592D01*
X73456352Y-22518662D01*
X73648773Y-22447589D01*
X75732016Y-22447589D01*
X76080036Y-22858669D01*
X76674627Y-23178307D01*
X77320151Y-23375804D01*
X77991801Y-23443571D01*
X78663766Y-23379004D01*
X79310223Y-23184583D01*
X79906329Y-22867780D01*
X79919964Y-22858669D01*
X80267984Y-22447589D01*
X78000000Y-20179605D01*
X75732016Y-22447589D01*
X73648773Y-22447589D01*
X73693683Y-22431001D01*
X73909352Y-22298724D01*
X74095071Y-22126913D01*
X74243703Y-21922172D01*
X74349536Y-21692368D01*
X74378657Y-21596351D01*
X74307018Y-21397000D01*
X73257000Y-21397000D01*
X73003000Y-21397000D01*
X72983000Y-21397000D01*
X72983000Y-21143000D01*
X73003000Y-21143000D01*
X73003000Y-21123000D01*
X73257000Y-21123000D01*
X73257000Y-21143000D01*
X74307018Y-21143000D01*
X74378657Y-20943649D01*
X74349536Y-20847632D01*
X74243703Y-20617828D01*
X74095071Y-20413087D01*
X73909352Y-20241276D01*
X73693683Y-20108999D01*
X73456352Y-20021338D01*
X73257002Y-20092407D01*
X73257002Y-20008760D01*
X73386924Y-19996021D01*
X73400901Y-19991801D01*
X74556429Y-19991801D01*
X74620996Y-20663766D01*
X74815417Y-21310223D01*
X75132220Y-21906329D01*
X75141331Y-21919964D01*
X75552411Y-22267984D01*
X77820395Y-20000000D01*
X75552411Y-17732016D01*
X75141331Y-18080036D01*
X74821693Y-18674627D01*
X74624196Y-19320151D01*
X74556429Y-19991801D01*
X73400901Y-19991801D01*
X73628054Y-19923219D01*
X73850452Y-19804968D01*
X74045646Y-19645772D01*
X74206201Y-19451694D01*
X74326002Y-19230128D01*
X74400485Y-18989511D01*
X74426814Y-18739010D01*
X74403985Y-18488166D01*
X74332868Y-18246533D01*
X74216173Y-18023315D01*
X74058343Y-17827014D01*
X73865391Y-17665109D01*
X73644666Y-17543764D01*
X73404576Y-17467603D01*
X73154265Y-17439526D01*
X73136245Y-17439400D01*
X73123755Y-17439400D01*
X72873076Y-17463979D01*
X72631946Y-17536781D01*
X72409548Y-17655032D01*
X72214354Y-17814228D01*
X72053799Y-18008306D01*
X71933998Y-18229872D01*
X71859515Y-18470489D01*
X71859322Y-18472323D01*
X71792868Y-18246533D01*
X71676173Y-18023315D01*
X71518343Y-17827014D01*
X71325391Y-17665109D01*
X71104666Y-17543764D01*
X70864576Y-17467603D01*
X70614265Y-17439526D01*
X70596245Y-17439400D01*
X70583755Y-17439400D01*
X70333076Y-17463979D01*
X70091946Y-17536781D01*
X69869548Y-17655032D01*
X69674354Y-17814228D01*
X69513799Y-18008306D01*
X69393998Y-18229872D01*
X69319515Y-18470489D01*
X69319322Y-18472323D01*
X69252868Y-18246533D01*
X69136173Y-18023315D01*
X68978343Y-17827014D01*
X68785391Y-17665109D01*
X68564666Y-17543764D01*
X68324576Y-17467603D01*
X68074265Y-17439526D01*
X68056245Y-17439400D01*
X68043755Y-17439400D01*
X67793076Y-17463979D01*
X67551946Y-17536781D01*
X67329548Y-17655032D01*
X67134354Y-17814228D01*
X66973799Y-18008306D01*
X66853998Y-18229872D01*
X66779515Y-18470489D01*
X66765588Y-18602998D01*
X66687019Y-18602998D01*
X66758657Y-18403649D01*
X66729536Y-18307632D01*
X66623703Y-18077828D01*
X66475071Y-17873087D01*
X66289352Y-17701276D01*
X66073683Y-17568999D01*
X65836352Y-17481338D01*
X65637000Y-17552408D01*
X65637000Y-18603000D01*
X65657000Y-18603000D01*
X65657000Y-18857000D01*
X65637000Y-18857000D01*
X65637000Y-18877000D01*
X65383000Y-18877000D01*
X65383000Y-18857000D01*
X65363000Y-18857000D01*
X65363000Y-18603000D01*
X65383000Y-18603000D01*
X65383000Y-17552408D01*
X65183648Y-17481338D01*
X64946317Y-17568999D01*
X64730648Y-17701276D01*
X64544929Y-17873087D01*
X64396297Y-18077828D01*
X64290464Y-18307632D01*
X64261343Y-18403649D01*
X64332981Y-18602998D01*
X64254436Y-18602998D01*
X64243985Y-18488166D01*
X64172868Y-18246533D01*
X64056173Y-18023315D01*
X63898343Y-17827014D01*
X63705391Y-17665109D01*
X63484666Y-17543764D01*
X63244576Y-17467603D01*
X62994265Y-17439526D01*
X62976245Y-17439400D01*
X62963755Y-17439400D01*
X62713076Y-17463979D01*
X62471946Y-17536781D01*
X62249548Y-17655032D01*
X62054354Y-17814228D01*
X61893799Y-18008306D01*
X61773998Y-18229872D01*
X61699515Y-18470489D01*
X61685588Y-18602998D01*
X61607019Y-18602998D01*
X61678657Y-18403649D01*
X61649536Y-18307632D01*
X61543703Y-18077828D01*
X61395071Y-17873087D01*
X61209352Y-17701276D01*
X60993683Y-17568999D01*
X60756352Y-17481338D01*
X60557000Y-17552408D01*
X60557000Y-18603000D01*
X60577000Y-18603000D01*
X60577000Y-18857000D01*
X60557000Y-18857000D01*
X60557000Y-18877000D01*
X60303000Y-18877000D01*
X60303000Y-18857000D01*
X60283000Y-18857000D01*
X60283000Y-18603000D01*
X60303000Y-18603000D01*
X60303000Y-17552408D01*
X60103648Y-17481338D01*
X59866317Y-17568999D01*
X59650648Y-17701276D01*
X59464929Y-17873087D01*
X59316297Y-18077828D01*
X59210464Y-18307632D01*
X59181343Y-18403649D01*
X59252981Y-18602998D01*
X59174436Y-18602998D01*
X59163985Y-18488166D01*
X59092868Y-18246533D01*
X58976173Y-18023315D01*
X58818343Y-17827014D01*
X58625391Y-17665109D01*
X58404666Y-17543764D01*
X58164576Y-17467603D01*
X57914265Y-17439526D01*
X57896245Y-17439400D01*
X57883755Y-17439400D01*
X57633076Y-17463979D01*
X57391946Y-17536781D01*
X57169548Y-17655032D01*
X56974354Y-17814228D01*
X56813799Y-18008306D01*
X56693998Y-18229872D01*
X56619515Y-18470489D01*
X56619322Y-18472323D01*
X56552868Y-18246533D01*
X56436173Y-18023315D01*
X56278343Y-17827014D01*
X56085391Y-17665109D01*
X55864666Y-17543764D01*
X55624576Y-17467603D01*
X55374265Y-17439526D01*
X55356245Y-17439400D01*
X55343755Y-17439400D01*
X55093076Y-17463979D01*
X54851946Y-17536781D01*
X54629548Y-17655032D01*
X54434354Y-17814228D01*
X54273799Y-18008306D01*
X54153998Y-18229872D01*
X54079515Y-18470489D01*
X54079322Y-18472323D01*
X54012868Y-18246533D01*
X53896173Y-18023315D01*
X53738343Y-17827014D01*
X53545391Y-17665109D01*
X53324666Y-17543764D01*
X53084576Y-17467603D01*
X52834265Y-17439526D01*
X52816245Y-17439400D01*
X52803755Y-17439400D01*
X52553076Y-17463979D01*
X52311946Y-17536781D01*
X52089548Y-17655032D01*
X51894354Y-17814228D01*
X51733799Y-18008306D01*
X51613998Y-18229872D01*
X51539515Y-18470489D01*
X51539322Y-18472323D01*
X51472868Y-18246533D01*
X51356173Y-18023315D01*
X51198343Y-17827014D01*
X51005391Y-17665109D01*
X50784666Y-17543764D01*
X50544576Y-17467603D01*
X50294265Y-17439526D01*
X50276245Y-17439400D01*
X50263755Y-17439400D01*
X50013076Y-17463979D01*
X49771946Y-17536781D01*
X49549548Y-17655032D01*
X49354354Y-17814228D01*
X49193799Y-18008306D01*
X49073998Y-18229872D01*
X48999515Y-18470489D01*
X48985588Y-18602998D01*
X48907019Y-18602998D01*
X48978657Y-18403649D01*
X48949536Y-18307632D01*
X48843703Y-18077828D01*
X48695071Y-17873087D01*
X48509352Y-17701276D01*
X48293683Y-17568999D01*
X48056352Y-17481338D01*
X47857000Y-17552408D01*
X47857000Y-18603000D01*
X47877000Y-18603000D01*
X47877000Y-18857000D01*
X47857000Y-18857000D01*
X47857000Y-18877000D01*
X47603000Y-18877000D01*
X47603000Y-18857000D01*
X47583000Y-18857000D01*
X47583000Y-18603000D01*
X47603000Y-18603000D01*
X47603000Y-17552408D01*
X47403648Y-17481338D01*
X47166317Y-17568999D01*
X46950648Y-17701276D01*
X46764929Y-17873087D01*
X46616297Y-18077828D01*
X46510464Y-18307632D01*
X46481343Y-18403649D01*
X46552981Y-18602998D01*
X46474436Y-18602998D01*
X46463985Y-18488166D01*
X46392868Y-18246533D01*
X46276173Y-18023315D01*
X46118343Y-17827014D01*
X45925391Y-17665109D01*
X45704666Y-17543764D01*
X45464576Y-17467603D01*
X45214265Y-17439526D01*
X45196245Y-17439400D01*
X45183755Y-17439400D01*
X44933076Y-17463979D01*
X44691946Y-17536781D01*
X44469548Y-17655032D01*
X44274354Y-17814228D01*
X44113799Y-18008306D01*
X43993998Y-18229872D01*
X43919515Y-18470489D01*
X43919322Y-18472323D01*
X43852868Y-18246533D01*
X43736173Y-18023315D01*
X43578343Y-17827014D01*
X43385391Y-17665109D01*
X43164666Y-17543764D01*
X42924576Y-17467603D01*
X42674265Y-17439526D01*
X42656245Y-17439400D01*
X42643755Y-17439400D01*
X42393076Y-17463979D01*
X42151946Y-17536781D01*
X41929548Y-17655032D01*
X41734354Y-17814228D01*
X41573799Y-18008306D01*
X41453998Y-18229872D01*
X41379515Y-18470489D01*
X41365588Y-18602998D01*
X41287019Y-18602998D01*
X41358657Y-18403649D01*
X41329536Y-18307632D01*
X41223703Y-18077828D01*
X41075071Y-17873087D01*
X40889352Y-17701276D01*
X40673683Y-17568999D01*
X40436352Y-17481338D01*
X40237000Y-17552408D01*
X40237000Y-18603000D01*
X40257000Y-18603000D01*
X40257000Y-18857000D01*
X40237000Y-18857000D01*
X40237000Y-18877000D01*
X39983000Y-18877000D01*
X39983000Y-18857000D01*
X39963000Y-18857000D01*
X39963000Y-18603000D01*
X39983000Y-18603000D01*
X39983000Y-17552408D01*
X39783648Y-17481338D01*
X39546317Y-17568999D01*
X39330648Y-17701276D01*
X39144929Y-17873087D01*
X38996297Y-18077828D01*
X38890464Y-18307632D01*
X38861343Y-18403649D01*
X38932981Y-18602998D01*
X38854436Y-18602998D01*
X38843985Y-18488166D01*
X38772868Y-18246533D01*
X38656173Y-18023315D01*
X38498343Y-17827014D01*
X38305391Y-17665109D01*
X38084666Y-17543764D01*
X37844576Y-17467603D01*
X37594265Y-17439526D01*
X37576245Y-17439400D01*
X37563755Y-17439400D01*
X37313076Y-17463979D01*
X37071946Y-17536781D01*
X36849548Y-17655032D01*
X36654354Y-17814228D01*
X36493799Y-18008306D01*
X36373998Y-18229872D01*
X36299515Y-18470489D01*
X36299322Y-18472323D01*
X36232868Y-18246533D01*
X36116173Y-18023315D01*
X35958343Y-17827014D01*
X35765391Y-17665109D01*
X35544666Y-17543764D01*
X35304576Y-17467603D01*
X35054265Y-17439526D01*
X35036245Y-17439400D01*
X35023755Y-17439400D01*
X34773076Y-17463979D01*
X34531946Y-17536781D01*
X34309548Y-17655032D01*
X34114354Y-17814228D01*
X33953799Y-18008306D01*
X33833998Y-18229872D01*
X33759515Y-18470489D01*
X33759322Y-18472323D01*
X33692868Y-18246533D01*
X33576173Y-18023315D01*
X33418343Y-17827014D01*
X33225391Y-17665109D01*
X33004666Y-17543764D01*
X32764576Y-17467603D01*
X32514265Y-17439526D01*
X32496245Y-17439400D01*
X32483755Y-17439400D01*
X32233076Y-17463979D01*
X31991946Y-17536781D01*
X31769548Y-17655032D01*
X31574354Y-17814228D01*
X31413799Y-18008306D01*
X31293998Y-18229872D01*
X31219515Y-18470489D01*
X31205588Y-18602998D01*
X31127019Y-18602998D01*
X31198657Y-18403649D01*
X31169536Y-18307632D01*
X31063703Y-18077828D01*
X30915071Y-17873087D01*
X30729352Y-17701276D01*
X30513683Y-17568999D01*
X30276352Y-17481338D01*
X30077000Y-17552408D01*
X30077000Y-18603000D01*
X30097000Y-18603000D01*
X30097000Y-18857000D01*
X30077000Y-18857000D01*
X30077000Y-18877000D01*
X29823000Y-18877000D01*
X29823000Y-18857000D01*
X29803000Y-18857000D01*
X29803000Y-18603000D01*
X29823000Y-18603000D01*
X29823000Y-17552408D01*
X29623648Y-17481338D01*
X29386317Y-17568999D01*
X29170648Y-17701276D01*
X28984929Y-17873087D01*
X28836297Y-18077828D01*
X28730464Y-18307632D01*
X28701343Y-18403649D01*
X28772981Y-18602998D01*
X28694436Y-18602998D01*
X28683985Y-18488166D01*
X28612868Y-18246533D01*
X28496173Y-18023315D01*
X28338343Y-17827014D01*
X28145391Y-17665109D01*
X27924666Y-17543764D01*
X27684576Y-17467603D01*
X27434265Y-17439526D01*
X27416245Y-17439400D01*
X27403755Y-17439400D01*
X27153076Y-17463979D01*
X26911946Y-17536781D01*
X26689548Y-17655032D01*
X26494354Y-17814228D01*
X26333799Y-18008306D01*
X26213998Y-18229872D01*
X26139515Y-18470489D01*
X26139322Y-18472323D01*
X26072868Y-18246533D01*
X25956173Y-18023315D01*
X25798343Y-17827014D01*
X25605391Y-17665109D01*
X25384666Y-17543764D01*
X25144576Y-17467603D01*
X24894265Y-17439526D01*
X24876245Y-17439400D01*
X24863755Y-17439400D01*
X24613076Y-17463979D01*
X24371946Y-17536781D01*
X24149548Y-17655032D01*
X23954354Y-17814228D01*
X23793799Y-18008306D01*
X23673998Y-18229872D01*
X23599515Y-18470489D01*
X23573186Y-18720990D01*
X23596015Y-18971834D01*
X23640310Y-19122334D01*
X23383160Y-19379484D01*
X23379004Y-19336234D01*
X23184583Y-18689777D01*
X22867780Y-18093671D01*
X22858669Y-18080036D01*
X22447589Y-17732016D01*
X20179605Y-20000000D01*
X22447589Y-22267984D01*
X22858669Y-21919964D01*
X22957900Y-21735374D01*
X22957900Y-24500000D01*
X22963237Y-24554429D01*
X22968004Y-24608918D01*
X22968872Y-24611906D01*
X22969176Y-24615006D01*
X22984999Y-24667415D01*
X23000244Y-24719887D01*
X23001675Y-24722648D01*
X23002576Y-24725632D01*
X23028279Y-24773973D01*
X23053423Y-24822480D01*
X23055364Y-24824911D01*
X23056827Y-24827663D01*
X23091419Y-24870077D01*
X23125517Y-24912791D01*
X23129789Y-24917124D01*
X23129863Y-24917214D01*
X23129947Y-24917283D01*
X23131322Y-24918678D01*
X24762895Y-26550251D01*
X24777781Y-26631358D01*
X24830265Y-26763918D01*
X24907498Y-26883760D01*
X25006537Y-26986317D01*
X25123610Y-27067685D01*
X25254258Y-27124764D01*
X25393504Y-27155379D01*
X25536045Y-27158365D01*
X25676451Y-27133608D01*
X25809374Y-27082050D01*
X25929752Y-27005656D01*
X26032999Y-26907336D01*
X26115182Y-26790833D01*
X26173171Y-26660587D01*
X26204758Y-26521558D01*
X26207032Y-26358714D01*
X26179339Y-26218857D01*
X26125009Y-26087043D01*
X26046111Y-25968291D01*
X25945650Y-25867126D01*
X25827452Y-25787401D01*
X25696020Y-25732152D01*
X25599746Y-25712390D01*
X24142100Y-24254744D01*
X24142100Y-22562666D01*
X25733600Y-22562666D01*
X25790753Y-22558109D01*
X27117900Y-23885256D01*
X27117900Y-26097884D01*
X27069842Y-26168070D01*
X27013677Y-26299113D01*
X26984035Y-26438570D01*
X26982044Y-26581128D01*
X27007781Y-26721358D01*
X27060265Y-26853918D01*
X27137498Y-26973760D01*
X27236537Y-27076317D01*
X27353610Y-27157685D01*
X27484258Y-27214764D01*
X27623504Y-27245379D01*
X27766045Y-27248365D01*
X27906451Y-27223608D01*
X28039374Y-27172050D01*
X28159752Y-27095656D01*
X28262999Y-26997336D01*
X28345182Y-26880833D01*
X28403171Y-26750587D01*
X28434758Y-26611558D01*
X28437032Y-26448714D01*
X28409339Y-26308857D01*
X28355009Y-26177043D01*
X28302100Y-26097408D01*
X28302100Y-25901738D01*
X36432311Y-25901738D01*
X36432311Y-26052706D01*
X37170000Y-26790395D01*
X37907689Y-26052706D01*
X37907689Y-25901738D01*
X37442197Y-25436246D01*
X37372261Y-25389516D01*
X37294550Y-25357328D01*
X37212055Y-25340919D01*
X37127944Y-25340918D01*
X37045448Y-25357328D01*
X36967739Y-25389516D01*
X36897803Y-25436246D01*
X36432311Y-25901738D01*
X28302100Y-25901738D01*
X28302100Y-23640000D01*
X28296759Y-23585526D01*
X28291996Y-23531082D01*
X28291128Y-23528094D01*
X28290824Y-23524994D01*
X28275001Y-23472585D01*
X28259756Y-23420113D01*
X28258325Y-23417352D01*
X28257424Y-23414368D01*
X28231721Y-23366027D01*
X28206577Y-23317520D01*
X28204636Y-23315089D01*
X28203173Y-23312337D01*
X28168556Y-23269892D01*
X28134482Y-23227209D01*
X28130212Y-23222878D01*
X28130137Y-23222786D01*
X28130052Y-23222716D01*
X28128678Y-23221322D01*
X27463338Y-22555982D01*
X27666924Y-22536021D01*
X27908054Y-22463219D01*
X28130452Y-22344968D01*
X28325646Y-22185772D01*
X28486201Y-21991694D01*
X28606002Y-21770128D01*
X28680485Y-21529511D01*
X28680678Y-21527677D01*
X28747132Y-21753467D01*
X28863827Y-21976685D01*
X29021657Y-22172986D01*
X29214609Y-22334891D01*
X29435334Y-22456236D01*
X29675424Y-22532397D01*
X29925735Y-22560474D01*
X29943755Y-22560600D01*
X29956245Y-22560600D01*
X30206924Y-22536021D01*
X30448054Y-22463219D01*
X30670452Y-22344968D01*
X30865646Y-22185772D01*
X31026201Y-21991694D01*
X31146002Y-21770128D01*
X31220485Y-21529511D01*
X31220678Y-21527677D01*
X31287132Y-21753467D01*
X31403827Y-21976685D01*
X31561657Y-22172986D01*
X31754609Y-22334891D01*
X31975334Y-22456236D01*
X32215424Y-22532397D01*
X32465735Y-22560474D01*
X32483755Y-22560600D01*
X32496245Y-22560600D01*
X32746924Y-22536021D01*
X32988054Y-22463219D01*
X33210452Y-22344968D01*
X33405646Y-22185772D01*
X33566201Y-21991694D01*
X33686002Y-21770128D01*
X33760485Y-21529511D01*
X33774412Y-21397002D01*
X33852981Y-21397002D01*
X33781343Y-21596351D01*
X33810464Y-21692368D01*
X33916297Y-21922172D01*
X34064929Y-22126913D01*
X34250648Y-22298724D01*
X34466317Y-22431001D01*
X34703648Y-22518662D01*
X34903000Y-22447592D01*
X34903000Y-21397000D01*
X34883000Y-21397000D01*
X34883000Y-21143000D01*
X34903000Y-21143000D01*
X34903000Y-21123000D01*
X35157000Y-21123000D01*
X35157000Y-21143000D01*
X35177000Y-21143000D01*
X35177000Y-21397000D01*
X35157000Y-21397000D01*
X35157000Y-22447592D01*
X35356352Y-22518662D01*
X35593683Y-22431001D01*
X35809352Y-22298724D01*
X35995071Y-22126913D01*
X36143703Y-21922172D01*
X36249536Y-21692368D01*
X36278657Y-21596351D01*
X36207019Y-21397002D01*
X36285564Y-21397002D01*
X36296015Y-21511834D01*
X36367132Y-21753467D01*
X36483827Y-21976685D01*
X36641657Y-22172986D01*
X36834609Y-22334891D01*
X37055334Y-22456236D01*
X37295424Y-22532397D01*
X37545735Y-22560474D01*
X37563755Y-22560600D01*
X37576245Y-22560600D01*
X37826924Y-22536021D01*
X38068054Y-22463219D01*
X38290452Y-22344968D01*
X38485646Y-22185772D01*
X38646201Y-21991694D01*
X38766002Y-21770128D01*
X38840485Y-21529511D01*
X38840678Y-21527677D01*
X38907132Y-21753467D01*
X39023827Y-21976685D01*
X39181657Y-22172986D01*
X39374609Y-22334891D01*
X39595334Y-22456236D01*
X39835424Y-22532397D01*
X40085735Y-22560474D01*
X40103755Y-22560600D01*
X40116245Y-22560600D01*
X40366924Y-22536021D01*
X40608054Y-22463219D01*
X40830452Y-22344968D01*
X41025646Y-22185772D01*
X41186201Y-21991694D01*
X41306002Y-21770128D01*
X41380485Y-21529511D01*
X41380678Y-21527677D01*
X41447132Y-21753467D01*
X41563827Y-21976685D01*
X41721657Y-22172986D01*
X41914609Y-22334891D01*
X42135334Y-22456236D01*
X42375424Y-22532397D01*
X42625735Y-22560474D01*
X42643755Y-22560600D01*
X42656245Y-22560600D01*
X42906924Y-22536021D01*
X43148054Y-22463219D01*
X43370452Y-22344968D01*
X43565646Y-22185772D01*
X43726201Y-21991694D01*
X43846002Y-21770128D01*
X43920485Y-21529511D01*
X43920678Y-21527677D01*
X43987132Y-21753467D01*
X44103827Y-21976685D01*
X44261657Y-22172986D01*
X44454609Y-22334891D01*
X44675334Y-22456236D01*
X44915424Y-22532397D01*
X45165735Y-22560474D01*
X45183755Y-22560600D01*
X45196245Y-22560600D01*
X45446924Y-22536021D01*
X45688054Y-22463219D01*
X45910452Y-22344968D01*
X46105646Y-22185772D01*
X46266201Y-21991694D01*
X46386002Y-21770128D01*
X46460485Y-21529511D01*
X46460678Y-21527677D01*
X46527132Y-21753467D01*
X46643827Y-21976685D01*
X46801657Y-22172986D01*
X46994609Y-22334891D01*
X47215334Y-22456236D01*
X47455424Y-22532397D01*
X47705735Y-22560474D01*
X47723755Y-22560600D01*
X47736245Y-22560600D01*
X47986924Y-22536021D01*
X48228054Y-22463219D01*
X48450452Y-22344968D01*
X48645646Y-22185772D01*
X48806201Y-21991694D01*
X48926002Y-21770128D01*
X49000485Y-21529511D01*
X49000678Y-21527677D01*
X49067132Y-21753467D01*
X49183827Y-21976685D01*
X49341657Y-22172986D01*
X49534609Y-22334891D01*
X49755334Y-22456236D01*
X49995424Y-22532397D01*
X50245735Y-22560474D01*
X50263755Y-22560600D01*
X50276245Y-22560600D01*
X50526924Y-22536021D01*
X50768054Y-22463219D01*
X50990452Y-22344968D01*
X51185646Y-22185772D01*
X51346201Y-21991694D01*
X51466002Y-21770128D01*
X51540485Y-21529511D01*
X51540678Y-21527677D01*
X51607132Y-21753467D01*
X51723827Y-21976685D01*
X51881657Y-22172986D01*
X52074609Y-22334891D01*
X52295334Y-22456236D01*
X52535424Y-22532397D01*
X52785735Y-22560474D01*
X52803755Y-22560600D01*
X52816245Y-22560600D01*
X53066924Y-22536021D01*
X53308054Y-22463219D01*
X53530452Y-22344968D01*
X53725646Y-22185772D01*
X53886201Y-21991694D01*
X54006002Y-21770128D01*
X54080485Y-21529511D01*
X54094412Y-21397002D01*
X54172981Y-21397002D01*
X54101343Y-21596351D01*
X54130464Y-21692368D01*
X54236297Y-21922172D01*
X54384929Y-22126913D01*
X54570648Y-22298724D01*
X54786317Y-22431001D01*
X55023648Y-22518662D01*
X55223000Y-22447592D01*
X55223000Y-21397000D01*
X55203000Y-21397000D01*
X55203000Y-21143000D01*
X55223000Y-21143000D01*
X55223000Y-21123000D01*
X55477000Y-21123000D01*
X55477000Y-21143000D01*
X55497000Y-21143000D01*
X55497000Y-21397000D01*
X55477000Y-21397000D01*
X55477000Y-22447592D01*
X55676352Y-22518662D01*
X55913683Y-22431001D01*
X56129352Y-22298724D01*
X56315071Y-22126913D01*
X56463703Y-21922172D01*
X56569536Y-21692368D01*
X56598657Y-21596351D01*
X56527019Y-21397002D01*
X56605564Y-21397002D01*
X56616015Y-21511834D01*
X56687132Y-21753467D01*
X56803827Y-21976685D01*
X56961657Y-22172986D01*
X57154609Y-22334891D01*
X57375334Y-22456236D01*
X57615424Y-22532397D01*
X57865735Y-22560474D01*
X57883755Y-22560600D01*
X57896245Y-22560600D01*
X58146924Y-22536021D01*
X58388054Y-22463219D01*
X58610452Y-22344968D01*
X58805646Y-22185772D01*
X58966201Y-21991694D01*
X59086002Y-21770128D01*
X59160485Y-21529511D01*
X59160678Y-21527677D01*
X59227132Y-21753467D01*
X59343827Y-21976685D01*
X59501657Y-22172986D01*
X59694609Y-22334891D01*
X59915334Y-22456236D01*
X60155424Y-22532397D01*
X60405735Y-22560474D01*
X60423755Y-22560600D01*
X60436245Y-22560600D01*
X60686924Y-22536021D01*
X60928054Y-22463219D01*
X61150452Y-22344968D01*
X61345646Y-22185772D01*
X61506201Y-21991694D01*
X61626002Y-21770128D01*
X61700485Y-21529511D01*
X61700678Y-21527677D01*
X61767132Y-21753467D01*
X61883827Y-21976685D01*
X62041657Y-22172986D01*
X62234609Y-22334891D01*
X62455334Y-22456236D01*
X62695424Y-22532397D01*
X62945735Y-22560474D01*
X62963755Y-22560600D01*
X62976245Y-22560600D01*
X63226924Y-22536021D01*
X63468054Y-22463219D01*
X63678000Y-22351589D01*
X63678000Y-23250000D01*
X63683066Y-23301670D01*
X63687591Y-23353381D01*
X63688414Y-23356215D01*
X63688703Y-23359160D01*
X63703721Y-23408903D01*
X63718191Y-23458709D01*
X63719550Y-23461332D01*
X63720405Y-23464162D01*
X63744785Y-23510014D01*
X63768667Y-23556087D01*
X63770510Y-23558396D01*
X63771898Y-23561006D01*
X63804721Y-23601251D01*
X63837096Y-23641806D01*
X63841152Y-23645920D01*
X63841221Y-23646004D01*
X63841299Y-23646069D01*
X63842606Y-23647394D01*
X65803326Y-25608114D01*
X65827781Y-25741358D01*
X65880265Y-25873918D01*
X65947277Y-25977900D01*
X40924150Y-25977900D01*
X40869767Y-25983232D01*
X40815233Y-25988003D01*
X40812241Y-25988872D01*
X40809144Y-25989176D01*
X40756811Y-26004976D01*
X40704263Y-26020243D01*
X40701498Y-26021676D01*
X40698518Y-26022576D01*
X40650213Y-26048260D01*
X40601670Y-26073423D01*
X40599239Y-26075364D01*
X40596487Y-26076827D01*
X40554073Y-26111419D01*
X40511359Y-26145517D01*
X40507026Y-26149789D01*
X40506936Y-26149863D01*
X40506867Y-26149947D01*
X40505472Y-26151322D01*
X33971322Y-32685472D01*
X33936605Y-32727738D01*
X33901450Y-32769633D01*
X33899950Y-32772361D01*
X33897974Y-32774767D01*
X33872126Y-32822974D01*
X33845780Y-32870897D01*
X33844839Y-32873864D01*
X33843367Y-32876609D01*
X33827367Y-32928942D01*
X33810839Y-32981045D01*
X33810492Y-32984137D01*
X33809581Y-32987117D01*
X33804047Y-33041601D01*
X33797958Y-33095883D01*
X33797915Y-33101961D01*
X33797903Y-33102083D01*
X33797914Y-33102196D01*
X33797900Y-33104150D01*
X33797900Y-66650544D01*
X32298678Y-65151322D01*
X32256412Y-65116605D01*
X32214517Y-65081450D01*
X32211789Y-65079950D01*
X32209383Y-65077974D01*
X32161176Y-65052126D01*
X32113253Y-65025780D01*
X32110286Y-65024839D01*
X32107541Y-65023367D01*
X32055208Y-65007367D01*
X32003105Y-64990839D01*
X32000013Y-64990492D01*
X31997033Y-64989581D01*
X31942549Y-64984047D01*
X31888267Y-64977958D01*
X31882189Y-64977915D01*
X31882067Y-64977903D01*
X31881954Y-64977914D01*
X31880000Y-64977900D01*
X22235256Y-64977900D01*
X19515606Y-62258250D01*
X20884000Y-62258250D01*
X20884000Y-62654056D01*
X20900409Y-62736551D01*
X20932598Y-62814261D01*
X20979328Y-62884197D01*
X21038803Y-62943673D01*
X21108740Y-62990403D01*
X21186449Y-63022591D01*
X21268944Y-63039000D01*
X22327250Y-63039000D01*
X22434000Y-62932250D01*
X22434000Y-62151500D01*
X22688000Y-62151500D01*
X22688000Y-62932250D01*
X22794750Y-63039000D01*
X24327250Y-63039000D01*
X24434000Y-62932250D01*
X24434000Y-62151500D01*
X24688000Y-62151500D01*
X24688000Y-62932250D01*
X24794750Y-63039000D01*
X25853056Y-63039000D01*
X25935551Y-63022591D01*
X26013260Y-62990403D01*
X26083197Y-62943673D01*
X26142672Y-62884197D01*
X26189402Y-62814261D01*
X26221591Y-62736551D01*
X26238000Y-62654056D01*
X26238000Y-62258250D01*
X26131250Y-62151500D01*
X24688000Y-62151500D01*
X24434000Y-62151500D01*
X22688000Y-62151500D01*
X22434000Y-62151500D01*
X20990750Y-62151500D01*
X20884000Y-62258250D01*
X19515606Y-62258250D01*
X18629935Y-61372579D01*
X18723610Y-61437685D01*
X18854258Y-61494764D01*
X18993504Y-61525379D01*
X19136045Y-61528365D01*
X19276451Y-61503608D01*
X19409374Y-61452050D01*
X19529752Y-61375656D01*
X19632999Y-61277336D01*
X19715182Y-61160833D01*
X19749724Y-61083250D01*
X20884000Y-61083250D01*
X20884000Y-61790750D01*
X20990750Y-61897500D01*
X22434000Y-61897500D01*
X22434000Y-60976500D01*
X22688000Y-60976500D01*
X22688000Y-61897500D01*
X24434000Y-61897500D01*
X24434000Y-60976500D01*
X24688000Y-60976500D01*
X24688000Y-61897500D01*
X26131250Y-61897500D01*
X26238000Y-61790750D01*
X26238000Y-61083250D01*
X26131250Y-60976500D01*
X24688000Y-60976500D01*
X24434000Y-60976500D01*
X22688000Y-60976500D01*
X22434000Y-60976500D01*
X20990750Y-60976500D01*
X20884000Y-61083250D01*
X19749724Y-61083250D01*
X19773171Y-61030587D01*
X19804758Y-60891558D01*
X19805063Y-60869725D01*
X20454844Y-60219944D01*
X20884000Y-60219944D01*
X20884000Y-60615750D01*
X20990750Y-60722500D01*
X22434000Y-60722500D01*
X22434000Y-59941750D01*
X22688000Y-59941750D01*
X22688000Y-60722500D01*
X24434000Y-60722500D01*
X24434000Y-59941750D01*
X24688000Y-59941750D01*
X24688000Y-60722500D01*
X26131250Y-60722500D01*
X26238000Y-60615750D01*
X26238000Y-60219944D01*
X26221591Y-60137449D01*
X26189402Y-60059739D01*
X26142672Y-59989803D01*
X26083197Y-59930327D01*
X26013260Y-59883597D01*
X25935551Y-59851409D01*
X25853056Y-59835000D01*
X24794750Y-59835000D01*
X24688000Y-59941750D01*
X24434000Y-59941750D01*
X24327250Y-59835000D01*
X22794750Y-59835000D01*
X22688000Y-59941750D01*
X22434000Y-59941750D01*
X22327250Y-59835000D01*
X21268944Y-59835000D01*
X21186449Y-59851409D01*
X21108740Y-59883597D01*
X21038803Y-59930327D01*
X20979328Y-59989803D01*
X20932598Y-60059739D01*
X20900409Y-60137449D01*
X20884000Y-60219944D01*
X20454844Y-60219944D01*
X23337394Y-57337394D01*
X23370329Y-57297298D01*
X23403714Y-57257511D01*
X23405138Y-57254921D01*
X23407013Y-57252638D01*
X23431541Y-57206894D01*
X23456554Y-57161395D01*
X23457447Y-57158579D01*
X23458844Y-57155974D01*
X23474020Y-57106334D01*
X23489719Y-57056846D01*
X23490049Y-57053908D01*
X23490912Y-57051084D01*
X23496155Y-56999469D01*
X23501945Y-56947847D01*
X23501986Y-56942065D01*
X23501996Y-56941962D01*
X23501987Y-56941866D01*
X23502000Y-56940000D01*
X23502000Y-56834576D01*
X23575182Y-56730833D01*
X23633171Y-56600587D01*
X23664758Y-56461558D01*
X23667032Y-56298714D01*
X23639339Y-56158857D01*
X23585009Y-56027043D01*
X23506111Y-55908291D01*
X23405650Y-55807126D01*
X23287452Y-55727401D01*
X23156020Y-55672152D01*
X23016360Y-55643484D01*
X22873791Y-55642489D01*
X22733744Y-55669204D01*
X22601554Y-55722612D01*
X22482255Y-55800680D01*
X22380391Y-55900432D01*
X22299842Y-56018070D01*
X22243677Y-56149113D01*
X22214035Y-56288570D01*
X22212044Y-56431128D01*
X22237781Y-56571358D01*
X22290265Y-56703918D01*
X22325939Y-56759273D01*
X21945457Y-57139755D01*
X21939339Y-57108857D01*
X21885009Y-56977043D01*
X21806111Y-56858291D01*
X21705650Y-56757126D01*
X21587452Y-56677401D01*
X21456020Y-56622152D01*
X21316360Y-56593484D01*
X21173791Y-56592489D01*
X21033744Y-56619204D01*
X20901554Y-56672612D01*
X20817066Y-56727900D01*
X19400000Y-56727900D01*
X19345526Y-56733241D01*
X19291082Y-56738004D01*
X19288094Y-56738872D01*
X19284994Y-56739176D01*
X19232585Y-56754999D01*
X19180113Y-56770244D01*
X19177352Y-56771675D01*
X19174368Y-56772576D01*
X19126027Y-56798279D01*
X19077520Y-56823423D01*
X19075089Y-56825364D01*
X19072337Y-56826827D01*
X19029892Y-56861444D01*
X18987209Y-56895518D01*
X18982878Y-56899788D01*
X18982786Y-56899863D01*
X18982716Y-56899948D01*
X18981322Y-56901322D01*
X17271322Y-58611322D01*
X17236605Y-58653588D01*
X17201450Y-58695483D01*
X17199950Y-58698211D01*
X17197974Y-58700617D01*
X17172126Y-58748824D01*
X17145780Y-58796747D01*
X17144839Y-58799714D01*
X17143367Y-58802459D01*
X17127367Y-58854792D01*
X17110839Y-58906895D01*
X17110492Y-58909987D01*
X17109581Y-58912967D01*
X17104047Y-58967451D01*
X17097958Y-59021733D01*
X17097915Y-59027811D01*
X17097903Y-59027933D01*
X17097914Y-59028046D01*
X17097900Y-59030000D01*
X17002000Y-59030000D01*
X17002000Y-43909974D01*
X18729437Y-43909974D01*
X18771530Y-44139319D01*
X18857367Y-44356119D01*
X18983680Y-44552118D01*
X19145657Y-44719850D01*
X19337128Y-44852926D01*
X19550801Y-44946278D01*
X19778537Y-44996349D01*
X20001936Y-45001028D01*
X19999437Y-45179974D01*
X20041530Y-45409319D01*
X20127367Y-45626119D01*
X20253680Y-45822118D01*
X20415657Y-45989850D01*
X20607128Y-46122926D01*
X20820801Y-46216278D01*
X21048537Y-46266349D01*
X21281660Y-46271232D01*
X21511293Y-46230741D01*
X21728687Y-46146420D01*
X21925563Y-46021478D01*
X22094422Y-45860676D01*
X22228832Y-45670139D01*
X22323672Y-45457123D01*
X22375332Y-45229742D01*
X22378574Y-44997607D01*
X22541936Y-45001028D01*
X22539437Y-45179974D01*
X22581530Y-45409319D01*
X22667367Y-45626119D01*
X22793680Y-45822118D01*
X22955657Y-45989850D01*
X23147128Y-46122926D01*
X23360801Y-46216278D01*
X23588537Y-46266349D01*
X23821660Y-46271232D01*
X24051293Y-46230741D01*
X24268687Y-46146420D01*
X24465563Y-46021478D01*
X24634422Y-45860676D01*
X24768832Y-45670139D01*
X24863672Y-45457123D01*
X24915332Y-45229742D01*
X24918574Y-44997607D01*
X25081936Y-45001028D01*
X25079437Y-45179974D01*
X25121530Y-45409319D01*
X25207367Y-45626119D01*
X25333680Y-45822118D01*
X25495657Y-45989850D01*
X25687128Y-46122926D01*
X25900801Y-46216278D01*
X26128537Y-46266349D01*
X26361660Y-46271232D01*
X26591293Y-46230741D01*
X26808687Y-46146420D01*
X27005563Y-46021478D01*
X27174422Y-45860676D01*
X27308832Y-45670139D01*
X27403672Y-45457123D01*
X27455332Y-45229742D01*
X27458574Y-44997607D01*
X27621936Y-45001028D01*
X27619437Y-45179974D01*
X27661530Y-45409319D01*
X27747367Y-45626119D01*
X27873680Y-45822118D01*
X28035657Y-45989850D01*
X28227128Y-46122926D01*
X28440801Y-46216278D01*
X28668537Y-46266349D01*
X28901660Y-46271232D01*
X29131293Y-46230741D01*
X29348687Y-46146420D01*
X29545563Y-46021478D01*
X29714422Y-45860676D01*
X29848832Y-45670139D01*
X29943672Y-45457123D01*
X29995332Y-45229742D01*
X29999051Y-44963413D01*
X29953760Y-44734678D01*
X29864904Y-44519097D01*
X29735867Y-44324881D01*
X29571564Y-44159427D01*
X29378253Y-44029037D01*
X29163298Y-43938678D01*
X28934886Y-43891792D01*
X28726301Y-43890336D01*
X28729051Y-43693413D01*
X28683760Y-43464678D01*
X28594904Y-43249097D01*
X28465867Y-43054881D01*
X28301564Y-42889427D01*
X28108253Y-42759037D01*
X27893298Y-42668678D01*
X27664886Y-42621792D01*
X27431716Y-42620164D01*
X27202672Y-42663857D01*
X26986476Y-42751206D01*
X26791363Y-42878884D01*
X26624766Y-43042028D01*
X26493030Y-43234423D01*
X26401173Y-43448743D01*
X26352693Y-43676822D01*
X26349695Y-43891476D01*
X26186301Y-43890336D01*
X26189051Y-43693413D01*
X26143760Y-43464678D01*
X26054904Y-43249097D01*
X25925867Y-43054881D01*
X25761564Y-42889427D01*
X25568253Y-42759037D01*
X25353298Y-42668678D01*
X25124886Y-42621792D01*
X24891716Y-42620164D01*
X24662672Y-42663857D01*
X24446476Y-42751206D01*
X24251363Y-42878884D01*
X24084766Y-43042028D01*
X23953030Y-43234423D01*
X23861173Y-43448743D01*
X23812693Y-43676822D01*
X23809695Y-43891476D01*
X23646301Y-43890336D01*
X23649051Y-43693413D01*
X23603760Y-43464678D01*
X23514904Y-43249097D01*
X23385867Y-43054881D01*
X23221564Y-42889427D01*
X23028253Y-42759037D01*
X22813298Y-42668678D01*
X22584886Y-42621792D01*
X22351716Y-42620164D01*
X22122672Y-42663857D01*
X21906476Y-42751206D01*
X21711363Y-42878884D01*
X21544766Y-43042028D01*
X21413030Y-43234423D01*
X21321173Y-43448743D01*
X21272693Y-43676822D01*
X21269695Y-43891476D01*
X21106301Y-43890336D01*
X21109051Y-43693413D01*
X21063760Y-43464678D01*
X20974904Y-43249097D01*
X20845867Y-43054881D01*
X20681564Y-42889427D01*
X20488253Y-42759037D01*
X20273298Y-42668678D01*
X20044886Y-42621792D01*
X19811716Y-42620164D01*
X19582672Y-42663857D01*
X19366476Y-42751206D01*
X19171363Y-42878884D01*
X19004766Y-43042028D01*
X18873030Y-43234423D01*
X18781173Y-43448743D01*
X18732693Y-43676822D01*
X18729437Y-43909974D01*
X17002000Y-43909974D01*
X17002000Y-36289974D01*
X18729437Y-36289974D01*
X18771530Y-36519319D01*
X18857367Y-36736119D01*
X18983680Y-36932118D01*
X19145657Y-37099850D01*
X19337128Y-37232926D01*
X19550801Y-37326278D01*
X19778537Y-37376349D01*
X20011660Y-37381232D01*
X20241293Y-37340741D01*
X20458687Y-37256420D01*
X20655563Y-37131478D01*
X20824422Y-36970676D01*
X20958832Y-36780139D01*
X21053672Y-36567123D01*
X21105332Y-36339742D01*
X21108574Y-36107607D01*
X21271936Y-36111028D01*
X21269437Y-36289974D01*
X21311530Y-36519319D01*
X21397367Y-36736119D01*
X21523680Y-36932118D01*
X21685657Y-37099850D01*
X21877128Y-37232926D01*
X22090801Y-37326278D01*
X22318537Y-37376349D01*
X22551660Y-37381232D01*
X22781293Y-37340741D01*
X22998687Y-37256420D01*
X23195563Y-37131478D01*
X23364422Y-36970676D01*
X23498832Y-36780139D01*
X23593672Y-36567123D01*
X23645332Y-36339742D01*
X23648574Y-36107607D01*
X23811936Y-36111028D01*
X23809437Y-36289974D01*
X23851530Y-36519319D01*
X23937367Y-36736119D01*
X24063680Y-36932118D01*
X24225657Y-37099850D01*
X24417128Y-37232926D01*
X24630801Y-37326278D01*
X24858537Y-37376349D01*
X25091660Y-37381232D01*
X25321293Y-37340741D01*
X25538687Y-37256420D01*
X25735563Y-37131478D01*
X25904422Y-36970676D01*
X26038832Y-36780139D01*
X26133672Y-36567123D01*
X26185332Y-36339742D01*
X26188574Y-36107607D01*
X26351936Y-36111028D01*
X26349437Y-36289974D01*
X26391530Y-36519319D01*
X26477367Y-36736119D01*
X26603680Y-36932118D01*
X26765657Y-37099850D01*
X26957128Y-37232926D01*
X27170801Y-37326278D01*
X27398537Y-37376349D01*
X27631660Y-37381232D01*
X27861293Y-37340741D01*
X28078687Y-37256420D01*
X28275563Y-37131478D01*
X28444422Y-36970676D01*
X28578832Y-36780139D01*
X28673672Y-36567123D01*
X28678503Y-36545859D01*
X30657900Y-38525256D01*
X30657900Y-47044744D01*
X24119869Y-53582775D01*
X24033744Y-53599204D01*
X23901554Y-53652612D01*
X23782255Y-53730680D01*
X23680391Y-53830432D01*
X23599842Y-53948070D01*
X23543677Y-54079113D01*
X23514035Y-54218570D01*
X23512044Y-54361128D01*
X23537781Y-54501358D01*
X23590265Y-54633918D01*
X23667498Y-54753760D01*
X23766537Y-54856317D01*
X23883610Y-54937685D01*
X24014258Y-54994764D01*
X24153504Y-55025379D01*
X24296045Y-55028365D01*
X24436451Y-55003608D01*
X24569374Y-54952050D01*
X24689752Y-54875656D01*
X24792999Y-54777336D01*
X24875182Y-54660833D01*
X24933171Y-54530587D01*
X24958572Y-54418784D01*
X28642900Y-50734456D01*
X28642900Y-51905000D01*
X28648237Y-51959429D01*
X28653004Y-52013918D01*
X28653872Y-52016906D01*
X28654176Y-52020006D01*
X28669999Y-52072415D01*
X28685244Y-52124887D01*
X28686675Y-52127648D01*
X28687576Y-52130632D01*
X28713279Y-52178973D01*
X28738423Y-52227480D01*
X28740364Y-52229911D01*
X28741827Y-52232663D01*
X28776419Y-52275077D01*
X28810517Y-52317791D01*
X28814789Y-52322124D01*
X28814863Y-52322214D01*
X28814947Y-52322283D01*
X28816322Y-52323678D01*
X32142895Y-55650251D01*
X32157781Y-55731358D01*
X32210265Y-55863918D01*
X32287498Y-55983760D01*
X32386537Y-56086317D01*
X32503610Y-56167685D01*
X32634258Y-56224764D01*
X32773504Y-56255379D01*
X32916045Y-56258365D01*
X33056451Y-56233608D01*
X33189374Y-56182050D01*
X33309752Y-56105656D01*
X33412999Y-56007336D01*
X33495182Y-55890833D01*
X33553171Y-55760587D01*
X33584758Y-55621558D01*
X33587032Y-55458714D01*
X33559339Y-55318857D01*
X33505009Y-55187043D01*
X33426111Y-55068291D01*
X33325650Y-54967126D01*
X33207452Y-54887401D01*
X33076020Y-54832152D01*
X32979746Y-54812390D01*
X29827100Y-51659744D01*
X29827100Y-49550256D01*
X31668678Y-47708678D01*
X31703395Y-47666412D01*
X31738550Y-47624517D01*
X31740050Y-47621789D01*
X31742026Y-47619383D01*
X31767884Y-47571158D01*
X31794220Y-47523253D01*
X31795160Y-47520288D01*
X31796633Y-47517542D01*
X31812624Y-47465236D01*
X31829161Y-47413105D01*
X31829508Y-47410009D01*
X31830418Y-47407033D01*
X31835943Y-47352643D01*
X31842042Y-47298267D01*
X31842085Y-47292178D01*
X31842096Y-47292067D01*
X31842086Y-47291964D01*
X31842100Y-47290000D01*
X31842100Y-38280000D01*
X31836763Y-38225571D01*
X31831996Y-38171082D01*
X31831128Y-38168094D01*
X31830824Y-38164994D01*
X31815001Y-38112585D01*
X31799756Y-38060113D01*
X31798325Y-38057352D01*
X31797424Y-38054368D01*
X31771721Y-38006027D01*
X31746577Y-37957520D01*
X31744636Y-37955089D01*
X31743173Y-37952337D01*
X31708556Y-37909892D01*
X31674482Y-37867209D01*
X31670212Y-37862878D01*
X31670137Y-37862786D01*
X31670052Y-37862716D01*
X31668678Y-37861322D01*
X29608705Y-35801349D01*
X29714422Y-35700676D01*
X29848832Y-35510139D01*
X29943672Y-35297123D01*
X29995332Y-35069742D01*
X29999051Y-34803413D01*
X29953760Y-34574678D01*
X29864904Y-34359097D01*
X29735867Y-34164881D01*
X29571564Y-33999427D01*
X29378253Y-33869037D01*
X29163298Y-33778678D01*
X28934886Y-33731792D01*
X28701716Y-33730164D01*
X28472672Y-33773857D01*
X28256476Y-33861206D01*
X28061363Y-33988884D01*
X27894766Y-34152028D01*
X27763030Y-34344423D01*
X27671173Y-34558743D01*
X27622693Y-34786822D01*
X27619695Y-35001476D01*
X27456301Y-35000336D01*
X27459051Y-34803413D01*
X27413760Y-34574678D01*
X27324904Y-34359097D01*
X27195867Y-34164881D01*
X27031564Y-33999427D01*
X26838253Y-33869037D01*
X26623298Y-33778678D01*
X26394886Y-33731792D01*
X26161716Y-33730164D01*
X25932672Y-33773857D01*
X25716476Y-33861206D01*
X25521363Y-33988884D01*
X25354766Y-34152028D01*
X25223030Y-34344423D01*
X25131173Y-34558743D01*
X25082693Y-34786822D01*
X25079695Y-35001476D01*
X24916301Y-35000336D01*
X24919051Y-34803413D01*
X24873760Y-34574678D01*
X24784904Y-34359097D01*
X24655867Y-34164881D01*
X24491564Y-33999427D01*
X24298253Y-33869037D01*
X24083298Y-33778678D01*
X23854886Y-33731792D01*
X23621716Y-33730164D01*
X23392672Y-33773857D01*
X23176476Y-33861206D01*
X22981363Y-33988884D01*
X22814766Y-34152028D01*
X22683030Y-34344423D01*
X22591173Y-34558743D01*
X22542693Y-34786822D01*
X22539695Y-35001476D01*
X22376301Y-35000336D01*
X22379051Y-34803413D01*
X22333760Y-34574678D01*
X22244904Y-34359097D01*
X22115867Y-34164881D01*
X21951564Y-33999427D01*
X21758253Y-33869037D01*
X21543298Y-33778678D01*
X21314886Y-33731792D01*
X21081716Y-33730164D01*
X20852672Y-33773857D01*
X20636476Y-33861206D01*
X20441363Y-33988884D01*
X20274766Y-34152028D01*
X20143030Y-34344423D01*
X20051173Y-34558743D01*
X20002693Y-34786822D01*
X19999695Y-35001476D01*
X19811716Y-35000164D01*
X19582672Y-35043857D01*
X19366476Y-35131206D01*
X19171363Y-35258884D01*
X19004766Y-35422028D01*
X18873030Y-35614423D01*
X18781173Y-35828743D01*
X18732693Y-36056822D01*
X18729437Y-36289974D01*
X17002000Y-36289974D01*
X17002000Y-28748309D01*
X34092650Y-28748309D01*
X34114371Y-28996588D01*
X34183903Y-29235919D01*
X34298598Y-29457186D01*
X34454085Y-29651962D01*
X34466605Y-29664657D01*
X34475342Y-29673395D01*
X34667928Y-29831587D01*
X34887573Y-29949359D01*
X35125910Y-30022226D01*
X35373860Y-30047412D01*
X35621981Y-30023957D01*
X35860821Y-29952756D01*
X36081282Y-29836521D01*
X36274967Y-29679677D01*
X36434500Y-29488200D01*
X36553803Y-29269383D01*
X36628331Y-29031561D01*
X36655248Y-28783793D01*
X36633526Y-28535514D01*
X36563994Y-28296183D01*
X36449300Y-28074916D01*
X36358471Y-27961137D01*
X36432311Y-27887297D01*
X36432311Y-28038262D01*
X36897803Y-28503754D01*
X36967739Y-28550484D01*
X37045450Y-28582672D01*
X37127945Y-28599081D01*
X37212056Y-28599082D01*
X37294552Y-28582672D01*
X37372261Y-28550484D01*
X37442197Y-28503754D01*
X37907689Y-28038262D01*
X37907689Y-27887294D01*
X37170000Y-27149605D01*
X37155858Y-27163748D01*
X36976253Y-26984143D01*
X36990395Y-26970000D01*
X37349605Y-26970000D01*
X38087294Y-27707689D01*
X38238262Y-27707689D01*
X38703754Y-27242197D01*
X38750484Y-27172261D01*
X38782672Y-27094552D01*
X38799082Y-27012056D01*
X38799081Y-26927945D01*
X38782672Y-26845450D01*
X38750484Y-26767739D01*
X38703754Y-26697803D01*
X38238262Y-26232311D01*
X38087294Y-26232311D01*
X37349605Y-26970000D01*
X36990395Y-26970000D01*
X36252706Y-26232311D01*
X36101738Y-26232311D01*
X35636246Y-26697803D01*
X35589516Y-26767739D01*
X35557328Y-26845448D01*
X35540918Y-26927944D01*
X35540919Y-27012055D01*
X35557328Y-27094550D01*
X35589516Y-27172261D01*
X35636246Y-27242197D01*
X36101738Y-27707689D01*
X36252703Y-27707689D01*
X36178743Y-27781649D01*
X36079970Y-27700515D01*
X35860325Y-27582743D01*
X35621988Y-27509876D01*
X35374038Y-27484690D01*
X35125917Y-27508144D01*
X34887077Y-27579346D01*
X34666616Y-27695581D01*
X34472930Y-27852425D01*
X34313398Y-28043901D01*
X34194095Y-28262718D01*
X34119567Y-28500540D01*
X34092650Y-28748309D01*
X17002000Y-28748309D01*
X17002000Y-22447589D01*
X17732016Y-22447589D01*
X18080036Y-22858669D01*
X18674627Y-23178307D01*
X19320151Y-23375804D01*
X19991801Y-23443571D01*
X20663766Y-23379004D01*
X21310223Y-23184583D01*
X21906329Y-22867780D01*
X21919964Y-22858669D01*
X22267984Y-22447589D01*
X20000000Y-20179605D01*
X17732016Y-22447589D01*
X17002000Y-22447589D01*
X17002000Y-21661303D01*
X17132220Y-21906329D01*
X17141331Y-21919964D01*
X17552411Y-22267984D01*
X19820395Y-20000000D01*
X19806253Y-19985858D01*
X19985858Y-19806253D01*
X20000000Y-19820395D01*
X22267984Y-17552411D01*
X21919964Y-17141331D01*
X21660780Y-17002000D01*
X76338697Y-17002000D01*
X76093671Y-17132220D01*
G36*
X33827132Y-19213467D02*
X33943827Y-19436685D01*
X34101657Y-19632986D01*
X34294609Y-19794891D01*
X34515334Y-19916236D01*
X34755424Y-19992397D01*
X34902998Y-20008950D01*
X34902998Y-20092407D01*
X34703648Y-20021338D01*
X34466317Y-20108999D01*
X34250648Y-20241276D01*
X34064929Y-20413087D01*
X33916297Y-20617828D01*
X33810464Y-20847632D01*
X33781343Y-20943649D01*
X33852981Y-21142998D01*
X33774436Y-21142998D01*
X33763985Y-21028166D01*
X33692868Y-20786533D01*
X33576173Y-20563315D01*
X33418343Y-20367014D01*
X33225391Y-20205109D01*
X33004666Y-20083764D01*
X32764576Y-20007603D01*
X32701248Y-20000500D01*
X32746924Y-19996021D01*
X32988054Y-19923219D01*
X33210452Y-19804968D01*
X33405646Y-19645772D01*
X33566201Y-19451694D01*
X33686002Y-19230128D01*
X33760485Y-18989511D01*
X33760678Y-18987677D01*
X33827132Y-19213467D01*
X33827132Y-19213467D01*
G37*
X33827132Y-19213467D02*
X33943827Y-19436685D01*
X34101657Y-19632986D01*
X34294609Y-19794891D01*
X34515334Y-19916236D01*
X34755424Y-19992397D01*
X34902998Y-20008950D01*
X34902998Y-20092407D01*
X34703648Y-20021338D01*
X34466317Y-20108999D01*
X34250648Y-20241276D01*
X34064929Y-20413087D01*
X33916297Y-20617828D01*
X33810464Y-20847632D01*
X33781343Y-20943649D01*
X33852981Y-21142998D01*
X33774436Y-21142998D01*
X33763985Y-21028166D01*
X33692868Y-20786533D01*
X33576173Y-20563315D01*
X33418343Y-20367014D01*
X33225391Y-20205109D01*
X33004666Y-20083764D01*
X32764576Y-20007603D01*
X32701248Y-20000500D01*
X32746924Y-19996021D01*
X32988054Y-19923219D01*
X33210452Y-19804968D01*
X33405646Y-19645772D01*
X33566201Y-19451694D01*
X33686002Y-19230128D01*
X33760485Y-18989511D01*
X33760678Y-18987677D01*
X33827132Y-19213467D01*
G36*
X41376015Y-18971834D02*
X41447132Y-19213467D01*
X41563827Y-19436685D01*
X41721657Y-19632986D01*
X41914609Y-19794891D01*
X42135334Y-19916236D01*
X42375424Y-19992397D01*
X42438752Y-19999500D01*
X42393076Y-20003979D01*
X42151946Y-20076781D01*
X41929548Y-20195032D01*
X41734354Y-20354228D01*
X41573799Y-20548306D01*
X41453998Y-20769872D01*
X41379515Y-21010489D01*
X41379322Y-21012323D01*
X41312868Y-20786533D01*
X41196173Y-20563315D01*
X41038343Y-20367014D01*
X40845391Y-20205109D01*
X40624666Y-20083764D01*
X40384576Y-20007603D01*
X40237002Y-19991050D01*
X40237002Y-19907593D01*
X40436352Y-19978662D01*
X40673683Y-19891001D01*
X40889352Y-19758724D01*
X41075071Y-19586913D01*
X41223703Y-19382172D01*
X41329536Y-19152368D01*
X41358657Y-19056351D01*
X41287019Y-18857002D01*
X41365564Y-18857002D01*
X41376015Y-18971834D01*
X41376015Y-18971834D01*
G37*
X41376015Y-18971834D02*
X41447132Y-19213467D01*
X41563827Y-19436685D01*
X41721657Y-19632986D01*
X41914609Y-19794891D01*
X42135334Y-19916236D01*
X42375424Y-19992397D01*
X42438752Y-19999500D01*
X42393076Y-20003979D01*
X42151946Y-20076781D01*
X41929548Y-20195032D01*
X41734354Y-20354228D01*
X41573799Y-20548306D01*
X41453998Y-20769872D01*
X41379515Y-21010489D01*
X41379322Y-21012323D01*
X41312868Y-20786533D01*
X41196173Y-20563315D01*
X41038343Y-20367014D01*
X40845391Y-20205109D01*
X40624666Y-20083764D01*
X40384576Y-20007603D01*
X40237002Y-19991050D01*
X40237002Y-19907593D01*
X40436352Y-19978662D01*
X40673683Y-19891001D01*
X40889352Y-19758724D01*
X41075071Y-19586913D01*
X41223703Y-19382172D01*
X41329536Y-19152368D01*
X41358657Y-19056351D01*
X41287019Y-18857002D01*
X41365564Y-18857002D01*
X41376015Y-18971834D01*
G36*
X31216015Y-18971834D02*
X31287132Y-19213467D01*
X31403827Y-19436685D01*
X31561657Y-19632986D01*
X31754609Y-19794891D01*
X31975334Y-19916236D01*
X32215424Y-19992397D01*
X32278752Y-19999500D01*
X32233076Y-20003979D01*
X31991946Y-20076781D01*
X31769548Y-20195032D01*
X31574354Y-20354228D01*
X31413799Y-20548306D01*
X31293998Y-20769872D01*
X31219515Y-21010489D01*
X31219322Y-21012323D01*
X31152868Y-20786533D01*
X31036173Y-20563315D01*
X30878343Y-20367014D01*
X30685391Y-20205109D01*
X30464666Y-20083764D01*
X30224576Y-20007603D01*
X30077002Y-19991050D01*
X30077002Y-19907593D01*
X30276352Y-19978662D01*
X30513683Y-19891001D01*
X30729352Y-19758724D01*
X30915071Y-19586913D01*
X31063703Y-19382172D01*
X31169536Y-19152368D01*
X31198657Y-19056351D01*
X31127019Y-18857002D01*
X31205564Y-18857002D01*
X31216015Y-18971834D01*
X31216015Y-18971834D01*
G37*
X31216015Y-18971834D02*
X31287132Y-19213467D01*
X31403827Y-19436685D01*
X31561657Y-19632986D01*
X31754609Y-19794891D01*
X31975334Y-19916236D01*
X32215424Y-19992397D01*
X32278752Y-19999500D01*
X32233076Y-20003979D01*
X31991946Y-20076781D01*
X31769548Y-20195032D01*
X31574354Y-20354228D01*
X31413799Y-20548306D01*
X31293998Y-20769872D01*
X31219515Y-21010489D01*
X31219322Y-21012323D01*
X31152868Y-20786533D01*
X31036173Y-20563315D01*
X30878343Y-20367014D01*
X30685391Y-20205109D01*
X30464666Y-20083764D01*
X30224576Y-20007603D01*
X30077002Y-19991050D01*
X30077002Y-19907593D01*
X30276352Y-19978662D01*
X30513683Y-19891001D01*
X30729352Y-19758724D01*
X30915071Y-19586913D01*
X31063703Y-19382172D01*
X31169536Y-19152368D01*
X31198657Y-19056351D01*
X31127019Y-18857002D01*
X31205564Y-18857002D01*
X31216015Y-18971834D01*
M02*
