G04 #@! TF.FileFunction,Legend,Bot*
%FSLAX46Y46*%
G04 Gerber Fmt 4.6, Leading zero omitted, Abs format (unit mm)*
G04 Created by KiCad (PCBNEW 4.0.2+dfsg1-stable) date Fri 22 Jun 2018 04:45:43 AM EDT*
%MOMM*%
G01*
G04 APERTURE LIST*
%ADD10C,0.100000*%
%ADD11C,0.300000*%
%ADD12C,0.200000*%
G04 APERTURE END LIST*
D10*
D11*
X21007143Y-40250000D02*
X21078571Y-40107143D01*
X21078571Y-39821429D01*
X21007143Y-39678571D01*
X20935714Y-39607143D01*
X20792857Y-39535714D01*
X20364286Y-39535714D01*
X20221429Y-39607143D01*
X20150000Y-39678571D01*
X20078571Y-39821429D01*
X20078571Y-40107143D01*
X20150000Y-40250000D01*
X20078571Y-40892857D02*
X21078571Y-40892857D01*
X20221429Y-40892857D02*
X20150000Y-40964285D01*
X20078571Y-41107143D01*
X20078571Y-41321428D01*
X20150000Y-41464285D01*
X20292857Y-41535714D01*
X21078571Y-41535714D01*
X20078571Y-42250000D02*
X21578571Y-42250000D01*
X20150000Y-42250000D02*
X20078571Y-42392857D01*
X20078571Y-42678571D01*
X20150000Y-42821428D01*
X20221429Y-42892857D01*
X20364286Y-42964286D01*
X20792857Y-42964286D01*
X20935714Y-42892857D01*
X21007143Y-42821428D01*
X21078571Y-42678571D01*
X21078571Y-42392857D01*
X21007143Y-42250000D01*
X21078571Y-43607143D02*
X20078571Y-43607143D01*
X19578571Y-43607143D02*
X19650000Y-43535714D01*
X19721429Y-43607143D01*
X19650000Y-43678571D01*
X19578571Y-43607143D01*
X19721429Y-43607143D01*
X21078571Y-44321429D02*
X19578571Y-44321429D01*
X21078571Y-44964286D02*
X20292857Y-44964286D01*
X20150000Y-44892857D01*
X20078571Y-44750000D01*
X20078571Y-44535715D01*
X20150000Y-44392857D01*
X20221429Y-44321429D01*
X21078571Y-46321429D02*
X20292857Y-46321429D01*
X20150000Y-46250000D01*
X20078571Y-46107143D01*
X20078571Y-45821429D01*
X20150000Y-45678572D01*
X21007143Y-46321429D02*
X21078571Y-46178572D01*
X21078571Y-45821429D01*
X21007143Y-45678572D01*
X20864286Y-45607143D01*
X20721429Y-45607143D01*
X20578571Y-45678572D01*
X20507143Y-45821429D01*
X20507143Y-46178572D01*
X20435714Y-46321429D01*
X20078571Y-46821429D02*
X20078571Y-47392858D01*
X19578571Y-47035715D02*
X20864286Y-47035715D01*
X21007143Y-47107143D01*
X21078571Y-47250001D01*
X21078571Y-47392858D01*
X21007143Y-47821429D02*
X21078571Y-47964286D01*
X21078571Y-48250001D01*
X21007143Y-48392858D01*
X20864286Y-48464286D01*
X20792857Y-48464286D01*
X20650000Y-48392858D01*
X20578571Y-48250001D01*
X20578571Y-48035715D01*
X20507143Y-47892858D01*
X20364286Y-47821429D01*
X20292857Y-47821429D01*
X20150000Y-47892858D01*
X20078571Y-48035715D01*
X20078571Y-48250001D01*
X20150000Y-48392858D01*
X23478571Y-35857143D02*
X22478571Y-35857143D01*
X22764286Y-35857143D02*
X22621429Y-35928571D01*
X22550000Y-36000000D01*
X22478571Y-36142857D01*
X22478571Y-36285714D01*
X22478571Y-36785714D02*
X23978571Y-36785714D01*
X22550000Y-36785714D02*
X22478571Y-36928571D01*
X22478571Y-37214285D01*
X22550000Y-37357142D01*
X22621429Y-37428571D01*
X22764286Y-37500000D01*
X23192857Y-37500000D01*
X23335714Y-37428571D01*
X23407143Y-37357142D01*
X23478571Y-37214285D01*
X23478571Y-36928571D01*
X23407143Y-36785714D01*
X23478571Y-38142857D02*
X22478571Y-38142857D01*
X21978571Y-38142857D02*
X22050000Y-38071428D01*
X22121429Y-38142857D01*
X22050000Y-38214285D01*
X21978571Y-38142857D01*
X22121429Y-38142857D01*
X23621429Y-38500000D02*
X23621429Y-39642857D01*
X22478571Y-39857143D02*
X23478571Y-40142857D01*
X22764286Y-40428571D01*
X23478571Y-40714286D01*
X22478571Y-41000000D01*
X23478571Y-41571429D02*
X22478571Y-41571429D01*
X21978571Y-41571429D02*
X22050000Y-41500000D01*
X22121429Y-41571429D01*
X22050000Y-41642857D01*
X21978571Y-41571429D01*
X22121429Y-41571429D01*
X22478571Y-42071429D02*
X22478571Y-42642858D01*
X21978571Y-42285715D02*
X23264286Y-42285715D01*
X23407143Y-42357143D01*
X23478571Y-42500001D01*
X23478571Y-42642858D01*
X23478571Y-43142858D02*
X21978571Y-43142858D01*
X23478571Y-43785715D02*
X22692857Y-43785715D01*
X22550000Y-43714286D01*
X22478571Y-43571429D01*
X22478571Y-43357144D01*
X22550000Y-43214286D01*
X22621429Y-43142858D01*
X23621429Y-44142858D02*
X23621429Y-45285715D01*
X23407143Y-45571429D02*
X23478571Y-45714286D01*
X23478571Y-46000001D01*
X23407143Y-46142858D01*
X23264286Y-46214286D01*
X23192857Y-46214286D01*
X23050000Y-46142858D01*
X22978571Y-46000001D01*
X22978571Y-45785715D01*
X22907143Y-45642858D01*
X22764286Y-45571429D01*
X22692857Y-45571429D01*
X22550000Y-45642858D01*
X22478571Y-45785715D01*
X22478571Y-46000001D01*
X22550000Y-46142858D01*
X22478571Y-47500001D02*
X23478571Y-47500001D01*
X22478571Y-46857144D02*
X23264286Y-46857144D01*
X23407143Y-46928572D01*
X23478571Y-47071430D01*
X23478571Y-47285715D01*
X23407143Y-47428572D01*
X23335714Y-47500001D01*
X22478571Y-48214287D02*
X23978571Y-48214287D01*
X22550000Y-48214287D02*
X22478571Y-48357144D01*
X22478571Y-48642858D01*
X22550000Y-48785715D01*
X22621429Y-48857144D01*
X22764286Y-48928573D01*
X23192857Y-48928573D01*
X23335714Y-48857144D01*
X23407143Y-48785715D01*
X23478571Y-48642858D01*
X23478571Y-48357144D01*
X23407143Y-48214287D01*
X22478571Y-49571430D02*
X23978571Y-49571430D01*
X22550000Y-49571430D02*
X22478571Y-49714287D01*
X22478571Y-50000001D01*
X22550000Y-50142858D01*
X22621429Y-50214287D01*
X22764286Y-50285716D01*
X23192857Y-50285716D01*
X23335714Y-50214287D01*
X23407143Y-50142858D01*
X23478571Y-50000001D01*
X23478571Y-49714287D01*
X23407143Y-49571430D01*
X23478571Y-51142859D02*
X23407143Y-51000001D01*
X23264286Y-50928573D01*
X21978571Y-50928573D01*
X22478571Y-51571430D02*
X23478571Y-51928573D01*
X22478571Y-52285715D02*
X23478571Y-51928573D01*
X23835714Y-51785715D01*
X23907143Y-51714287D01*
X23978571Y-51571430D01*
X25878571Y-41750001D02*
X24878571Y-41750001D01*
X25164286Y-41750001D02*
X25021429Y-41821429D01*
X24950000Y-41892858D01*
X24878571Y-42035715D01*
X24878571Y-42178572D01*
X25807143Y-43250000D02*
X25878571Y-43107143D01*
X25878571Y-42821429D01*
X25807143Y-42678572D01*
X25664286Y-42607143D01*
X25092857Y-42607143D01*
X24950000Y-42678572D01*
X24878571Y-42821429D01*
X24878571Y-43107143D01*
X24950000Y-43250000D01*
X25092857Y-43321429D01*
X25235714Y-43321429D01*
X25378571Y-42607143D01*
X24878571Y-43821429D02*
X25878571Y-44178572D01*
X24878571Y-44535714D01*
X25307143Y-45107143D02*
X25307143Y-46250000D01*
X28850000Y-31571429D02*
X28778571Y-31500001D01*
X28564286Y-31357144D01*
X28421429Y-31285715D01*
X28207143Y-31214286D01*
X27850000Y-31142858D01*
X27564286Y-31142858D01*
X27207143Y-31214286D01*
X26992857Y-31285715D01*
X26850000Y-31357144D01*
X26635714Y-31500001D01*
X26564286Y-31571429D01*
X28135714Y-33000001D02*
X28207143Y-32928572D01*
X28278571Y-32714286D01*
X28278571Y-32571429D01*
X28207143Y-32357144D01*
X28064286Y-32214286D01*
X27921429Y-32142858D01*
X27635714Y-32071429D01*
X27421429Y-32071429D01*
X27135714Y-32142858D01*
X26992857Y-32214286D01*
X26850000Y-32357144D01*
X26778571Y-32571429D01*
X26778571Y-32714286D01*
X26850000Y-32928572D01*
X26921429Y-33000001D01*
X28850000Y-33500001D02*
X28778571Y-33571429D01*
X28564286Y-33714286D01*
X28421429Y-33785715D01*
X28207143Y-33857144D01*
X27850000Y-33928572D01*
X27564286Y-33928572D01*
X27207143Y-33857144D01*
X26992857Y-33785715D01*
X26850000Y-33714286D01*
X26635714Y-33571429D01*
X26564286Y-33500001D01*
X27278571Y-36928572D02*
X27707143Y-35785715D01*
X28135714Y-36928572D01*
X27278571Y-37642858D02*
X27707143Y-38785715D01*
X28135714Y-37642858D01*
X27278571Y-40642858D02*
X27707143Y-39500001D01*
X28135714Y-40642858D01*
X26921429Y-42428572D02*
X26850000Y-42500001D01*
X26778571Y-42642858D01*
X26778571Y-43000001D01*
X26850000Y-43142858D01*
X26921429Y-43214287D01*
X27064286Y-43285715D01*
X27207143Y-43285715D01*
X27421429Y-43214287D01*
X28278571Y-42357144D01*
X28278571Y-43285715D01*
X26778571Y-44214286D02*
X26778571Y-44357143D01*
X26850000Y-44500000D01*
X26921429Y-44571429D01*
X27064286Y-44642858D01*
X27350000Y-44714286D01*
X27707143Y-44714286D01*
X27992857Y-44642858D01*
X28135714Y-44571429D01*
X28207143Y-44500000D01*
X28278571Y-44357143D01*
X28278571Y-44214286D01*
X28207143Y-44071429D01*
X28135714Y-44000000D01*
X27992857Y-43928572D01*
X27707143Y-43857143D01*
X27350000Y-43857143D01*
X27064286Y-43928572D01*
X26921429Y-44000000D01*
X26850000Y-44071429D01*
X26778571Y-44214286D01*
X28278571Y-46142857D02*
X28278571Y-45285714D01*
X28278571Y-45714286D02*
X26778571Y-45714286D01*
X26992857Y-45571429D01*
X27135714Y-45428571D01*
X27207143Y-45285714D01*
X27421429Y-47000000D02*
X27350000Y-46857142D01*
X27278571Y-46785714D01*
X27135714Y-46714285D01*
X27064286Y-46714285D01*
X26921429Y-46785714D01*
X26850000Y-46857142D01*
X26778571Y-47000000D01*
X26778571Y-47285714D01*
X26850000Y-47428571D01*
X26921429Y-47500000D01*
X27064286Y-47571428D01*
X27135714Y-47571428D01*
X27278571Y-47500000D01*
X27350000Y-47428571D01*
X27421429Y-47285714D01*
X27421429Y-47000000D01*
X27492857Y-46857142D01*
X27564286Y-46785714D01*
X27707143Y-46714285D01*
X27992857Y-46714285D01*
X28135714Y-46785714D01*
X28207143Y-46857142D01*
X28278571Y-47000000D01*
X28278571Y-47285714D01*
X28207143Y-47428571D01*
X28135714Y-47500000D01*
X27992857Y-47571428D01*
X27707143Y-47571428D01*
X27564286Y-47500000D01*
X27492857Y-47428571D01*
X27421429Y-47285714D01*
X28135714Y-50214285D02*
X28207143Y-50142856D01*
X28278571Y-49928570D01*
X28278571Y-49785713D01*
X28207143Y-49571428D01*
X28064286Y-49428570D01*
X27921429Y-49357142D01*
X27635714Y-49285713D01*
X27421429Y-49285713D01*
X27135714Y-49357142D01*
X26992857Y-49428570D01*
X26850000Y-49571428D01*
X26778571Y-49785713D01*
X26778571Y-49928570D01*
X26850000Y-50142856D01*
X26921429Y-50214285D01*
X28135714Y-50857142D02*
X28207143Y-50928570D01*
X28278571Y-50857142D01*
X28207143Y-50785713D01*
X28135714Y-50857142D01*
X28278571Y-50857142D01*
X28278571Y-53428571D02*
X28278571Y-52714285D01*
X26778571Y-52714285D01*
X28278571Y-54142857D02*
X28207143Y-53999999D01*
X28135714Y-53928571D01*
X27992857Y-53857142D01*
X27564286Y-53857142D01*
X27421429Y-53928571D01*
X27350000Y-53999999D01*
X27278571Y-54142857D01*
X27278571Y-54357142D01*
X27350000Y-54499999D01*
X27421429Y-54571428D01*
X27564286Y-54642857D01*
X27992857Y-54642857D01*
X28135714Y-54571428D01*
X28207143Y-54499999D01*
X28278571Y-54357142D01*
X28278571Y-54142857D01*
X28278571Y-55285714D02*
X26778571Y-55285714D01*
X28278571Y-55928571D02*
X27492857Y-55928571D01*
X27350000Y-55857142D01*
X27278571Y-55714285D01*
X27278571Y-55500000D01*
X27350000Y-55357142D01*
X27421429Y-55285714D01*
X28278571Y-56642857D02*
X27278571Y-56642857D01*
X27564286Y-56642857D02*
X27421429Y-56714285D01*
X27350000Y-56785714D01*
X27278571Y-56928571D01*
X27278571Y-57071428D01*
D12*
X67532000Y-53340000D02*
X68548000Y-53340000D01*
X67024000Y-53848000D02*
X67532000Y-53340000D01*
X67024000Y-54356000D02*
X67024000Y-53848000D01*
X67532000Y-54356000D02*
X67024000Y-54356000D01*
X68040000Y-53848000D02*
X67532000Y-54356000D01*
X68040000Y-52832000D02*
X68040000Y-53848000D01*
X68548000Y-53340000D02*
X68040000Y-52832000D01*
M02*
