G04 #@! TF.FileFunction,Paste,Top*
%FSLAX46Y46*%
G04 Gerber Fmt 4.6, Leading zero omitted, Abs format (unit mm)*
G04 Created by KiCad (PCBNEW 4.0.7-e2-6376~58~ubuntu16.04.1) date Thu Apr 12 02:42:30 2018*
%MOMM*%
%LPD*%
G01*
G04 APERTURE LIST*
%ADD10C,0.100000*%
%ADD11R,2.500000X4.000000*%
%ADD12R,1.250000X1.000000*%
%ADD13R,4.000000X2.500000*%
%ADD14R,1.000000X1.250000*%
%ADD15R,1.800000X2.500000*%
%ADD16C,1.524000*%
%ADD17O,13.300000X4.300000*%
%ADD18R,0.700000X1.300000*%
%ADD19R,1.300000X0.700000*%
%ADD20R,0.600000X1.550000*%
%ADD21R,1.500000X0.705000*%
%ADD22R,0.508000X1.524000*%
%ADD23R,3.800000X2.000000*%
%ADD24R,1.500000X2.000000*%
%ADD25R,1.200000X1.200000*%
%ADD26R,4.600000X1.390000*%
%ADD27R,9.400000X10.800000*%
G04 APERTURE END LIST*
D10*
D11*
X23368000Y-68324000D03*
X23368000Y-74424000D03*
D12*
X20701000Y-42688000D03*
X20701000Y-44688000D03*
D13*
X33784000Y-47752000D03*
X27684000Y-47752000D03*
D14*
X43418000Y-34290000D03*
X41418000Y-34290000D03*
D13*
X77218000Y-43434000D03*
X71118000Y-43434000D03*
D14*
X38338000Y-43434000D03*
X36338000Y-43434000D03*
X33385000Y-34544000D03*
X31385000Y-34544000D03*
D12*
X38608000Y-56245000D03*
X38608000Y-54245000D03*
D15*
X22733000Y-51149000D03*
X22733000Y-47149000D03*
D16*
X20828000Y-56388000D03*
D17*
X25908000Y-55698000D03*
X25908000Y-64698000D03*
D16*
X20828000Y-64008000D03*
D18*
X87056000Y-41910000D03*
X85156000Y-41910000D03*
X66736000Y-41148000D03*
X64836000Y-41148000D03*
X32070000Y-72644000D03*
X33970000Y-72644000D03*
X28763000Y-34544000D03*
X26863000Y-34544000D03*
X24572000Y-41783000D03*
X22672000Y-41783000D03*
D19*
X26416000Y-39690000D03*
X26416000Y-41590000D03*
X37465000Y-47945000D03*
X37465000Y-49845000D03*
D18*
X39055000Y-50800000D03*
X40955000Y-50800000D03*
D20*
X32004000Y-36543000D03*
X30734000Y-36543000D03*
X29464000Y-36543000D03*
X28194000Y-36543000D03*
X28194000Y-41943000D03*
X29464000Y-41943000D03*
X30734000Y-41943000D03*
X32004000Y-41943000D03*
D21*
X29099000Y-39830500D03*
X31099000Y-39830500D03*
X29099000Y-38655500D03*
X31099000Y-38655500D03*
D22*
X38100000Y-65151000D03*
X36830000Y-65151000D03*
X35560000Y-65151000D03*
X34290000Y-65151000D03*
X34290000Y-58547000D03*
X35560000Y-58547000D03*
X36830000Y-58547000D03*
X38100000Y-58547000D03*
D23*
X37846000Y-34696000D03*
D24*
X37846000Y-40996000D03*
X40146000Y-40996000D03*
X35546000Y-40996000D03*
D25*
X80688000Y-41910000D03*
X82888000Y-41910000D03*
X61003000Y-41148000D03*
X63203000Y-41148000D03*
X29888000Y-70612000D03*
X32088000Y-70612000D03*
D26*
X43934000Y-38862000D03*
D27*
X53094000Y-38862000D03*
D26*
X43934000Y-41402000D03*
X43934000Y-36322000D03*
M02*
