M48
;DRILL file {KiCad 4.0.7-e2-6376~58~ubuntu16.04.1} date Thu Apr 12 02:42:32 2018
;FORMAT={-:-/ absolute / inch / decimal}
FMAT,2
INCH,TZ
T1C0.012
T2C0.013
T3C0.016
T4C0.040
T5C0.057
T6C0.118
%
G90
G05
M72
T1
X1.1456Y-1.5219
X1.1456Y-1.5681
X1.2244Y-1.5219
X1.2244Y-1.5681
T2
X0.87Y-2.17
X0.87Y-2.57
X0.92Y-2.22
X0.92Y-2.52
X0.97Y-2.17
X0.97Y-2.57
X1.02Y-2.22
X1.02Y-2.52
X1.07Y-2.17
X1.07Y-2.57
X1.12Y-2.22
X1.12Y-2.52
X1.17Y-2.17
X1.17Y-2.57
X1.22Y-2.22
X1.22Y-2.52
T3
X0.8173Y-1.8457
X0.8461Y-2.3748
X0.8461Y-2.9008
X1.02Y-1.825
X1.045Y-1.8
X1.125Y-1.755
X1.1417Y-1.9657
X1.17Y-1.78
X1.18Y-1.365
X1.2185Y-2.689
X1.2614Y-1.7181
X1.2862Y-1.6953
X1.2925Y-2.3957
X1.33Y-1.65
X1.3323Y-2.4941
X1.34Y-1.475
X1.3744Y-2.4925
X1.375Y-1.81
X1.3796Y-2.2224
X1.3961Y-2.7894
X1.405Y-1.825
X1.4079Y-1.5016
X1.4287Y-2.6311
X1.4449Y-2.228
X1.4602Y-2.8303
X1.48Y-1.82
X1.4831Y-2.0177
X1.4898Y-2.1945
X1.5Y-1.44
X1.5Y-1.56
X1.5012Y-2.811
X1.5016Y-2.676
X1.5303Y-2.0791
X1.535Y-2.5154
X1.74Y-1.38
X1.78Y-1.38
X1.83Y-1.38
X1.84Y-1.61
X1.85Y-1.65
X1.87Y-1.45
X1.95Y-1.45
X1.95Y-1.65
X2.2Y-1.45
X2.2Y-1.66
X2.8996Y-1.7654
X2.94Y-1.61
T4
X1.172Y-3.0242
X1.172Y-3.1242
X1.272Y-3.0242
X1.272Y-3.1242
X1.372Y-3.0242
X1.372Y-3.1242
X1.472Y-3.0242
X1.472Y-3.1242
X1.572Y-3.0242
X1.572Y-3.1242
X1.672Y-3.0242
X1.672Y-3.1242
X1.772Y-3.0242
X1.772Y-3.1242
X1.872Y-3.0242
X1.872Y-3.1242
X1.972Y-3.0242
X1.972Y-3.1242
X2.072Y-3.0242
X2.072Y-3.1242
X2.172Y-3.0242
X2.172Y-3.1242
X2.272Y-3.0242
X2.272Y-3.1242
X2.372Y-3.0242
X2.372Y-3.1242
X2.472Y-3.0242
X2.472Y-3.1242
X2.572Y-3.0242
X2.572Y-3.1242
X2.672Y-3.0242
X2.672Y-3.1242
X2.772Y-3.0242
X2.772Y-3.1242
X2.872Y-3.0242
X2.872Y-3.1242
X2.972Y-3.0242
X2.972Y-3.1242
X3.072Y-3.0242
X3.072Y-3.1242
T5
X2.4116Y-1.42
X2.6084Y-1.42
X2.8616Y-1.42
X3.0584Y-1.42
T6
X0.88Y-1.4521
X0.88Y-3.11
X1.658Y-1.8187
X1.658Y-2.7793
X2.6186Y-1.8187
X2.6186Y-2.7793
X3.3647Y-1.4521
X3.3647Y-3.11
T0
M30
