G04 #@! TF.FileFunction,Copper,L2,Bot,Signal*
%FSLAX46Y46*%
G04 Gerber Fmt 4.6, Leading zero omitted, Abs format (unit mm)*
G04 Created by KiCad (PCBNEW 4.0.7-e2-6376~58~ubuntu16.04.1) date Thu Apr 12 02:42:30 2018*
%MOMM*%
%LPD*%
G01*
G04 APERTURE LIST*
%ADD10C,0.100000*%
%ADD11C,2.159000*%
%ADD12R,1.727200X1.727200*%
%ADD13O,1.727200X1.727200*%
%ADD14R,0.965200X3.022600*%
%ADD15C,1.524000*%
%ADD16C,6.000000*%
%ADD17R,2.500000X1.175000*%
%ADD18C,0.600000*%
%ADD19C,0.270000*%
%ADD20C,1.000000*%
%ADD21C,0.300000*%
%ADD22C,0.254000*%
G04 APERTURE END LIST*
D10*
D11*
X77684000Y-36068000D03*
X72684000Y-36068000D03*
X66254000Y-36068000D03*
X61254000Y-36068000D03*
D12*
X29768800Y-79353715D03*
D13*
X29768800Y-76813715D03*
X32308800Y-79353715D03*
X32308800Y-76813715D03*
X34848800Y-79353715D03*
X34848800Y-76813715D03*
X37388800Y-79353715D03*
X37388800Y-76813715D03*
X39928800Y-79353715D03*
X39928800Y-76813715D03*
X42468800Y-79353715D03*
X42468800Y-76813715D03*
X45008800Y-79353715D03*
X45008800Y-76813715D03*
X47548800Y-79353715D03*
X47548800Y-76813715D03*
X50088800Y-79353715D03*
X50088800Y-76813715D03*
X52628800Y-79353715D03*
X52628800Y-76813715D03*
X55168800Y-79353715D03*
X55168800Y-76813715D03*
X57708800Y-79353715D03*
X57708800Y-76813715D03*
X60248800Y-79353715D03*
X60248800Y-76813715D03*
X62788800Y-79353715D03*
X62788800Y-76813715D03*
X65328800Y-79353715D03*
X65328800Y-76813715D03*
X67868800Y-79353715D03*
X67868800Y-76813715D03*
X70408800Y-79353715D03*
X70408800Y-76813715D03*
X72948800Y-79353715D03*
X72948800Y-76813715D03*
X75488800Y-79353715D03*
X75488800Y-76813715D03*
X78028800Y-79353715D03*
X78028800Y-76813715D03*
D14*
X38850000Y-61240000D03*
X36310000Y-61240000D03*
X33770000Y-61240000D03*
X38850000Y-66777200D03*
X36310000Y-66777200D03*
X33770000Y-66777200D03*
D15*
X25908000Y-64008000D03*
X27178000Y-65278000D03*
X28448000Y-64008000D03*
X30988000Y-64008000D03*
X29718000Y-65278000D03*
X23368000Y-64008000D03*
X24638000Y-65278000D03*
X22098000Y-65278000D03*
X27178000Y-55118000D03*
X28448000Y-56388000D03*
X30988000Y-56388000D03*
X29718000Y-55118000D03*
X23368000Y-56388000D03*
X24638000Y-55118000D03*
X22098000Y-55118000D03*
X25908000Y-56388000D03*
D16*
X22352000Y-78994000D03*
X85463837Y-78994000D03*
X85463837Y-36882121D03*
X22352000Y-36882121D03*
X66512000Y-70594000D03*
X42112000Y-46194000D03*
X42112000Y-70594000D03*
X66512000Y-46194000D03*
D17*
X29099000Y-39830500D03*
X31099000Y-39830500D03*
X29099000Y-38655500D03*
X31099000Y-38655500D03*
D18*
X30950000Y-68300000D03*
X28575000Y-44577000D03*
X29718000Y-45212000D03*
X73650000Y-44840000D03*
X35760000Y-38140000D03*
X29000000Y-49930000D03*
X35042002Y-56450000D03*
X38870000Y-52810000D03*
X37670000Y-51250000D03*
X32830000Y-60850000D03*
X21490000Y-60320000D03*
X20760000Y-46880000D03*
X21490000Y-73680000D03*
X26543000Y-45720000D03*
X25908000Y-46355000D03*
X49530000Y-41910000D03*
X55880000Y-36830000D03*
X49530000Y-36830000D03*
X47498000Y-36830000D03*
X55880000Y-42164000D03*
X35687000Y-46355000D03*
X34925000Y-45974000D03*
X32040000Y-43640000D03*
X32670000Y-43060000D03*
X44196000Y-35052000D03*
X46482000Y-35052000D03*
X45212000Y-35052000D03*
X74676000Y-40894000D03*
X46990000Y-41910000D03*
X46736000Y-40894000D03*
X34036000Y-37465000D03*
X33782000Y-41910000D03*
X38990000Y-63890000D03*
X37840000Y-55740000D03*
X37592000Y-46228000D03*
X38100000Y-39624000D03*
X38100000Y-36576000D03*
X38140000Y-67970000D03*
X38130000Y-71400000D03*
X34910000Y-63310000D03*
X37090000Y-71890000D03*
X35460000Y-70850000D03*
X36290000Y-66830000D03*
X33840000Y-63350000D03*
X36700000Y-56590000D03*
X29972000Y-34671000D03*
D19*
X70612000Y-65532000D02*
X70612000Y-64516000D01*
X70612000Y-64516000D02*
X71120000Y-65024000D01*
X71120000Y-65024000D02*
X70104000Y-65024000D01*
X70104000Y-65024000D02*
X69596000Y-65532000D01*
X69596000Y-65532000D02*
X69596000Y-66040000D01*
X69596000Y-66040000D02*
X70104000Y-66040000D01*
X70104000Y-66040000D02*
X70612000Y-65532000D01*
D20*
X30540000Y-68010000D02*
X30660000Y-68010000D01*
X30660000Y-68010000D02*
X30950000Y-68300000D01*
X33718500Y-50228500D02*
X33718500Y-49466500D01*
X33718500Y-49466500D02*
X33528000Y-49276000D01*
X32893000Y-49657000D02*
X33147000Y-49657000D01*
X33147000Y-49657000D02*
X33718500Y-50228500D01*
X33718500Y-50228500D02*
X33782000Y-50292000D01*
X33782000Y-50292000D02*
X33782000Y-57404000D01*
X29972000Y-46863000D02*
X30099000Y-46863000D01*
X30099000Y-46863000D02*
X32893000Y-49657000D01*
X32893000Y-49657000D02*
X33020000Y-49784000D01*
X29972000Y-46863000D02*
X28575000Y-45466000D01*
X28575000Y-45466000D02*
X28575000Y-44577000D01*
X30988000Y-64008000D02*
X30988000Y-60198000D01*
X30988000Y-60198000D02*
X33782000Y-57404000D01*
X29718000Y-45212000D02*
X33020000Y-48514000D01*
X33020000Y-48514000D02*
X33020000Y-49784000D01*
X33020000Y-49784000D02*
X33020000Y-57023000D01*
X33020000Y-57023000D02*
X28448000Y-61595000D01*
X28448000Y-61595000D02*
X28448000Y-64008000D01*
X73650000Y-44840000D02*
X73650000Y-44980000D01*
X35760000Y-38140000D02*
X35740000Y-38120000D01*
X35740000Y-38120000D02*
X35740000Y-38110000D01*
X29000000Y-49930000D02*
X28970000Y-49900000D01*
X35400000Y-56920000D02*
X35400000Y-56807998D01*
X35400000Y-56807998D02*
X35042002Y-56450000D01*
X42112000Y-46194000D02*
X39590000Y-46194000D01*
X39590000Y-46194000D02*
X38608000Y-45212000D01*
X66512000Y-46194000D02*
X66512000Y-48732000D01*
X66512000Y-48732000D02*
X68580000Y-50800000D01*
X42112000Y-70594000D02*
X45702000Y-70594000D01*
X45702000Y-70594000D02*
X46736000Y-71628000D01*
X66512000Y-70594000D02*
X63518000Y-70594000D01*
X63518000Y-70594000D02*
X62484000Y-71628000D01*
X67564000Y-67056000D02*
X67564000Y-69542000D01*
X67564000Y-69542000D02*
X66512000Y-70594000D01*
X42112000Y-70594000D02*
X42112000Y-67512000D01*
X42112000Y-67512000D02*
X41148000Y-66548000D01*
X38870000Y-52810000D02*
X37670000Y-51610000D01*
X37670000Y-51610000D02*
X37670000Y-51250000D01*
X33770000Y-61240000D02*
X33220000Y-61240000D01*
X33220000Y-61240000D02*
X32830000Y-60850000D01*
X21490000Y-60320000D02*
X20540000Y-60320000D01*
X20540000Y-60320000D02*
X20700000Y-60320000D01*
X20700000Y-60320000D02*
X20540000Y-60320000D01*
X20760000Y-46880000D02*
X20540000Y-47100000D01*
X20540000Y-47100000D02*
X20540000Y-60320000D01*
X20540000Y-60320000D02*
X20540000Y-77182000D01*
X20540000Y-77182000D02*
X21490000Y-76232000D01*
X21490000Y-76232000D02*
X21490000Y-73680000D01*
X22352000Y-78994000D02*
X22352000Y-78932000D01*
X22352000Y-78932000D02*
X19870000Y-76450000D01*
X19870000Y-76450000D02*
X19870000Y-39364121D01*
X19870000Y-39364121D02*
X22352000Y-36882121D01*
X26543000Y-45720000D02*
X23241000Y-42418000D01*
X23241000Y-42418000D02*
X23241000Y-37771121D01*
X23241000Y-37771121D02*
X22352000Y-36882121D01*
X25908000Y-46355000D02*
X22352000Y-42799000D01*
X22352000Y-42799000D02*
X22352000Y-36882121D01*
X22352000Y-36882121D02*
X22352000Y-37084000D01*
X34848800Y-76813715D02*
X34848800Y-75996800D01*
X34848800Y-75996800D02*
X33782000Y-74930000D01*
X33782000Y-74930000D02*
X26416000Y-74930000D01*
X26416000Y-74930000D02*
X22352000Y-78994000D01*
X55880000Y-42164000D02*
X49784000Y-42164000D01*
X49784000Y-42164000D02*
X49530000Y-41910000D01*
X49530000Y-36830000D02*
X55880000Y-36830000D01*
X47498000Y-36830000D02*
X49530000Y-36830000D01*
X66512000Y-46194000D02*
X64990000Y-46194000D01*
X64990000Y-46194000D02*
X60960000Y-42164000D01*
X60960000Y-42164000D02*
X55880000Y-42164000D01*
X36195000Y-43053000D02*
X36195000Y-45847000D01*
X36195000Y-45847000D02*
X35687000Y-46355000D01*
X34925000Y-45974000D02*
X35052000Y-45847000D01*
X35052000Y-45847000D02*
X35052000Y-43053000D01*
X32670000Y-43060000D02*
X32289000Y-43060000D01*
X32289000Y-43060000D02*
X32040000Y-43259000D01*
X32040000Y-43259000D02*
X32040000Y-43640000D01*
X32670000Y-43060000D02*
X35052000Y-43053000D01*
X35052000Y-43053000D02*
X36195000Y-43053000D01*
X36195000Y-43053000D02*
X37973000Y-41275000D01*
X37973000Y-41275000D02*
X39497000Y-41275000D01*
X39497000Y-41275000D02*
X44196000Y-36576000D01*
X44196000Y-36576000D02*
X44196000Y-35052000D01*
X72684000Y-36068000D02*
X70612000Y-36068000D01*
X70612000Y-36068000D02*
X68580000Y-34036000D01*
X68580000Y-34036000D02*
X48260000Y-34036000D01*
X48260000Y-34036000D02*
X47244000Y-35052000D01*
X45212000Y-35052000D02*
X44196000Y-35052000D01*
X47244000Y-35052000D02*
X46482000Y-35052000D01*
X47244000Y-35052000D02*
X45212000Y-35052000D01*
X74676000Y-40894000D02*
X73914000Y-40132000D01*
X73914000Y-40132000D02*
X62230000Y-40132000D01*
X62230000Y-40132000D02*
X60492000Y-38394000D01*
X60492000Y-38608000D02*
X60492000Y-38394000D01*
X60492000Y-38394000D02*
X60492000Y-36830000D01*
X60492000Y-36830000D02*
X61254000Y-36068000D01*
X60198000Y-38608000D02*
X60492000Y-38608000D01*
X47498000Y-40132000D02*
X47498000Y-41402000D01*
X47498000Y-41402000D02*
X46990000Y-41910000D01*
X60238000Y-38608000D02*
X60198000Y-38608000D01*
X60198000Y-38608000D02*
X48768000Y-38608000D01*
X48768000Y-38608000D02*
X47498000Y-40132000D01*
X47498000Y-40132000D02*
X46736000Y-40894000D01*
D21*
X34036000Y-37465000D02*
X34036000Y-41275000D01*
X34036000Y-41275000D02*
X33782000Y-41529000D01*
X33782000Y-41529000D02*
X33782000Y-41910000D01*
D19*
X38990000Y-63890000D02*
X38850000Y-63750000D01*
X38850000Y-63750000D02*
X38850000Y-61240000D01*
X36703000Y-54737000D02*
X36837000Y-54737000D01*
X36837000Y-54737000D02*
X37840000Y-55740000D01*
X37840000Y-55740000D02*
X38850000Y-56750000D01*
X38850000Y-56750000D02*
X38850000Y-61240000D01*
D21*
X37592000Y-46228000D02*
X36703000Y-47117000D01*
X36703000Y-47117000D02*
X36703000Y-54737000D01*
D20*
X38100000Y-39624000D02*
X38100000Y-36576000D01*
D19*
X37388800Y-76813715D02*
X37388800Y-73348800D01*
X37388800Y-73348800D02*
X36070000Y-72030000D01*
X36070000Y-72030000D02*
X36070000Y-71420000D01*
X36070000Y-71420000D02*
X38140000Y-69350000D01*
X38140000Y-69350000D02*
X38140000Y-67970000D01*
X38140000Y-67970000D02*
X38850000Y-67260000D01*
X38850000Y-67260000D02*
X38850000Y-66777200D01*
X38130000Y-71400000D02*
X38584768Y-71854768D01*
X38584768Y-71854768D02*
X38584768Y-72174768D01*
X38584768Y-72174768D02*
X39928800Y-73518800D01*
X39928800Y-73518800D02*
X39928800Y-74738800D01*
X39928800Y-74738800D02*
X39928800Y-76813715D01*
X34910000Y-63310000D02*
X36310000Y-61910000D01*
X36310000Y-61910000D02*
X36310000Y-61240000D01*
X38340000Y-74300000D02*
X38340000Y-73140000D01*
X38340000Y-73140000D02*
X37090000Y-71890000D01*
X35460000Y-70850000D02*
X36310000Y-70000000D01*
X36310000Y-70000000D02*
X36310000Y-66777200D01*
X37388800Y-79353715D02*
X37388800Y-79051200D01*
X37388800Y-79051200D02*
X38660000Y-77780000D01*
X38660000Y-77780000D02*
X38660000Y-74620000D01*
X38660000Y-74620000D02*
X38340000Y-74300000D01*
X38340000Y-74300000D02*
X38210000Y-74170000D01*
X36290000Y-66830000D02*
X36310000Y-66810000D01*
X36310000Y-66810000D02*
X36310000Y-66777200D01*
X33770000Y-66777200D02*
X33770000Y-63420000D01*
X33770000Y-63420000D02*
X33840000Y-63350000D01*
X36090000Y-77700000D02*
X36090000Y-77300000D01*
X36090000Y-77300000D02*
X36120000Y-77270000D01*
X36120000Y-77270000D02*
X36120000Y-72960000D01*
X36120000Y-72960000D02*
X33770000Y-70610000D01*
X33770000Y-70610000D02*
X33770000Y-66777200D01*
X33770000Y-64140000D02*
X33770000Y-66777200D01*
X34848800Y-79353715D02*
X34848800Y-78941200D01*
X34848800Y-78941200D02*
X36090000Y-77700000D01*
X36090000Y-77700000D02*
X36120000Y-77670000D01*
X35306000Y-54660000D02*
X35306000Y-55196000D01*
X35306000Y-55196000D02*
X36700000Y-56590000D01*
D21*
X30734000Y-44323000D02*
X30734000Y-44450000D01*
X30734000Y-44450000D02*
X35306000Y-49022000D01*
X35306000Y-49022000D02*
X35306000Y-54660000D01*
X35306000Y-54660000D02*
X35306000Y-54737000D01*
X29972000Y-34671000D02*
X30607000Y-34671000D01*
X30607000Y-34671000D02*
X33147000Y-37211000D01*
X33147000Y-37211000D02*
X33147000Y-41021000D01*
X33147000Y-41021000D02*
X32131000Y-42037000D01*
X32131000Y-42037000D02*
X31369000Y-42037000D01*
X31369000Y-42037000D02*
X30734000Y-42672000D01*
X30734000Y-42672000D02*
X30734000Y-44323000D01*
D22*
G36*
X46860024Y-34125000D02*
X44196000Y-34125000D01*
X44109154Y-34133516D01*
X44022298Y-34141420D01*
X44019179Y-34142338D01*
X44015945Y-34142655D01*
X43932416Y-34167874D01*
X43848740Y-34192501D01*
X43845861Y-34194006D01*
X43842748Y-34194946D01*
X43765729Y-34235898D01*
X43688409Y-34276319D01*
X43685875Y-34278357D01*
X43683006Y-34279882D01*
X43615411Y-34335011D01*
X43547412Y-34389684D01*
X43545323Y-34392173D01*
X43542804Y-34394228D01*
X43487162Y-34461488D01*
X43431120Y-34528276D01*
X43429556Y-34531121D01*
X43427482Y-34533628D01*
X43385955Y-34610431D01*
X43343962Y-34686816D01*
X43342980Y-34689912D01*
X43341433Y-34692773D01*
X43315638Y-34776104D01*
X43289257Y-34859266D01*
X43288894Y-34862498D01*
X43287934Y-34865601D01*
X43278824Y-34952274D01*
X43269090Y-35039057D01*
X43269047Y-35045304D01*
X43269023Y-35045528D01*
X43269043Y-35045753D01*
X43269000Y-35052000D01*
X43269000Y-36192024D01*
X39113024Y-40348000D01*
X38671869Y-40348000D01*
X38748588Y-40286316D01*
X38864880Y-40147724D01*
X38952038Y-39989184D01*
X39006743Y-39816734D01*
X39026910Y-39636943D01*
X39027000Y-39624000D01*
X39027000Y-36576000D01*
X39009345Y-36395945D01*
X38957054Y-36222748D01*
X38872118Y-36063006D01*
X38757772Y-35922804D01*
X38618372Y-35807482D01*
X38459227Y-35721433D01*
X38286399Y-35667934D01*
X38106472Y-35649023D01*
X37926298Y-35665420D01*
X37752740Y-35716501D01*
X37592409Y-35800319D01*
X37451412Y-35913684D01*
X37335120Y-36052276D01*
X37247962Y-36210816D01*
X37193257Y-36383266D01*
X37173090Y-36563057D01*
X37173000Y-36576000D01*
X37173000Y-39624000D01*
X37190655Y-39804055D01*
X37242946Y-39977252D01*
X37327882Y-40136994D01*
X37442228Y-40277196D01*
X37581628Y-40392518D01*
X37625250Y-40416104D01*
X37624415Y-40416537D01*
X37619748Y-40417946D01*
X37544148Y-40458143D01*
X37468120Y-40497552D01*
X37464310Y-40500594D01*
X37460006Y-40502882D01*
X37393675Y-40556981D01*
X37326728Y-40610423D01*
X37319942Y-40617115D01*
X37319804Y-40617228D01*
X37319698Y-40617356D01*
X37317512Y-40619512D01*
X35811024Y-42126000D01*
X35052000Y-42126000D01*
X35051854Y-42126014D01*
X35049276Y-42126004D01*
X34478103Y-42127683D01*
X34506758Y-42001558D01*
X34509032Y-41838714D01*
X34481339Y-41698857D01*
X34464511Y-41658030D01*
X34477831Y-41641814D01*
X34512090Y-41600986D01*
X34513550Y-41598330D01*
X34515478Y-41595983D01*
X34540675Y-41548991D01*
X34566341Y-41502304D01*
X34567259Y-41499411D01*
X34568692Y-41496738D01*
X34584285Y-41445739D01*
X34600391Y-41394965D01*
X34600729Y-41391954D01*
X34601617Y-41389049D01*
X34607003Y-41336018D01*
X34612944Y-41283056D01*
X34612985Y-41277120D01*
X34612996Y-41277014D01*
X34612987Y-41276915D01*
X34613000Y-41275000D01*
X34613000Y-37908312D01*
X34671182Y-37825833D01*
X34729171Y-37695587D01*
X34760758Y-37556558D01*
X34763032Y-37393714D01*
X34735339Y-37253857D01*
X34681009Y-37122043D01*
X34602111Y-37003291D01*
X34501650Y-36902126D01*
X34383452Y-36822401D01*
X34252020Y-36767152D01*
X34112360Y-36738484D01*
X33969791Y-36737489D01*
X33829744Y-36764204D01*
X33697554Y-36817612D01*
X33612546Y-36873240D01*
X33593891Y-36850368D01*
X33560657Y-36808735D01*
X33556492Y-36804512D01*
X33556422Y-36804426D01*
X33556342Y-36804360D01*
X33555000Y-36802999D01*
X31015001Y-34262999D01*
X30973785Y-34229144D01*
X30932986Y-34194910D01*
X30930330Y-34193450D01*
X30927983Y-34191522D01*
X30880956Y-34166306D01*
X30834304Y-34140659D01*
X30831416Y-34139743D01*
X30828738Y-34138307D01*
X30777693Y-34122701D01*
X30726965Y-34106609D01*
X30723955Y-34106271D01*
X30721049Y-34105383D01*
X30668018Y-34099997D01*
X30615056Y-34094056D01*
X30609120Y-34094015D01*
X30609014Y-34094004D01*
X30608915Y-34094013D01*
X30607000Y-34094000D01*
X30416707Y-34094000D01*
X30319452Y-34028401D01*
X30188020Y-33973152D01*
X30048360Y-33944484D01*
X29905791Y-33943489D01*
X29765744Y-33970204D01*
X29633554Y-34023612D01*
X29514255Y-34101680D01*
X29412391Y-34201432D01*
X29331842Y-34319070D01*
X29275677Y-34450113D01*
X29246035Y-34589570D01*
X29244044Y-34732128D01*
X29269781Y-34872358D01*
X29322265Y-35004918D01*
X29399498Y-35124760D01*
X29498537Y-35227317D01*
X29615610Y-35308685D01*
X29746258Y-35365764D01*
X29885504Y-35396379D01*
X30028045Y-35399365D01*
X30168451Y-35374608D01*
X30301374Y-35323050D01*
X30388045Y-35268047D01*
X32570000Y-37450001D01*
X32570000Y-37702119D01*
X32551260Y-37689597D01*
X32473551Y-37657409D01*
X32391056Y-37641000D01*
X31332750Y-37641000D01*
X31226000Y-37747750D01*
X31226000Y-38528500D01*
X31246000Y-38528500D01*
X31246000Y-38782500D01*
X31226000Y-38782500D01*
X31226000Y-39703500D01*
X31246000Y-39703500D01*
X31246000Y-39957500D01*
X31226000Y-39957500D01*
X31226000Y-40738250D01*
X31332750Y-40845000D01*
X32391056Y-40845000D01*
X32473551Y-40828591D01*
X32551260Y-40796403D01*
X32564324Y-40787674D01*
X31891998Y-41460000D01*
X31369000Y-41460000D01*
X31315999Y-41465197D01*
X31262861Y-41469846D01*
X31259946Y-41470693D01*
X31256927Y-41470989D01*
X31205893Y-41486397D01*
X31154721Y-41501264D01*
X31152029Y-41502659D01*
X31149122Y-41503537D01*
X31102012Y-41528586D01*
X31054744Y-41553087D01*
X31052376Y-41554978D01*
X31049693Y-41556404D01*
X31008379Y-41590099D01*
X30966736Y-41623342D01*
X30962512Y-41627508D01*
X30962426Y-41627578D01*
X30962360Y-41627658D01*
X30961000Y-41628999D01*
X30325999Y-42263999D01*
X30292144Y-42305215D01*
X30257910Y-42346014D01*
X30256450Y-42348670D01*
X30254522Y-42351017D01*
X30229306Y-42398044D01*
X30203659Y-42444696D01*
X30202743Y-42447584D01*
X30201307Y-42450262D01*
X30185701Y-42501307D01*
X30169609Y-42552035D01*
X30169271Y-42555045D01*
X30168383Y-42557951D01*
X30162997Y-42610982D01*
X30157056Y-42663944D01*
X30157015Y-42669880D01*
X30157004Y-42669986D01*
X30157013Y-42670085D01*
X30157000Y-42672000D01*
X30157000Y-44400559D01*
X30074242Y-44356184D01*
X29901228Y-44303289D01*
X29721236Y-44285006D01*
X29541120Y-44302031D01*
X29462743Y-44325396D01*
X29432054Y-44223748D01*
X29347118Y-44064006D01*
X29232772Y-43923804D01*
X29093372Y-43808482D01*
X28934227Y-43722433D01*
X28761399Y-43668934D01*
X28581472Y-43650023D01*
X28401298Y-43666420D01*
X28227740Y-43717501D01*
X28067409Y-43801319D01*
X27926412Y-43914684D01*
X27810120Y-44053276D01*
X27722962Y-44211816D01*
X27668257Y-44384266D01*
X27648090Y-44564057D01*
X27648000Y-44577000D01*
X27648000Y-45466000D01*
X27656355Y-45551209D01*
X27663819Y-45636523D01*
X27665180Y-45641206D01*
X27665655Y-45646055D01*
X27690400Y-45728014D01*
X27714294Y-45810258D01*
X27716537Y-45814585D01*
X27717946Y-45819252D01*
X27758132Y-45894832D01*
X27797552Y-45970881D01*
X27800595Y-45974693D01*
X27802882Y-45978994D01*
X27856988Y-46045334D01*
X27910424Y-46112272D01*
X27917114Y-46119056D01*
X27917228Y-46119196D01*
X27917357Y-46119303D01*
X27919512Y-46121488D01*
X29316512Y-47518488D01*
X29382682Y-47572841D01*
X29448276Y-47627880D01*
X29452548Y-47630228D01*
X29456314Y-47633322D01*
X29531765Y-47673778D01*
X29606816Y-47715038D01*
X29611463Y-47716512D01*
X29615758Y-47718815D01*
X29656205Y-47731181D01*
X32093000Y-50167976D01*
X32093000Y-55948639D01*
X32042904Y-55827097D01*
X31913867Y-55632881D01*
X31749564Y-55467427D01*
X31556253Y-55337037D01*
X31341298Y-55246678D01*
X31112886Y-55199792D01*
X30904301Y-55198336D01*
X30907051Y-55001413D01*
X30861760Y-54772678D01*
X30772904Y-54557097D01*
X30643867Y-54362881D01*
X30479564Y-54197427D01*
X30286253Y-54067037D01*
X30071298Y-53976678D01*
X29842886Y-53929792D01*
X29609716Y-53928164D01*
X29380672Y-53971857D01*
X29164476Y-54059206D01*
X28969363Y-54186884D01*
X28802766Y-54350028D01*
X28671030Y-54542423D01*
X28579173Y-54756743D01*
X28530693Y-54984822D01*
X28527695Y-55199476D01*
X28364301Y-55198336D01*
X28367051Y-55001413D01*
X28321760Y-54772678D01*
X28232904Y-54557097D01*
X28103867Y-54362881D01*
X27939564Y-54197427D01*
X27746253Y-54067037D01*
X27531298Y-53976678D01*
X27302886Y-53929792D01*
X27069716Y-53928164D01*
X26840672Y-53971857D01*
X26624476Y-54059206D01*
X26429363Y-54186884D01*
X26262766Y-54350028D01*
X26131030Y-54542423D01*
X26039173Y-54756743D01*
X25990693Y-54984822D01*
X25987695Y-55199476D01*
X25824301Y-55198336D01*
X25827051Y-55001413D01*
X25781760Y-54772678D01*
X25692904Y-54557097D01*
X25563867Y-54362881D01*
X25399564Y-54197427D01*
X25206253Y-54067037D01*
X24991298Y-53976678D01*
X24762886Y-53929792D01*
X24529716Y-53928164D01*
X24300672Y-53971857D01*
X24084476Y-54059206D01*
X23889363Y-54186884D01*
X23722766Y-54350028D01*
X23591030Y-54542423D01*
X23499173Y-54756743D01*
X23450693Y-54984822D01*
X23447695Y-55199476D01*
X23284301Y-55198336D01*
X23287051Y-55001413D01*
X23241760Y-54772678D01*
X23152904Y-54557097D01*
X23023867Y-54362881D01*
X22859564Y-54197427D01*
X22666253Y-54067037D01*
X22451298Y-53976678D01*
X22222886Y-53929792D01*
X21989716Y-53928164D01*
X21760672Y-53971857D01*
X21544476Y-54059206D01*
X21349363Y-54186884D01*
X21182766Y-54350028D01*
X21051030Y-54542423D01*
X20959173Y-54756743D01*
X20910693Y-54984822D01*
X20907437Y-55217974D01*
X20949530Y-55447319D01*
X21035367Y-55664119D01*
X21161680Y-55860118D01*
X21323657Y-56027850D01*
X21515128Y-56160926D01*
X21728801Y-56254278D01*
X21956537Y-56304349D01*
X22179936Y-56309028D01*
X22177437Y-56487974D01*
X22219530Y-56717319D01*
X22305367Y-56934119D01*
X22431680Y-57130118D01*
X22593657Y-57297850D01*
X22785128Y-57430926D01*
X22998801Y-57524278D01*
X23226537Y-57574349D01*
X23459660Y-57579232D01*
X23689293Y-57538741D01*
X23906687Y-57454420D01*
X24103563Y-57329478D01*
X24272422Y-57168676D01*
X24406832Y-56978139D01*
X24501672Y-56765123D01*
X24553332Y-56537742D01*
X24556574Y-56305607D01*
X24719936Y-56309028D01*
X24717437Y-56487974D01*
X24759530Y-56717319D01*
X24845367Y-56934119D01*
X24971680Y-57130118D01*
X25133657Y-57297850D01*
X25325128Y-57430926D01*
X25538801Y-57524278D01*
X25766537Y-57574349D01*
X25999660Y-57579232D01*
X26229293Y-57538741D01*
X26446687Y-57454420D01*
X26643563Y-57329478D01*
X26812422Y-57168676D01*
X26946832Y-56978139D01*
X27041672Y-56765123D01*
X27093332Y-56537742D01*
X27096574Y-56305607D01*
X27259936Y-56309028D01*
X27257437Y-56487974D01*
X27299530Y-56717319D01*
X27385367Y-56934119D01*
X27511680Y-57130118D01*
X27673657Y-57297850D01*
X27865128Y-57430926D01*
X28078801Y-57524278D01*
X28306537Y-57574349D01*
X28539660Y-57579232D01*
X28769293Y-57538741D01*
X28986687Y-57454420D01*
X29183563Y-57329478D01*
X29352422Y-57168676D01*
X29486832Y-56978139D01*
X29581672Y-56765123D01*
X29633332Y-56537742D01*
X29636574Y-56305607D01*
X29799936Y-56309028D01*
X29797437Y-56487974D01*
X29839530Y-56717319D01*
X29925367Y-56934119D01*
X30051680Y-57130118D01*
X30213657Y-57297850D01*
X30405128Y-57430926D01*
X30618801Y-57524278D01*
X30846537Y-57574349D01*
X31079660Y-57579232D01*
X31168448Y-57563576D01*
X27792512Y-60939512D01*
X27738159Y-61005682D01*
X27683120Y-61071276D01*
X27680772Y-61075548D01*
X27677678Y-61079314D01*
X27637202Y-61154800D01*
X27595962Y-61229816D01*
X27594489Y-61234459D01*
X27592184Y-61238758D01*
X27567148Y-61320649D01*
X27541257Y-61402266D01*
X27540713Y-61407113D01*
X27539289Y-61411772D01*
X27530642Y-61496901D01*
X27521090Y-61582057D01*
X27521024Y-61591590D01*
X27521006Y-61591764D01*
X27521021Y-61591927D01*
X27521000Y-61595000D01*
X27521000Y-63257212D01*
X27401030Y-63432423D01*
X27309173Y-63646743D01*
X27260693Y-63874822D01*
X27257695Y-64089476D01*
X27094301Y-64088336D01*
X27097051Y-63891413D01*
X27051760Y-63662678D01*
X26962904Y-63447097D01*
X26833867Y-63252881D01*
X26669564Y-63087427D01*
X26476253Y-62957037D01*
X26261298Y-62866678D01*
X26032886Y-62819792D01*
X25799716Y-62818164D01*
X25570672Y-62861857D01*
X25354476Y-62949206D01*
X25159363Y-63076884D01*
X24992766Y-63240028D01*
X24861030Y-63432423D01*
X24769173Y-63646743D01*
X24720693Y-63874822D01*
X24717695Y-64089476D01*
X24554301Y-64088336D01*
X24557051Y-63891413D01*
X24511760Y-63662678D01*
X24422904Y-63447097D01*
X24293867Y-63252881D01*
X24129564Y-63087427D01*
X23936253Y-62957037D01*
X23721298Y-62866678D01*
X23492886Y-62819792D01*
X23259716Y-62818164D01*
X23030672Y-62861857D01*
X22814476Y-62949206D01*
X22619363Y-63076884D01*
X22452766Y-63240028D01*
X22321030Y-63432423D01*
X22229173Y-63646743D01*
X22180693Y-63874822D01*
X22177695Y-64089476D01*
X21989716Y-64088164D01*
X21760672Y-64131857D01*
X21544476Y-64219206D01*
X21349363Y-64346884D01*
X21182766Y-64510028D01*
X21051030Y-64702423D01*
X20959173Y-64916743D01*
X20910693Y-65144822D01*
X20907437Y-65377974D01*
X20949530Y-65607319D01*
X21035367Y-65824119D01*
X21161680Y-66020118D01*
X21323657Y-66187850D01*
X21515128Y-66320926D01*
X21728801Y-66414278D01*
X21956537Y-66464349D01*
X22189660Y-66469232D01*
X22419293Y-66428741D01*
X22636687Y-66344420D01*
X22833563Y-66219478D01*
X23002422Y-66058676D01*
X23136832Y-65868139D01*
X23231672Y-65655123D01*
X23283332Y-65427742D01*
X23286574Y-65195607D01*
X23449936Y-65199028D01*
X23447437Y-65377974D01*
X23489530Y-65607319D01*
X23575367Y-65824119D01*
X23701680Y-66020118D01*
X23863657Y-66187850D01*
X24055128Y-66320926D01*
X24268801Y-66414278D01*
X24496537Y-66464349D01*
X24729660Y-66469232D01*
X24959293Y-66428741D01*
X25176687Y-66344420D01*
X25373563Y-66219478D01*
X25542422Y-66058676D01*
X25676832Y-65868139D01*
X25771672Y-65655123D01*
X25823332Y-65427742D01*
X25826574Y-65195607D01*
X25989936Y-65199028D01*
X25987437Y-65377974D01*
X26029530Y-65607319D01*
X26115367Y-65824119D01*
X26241680Y-66020118D01*
X26403657Y-66187850D01*
X26595128Y-66320926D01*
X26808801Y-66414278D01*
X27036537Y-66464349D01*
X27269660Y-66469232D01*
X27499293Y-66428741D01*
X27716687Y-66344420D01*
X27913563Y-66219478D01*
X28082422Y-66058676D01*
X28216832Y-65868139D01*
X28311672Y-65655123D01*
X28363332Y-65427742D01*
X28366574Y-65195607D01*
X28529936Y-65199028D01*
X28527437Y-65377974D01*
X28569530Y-65607319D01*
X28655367Y-65824119D01*
X28781680Y-66020118D01*
X28943657Y-66187850D01*
X29135128Y-66320926D01*
X29348801Y-66414278D01*
X29576537Y-66464349D01*
X29809660Y-66469232D01*
X30039293Y-66428741D01*
X30256687Y-66344420D01*
X30453563Y-66219478D01*
X30622422Y-66058676D01*
X30756832Y-65868139D01*
X30851672Y-65655123D01*
X30903332Y-65427742D01*
X30906574Y-65195607D01*
X31079660Y-65199232D01*
X31309293Y-65158741D01*
X31526687Y-65074420D01*
X31723563Y-64949478D01*
X31892422Y-64788676D01*
X32026832Y-64598139D01*
X32121672Y-64385123D01*
X32173332Y-64157742D01*
X32177051Y-63891413D01*
X32131760Y-63662678D01*
X32042904Y-63447097D01*
X31915000Y-63254586D01*
X31915000Y-60581976D01*
X32872832Y-59624144D01*
X32860400Y-59686644D01*
X32860400Y-61006250D01*
X32967150Y-61113000D01*
X33643000Y-61113000D01*
X33643000Y-59408450D01*
X33897000Y-59408450D01*
X33897000Y-61113000D01*
X34572850Y-61113000D01*
X34679600Y-61006250D01*
X34679600Y-59686644D01*
X34663191Y-59604149D01*
X34631003Y-59526440D01*
X34584273Y-59456503D01*
X34524797Y-59397028D01*
X34454861Y-59350298D01*
X34377151Y-59318109D01*
X34294656Y-59301700D01*
X34003750Y-59301700D01*
X33897000Y-59408450D01*
X33643000Y-59408450D01*
X33536250Y-59301700D01*
X33245344Y-59301700D01*
X33182844Y-59314132D01*
X34437488Y-58059488D01*
X34491841Y-57993318D01*
X34546880Y-57927724D01*
X34549228Y-57923452D01*
X34552322Y-57919686D01*
X34592798Y-57844200D01*
X34634038Y-57769184D01*
X34635511Y-57764541D01*
X34637816Y-57760242D01*
X34662865Y-57678309D01*
X34688743Y-57596734D01*
X34689286Y-57591892D01*
X34690712Y-57587228D01*
X34699369Y-57502005D01*
X34708910Y-57416943D01*
X34708976Y-57407421D01*
X34708995Y-57407236D01*
X34708979Y-57407064D01*
X34709000Y-57404000D01*
X34709000Y-50292000D01*
X34700645Y-50206791D01*
X34693181Y-50121477D01*
X34691820Y-50116794D01*
X34691345Y-50111945D01*
X34666596Y-50029973D01*
X34645500Y-49957360D01*
X34645500Y-49466500D01*
X34637145Y-49381291D01*
X34629681Y-49295977D01*
X34628320Y-49291294D01*
X34627845Y-49286445D01*
X34603100Y-49204486D01*
X34579206Y-49122242D01*
X34576963Y-49117915D01*
X34575554Y-49113248D01*
X34569090Y-49101091D01*
X34729000Y-49261001D01*
X34729000Y-54737000D01*
X34739989Y-54849073D01*
X34744000Y-54862358D01*
X34744000Y-55196000D01*
X34749066Y-55247670D01*
X34753591Y-55299381D01*
X34754414Y-55302215D01*
X34754703Y-55305160D01*
X34769721Y-55354903D01*
X34784191Y-55404709D01*
X34785550Y-55407332D01*
X34786405Y-55410162D01*
X34810785Y-55456014D01*
X34834667Y-55502087D01*
X34836510Y-55504396D01*
X34837898Y-55507006D01*
X34870721Y-55547251D01*
X34903096Y-55587806D01*
X34907152Y-55591920D01*
X34907221Y-55592004D01*
X34907299Y-55592069D01*
X34908606Y-55593394D01*
X35973326Y-56658114D01*
X35997781Y-56791358D01*
X36050265Y-56923918D01*
X36127498Y-57043760D01*
X36226537Y-57146317D01*
X36343610Y-57227685D01*
X36474258Y-57284764D01*
X36613504Y-57315379D01*
X36756045Y-57318365D01*
X36896451Y-57293608D01*
X37029374Y-57242050D01*
X37149752Y-57165656D01*
X37252999Y-57067336D01*
X37335182Y-56950833D01*
X37393171Y-56820587D01*
X37424758Y-56681558D01*
X37427032Y-56518714D01*
X37399339Y-56378857D01*
X37364411Y-56294115D01*
X37366537Y-56296317D01*
X37483610Y-56377685D01*
X37614258Y-56434764D01*
X37753504Y-56465379D01*
X37770957Y-56465745D01*
X38288000Y-56982788D01*
X38288000Y-59308587D01*
X38184070Y-59340773D01*
X38083254Y-59407206D01*
X38004937Y-59499095D01*
X37955321Y-59609165D01*
X37938334Y-59728700D01*
X37938334Y-62751300D01*
X37943756Y-62819298D01*
X37979473Y-62934630D01*
X38045906Y-63035446D01*
X38137795Y-63113763D01*
X38247865Y-63163379D01*
X38288000Y-63169083D01*
X38288000Y-63695822D01*
X38264035Y-63808570D01*
X38262044Y-63951128D01*
X38287781Y-64091358D01*
X38340265Y-64223918D01*
X38417498Y-64343760D01*
X38516537Y-64446317D01*
X38633610Y-64527685D01*
X38764258Y-64584764D01*
X38903504Y-64615379D01*
X39046045Y-64618365D01*
X39186451Y-64593608D01*
X39319374Y-64542050D01*
X39439752Y-64465656D01*
X39542999Y-64367336D01*
X39625182Y-64250833D01*
X39683171Y-64120587D01*
X39714758Y-63981558D01*
X39717032Y-63818714D01*
X39689339Y-63678857D01*
X39635009Y-63547043D01*
X39556111Y-63428291D01*
X39455650Y-63327126D01*
X39412000Y-63297684D01*
X39412000Y-63171413D01*
X39515930Y-63139227D01*
X39616746Y-63072794D01*
X39695063Y-62980905D01*
X39744679Y-62870835D01*
X39761666Y-62751300D01*
X39761666Y-59728700D01*
X39756244Y-59660702D01*
X39720527Y-59545370D01*
X39654094Y-59444554D01*
X39562205Y-59366237D01*
X39452135Y-59316621D01*
X39412000Y-59310917D01*
X39412000Y-56750000D01*
X39406939Y-56698380D01*
X39402410Y-56646619D01*
X39401585Y-56643780D01*
X39401297Y-56640840D01*
X39386291Y-56591139D01*
X39371809Y-56541291D01*
X39370450Y-56538668D01*
X39369595Y-56535838D01*
X39345215Y-56489986D01*
X39321333Y-56443913D01*
X39319490Y-56441604D01*
X39318102Y-56438994D01*
X39285279Y-56398749D01*
X39252904Y-56358194D01*
X39248848Y-56354080D01*
X39248779Y-56353996D01*
X39248701Y-56353931D01*
X39247394Y-56352606D01*
X38566983Y-55672195D01*
X38567032Y-55668714D01*
X38539339Y-55528857D01*
X38485009Y-55397043D01*
X38406111Y-55278291D01*
X38305650Y-55177126D01*
X38187452Y-55097401D01*
X38056020Y-55042152D01*
X37916360Y-55013484D01*
X37908215Y-55013427D01*
X37280000Y-54385212D01*
X37280000Y-47356002D01*
X37686400Y-46949602D01*
X37788451Y-46931608D01*
X37921374Y-46880050D01*
X38041752Y-46803656D01*
X38144999Y-46705336D01*
X38227182Y-46588833D01*
X38285171Y-46458587D01*
X38316758Y-46319558D01*
X38318625Y-46185801D01*
X38668429Y-46185801D01*
X38732996Y-46857766D01*
X38927417Y-47504223D01*
X39244220Y-48100329D01*
X39253331Y-48113964D01*
X39664411Y-48461984D01*
X41932395Y-46194000D01*
X39664411Y-43926016D01*
X39253331Y-44274036D01*
X38933693Y-44868627D01*
X38736196Y-45514151D01*
X38668429Y-46185801D01*
X38318625Y-46185801D01*
X38319032Y-46156714D01*
X38291339Y-46016857D01*
X38237009Y-45885043D01*
X38158111Y-45766291D01*
X38057650Y-45665126D01*
X37939452Y-45585401D01*
X37808020Y-45530152D01*
X37668360Y-45501484D01*
X37525791Y-45500489D01*
X37385744Y-45527204D01*
X37253554Y-45580612D01*
X37134255Y-45658680D01*
X37122000Y-45670681D01*
X37122000Y-43746411D01*
X39844016Y-43746411D01*
X42112000Y-46014395D01*
X44379984Y-43746411D01*
X64244016Y-43746411D01*
X66512000Y-46014395D01*
X68779984Y-43746411D01*
X68431964Y-43335331D01*
X67837373Y-43015693D01*
X67191849Y-42818196D01*
X66520199Y-42750429D01*
X65848234Y-42814996D01*
X65201777Y-43009417D01*
X64605671Y-43326220D01*
X64592036Y-43335331D01*
X64244016Y-43746411D01*
X44379984Y-43746411D01*
X44031964Y-43335331D01*
X43437373Y-43015693D01*
X42791849Y-42818196D01*
X42120199Y-42750429D01*
X41448234Y-42814996D01*
X40801777Y-43009417D01*
X40205671Y-43326220D01*
X40192036Y-43335331D01*
X39844016Y-43746411D01*
X37122000Y-43746411D01*
X37122000Y-43436976D01*
X38356976Y-42202000D01*
X39497000Y-42202000D01*
X39582209Y-42193645D01*
X39667523Y-42186181D01*
X39672206Y-42184820D01*
X39677055Y-42184345D01*
X39759014Y-42159600D01*
X39841258Y-42135706D01*
X39845585Y-42133463D01*
X39850252Y-42132054D01*
X39925832Y-42091868D01*
X40001881Y-42052448D01*
X40005693Y-42049405D01*
X40009994Y-42047118D01*
X40076334Y-41993012D01*
X40143272Y-41939576D01*
X40150056Y-41932886D01*
X40150196Y-41932772D01*
X40150303Y-41932643D01*
X40152488Y-41930488D01*
X44851488Y-37231488D01*
X44905841Y-37165318D01*
X44960880Y-37099724D01*
X44963228Y-37095452D01*
X44966322Y-37091686D01*
X45006787Y-37016219D01*
X45048038Y-36941184D01*
X45049512Y-36936539D01*
X45051816Y-36932241D01*
X45076861Y-36850323D01*
X45102743Y-36768734D01*
X45103286Y-36763892D01*
X45104712Y-36759228D01*
X45113368Y-36674009D01*
X45122910Y-36588943D01*
X45122976Y-36579420D01*
X45122995Y-36579235D01*
X45122979Y-36579063D01*
X45123000Y-36576000D01*
X45123000Y-35979000D01*
X47244000Y-35979000D01*
X47329209Y-35970645D01*
X47414523Y-35963181D01*
X47419206Y-35961820D01*
X47424055Y-35961345D01*
X47506014Y-35936600D01*
X47588258Y-35912706D01*
X47592585Y-35910463D01*
X47597252Y-35909054D01*
X47672832Y-35868868D01*
X47748881Y-35829448D01*
X47752693Y-35826405D01*
X47756994Y-35824118D01*
X47823334Y-35770012D01*
X47890272Y-35716576D01*
X47897056Y-35709886D01*
X47897196Y-35709772D01*
X47897303Y-35709643D01*
X47899488Y-35707488D01*
X48643976Y-34963000D01*
X60229118Y-34963000D01*
X60094370Y-35094955D01*
X59927457Y-35338727D01*
X59811070Y-35610276D01*
X59749645Y-35899260D01*
X59745520Y-36194671D01*
X59759025Y-36268253D01*
X59727120Y-36306276D01*
X59724772Y-36310548D01*
X59721678Y-36314314D01*
X59681202Y-36389800D01*
X59639962Y-36464816D01*
X59638489Y-36469459D01*
X59636184Y-36473758D01*
X59611148Y-36555649D01*
X59585257Y-36637266D01*
X59584713Y-36642113D01*
X59583289Y-36646772D01*
X59574642Y-36731901D01*
X59565090Y-36817057D01*
X59565024Y-36826590D01*
X59565006Y-36826764D01*
X59565021Y-36826927D01*
X59565000Y-36830000D01*
X59565000Y-37681000D01*
X48768000Y-37681000D01*
X48730957Y-37684632D01*
X48693745Y-37683979D01*
X48641139Y-37693439D01*
X48587945Y-37698655D01*
X48552314Y-37709413D01*
X48515683Y-37716000D01*
X48465921Y-37735496D01*
X48414748Y-37750946D01*
X48381881Y-37768422D01*
X48347231Y-37781997D01*
X48302204Y-37810786D01*
X48255006Y-37835882D01*
X48226163Y-37859406D01*
X48194806Y-37879455D01*
X48156224Y-37916447D01*
X48114804Y-37950228D01*
X48091080Y-37978906D01*
X48064214Y-38004664D01*
X48055859Y-38014549D01*
X46812779Y-39506245D01*
X46080512Y-40238512D01*
X45965678Y-40378314D01*
X45880184Y-40537758D01*
X45827289Y-40710772D01*
X45809006Y-40890764D01*
X45826031Y-41070880D01*
X45877718Y-41244258D01*
X45962096Y-41404296D01*
X46075952Y-41544895D01*
X46124522Y-41585362D01*
X46081289Y-41726772D01*
X46063006Y-41906764D01*
X46080031Y-42086880D01*
X46131718Y-42260258D01*
X46216096Y-42420296D01*
X46329952Y-42560895D01*
X46468949Y-42676703D01*
X46627792Y-42763307D01*
X46800432Y-42817410D01*
X46980293Y-42836949D01*
X47160523Y-42821181D01*
X47334258Y-42770706D01*
X47494881Y-42687448D01*
X47636272Y-42574576D01*
X47645488Y-42565488D01*
X48153488Y-42057488D01*
X48207841Y-41991318D01*
X48262880Y-41925724D01*
X48265228Y-41921452D01*
X48268322Y-41917686D01*
X48308778Y-41842235D01*
X48350038Y-41767184D01*
X48351512Y-41762537D01*
X48353815Y-41758242D01*
X48378842Y-41676384D01*
X48404743Y-41594734D01*
X48405287Y-41589888D01*
X48406711Y-41585229D01*
X48415359Y-41500094D01*
X48424910Y-41414943D01*
X48424976Y-41405410D01*
X48424994Y-41405236D01*
X48424979Y-41405073D01*
X48425000Y-41402000D01*
X48425000Y-40467620D01*
X49202184Y-39535000D01*
X60322024Y-39535000D01*
X61574512Y-40787488D01*
X61640682Y-40841841D01*
X61706276Y-40896880D01*
X61710548Y-40899228D01*
X61714314Y-40902322D01*
X61789765Y-40942778D01*
X61864816Y-40984038D01*
X61869463Y-40985512D01*
X61873758Y-40987815D01*
X61955604Y-41012838D01*
X62037266Y-41038743D01*
X62042113Y-41039287D01*
X62046772Y-41040711D01*
X62131901Y-41049358D01*
X62217057Y-41058910D01*
X62226590Y-41058976D01*
X62226764Y-41058994D01*
X62226927Y-41058979D01*
X62230000Y-41059000D01*
X73530024Y-41059000D01*
X74020512Y-41549488D01*
X74160314Y-41664322D01*
X74319758Y-41749816D01*
X74492772Y-41802712D01*
X74672764Y-41820995D01*
X74852880Y-41803969D01*
X75026258Y-41752282D01*
X75186296Y-41667904D01*
X75326896Y-41554048D01*
X75442703Y-41415052D01*
X75529308Y-41256208D01*
X75583411Y-41083568D01*
X75602949Y-40903707D01*
X75587181Y-40723477D01*
X75536706Y-40549742D01*
X75453448Y-40389120D01*
X75340577Y-40247728D01*
X75331488Y-40238512D01*
X74569488Y-39476512D01*
X74503318Y-39422159D01*
X74437724Y-39367120D01*
X74433452Y-39364772D01*
X74429686Y-39361678D01*
X74370068Y-39329710D01*
X83195853Y-39329710D01*
X83543873Y-39740790D01*
X84138464Y-40060428D01*
X84783988Y-40257925D01*
X85455638Y-40325692D01*
X86127603Y-40261125D01*
X86774060Y-40066704D01*
X87370166Y-39749901D01*
X87383801Y-39740790D01*
X87731821Y-39329710D01*
X85463837Y-37061726D01*
X83195853Y-39329710D01*
X74370068Y-39329710D01*
X74354200Y-39321202D01*
X74279184Y-39279962D01*
X74274541Y-39278489D01*
X74270242Y-39276184D01*
X74188351Y-39251148D01*
X74106734Y-39225257D01*
X74101887Y-39224713D01*
X74097228Y-39223289D01*
X74012099Y-39214642D01*
X73926943Y-39205090D01*
X73917410Y-39205024D01*
X73917236Y-39205006D01*
X73917073Y-39205021D01*
X73914000Y-39205000D01*
X62613976Y-39205000D01*
X61419000Y-38010024D01*
X61419000Y-37568711D01*
X61661088Y-37526025D01*
X61936533Y-37419187D01*
X62185982Y-37260882D01*
X62303818Y-37148668D01*
X65352937Y-37148668D01*
X65470099Y-37363012D01*
X65737806Y-37491060D01*
X66025349Y-37564421D01*
X66321680Y-37580275D01*
X66615410Y-37538013D01*
X66895251Y-37439260D01*
X67037901Y-37363012D01*
X67155063Y-37148668D01*
X66254000Y-36247605D01*
X65352937Y-37148668D01*
X62303818Y-37148668D01*
X62399931Y-37057141D01*
X62570232Y-36815724D01*
X62690398Y-36545826D01*
X62755852Y-36257728D01*
X62757556Y-36135680D01*
X64741725Y-36135680D01*
X64783987Y-36429410D01*
X64882740Y-36709251D01*
X64958988Y-36851901D01*
X65173332Y-36969063D01*
X66074395Y-36068000D01*
X66433605Y-36068000D01*
X67334668Y-36969063D01*
X67549012Y-36851901D01*
X67677060Y-36584194D01*
X67750421Y-36296651D01*
X67766275Y-36000320D01*
X67724013Y-35706590D01*
X67625260Y-35426749D01*
X67549012Y-35284099D01*
X67334668Y-35166937D01*
X66433605Y-36068000D01*
X66074395Y-36068000D01*
X65173332Y-35166937D01*
X64958988Y-35284099D01*
X64830940Y-35551806D01*
X64757579Y-35839349D01*
X64741725Y-36135680D01*
X62757556Y-36135680D01*
X62760564Y-35920280D01*
X62703180Y-35630467D01*
X62590596Y-35357319D01*
X62427102Y-35111241D01*
X62279892Y-34963000D01*
X65366237Y-34963000D01*
X65352937Y-34987332D01*
X66254000Y-35888395D01*
X67155063Y-34987332D01*
X67141763Y-34963000D01*
X68196024Y-34963000D01*
X69956512Y-36723488D01*
X70022682Y-36777841D01*
X70088276Y-36832880D01*
X70092548Y-36835228D01*
X70096314Y-36838322D01*
X70171800Y-36878798D01*
X70246816Y-36920038D01*
X70251459Y-36921511D01*
X70255758Y-36923816D01*
X70337649Y-36948852D01*
X70419266Y-36974743D01*
X70424113Y-36975287D01*
X70428772Y-36976711D01*
X70513901Y-36985358D01*
X70599057Y-36994910D01*
X70608590Y-36994976D01*
X70608764Y-36994994D01*
X70608927Y-36994979D01*
X70612000Y-36995000D01*
X71489090Y-36995000D01*
X71497653Y-37008287D01*
X71702883Y-37220808D01*
X71945483Y-37389420D01*
X72216213Y-37507699D01*
X72504761Y-37571140D01*
X72800136Y-37577327D01*
X73091088Y-37526025D01*
X73366533Y-37419187D01*
X73615982Y-37260882D01*
X73733818Y-37148668D01*
X76782937Y-37148668D01*
X76900099Y-37363012D01*
X77167806Y-37491060D01*
X77455349Y-37564421D01*
X77751680Y-37580275D01*
X78045410Y-37538013D01*
X78325251Y-37439260D01*
X78467901Y-37363012D01*
X78585063Y-37148668D01*
X77684000Y-36247605D01*
X76782937Y-37148668D01*
X73733818Y-37148668D01*
X73829931Y-37057141D01*
X74000232Y-36815724D01*
X74120398Y-36545826D01*
X74185852Y-36257728D01*
X74187556Y-36135680D01*
X76171725Y-36135680D01*
X76213987Y-36429410D01*
X76312740Y-36709251D01*
X76388988Y-36851901D01*
X76603332Y-36969063D01*
X77504395Y-36068000D01*
X77863605Y-36068000D01*
X78764668Y-36969063D01*
X78938725Y-36873922D01*
X82020266Y-36873922D01*
X82084833Y-37545887D01*
X82279254Y-38192344D01*
X82596057Y-38788450D01*
X82605168Y-38802085D01*
X83016248Y-39150105D01*
X85284232Y-36882121D01*
X83016248Y-34614137D01*
X82605168Y-34962157D01*
X82285530Y-35556748D01*
X82088033Y-36202272D01*
X82020266Y-36873922D01*
X78938725Y-36873922D01*
X78979012Y-36851901D01*
X79107060Y-36584194D01*
X79180421Y-36296651D01*
X79196275Y-36000320D01*
X79154013Y-35706590D01*
X79055260Y-35426749D01*
X78979012Y-35284099D01*
X78764668Y-35166937D01*
X77863605Y-36068000D01*
X77504395Y-36068000D01*
X76603332Y-35166937D01*
X76388988Y-35284099D01*
X76260940Y-35551806D01*
X76187579Y-35839349D01*
X76171725Y-36135680D01*
X74187556Y-36135680D01*
X74190564Y-35920280D01*
X74133180Y-35630467D01*
X74020596Y-35357319D01*
X73857102Y-35111241D01*
X73734055Y-34987332D01*
X76782937Y-34987332D01*
X77684000Y-35888395D01*
X78585063Y-34987332D01*
X78467901Y-34772988D01*
X78200194Y-34644940D01*
X77912651Y-34571579D01*
X77616320Y-34555725D01*
X77322590Y-34597987D01*
X77042749Y-34696740D01*
X76900099Y-34772988D01*
X76782937Y-34987332D01*
X73734055Y-34987332D01*
X73648925Y-34901606D01*
X73403995Y-34736398D01*
X73131640Y-34621910D01*
X72842234Y-34562504D01*
X72546801Y-34560441D01*
X72256595Y-34615801D01*
X71982668Y-34726475D01*
X71735454Y-34888247D01*
X71524370Y-35094955D01*
X71492843Y-35141000D01*
X70995976Y-35141000D01*
X69630976Y-33776000D01*
X84005978Y-33776000D01*
X83557508Y-34014341D01*
X83543873Y-34023452D01*
X83195853Y-34434532D01*
X85463837Y-36702516D01*
X85477980Y-36688374D01*
X85657585Y-36867979D01*
X85643442Y-36882121D01*
X87911426Y-39150105D01*
X88322506Y-38802085D01*
X88398000Y-38661651D01*
X88398000Y-42678000D01*
X79248000Y-42678000D01*
X79201010Y-42682608D01*
X79153935Y-42686892D01*
X79152245Y-42687389D01*
X79150494Y-42687561D01*
X79105276Y-42701213D01*
X79059947Y-42714554D01*
X79058387Y-42715370D01*
X79056703Y-42715878D01*
X79015043Y-42738029D01*
X78973123Y-42759944D01*
X78971749Y-42761049D01*
X78970197Y-42761874D01*
X78933593Y-42791727D01*
X78896769Y-42821335D01*
X78895639Y-42822682D01*
X78894274Y-42823795D01*
X78864129Y-42860234D01*
X78833793Y-42896387D01*
X78832946Y-42897927D01*
X78831823Y-42899285D01*
X78809351Y-42940847D01*
X78786594Y-42982241D01*
X78786061Y-42983920D01*
X78785225Y-42985467D01*
X78771259Y-43030585D01*
X78756970Y-43075628D01*
X78756774Y-43077376D01*
X78756253Y-43079059D01*
X78751310Y-43126086D01*
X78746049Y-43172991D01*
X78746025Y-43176368D01*
X78746012Y-43176495D01*
X78746024Y-43176623D01*
X78746000Y-43180000D01*
X78746000Y-46996000D01*
X70104000Y-46996000D01*
X70057010Y-47000608D01*
X70009935Y-47004892D01*
X70008245Y-47005389D01*
X70006494Y-47005561D01*
X69961276Y-47019213D01*
X69915947Y-47032554D01*
X69914387Y-47033370D01*
X69912703Y-47033878D01*
X69871043Y-47056029D01*
X69829123Y-47077944D01*
X69827749Y-47079049D01*
X69826197Y-47079874D01*
X69824297Y-47081424D01*
X69887804Y-46873849D01*
X69955571Y-46202199D01*
X69891004Y-45530234D01*
X69696583Y-44883777D01*
X69379780Y-44287671D01*
X69370669Y-44274036D01*
X68959589Y-43926016D01*
X66691605Y-46194000D01*
X68959589Y-48461984D01*
X69370669Y-48113964D01*
X69602000Y-47683642D01*
X69602000Y-63754000D01*
X69606608Y-63800990D01*
X69610892Y-63848065D01*
X69611389Y-63849755D01*
X69611561Y-63851506D01*
X69625213Y-63896724D01*
X69638554Y-63942053D01*
X69639370Y-63943613D01*
X69639878Y-63945297D01*
X69662029Y-63986957D01*
X69683944Y-64028877D01*
X69685049Y-64030251D01*
X69685874Y-64031803D01*
X69715727Y-64068407D01*
X69745335Y-64105231D01*
X69746682Y-64106361D01*
X69747795Y-64107726D01*
X69784234Y-64137871D01*
X69820387Y-64168207D01*
X69821927Y-64169054D01*
X69823285Y-64170177D01*
X69864847Y-64192649D01*
X69906241Y-64215406D01*
X69907920Y-64215939D01*
X69909467Y-64216775D01*
X69954585Y-64230741D01*
X69999628Y-64245030D01*
X70001376Y-64245226D01*
X70003059Y-64245747D01*
X70050086Y-64250690D01*
X70096991Y-64255951D01*
X70100368Y-64255975D01*
X70100495Y-64255988D01*
X70100623Y-64255976D01*
X70104000Y-64256000D01*
X70116669Y-64256000D01*
X70095446Y-64294605D01*
X70095149Y-64295542D01*
X70094676Y-64296409D01*
X70078521Y-64347958D01*
X70062281Y-64399154D01*
X70062172Y-64400130D01*
X70061876Y-64401073D01*
X70056035Y-64454841D01*
X70054690Y-64466835D01*
X70052285Y-64467071D01*
X70000619Y-64471591D01*
X69997786Y-64472414D01*
X69994840Y-64472703D01*
X69945051Y-64487735D01*
X69895291Y-64502192D01*
X69892673Y-64503549D01*
X69889838Y-64504405D01*
X69843931Y-64528814D01*
X69797912Y-64552668D01*
X69795605Y-64554510D01*
X69792994Y-64555898D01*
X69752738Y-64588730D01*
X69712193Y-64621097D01*
X69708081Y-64625152D01*
X69707996Y-64625221D01*
X69707931Y-64625299D01*
X69706606Y-64626606D01*
X69198606Y-65134606D01*
X69165649Y-65174728D01*
X69132286Y-65214489D01*
X69130864Y-65217076D01*
X69128986Y-65219362D01*
X69104418Y-65265180D01*
X69079446Y-65310605D01*
X69078554Y-65313417D01*
X69077155Y-65316026D01*
X69061952Y-65365753D01*
X69046281Y-65415154D01*
X69045952Y-65418086D01*
X69045087Y-65420916D01*
X69039840Y-65472581D01*
X69034055Y-65524153D01*
X69034014Y-65529935D01*
X69034004Y-65530038D01*
X69034013Y-65530134D01*
X69034000Y-65532000D01*
X69034000Y-66040000D01*
X69039168Y-66092705D01*
X69043955Y-66145308D01*
X69044510Y-66147195D01*
X69044703Y-66149160D01*
X69060017Y-66199882D01*
X69074923Y-66250529D01*
X69075835Y-66252273D01*
X69076405Y-66254162D01*
X69101239Y-66300868D01*
X69125738Y-66347731D01*
X69126974Y-66349268D01*
X69127898Y-66351006D01*
X69161283Y-66391940D01*
X69194466Y-66433211D01*
X69195977Y-66434479D01*
X69197221Y-66436004D01*
X69237932Y-66469683D01*
X69278489Y-66503714D01*
X69280217Y-66504664D01*
X69281734Y-66505919D01*
X69328257Y-66531074D01*
X69374605Y-66556554D01*
X69376482Y-66557149D01*
X69378216Y-66558087D01*
X69428740Y-66573727D01*
X69479154Y-66589719D01*
X69481113Y-66589939D01*
X69482994Y-66590521D01*
X69535563Y-66596046D01*
X69588153Y-66601945D01*
X69591939Y-66601972D01*
X69592077Y-66601986D01*
X69592215Y-66601973D01*
X69596000Y-66602000D01*
X70104000Y-66602000D01*
X70155670Y-66596934D01*
X70207381Y-66592409D01*
X70210215Y-66591586D01*
X70213160Y-66591297D01*
X70262903Y-66576279D01*
X70312709Y-66561809D01*
X70315332Y-66560450D01*
X70318162Y-66559595D01*
X70364014Y-66535215D01*
X70410087Y-66511333D01*
X70412396Y-66509490D01*
X70415006Y-66508102D01*
X70455251Y-66475279D01*
X70495806Y-66442904D01*
X70499920Y-66438848D01*
X70500004Y-66438779D01*
X70500069Y-66438701D01*
X70501394Y-66437394D01*
X71009394Y-65929394D01*
X71042329Y-65889298D01*
X71075714Y-65849511D01*
X71077138Y-65846921D01*
X71079013Y-65844638D01*
X71103541Y-65798894D01*
X71128554Y-65753395D01*
X71129447Y-65750579D01*
X71130844Y-65747974D01*
X71146020Y-65698334D01*
X71161719Y-65648846D01*
X71162049Y-65645908D01*
X71162912Y-65643084D01*
X71168155Y-65591464D01*
X71169310Y-65581165D01*
X71173802Y-65580725D01*
X71227235Y-65575674D01*
X71228176Y-65575393D01*
X71229160Y-65575297D01*
X71280904Y-65559674D01*
X71332346Y-65544339D01*
X71333215Y-65543881D01*
X71334162Y-65543595D01*
X71381977Y-65518171D01*
X71429369Y-65493184D01*
X71430130Y-65492568D01*
X71431006Y-65492102D01*
X71472939Y-65457902D01*
X71514610Y-65424158D01*
X71515239Y-65423403D01*
X71516004Y-65422779D01*
X71550473Y-65381114D01*
X71584818Y-65339890D01*
X71585287Y-65339030D01*
X71585919Y-65338266D01*
X71611697Y-65290591D01*
X71634000Y-65249685D01*
X71634000Y-72898000D01*
X71638608Y-72944990D01*
X71642892Y-72992065D01*
X71643389Y-72993755D01*
X71643561Y-72995506D01*
X71657213Y-73040724D01*
X71670554Y-73086053D01*
X71671370Y-73087613D01*
X71671878Y-73089297D01*
X71694029Y-73130957D01*
X71715944Y-73172877D01*
X71717049Y-73174251D01*
X71717874Y-73175803D01*
X71747727Y-73212407D01*
X71777335Y-73249231D01*
X71778682Y-73250361D01*
X71779795Y-73251726D01*
X71816234Y-73281871D01*
X71852387Y-73312207D01*
X71853927Y-73313054D01*
X71855285Y-73314177D01*
X71896847Y-73336649D01*
X71938241Y-73359406D01*
X71939920Y-73359939D01*
X71941467Y-73360775D01*
X71986585Y-73374741D01*
X72031628Y-73389030D01*
X72033376Y-73389226D01*
X72035059Y-73389747D01*
X72082086Y-73394690D01*
X72128991Y-73399951D01*
X72132368Y-73399975D01*
X72132495Y-73399988D01*
X72132623Y-73399976D01*
X72136000Y-73400000D01*
X88398000Y-73400000D01*
X88398000Y-77212579D01*
X88331617Y-77087671D01*
X88322506Y-77074036D01*
X87911426Y-76726016D01*
X85643442Y-78994000D01*
X85657585Y-79008143D01*
X85477980Y-79187748D01*
X85463837Y-79173605D01*
X83195853Y-81441589D01*
X83279168Y-81540000D01*
X24536669Y-81540000D01*
X24619984Y-81441589D01*
X22352000Y-79173605D01*
X22337858Y-79187748D01*
X22158253Y-79008143D01*
X22172395Y-78994000D01*
X22531605Y-78994000D01*
X24799589Y-81261984D01*
X25210669Y-80913964D01*
X25530307Y-80319373D01*
X25727804Y-79673849D01*
X25795571Y-79002199D01*
X25731004Y-78330234D01*
X25536583Y-77683777D01*
X25219780Y-77087671D01*
X25210669Y-77074036D01*
X24892537Y-76804705D01*
X28471986Y-76804705D01*
X28494815Y-77055549D01*
X28565932Y-77297182D01*
X28682627Y-77520400D01*
X28840457Y-77716701D01*
X29033409Y-77878606D01*
X29254134Y-77999951D01*
X29446739Y-78061049D01*
X28905200Y-78061049D01*
X28837202Y-78066471D01*
X28721870Y-78102188D01*
X28621054Y-78168621D01*
X28542737Y-78260510D01*
X28493121Y-78370580D01*
X28476134Y-78490115D01*
X28476134Y-80217315D01*
X28481556Y-80285313D01*
X28517273Y-80400645D01*
X28583706Y-80501461D01*
X28675595Y-80579778D01*
X28785665Y-80629394D01*
X28905200Y-80646381D01*
X30632400Y-80646381D01*
X30700398Y-80640959D01*
X30815730Y-80605242D01*
X30916546Y-80538809D01*
X30994863Y-80446920D01*
X31044479Y-80336850D01*
X31061466Y-80217315D01*
X31061466Y-79686101D01*
X31105932Y-79837182D01*
X31222627Y-80060400D01*
X31380457Y-80256701D01*
X31573409Y-80418606D01*
X31794134Y-80539951D01*
X32034224Y-80616112D01*
X32284535Y-80644189D01*
X32302555Y-80644315D01*
X32315045Y-80644315D01*
X32565724Y-80619736D01*
X32806854Y-80546934D01*
X33029252Y-80428683D01*
X33224446Y-80269487D01*
X33385001Y-80075409D01*
X33504802Y-79853843D01*
X33579285Y-79613226D01*
X33579478Y-79611392D01*
X33645932Y-79837182D01*
X33762627Y-80060400D01*
X33920457Y-80256701D01*
X34113409Y-80418606D01*
X34334134Y-80539951D01*
X34574224Y-80616112D01*
X34824535Y-80644189D01*
X34842555Y-80644315D01*
X34855045Y-80644315D01*
X35105724Y-80619736D01*
X35346854Y-80546934D01*
X35569252Y-80428683D01*
X35764446Y-80269487D01*
X35925001Y-80075409D01*
X36044802Y-79853843D01*
X36119285Y-79613226D01*
X36119478Y-79611392D01*
X36185932Y-79837182D01*
X36302627Y-80060400D01*
X36460457Y-80256701D01*
X36653409Y-80418606D01*
X36874134Y-80539951D01*
X37114224Y-80616112D01*
X37364535Y-80644189D01*
X37382555Y-80644315D01*
X37395045Y-80644315D01*
X37645724Y-80619736D01*
X37886854Y-80546934D01*
X38109252Y-80428683D01*
X38304446Y-80269487D01*
X38465001Y-80075409D01*
X38584802Y-79853843D01*
X38659285Y-79613226D01*
X38673212Y-79480717D01*
X38751781Y-79480717D01*
X38680143Y-79680066D01*
X38709264Y-79776083D01*
X38815097Y-80005887D01*
X38963729Y-80210628D01*
X39149448Y-80382439D01*
X39365117Y-80514716D01*
X39602448Y-80602377D01*
X39801800Y-80531307D01*
X39801800Y-79480715D01*
X39781800Y-79480715D01*
X39781800Y-79226715D01*
X39801800Y-79226715D01*
X39801800Y-79206715D01*
X40055800Y-79206715D01*
X40055800Y-79226715D01*
X40075800Y-79226715D01*
X40075800Y-79480715D01*
X40055800Y-79480715D01*
X40055800Y-80531307D01*
X40255152Y-80602377D01*
X40492483Y-80514716D01*
X40708152Y-80382439D01*
X40893871Y-80210628D01*
X41042503Y-80005887D01*
X41148336Y-79776083D01*
X41177457Y-79680066D01*
X41105819Y-79480717D01*
X41184364Y-79480717D01*
X41194815Y-79595549D01*
X41265932Y-79837182D01*
X41382627Y-80060400D01*
X41540457Y-80256701D01*
X41733409Y-80418606D01*
X41954134Y-80539951D01*
X42194224Y-80616112D01*
X42444535Y-80644189D01*
X42462555Y-80644315D01*
X42475045Y-80644315D01*
X42725724Y-80619736D01*
X42966854Y-80546934D01*
X43189252Y-80428683D01*
X43384446Y-80269487D01*
X43545001Y-80075409D01*
X43664802Y-79853843D01*
X43739285Y-79613226D01*
X43739478Y-79611392D01*
X43805932Y-79837182D01*
X43922627Y-80060400D01*
X44080457Y-80256701D01*
X44273409Y-80418606D01*
X44494134Y-80539951D01*
X44734224Y-80616112D01*
X44984535Y-80644189D01*
X45002555Y-80644315D01*
X45015045Y-80644315D01*
X45265724Y-80619736D01*
X45506854Y-80546934D01*
X45729252Y-80428683D01*
X45924446Y-80269487D01*
X46085001Y-80075409D01*
X46204802Y-79853843D01*
X46279285Y-79613226D01*
X46279478Y-79611392D01*
X46345932Y-79837182D01*
X46462627Y-80060400D01*
X46620457Y-80256701D01*
X46813409Y-80418606D01*
X47034134Y-80539951D01*
X47274224Y-80616112D01*
X47524535Y-80644189D01*
X47542555Y-80644315D01*
X47555045Y-80644315D01*
X47805724Y-80619736D01*
X48046854Y-80546934D01*
X48269252Y-80428683D01*
X48464446Y-80269487D01*
X48625001Y-80075409D01*
X48744802Y-79853843D01*
X48819285Y-79613226D01*
X48819478Y-79611392D01*
X48885932Y-79837182D01*
X49002627Y-80060400D01*
X49160457Y-80256701D01*
X49353409Y-80418606D01*
X49574134Y-80539951D01*
X49814224Y-80616112D01*
X50064535Y-80644189D01*
X50082555Y-80644315D01*
X50095045Y-80644315D01*
X50345724Y-80619736D01*
X50586854Y-80546934D01*
X50809252Y-80428683D01*
X51004446Y-80269487D01*
X51165001Y-80075409D01*
X51284802Y-79853843D01*
X51359285Y-79613226D01*
X51359478Y-79611392D01*
X51425932Y-79837182D01*
X51542627Y-80060400D01*
X51700457Y-80256701D01*
X51893409Y-80418606D01*
X52114134Y-80539951D01*
X52354224Y-80616112D01*
X52604535Y-80644189D01*
X52622555Y-80644315D01*
X52635045Y-80644315D01*
X52885724Y-80619736D01*
X53126854Y-80546934D01*
X53349252Y-80428683D01*
X53544446Y-80269487D01*
X53705001Y-80075409D01*
X53824802Y-79853843D01*
X53899285Y-79613226D01*
X53899478Y-79611392D01*
X53965932Y-79837182D01*
X54082627Y-80060400D01*
X54240457Y-80256701D01*
X54433409Y-80418606D01*
X54654134Y-80539951D01*
X54894224Y-80616112D01*
X55144535Y-80644189D01*
X55162555Y-80644315D01*
X55175045Y-80644315D01*
X55425724Y-80619736D01*
X55666854Y-80546934D01*
X55889252Y-80428683D01*
X56084446Y-80269487D01*
X56245001Y-80075409D01*
X56364802Y-79853843D01*
X56439285Y-79613226D01*
X56439478Y-79611392D01*
X56505932Y-79837182D01*
X56622627Y-80060400D01*
X56780457Y-80256701D01*
X56973409Y-80418606D01*
X57194134Y-80539951D01*
X57434224Y-80616112D01*
X57684535Y-80644189D01*
X57702555Y-80644315D01*
X57715045Y-80644315D01*
X57965724Y-80619736D01*
X58206854Y-80546934D01*
X58429252Y-80428683D01*
X58624446Y-80269487D01*
X58785001Y-80075409D01*
X58904802Y-79853843D01*
X58979285Y-79613226D01*
X58993212Y-79480717D01*
X59071781Y-79480717D01*
X59000143Y-79680066D01*
X59029264Y-79776083D01*
X59135097Y-80005887D01*
X59283729Y-80210628D01*
X59469448Y-80382439D01*
X59685117Y-80514716D01*
X59922448Y-80602377D01*
X60121800Y-80531307D01*
X60121800Y-79480715D01*
X60101800Y-79480715D01*
X60101800Y-79226715D01*
X60121800Y-79226715D01*
X60121800Y-79206715D01*
X60375800Y-79206715D01*
X60375800Y-79226715D01*
X60395800Y-79226715D01*
X60395800Y-79480715D01*
X60375800Y-79480715D01*
X60375800Y-80531307D01*
X60575152Y-80602377D01*
X60812483Y-80514716D01*
X61028152Y-80382439D01*
X61213871Y-80210628D01*
X61362503Y-80005887D01*
X61468336Y-79776083D01*
X61497457Y-79680066D01*
X61425819Y-79480717D01*
X61504364Y-79480717D01*
X61514815Y-79595549D01*
X61585932Y-79837182D01*
X61702627Y-80060400D01*
X61860457Y-80256701D01*
X62053409Y-80418606D01*
X62274134Y-80539951D01*
X62514224Y-80616112D01*
X62764535Y-80644189D01*
X62782555Y-80644315D01*
X62795045Y-80644315D01*
X63045724Y-80619736D01*
X63286854Y-80546934D01*
X63509252Y-80428683D01*
X63704446Y-80269487D01*
X63865001Y-80075409D01*
X63984802Y-79853843D01*
X64059285Y-79613226D01*
X64059478Y-79611392D01*
X64125932Y-79837182D01*
X64242627Y-80060400D01*
X64400457Y-80256701D01*
X64593409Y-80418606D01*
X64814134Y-80539951D01*
X65054224Y-80616112D01*
X65304535Y-80644189D01*
X65322555Y-80644315D01*
X65335045Y-80644315D01*
X65585724Y-80619736D01*
X65826854Y-80546934D01*
X66049252Y-80428683D01*
X66244446Y-80269487D01*
X66405001Y-80075409D01*
X66524802Y-79853843D01*
X66599285Y-79613226D01*
X66599478Y-79611392D01*
X66665932Y-79837182D01*
X66782627Y-80060400D01*
X66940457Y-80256701D01*
X67133409Y-80418606D01*
X67354134Y-80539951D01*
X67594224Y-80616112D01*
X67844535Y-80644189D01*
X67862555Y-80644315D01*
X67875045Y-80644315D01*
X68125724Y-80619736D01*
X68366854Y-80546934D01*
X68589252Y-80428683D01*
X68784446Y-80269487D01*
X68945001Y-80075409D01*
X69064802Y-79853843D01*
X69139285Y-79613226D01*
X69139478Y-79611392D01*
X69205932Y-79837182D01*
X69322627Y-80060400D01*
X69480457Y-80256701D01*
X69673409Y-80418606D01*
X69894134Y-80539951D01*
X70134224Y-80616112D01*
X70384535Y-80644189D01*
X70402555Y-80644315D01*
X70415045Y-80644315D01*
X70665724Y-80619736D01*
X70906854Y-80546934D01*
X71129252Y-80428683D01*
X71324446Y-80269487D01*
X71485001Y-80075409D01*
X71604802Y-79853843D01*
X71679285Y-79613226D01*
X71679478Y-79611392D01*
X71745932Y-79837182D01*
X71862627Y-80060400D01*
X72020457Y-80256701D01*
X72213409Y-80418606D01*
X72434134Y-80539951D01*
X72674224Y-80616112D01*
X72924535Y-80644189D01*
X72942555Y-80644315D01*
X72955045Y-80644315D01*
X73205724Y-80619736D01*
X73446854Y-80546934D01*
X73669252Y-80428683D01*
X73864446Y-80269487D01*
X74025001Y-80075409D01*
X74144802Y-79853843D01*
X74219285Y-79613226D01*
X74219478Y-79611392D01*
X74285932Y-79837182D01*
X74402627Y-80060400D01*
X74560457Y-80256701D01*
X74753409Y-80418606D01*
X74974134Y-80539951D01*
X75214224Y-80616112D01*
X75464535Y-80644189D01*
X75482555Y-80644315D01*
X75495045Y-80644315D01*
X75745724Y-80619736D01*
X75986854Y-80546934D01*
X76209252Y-80428683D01*
X76404446Y-80269487D01*
X76565001Y-80075409D01*
X76684802Y-79853843D01*
X76759285Y-79613226D01*
X76773212Y-79480717D01*
X76851781Y-79480717D01*
X76780143Y-79680066D01*
X76809264Y-79776083D01*
X76915097Y-80005887D01*
X77063729Y-80210628D01*
X77249448Y-80382439D01*
X77465117Y-80514716D01*
X77702448Y-80602377D01*
X77901800Y-80531307D01*
X77901800Y-79480715D01*
X78155800Y-79480715D01*
X78155800Y-80531307D01*
X78355152Y-80602377D01*
X78592483Y-80514716D01*
X78808152Y-80382439D01*
X78993871Y-80210628D01*
X79142503Y-80005887D01*
X79248336Y-79776083D01*
X79277457Y-79680066D01*
X79205818Y-79480715D01*
X78155800Y-79480715D01*
X77901800Y-79480715D01*
X77881800Y-79480715D01*
X77881800Y-79226715D01*
X77901800Y-79226715D01*
X77901800Y-79206715D01*
X78155800Y-79206715D01*
X78155800Y-79226715D01*
X79205818Y-79226715D01*
X79277457Y-79027364D01*
X79264852Y-78985801D01*
X82020266Y-78985801D01*
X82084833Y-79657766D01*
X82279254Y-80304223D01*
X82596057Y-80900329D01*
X82605168Y-80913964D01*
X83016248Y-81261984D01*
X85284232Y-78994000D01*
X83016248Y-76726016D01*
X82605168Y-77074036D01*
X82285530Y-77668627D01*
X82088033Y-78314151D01*
X82020266Y-78985801D01*
X79264852Y-78985801D01*
X79248336Y-78931347D01*
X79142503Y-78701543D01*
X78993871Y-78496802D01*
X78808152Y-78324991D01*
X78592483Y-78192714D01*
X78355152Y-78105053D01*
X78155802Y-78176122D01*
X78155802Y-78092475D01*
X78285724Y-78079736D01*
X78526854Y-78006934D01*
X78749252Y-77888683D01*
X78944446Y-77729487D01*
X79105001Y-77535409D01*
X79224802Y-77313843D01*
X79299285Y-77073226D01*
X79325614Y-76822725D01*
X79302785Y-76571881D01*
X79295289Y-76546411D01*
X83195853Y-76546411D01*
X85463837Y-78814395D01*
X87731821Y-76546411D01*
X87383801Y-76135331D01*
X86789210Y-75815693D01*
X86143686Y-75618196D01*
X85472036Y-75550429D01*
X84800071Y-75614996D01*
X84153614Y-75809417D01*
X83557508Y-76126220D01*
X83543873Y-76135331D01*
X83195853Y-76546411D01*
X79295289Y-76546411D01*
X79231668Y-76330248D01*
X79114973Y-76107030D01*
X78957143Y-75910729D01*
X78764191Y-75748824D01*
X78543466Y-75627479D01*
X78303376Y-75551318D01*
X78053065Y-75523241D01*
X78035045Y-75523115D01*
X78022555Y-75523115D01*
X77771876Y-75547694D01*
X77530746Y-75620496D01*
X77308348Y-75738747D01*
X77113154Y-75897943D01*
X76952599Y-76092021D01*
X76832798Y-76313587D01*
X76758315Y-76554204D01*
X76758122Y-76556038D01*
X76691668Y-76330248D01*
X76574973Y-76107030D01*
X76417143Y-75910729D01*
X76224191Y-75748824D01*
X76003466Y-75627479D01*
X75763376Y-75551318D01*
X75513065Y-75523241D01*
X75495045Y-75523115D01*
X75482555Y-75523115D01*
X75231876Y-75547694D01*
X74990746Y-75620496D01*
X74768348Y-75738747D01*
X74573154Y-75897943D01*
X74412599Y-76092021D01*
X74292798Y-76313587D01*
X74218315Y-76554204D01*
X74218122Y-76556038D01*
X74151668Y-76330248D01*
X74034973Y-76107030D01*
X73877143Y-75910729D01*
X73684191Y-75748824D01*
X73463466Y-75627479D01*
X73223376Y-75551318D01*
X72973065Y-75523241D01*
X72955045Y-75523115D01*
X72942555Y-75523115D01*
X72691876Y-75547694D01*
X72450746Y-75620496D01*
X72228348Y-75738747D01*
X72033154Y-75897943D01*
X71872599Y-76092021D01*
X71752798Y-76313587D01*
X71678315Y-76554204D01*
X71664388Y-76686713D01*
X71585819Y-76686713D01*
X71657457Y-76487364D01*
X71628336Y-76391347D01*
X71522503Y-76161543D01*
X71373871Y-75956802D01*
X71188152Y-75784991D01*
X70972483Y-75652714D01*
X70735152Y-75565053D01*
X70535800Y-75636123D01*
X70535800Y-76686715D01*
X70555800Y-76686715D01*
X70555800Y-76940715D01*
X70535800Y-76940715D01*
X70535800Y-76960715D01*
X70281800Y-76960715D01*
X70281800Y-76940715D01*
X70261800Y-76940715D01*
X70261800Y-76686715D01*
X70281800Y-76686715D01*
X70281800Y-75636123D01*
X70082448Y-75565053D01*
X69845117Y-75652714D01*
X69629448Y-75784991D01*
X69443729Y-75956802D01*
X69295097Y-76161543D01*
X69189264Y-76391347D01*
X69160143Y-76487364D01*
X69231781Y-76686713D01*
X69153236Y-76686713D01*
X69142785Y-76571881D01*
X69071668Y-76330248D01*
X68954973Y-76107030D01*
X68797143Y-75910729D01*
X68604191Y-75748824D01*
X68383466Y-75627479D01*
X68143376Y-75551318D01*
X67893065Y-75523241D01*
X67875045Y-75523115D01*
X67862555Y-75523115D01*
X67611876Y-75547694D01*
X67370746Y-75620496D01*
X67148348Y-75738747D01*
X66953154Y-75897943D01*
X66792599Y-76092021D01*
X66672798Y-76313587D01*
X66598315Y-76554204D01*
X66584388Y-76686713D01*
X66505819Y-76686713D01*
X66577457Y-76487364D01*
X66548336Y-76391347D01*
X66442503Y-76161543D01*
X66293871Y-75956802D01*
X66108152Y-75784991D01*
X65892483Y-75652714D01*
X65655152Y-75565053D01*
X65455800Y-75636123D01*
X65455800Y-76686715D01*
X65475800Y-76686715D01*
X65475800Y-76940715D01*
X65455800Y-76940715D01*
X65455800Y-76960715D01*
X65201800Y-76960715D01*
X65201800Y-76940715D01*
X65181800Y-76940715D01*
X65181800Y-76686715D01*
X65201800Y-76686715D01*
X65201800Y-75636123D01*
X65002448Y-75565053D01*
X64765117Y-75652714D01*
X64549448Y-75784991D01*
X64363729Y-75956802D01*
X64215097Y-76161543D01*
X64109264Y-76391347D01*
X64080143Y-76487364D01*
X64151781Y-76686713D01*
X64073236Y-76686713D01*
X64062785Y-76571881D01*
X63991668Y-76330248D01*
X63874973Y-76107030D01*
X63717143Y-75910729D01*
X63524191Y-75748824D01*
X63303466Y-75627479D01*
X63063376Y-75551318D01*
X62813065Y-75523241D01*
X62795045Y-75523115D01*
X62782555Y-75523115D01*
X62531876Y-75547694D01*
X62290746Y-75620496D01*
X62068348Y-75738747D01*
X61873154Y-75897943D01*
X61712599Y-76092021D01*
X61592798Y-76313587D01*
X61518315Y-76554204D01*
X61518122Y-76556038D01*
X61451668Y-76330248D01*
X61334973Y-76107030D01*
X61177143Y-75910729D01*
X60984191Y-75748824D01*
X60763466Y-75627479D01*
X60523376Y-75551318D01*
X60273065Y-75523241D01*
X60255045Y-75523115D01*
X60242555Y-75523115D01*
X59991876Y-75547694D01*
X59750746Y-75620496D01*
X59528348Y-75738747D01*
X59333154Y-75897943D01*
X59172599Y-76092021D01*
X59052798Y-76313587D01*
X58978315Y-76554204D01*
X58978122Y-76556038D01*
X58911668Y-76330248D01*
X58794973Y-76107030D01*
X58637143Y-75910729D01*
X58444191Y-75748824D01*
X58223466Y-75627479D01*
X57983376Y-75551318D01*
X57733065Y-75523241D01*
X57715045Y-75523115D01*
X57702555Y-75523115D01*
X57451876Y-75547694D01*
X57210746Y-75620496D01*
X56988348Y-75738747D01*
X56793154Y-75897943D01*
X56632599Y-76092021D01*
X56512798Y-76313587D01*
X56438315Y-76554204D01*
X56438122Y-76556038D01*
X56371668Y-76330248D01*
X56254973Y-76107030D01*
X56097143Y-75910729D01*
X55904191Y-75748824D01*
X55683466Y-75627479D01*
X55443376Y-75551318D01*
X55193065Y-75523241D01*
X55175045Y-75523115D01*
X55162555Y-75523115D01*
X54911876Y-75547694D01*
X54670746Y-75620496D01*
X54448348Y-75738747D01*
X54253154Y-75897943D01*
X54092599Y-76092021D01*
X53972798Y-76313587D01*
X53898315Y-76554204D01*
X53884388Y-76686713D01*
X53805819Y-76686713D01*
X53877457Y-76487364D01*
X53848336Y-76391347D01*
X53742503Y-76161543D01*
X53593871Y-75956802D01*
X53408152Y-75784991D01*
X53192483Y-75652714D01*
X52955152Y-75565053D01*
X52755800Y-75636123D01*
X52755800Y-76686715D01*
X52775800Y-76686715D01*
X52775800Y-76940715D01*
X52755800Y-76940715D01*
X52755800Y-76960715D01*
X52501800Y-76960715D01*
X52501800Y-76940715D01*
X52481800Y-76940715D01*
X52481800Y-76686715D01*
X52501800Y-76686715D01*
X52501800Y-75636123D01*
X52302448Y-75565053D01*
X52065117Y-75652714D01*
X51849448Y-75784991D01*
X51663729Y-75956802D01*
X51515097Y-76161543D01*
X51409264Y-76391347D01*
X51380143Y-76487364D01*
X51451781Y-76686713D01*
X51373236Y-76686713D01*
X51362785Y-76571881D01*
X51291668Y-76330248D01*
X51174973Y-76107030D01*
X51017143Y-75910729D01*
X50824191Y-75748824D01*
X50603466Y-75627479D01*
X50363376Y-75551318D01*
X50113065Y-75523241D01*
X50095045Y-75523115D01*
X50082555Y-75523115D01*
X49831876Y-75547694D01*
X49590746Y-75620496D01*
X49368348Y-75738747D01*
X49173154Y-75897943D01*
X49012599Y-76092021D01*
X48892798Y-76313587D01*
X48818315Y-76554204D01*
X48818122Y-76556038D01*
X48751668Y-76330248D01*
X48634973Y-76107030D01*
X48477143Y-75910729D01*
X48284191Y-75748824D01*
X48063466Y-75627479D01*
X47823376Y-75551318D01*
X47573065Y-75523241D01*
X47555045Y-75523115D01*
X47542555Y-75523115D01*
X47291876Y-75547694D01*
X47050746Y-75620496D01*
X46828348Y-75738747D01*
X46633154Y-75897943D01*
X46472599Y-76092021D01*
X46352798Y-76313587D01*
X46278315Y-76554204D01*
X46264388Y-76686713D01*
X46185819Y-76686713D01*
X46257457Y-76487364D01*
X46228336Y-76391347D01*
X46122503Y-76161543D01*
X45973871Y-75956802D01*
X45788152Y-75784991D01*
X45572483Y-75652714D01*
X45335152Y-75565053D01*
X45135800Y-75636123D01*
X45135800Y-76686715D01*
X45155800Y-76686715D01*
X45155800Y-76940715D01*
X45135800Y-76940715D01*
X45135800Y-76960715D01*
X44881800Y-76960715D01*
X44881800Y-76940715D01*
X44861800Y-76940715D01*
X44861800Y-76686715D01*
X44881800Y-76686715D01*
X44881800Y-75636123D01*
X44682448Y-75565053D01*
X44445117Y-75652714D01*
X44229448Y-75784991D01*
X44043729Y-75956802D01*
X43895097Y-76161543D01*
X43789264Y-76391347D01*
X43760143Y-76487364D01*
X43831781Y-76686713D01*
X43753236Y-76686713D01*
X43742785Y-76571881D01*
X43671668Y-76330248D01*
X43554973Y-76107030D01*
X43397143Y-75910729D01*
X43204191Y-75748824D01*
X42983466Y-75627479D01*
X42743376Y-75551318D01*
X42493065Y-75523241D01*
X42475045Y-75523115D01*
X42462555Y-75523115D01*
X42211876Y-75547694D01*
X41970746Y-75620496D01*
X41748348Y-75738747D01*
X41553154Y-75897943D01*
X41392599Y-76092021D01*
X41272798Y-76313587D01*
X41198315Y-76554204D01*
X41198122Y-76556038D01*
X41131668Y-76330248D01*
X41014973Y-76107030D01*
X40857143Y-75910729D01*
X40664191Y-75748824D01*
X40490800Y-75653501D01*
X40490800Y-73613277D01*
X40786627Y-73772307D01*
X41432151Y-73969804D01*
X42103801Y-74037571D01*
X42775766Y-73973004D01*
X43422223Y-73778583D01*
X44018329Y-73461780D01*
X44031964Y-73452669D01*
X44379984Y-73041589D01*
X64244016Y-73041589D01*
X64592036Y-73452669D01*
X65186627Y-73772307D01*
X65832151Y-73969804D01*
X66503801Y-74037571D01*
X67175766Y-73973004D01*
X67822223Y-73778583D01*
X68418329Y-73461780D01*
X68431964Y-73452669D01*
X68779984Y-73041589D01*
X66512000Y-70773605D01*
X64244016Y-73041589D01*
X44379984Y-73041589D01*
X42112000Y-70773605D01*
X42097858Y-70787748D01*
X41918253Y-70608143D01*
X41932395Y-70594000D01*
X41918253Y-70579858D01*
X42097858Y-70400253D01*
X42112000Y-70414395D01*
X42126143Y-70400253D01*
X42305748Y-70579858D01*
X42291605Y-70594000D01*
X44559589Y-72861984D01*
X44970669Y-72513964D01*
X45290307Y-71919373D01*
X45487804Y-71273849D01*
X45555571Y-70602199D01*
X45491004Y-69930234D01*
X45338375Y-69422736D01*
X47362148Y-70829295D01*
X49909869Y-71942367D01*
X52625265Y-72539385D01*
X55404908Y-72597611D01*
X58142923Y-72114825D01*
X60735019Y-71109417D01*
X63082465Y-69619683D01*
X63285419Y-69426413D01*
X63136196Y-69914151D01*
X63068429Y-70585801D01*
X63132996Y-71257766D01*
X63327417Y-71904223D01*
X63644220Y-72500329D01*
X63653331Y-72513964D01*
X64064411Y-72861984D01*
X66332395Y-70594000D01*
X66691605Y-70594000D01*
X68959589Y-72861984D01*
X69370669Y-72513964D01*
X69690307Y-71919373D01*
X69887804Y-71273849D01*
X69955571Y-70602199D01*
X69891004Y-69930234D01*
X69696583Y-69283777D01*
X69379780Y-68687671D01*
X69370669Y-68674036D01*
X68959589Y-68326016D01*
X66691605Y-70594000D01*
X66332395Y-70594000D01*
X66318253Y-70579858D01*
X66497858Y-70400253D01*
X66512000Y-70414395D01*
X68779984Y-68146411D01*
X68431964Y-67735331D01*
X67837373Y-67415693D01*
X67191849Y-67218196D01*
X66520199Y-67150429D01*
X65848234Y-67214996D01*
X65329621Y-67370968D01*
X66698473Y-65430496D01*
X67829304Y-62890609D01*
X68445265Y-60179447D01*
X68489607Y-57003873D01*
X67949587Y-54276570D01*
X66890115Y-51706098D01*
X65378563Y-49431029D01*
X65832151Y-49569804D01*
X66503801Y-49637571D01*
X67175766Y-49573004D01*
X67822223Y-49378583D01*
X68418329Y-49061780D01*
X68431964Y-49052669D01*
X68779984Y-48641589D01*
X66512000Y-46373605D01*
X66497858Y-46387748D01*
X66318253Y-46208143D01*
X66332395Y-46194000D01*
X64064411Y-43926016D01*
X63653331Y-44274036D01*
X63333693Y-44868627D01*
X63136196Y-45514151D01*
X63068429Y-46185801D01*
X63132996Y-46857766D01*
X63278169Y-47340473D01*
X61087550Y-45862882D01*
X58524537Y-44785490D01*
X55801070Y-44226443D01*
X53020885Y-44207033D01*
X50289878Y-44728001D01*
X47712072Y-45769502D01*
X45385655Y-47291866D01*
X45348900Y-47327859D01*
X45487804Y-46873849D01*
X45555571Y-46202199D01*
X45491004Y-45530234D01*
X45296583Y-44883777D01*
X44979780Y-44287671D01*
X44970669Y-44274036D01*
X44559589Y-43926016D01*
X42291605Y-46194000D01*
X42305748Y-46208143D01*
X42126143Y-46387748D01*
X42112000Y-46373605D01*
X39844016Y-48641589D01*
X40192036Y-49052669D01*
X40786627Y-49372307D01*
X41432151Y-49569804D01*
X42103801Y-49637571D01*
X42775766Y-49573004D01*
X43271288Y-49423977D01*
X41828489Y-51531132D01*
X40733231Y-54086561D01*
X40155184Y-56806059D01*
X40116365Y-59586041D01*
X40618254Y-62320618D01*
X41641734Y-64905632D01*
X43147820Y-67242620D01*
X43263619Y-67362533D01*
X42791849Y-67218196D01*
X42120199Y-67150429D01*
X41448234Y-67214996D01*
X40801777Y-67409417D01*
X40205671Y-67726220D01*
X40192036Y-67735331D01*
X39844017Y-68146409D01*
X39767259Y-68069651D01*
X39761666Y-68075244D01*
X39761666Y-65265900D01*
X39756244Y-65197902D01*
X39720527Y-65082570D01*
X39654094Y-64981754D01*
X39562205Y-64903437D01*
X39452135Y-64853821D01*
X39332600Y-64836834D01*
X38367400Y-64836834D01*
X38299402Y-64842256D01*
X38184070Y-64877973D01*
X38083254Y-64944406D01*
X38004937Y-65036295D01*
X37955321Y-65146365D01*
X37938334Y-65265900D01*
X37938334Y-67268328D01*
X37933744Y-67269204D01*
X37801554Y-67322612D01*
X37682255Y-67400680D01*
X37580391Y-67500432D01*
X37499842Y-67618070D01*
X37443677Y-67749113D01*
X37414035Y-67888570D01*
X37412044Y-68031128D01*
X37437781Y-68171358D01*
X37490265Y-68303918D01*
X37567498Y-68423760D01*
X37578000Y-68434635D01*
X37578000Y-69117212D01*
X36872000Y-69823212D01*
X36872000Y-68708613D01*
X36975930Y-68676427D01*
X37076746Y-68609994D01*
X37155063Y-68518105D01*
X37204679Y-68408035D01*
X37221666Y-68288500D01*
X37221666Y-65265900D01*
X37216244Y-65197902D01*
X37180527Y-65082570D01*
X37114094Y-64981754D01*
X37022205Y-64903437D01*
X36912135Y-64853821D01*
X36792600Y-64836834D01*
X35827400Y-64836834D01*
X35759402Y-64842256D01*
X35644070Y-64877973D01*
X35543254Y-64944406D01*
X35464937Y-65036295D01*
X35415321Y-65146365D01*
X35398334Y-65265900D01*
X35398334Y-68288500D01*
X35403756Y-68356498D01*
X35439473Y-68471830D01*
X35505906Y-68572646D01*
X35597795Y-68650963D01*
X35707865Y-68700579D01*
X35748000Y-68706283D01*
X35748000Y-69767212D01*
X35392471Y-70122741D01*
X35253744Y-70149204D01*
X35121554Y-70202612D01*
X35002255Y-70280680D01*
X34900391Y-70380432D01*
X34819842Y-70498070D01*
X34763677Y-70629113D01*
X34734035Y-70768570D01*
X34733888Y-70779100D01*
X34332000Y-70377212D01*
X34332000Y-68708613D01*
X34435930Y-68676427D01*
X34536746Y-68609994D01*
X34615063Y-68518105D01*
X34664679Y-68408035D01*
X34681666Y-68288500D01*
X34681666Y-65265900D01*
X34676244Y-65197902D01*
X34640527Y-65082570D01*
X34574094Y-64981754D01*
X34482205Y-64903437D01*
X34372135Y-64853821D01*
X34332000Y-64848117D01*
X34332000Y-63885424D01*
X34392999Y-63827336D01*
X34395487Y-63823809D01*
X34436537Y-63866317D01*
X34553610Y-63947685D01*
X34684258Y-64004764D01*
X34823504Y-64035379D01*
X34966045Y-64038365D01*
X35106451Y-64013608D01*
X35239374Y-63962050D01*
X35359752Y-63885656D01*
X35462999Y-63787336D01*
X35545182Y-63670833D01*
X35603171Y-63540587D01*
X35634758Y-63401558D01*
X35635063Y-63379725D01*
X35834422Y-63180366D01*
X36792600Y-63180366D01*
X36860598Y-63174944D01*
X36975930Y-63139227D01*
X37076746Y-63072794D01*
X37155063Y-62980905D01*
X37204679Y-62870835D01*
X37221666Y-62751300D01*
X37221666Y-59728700D01*
X37216244Y-59660702D01*
X37180527Y-59545370D01*
X37114094Y-59444554D01*
X37022205Y-59366237D01*
X36912135Y-59316621D01*
X36792600Y-59299634D01*
X35827400Y-59299634D01*
X35759402Y-59305056D01*
X35644070Y-59340773D01*
X35543254Y-59407206D01*
X35464937Y-59499095D01*
X35415321Y-59609165D01*
X35398334Y-59728700D01*
X35398334Y-62026878D01*
X34842471Y-62582741D01*
X34703744Y-62609204D01*
X34679600Y-62618959D01*
X34679600Y-61473750D01*
X34572850Y-61367000D01*
X33897000Y-61367000D01*
X33897000Y-61387000D01*
X33643000Y-61387000D01*
X33643000Y-61367000D01*
X32967150Y-61367000D01*
X32860400Y-61473750D01*
X32860400Y-62793356D01*
X32876809Y-62875851D01*
X32908997Y-62953560D01*
X32955727Y-63023497D01*
X33015203Y-63082972D01*
X33085139Y-63129702D01*
X33138825Y-63151940D01*
X33114035Y-63268570D01*
X33112044Y-63411128D01*
X33137781Y-63551358D01*
X33190265Y-63683918D01*
X33208000Y-63711437D01*
X33208000Y-64845787D01*
X33104070Y-64877973D01*
X33003254Y-64944406D01*
X32924937Y-65036295D01*
X32875321Y-65146365D01*
X32858334Y-65265900D01*
X32858334Y-68288500D01*
X32863756Y-68356498D01*
X32899473Y-68471830D01*
X32965906Y-68572646D01*
X33057795Y-68650963D01*
X33167865Y-68700579D01*
X33208000Y-68706283D01*
X33208000Y-70610000D01*
X33213066Y-70661670D01*
X33217591Y-70713381D01*
X33218414Y-70716215D01*
X33218703Y-70719160D01*
X33233721Y-70768903D01*
X33248191Y-70818709D01*
X33249550Y-70821332D01*
X33250405Y-70824162D01*
X33274785Y-70870014D01*
X33298667Y-70916087D01*
X33300510Y-70918396D01*
X33301898Y-70921006D01*
X33334721Y-70961251D01*
X33367096Y-71001806D01*
X33371152Y-71005920D01*
X33371221Y-71006004D01*
X33371299Y-71006069D01*
X33372606Y-71007394D01*
X35558000Y-73192788D01*
X35558000Y-75741964D01*
X35412483Y-75652714D01*
X35175152Y-75565053D01*
X34975800Y-75636123D01*
X34975800Y-76686715D01*
X34995800Y-76686715D01*
X34995800Y-76940715D01*
X34975800Y-76940715D01*
X34975800Y-76960715D01*
X34721800Y-76960715D01*
X34721800Y-76940715D01*
X34701800Y-76940715D01*
X34701800Y-76686715D01*
X34721800Y-76686715D01*
X34721800Y-75636123D01*
X34522448Y-75565053D01*
X34285117Y-75652714D01*
X34069448Y-75784991D01*
X33883729Y-75956802D01*
X33735097Y-76161543D01*
X33629264Y-76391347D01*
X33600143Y-76487364D01*
X33671781Y-76686713D01*
X33593236Y-76686713D01*
X33582785Y-76571881D01*
X33511668Y-76330248D01*
X33394973Y-76107030D01*
X33237143Y-75910729D01*
X33044191Y-75748824D01*
X32823466Y-75627479D01*
X32583376Y-75551318D01*
X32333065Y-75523241D01*
X32315045Y-75523115D01*
X32302555Y-75523115D01*
X32051876Y-75547694D01*
X31810746Y-75620496D01*
X31588348Y-75738747D01*
X31393154Y-75897943D01*
X31232599Y-76092021D01*
X31112798Y-76313587D01*
X31038315Y-76554204D01*
X31038122Y-76556038D01*
X30971668Y-76330248D01*
X30854973Y-76107030D01*
X30697143Y-75910729D01*
X30504191Y-75748824D01*
X30283466Y-75627479D01*
X30043376Y-75551318D01*
X29793065Y-75523241D01*
X29775045Y-75523115D01*
X29762555Y-75523115D01*
X29511876Y-75547694D01*
X29270746Y-75620496D01*
X29048348Y-75738747D01*
X28853154Y-75897943D01*
X28692599Y-76092021D01*
X28572798Y-76313587D01*
X28498315Y-76554204D01*
X28471986Y-76804705D01*
X24892537Y-76804705D01*
X24799589Y-76726016D01*
X22531605Y-78994000D01*
X22172395Y-78994000D01*
X19904411Y-76726016D01*
X19552000Y-77024367D01*
X19552000Y-76546411D01*
X20084016Y-76546411D01*
X22352000Y-78814395D01*
X24619984Y-76546411D01*
X24271964Y-76135331D01*
X23677373Y-75815693D01*
X23031849Y-75618196D01*
X22360199Y-75550429D01*
X21688234Y-75614996D01*
X21041777Y-75809417D01*
X20445671Y-76126220D01*
X20432036Y-76135331D01*
X20084016Y-76546411D01*
X19552000Y-76546411D01*
X19552000Y-68003528D01*
X29613023Y-68003528D01*
X29629420Y-68183702D01*
X29680501Y-68357260D01*
X29764319Y-68517591D01*
X29877684Y-68658588D01*
X30016276Y-68774880D01*
X30174816Y-68862038D01*
X30213256Y-68874232D01*
X30294512Y-68955488D01*
X30434314Y-69070322D01*
X30593758Y-69155816D01*
X30766772Y-69208711D01*
X30946764Y-69226994D01*
X31126880Y-69209969D01*
X31300258Y-69158282D01*
X31460296Y-69073904D01*
X31600895Y-68960048D01*
X31716703Y-68821051D01*
X31803308Y-68662208D01*
X31857410Y-68489568D01*
X31876949Y-68309707D01*
X31861181Y-68129477D01*
X31810706Y-67955742D01*
X31727448Y-67795119D01*
X31614576Y-67653728D01*
X31605488Y-67644512D01*
X31315488Y-67354512D01*
X31249318Y-67300159D01*
X31183724Y-67245120D01*
X31179452Y-67242772D01*
X31175686Y-67239678D01*
X31100200Y-67199202D01*
X31025184Y-67157962D01*
X31020541Y-67156489D01*
X31016242Y-67154184D01*
X30934351Y-67129148D01*
X30852734Y-67103257D01*
X30847887Y-67102713D01*
X30843228Y-67101289D01*
X30758099Y-67092642D01*
X30672943Y-67083090D01*
X30663410Y-67083024D01*
X30663236Y-67083006D01*
X30663073Y-67083021D01*
X30660000Y-67083000D01*
X30540000Y-67083000D01*
X30359945Y-67100655D01*
X30186748Y-67152946D01*
X30027006Y-67237882D01*
X29886804Y-67352228D01*
X29771482Y-67491628D01*
X29685433Y-67650773D01*
X29631934Y-67823601D01*
X29613023Y-68003528D01*
X19552000Y-68003528D01*
X19552000Y-39329710D01*
X20084016Y-39329710D01*
X20432036Y-39740790D01*
X21026627Y-40060428D01*
X21672151Y-40257925D01*
X22343801Y-40325692D01*
X23015766Y-40261125D01*
X23662223Y-40066704D01*
X23666840Y-40064250D01*
X27422000Y-40064250D01*
X27422000Y-40460056D01*
X27438409Y-40542551D01*
X27470598Y-40620261D01*
X27517328Y-40690197D01*
X27576803Y-40749673D01*
X27646740Y-40796403D01*
X27724449Y-40828591D01*
X27806944Y-40845000D01*
X28865250Y-40845000D01*
X28972000Y-40738250D01*
X28972000Y-39957500D01*
X29226000Y-39957500D01*
X29226000Y-40738250D01*
X29332750Y-40845000D01*
X30865250Y-40845000D01*
X30972000Y-40738250D01*
X30972000Y-39957500D01*
X29226000Y-39957500D01*
X28972000Y-39957500D01*
X27528750Y-39957500D01*
X27422000Y-40064250D01*
X23666840Y-40064250D01*
X24258329Y-39749901D01*
X24271964Y-39740790D01*
X24619984Y-39329710D01*
X22352000Y-37061726D01*
X20084016Y-39329710D01*
X19552000Y-39329710D01*
X19552000Y-38851754D01*
X19904411Y-39150105D01*
X22172395Y-36882121D01*
X22531605Y-36882121D01*
X24799589Y-39150105D01*
X25107710Y-38889250D01*
X27422000Y-38889250D01*
X27422000Y-39596750D01*
X27528750Y-39703500D01*
X28972000Y-39703500D01*
X28972000Y-38782500D01*
X29226000Y-38782500D01*
X29226000Y-39703500D01*
X30972000Y-39703500D01*
X30972000Y-38782500D01*
X29226000Y-38782500D01*
X28972000Y-38782500D01*
X27528750Y-38782500D01*
X27422000Y-38889250D01*
X25107710Y-38889250D01*
X25210669Y-38802085D01*
X25530307Y-38207494D01*
X25585851Y-38025944D01*
X27422000Y-38025944D01*
X27422000Y-38421750D01*
X27528750Y-38528500D01*
X28972000Y-38528500D01*
X28972000Y-37747750D01*
X29226000Y-37747750D01*
X29226000Y-38528500D01*
X30972000Y-38528500D01*
X30972000Y-37747750D01*
X30865250Y-37641000D01*
X29332750Y-37641000D01*
X29226000Y-37747750D01*
X28972000Y-37747750D01*
X28865250Y-37641000D01*
X27806944Y-37641000D01*
X27724449Y-37657409D01*
X27646740Y-37689597D01*
X27576803Y-37736327D01*
X27517328Y-37795803D01*
X27470598Y-37865739D01*
X27438409Y-37943449D01*
X27422000Y-38025944D01*
X25585851Y-38025944D01*
X25727804Y-37561970D01*
X25795571Y-36890320D01*
X25731004Y-36218355D01*
X25536583Y-35571898D01*
X25219780Y-34975792D01*
X25210669Y-34962157D01*
X24799589Y-34614137D01*
X22531605Y-36882121D01*
X22172395Y-36882121D01*
X22158253Y-36867979D01*
X22337858Y-36688374D01*
X22352000Y-36702516D01*
X24619984Y-34434532D01*
X24271964Y-34023452D01*
X23811653Y-33776000D01*
X47209024Y-33776000D01*
X46860024Y-34125000D01*
X46860024Y-34125000D01*
G37*
X46860024Y-34125000D02*
X44196000Y-34125000D01*
X44109154Y-34133516D01*
X44022298Y-34141420D01*
X44019179Y-34142338D01*
X44015945Y-34142655D01*
X43932416Y-34167874D01*
X43848740Y-34192501D01*
X43845861Y-34194006D01*
X43842748Y-34194946D01*
X43765729Y-34235898D01*
X43688409Y-34276319D01*
X43685875Y-34278357D01*
X43683006Y-34279882D01*
X43615411Y-34335011D01*
X43547412Y-34389684D01*
X43545323Y-34392173D01*
X43542804Y-34394228D01*
X43487162Y-34461488D01*
X43431120Y-34528276D01*
X43429556Y-34531121D01*
X43427482Y-34533628D01*
X43385955Y-34610431D01*
X43343962Y-34686816D01*
X43342980Y-34689912D01*
X43341433Y-34692773D01*
X43315638Y-34776104D01*
X43289257Y-34859266D01*
X43288894Y-34862498D01*
X43287934Y-34865601D01*
X43278824Y-34952274D01*
X43269090Y-35039057D01*
X43269047Y-35045304D01*
X43269023Y-35045528D01*
X43269043Y-35045753D01*
X43269000Y-35052000D01*
X43269000Y-36192024D01*
X39113024Y-40348000D01*
X38671869Y-40348000D01*
X38748588Y-40286316D01*
X38864880Y-40147724D01*
X38952038Y-39989184D01*
X39006743Y-39816734D01*
X39026910Y-39636943D01*
X39027000Y-39624000D01*
X39027000Y-36576000D01*
X39009345Y-36395945D01*
X38957054Y-36222748D01*
X38872118Y-36063006D01*
X38757772Y-35922804D01*
X38618372Y-35807482D01*
X38459227Y-35721433D01*
X38286399Y-35667934D01*
X38106472Y-35649023D01*
X37926298Y-35665420D01*
X37752740Y-35716501D01*
X37592409Y-35800319D01*
X37451412Y-35913684D01*
X37335120Y-36052276D01*
X37247962Y-36210816D01*
X37193257Y-36383266D01*
X37173090Y-36563057D01*
X37173000Y-36576000D01*
X37173000Y-39624000D01*
X37190655Y-39804055D01*
X37242946Y-39977252D01*
X37327882Y-40136994D01*
X37442228Y-40277196D01*
X37581628Y-40392518D01*
X37625250Y-40416104D01*
X37624415Y-40416537D01*
X37619748Y-40417946D01*
X37544148Y-40458143D01*
X37468120Y-40497552D01*
X37464310Y-40500594D01*
X37460006Y-40502882D01*
X37393675Y-40556981D01*
X37326728Y-40610423D01*
X37319942Y-40617115D01*
X37319804Y-40617228D01*
X37319698Y-40617356D01*
X37317512Y-40619512D01*
X35811024Y-42126000D01*
X35052000Y-42126000D01*
X35051854Y-42126014D01*
X35049276Y-42126004D01*
X34478103Y-42127683D01*
X34506758Y-42001558D01*
X34509032Y-41838714D01*
X34481339Y-41698857D01*
X34464511Y-41658030D01*
X34477831Y-41641814D01*
X34512090Y-41600986D01*
X34513550Y-41598330D01*
X34515478Y-41595983D01*
X34540675Y-41548991D01*
X34566341Y-41502304D01*
X34567259Y-41499411D01*
X34568692Y-41496738D01*
X34584285Y-41445739D01*
X34600391Y-41394965D01*
X34600729Y-41391954D01*
X34601617Y-41389049D01*
X34607003Y-41336018D01*
X34612944Y-41283056D01*
X34612985Y-41277120D01*
X34612996Y-41277014D01*
X34612987Y-41276915D01*
X34613000Y-41275000D01*
X34613000Y-37908312D01*
X34671182Y-37825833D01*
X34729171Y-37695587D01*
X34760758Y-37556558D01*
X34763032Y-37393714D01*
X34735339Y-37253857D01*
X34681009Y-37122043D01*
X34602111Y-37003291D01*
X34501650Y-36902126D01*
X34383452Y-36822401D01*
X34252020Y-36767152D01*
X34112360Y-36738484D01*
X33969791Y-36737489D01*
X33829744Y-36764204D01*
X33697554Y-36817612D01*
X33612546Y-36873240D01*
X33593891Y-36850368D01*
X33560657Y-36808735D01*
X33556492Y-36804512D01*
X33556422Y-36804426D01*
X33556342Y-36804360D01*
X33555000Y-36802999D01*
X31015001Y-34262999D01*
X30973785Y-34229144D01*
X30932986Y-34194910D01*
X30930330Y-34193450D01*
X30927983Y-34191522D01*
X30880956Y-34166306D01*
X30834304Y-34140659D01*
X30831416Y-34139743D01*
X30828738Y-34138307D01*
X30777693Y-34122701D01*
X30726965Y-34106609D01*
X30723955Y-34106271D01*
X30721049Y-34105383D01*
X30668018Y-34099997D01*
X30615056Y-34094056D01*
X30609120Y-34094015D01*
X30609014Y-34094004D01*
X30608915Y-34094013D01*
X30607000Y-34094000D01*
X30416707Y-34094000D01*
X30319452Y-34028401D01*
X30188020Y-33973152D01*
X30048360Y-33944484D01*
X29905791Y-33943489D01*
X29765744Y-33970204D01*
X29633554Y-34023612D01*
X29514255Y-34101680D01*
X29412391Y-34201432D01*
X29331842Y-34319070D01*
X29275677Y-34450113D01*
X29246035Y-34589570D01*
X29244044Y-34732128D01*
X29269781Y-34872358D01*
X29322265Y-35004918D01*
X29399498Y-35124760D01*
X29498537Y-35227317D01*
X29615610Y-35308685D01*
X29746258Y-35365764D01*
X29885504Y-35396379D01*
X30028045Y-35399365D01*
X30168451Y-35374608D01*
X30301374Y-35323050D01*
X30388045Y-35268047D01*
X32570000Y-37450001D01*
X32570000Y-37702119D01*
X32551260Y-37689597D01*
X32473551Y-37657409D01*
X32391056Y-37641000D01*
X31332750Y-37641000D01*
X31226000Y-37747750D01*
X31226000Y-38528500D01*
X31246000Y-38528500D01*
X31246000Y-38782500D01*
X31226000Y-38782500D01*
X31226000Y-39703500D01*
X31246000Y-39703500D01*
X31246000Y-39957500D01*
X31226000Y-39957500D01*
X31226000Y-40738250D01*
X31332750Y-40845000D01*
X32391056Y-40845000D01*
X32473551Y-40828591D01*
X32551260Y-40796403D01*
X32564324Y-40787674D01*
X31891998Y-41460000D01*
X31369000Y-41460000D01*
X31315999Y-41465197D01*
X31262861Y-41469846D01*
X31259946Y-41470693D01*
X31256927Y-41470989D01*
X31205893Y-41486397D01*
X31154721Y-41501264D01*
X31152029Y-41502659D01*
X31149122Y-41503537D01*
X31102012Y-41528586D01*
X31054744Y-41553087D01*
X31052376Y-41554978D01*
X31049693Y-41556404D01*
X31008379Y-41590099D01*
X30966736Y-41623342D01*
X30962512Y-41627508D01*
X30962426Y-41627578D01*
X30962360Y-41627658D01*
X30961000Y-41628999D01*
X30325999Y-42263999D01*
X30292144Y-42305215D01*
X30257910Y-42346014D01*
X30256450Y-42348670D01*
X30254522Y-42351017D01*
X30229306Y-42398044D01*
X30203659Y-42444696D01*
X30202743Y-42447584D01*
X30201307Y-42450262D01*
X30185701Y-42501307D01*
X30169609Y-42552035D01*
X30169271Y-42555045D01*
X30168383Y-42557951D01*
X30162997Y-42610982D01*
X30157056Y-42663944D01*
X30157015Y-42669880D01*
X30157004Y-42669986D01*
X30157013Y-42670085D01*
X30157000Y-42672000D01*
X30157000Y-44400559D01*
X30074242Y-44356184D01*
X29901228Y-44303289D01*
X29721236Y-44285006D01*
X29541120Y-44302031D01*
X29462743Y-44325396D01*
X29432054Y-44223748D01*
X29347118Y-44064006D01*
X29232772Y-43923804D01*
X29093372Y-43808482D01*
X28934227Y-43722433D01*
X28761399Y-43668934D01*
X28581472Y-43650023D01*
X28401298Y-43666420D01*
X28227740Y-43717501D01*
X28067409Y-43801319D01*
X27926412Y-43914684D01*
X27810120Y-44053276D01*
X27722962Y-44211816D01*
X27668257Y-44384266D01*
X27648090Y-44564057D01*
X27648000Y-44577000D01*
X27648000Y-45466000D01*
X27656355Y-45551209D01*
X27663819Y-45636523D01*
X27665180Y-45641206D01*
X27665655Y-45646055D01*
X27690400Y-45728014D01*
X27714294Y-45810258D01*
X27716537Y-45814585D01*
X27717946Y-45819252D01*
X27758132Y-45894832D01*
X27797552Y-45970881D01*
X27800595Y-45974693D01*
X27802882Y-45978994D01*
X27856988Y-46045334D01*
X27910424Y-46112272D01*
X27917114Y-46119056D01*
X27917228Y-46119196D01*
X27917357Y-46119303D01*
X27919512Y-46121488D01*
X29316512Y-47518488D01*
X29382682Y-47572841D01*
X29448276Y-47627880D01*
X29452548Y-47630228D01*
X29456314Y-47633322D01*
X29531765Y-47673778D01*
X29606816Y-47715038D01*
X29611463Y-47716512D01*
X29615758Y-47718815D01*
X29656205Y-47731181D01*
X32093000Y-50167976D01*
X32093000Y-55948639D01*
X32042904Y-55827097D01*
X31913867Y-55632881D01*
X31749564Y-55467427D01*
X31556253Y-55337037D01*
X31341298Y-55246678D01*
X31112886Y-55199792D01*
X30904301Y-55198336D01*
X30907051Y-55001413D01*
X30861760Y-54772678D01*
X30772904Y-54557097D01*
X30643867Y-54362881D01*
X30479564Y-54197427D01*
X30286253Y-54067037D01*
X30071298Y-53976678D01*
X29842886Y-53929792D01*
X29609716Y-53928164D01*
X29380672Y-53971857D01*
X29164476Y-54059206D01*
X28969363Y-54186884D01*
X28802766Y-54350028D01*
X28671030Y-54542423D01*
X28579173Y-54756743D01*
X28530693Y-54984822D01*
X28527695Y-55199476D01*
X28364301Y-55198336D01*
X28367051Y-55001413D01*
X28321760Y-54772678D01*
X28232904Y-54557097D01*
X28103867Y-54362881D01*
X27939564Y-54197427D01*
X27746253Y-54067037D01*
X27531298Y-53976678D01*
X27302886Y-53929792D01*
X27069716Y-53928164D01*
X26840672Y-53971857D01*
X26624476Y-54059206D01*
X26429363Y-54186884D01*
X26262766Y-54350028D01*
X26131030Y-54542423D01*
X26039173Y-54756743D01*
X25990693Y-54984822D01*
X25987695Y-55199476D01*
X25824301Y-55198336D01*
X25827051Y-55001413D01*
X25781760Y-54772678D01*
X25692904Y-54557097D01*
X25563867Y-54362881D01*
X25399564Y-54197427D01*
X25206253Y-54067037D01*
X24991298Y-53976678D01*
X24762886Y-53929792D01*
X24529716Y-53928164D01*
X24300672Y-53971857D01*
X24084476Y-54059206D01*
X23889363Y-54186884D01*
X23722766Y-54350028D01*
X23591030Y-54542423D01*
X23499173Y-54756743D01*
X23450693Y-54984822D01*
X23447695Y-55199476D01*
X23284301Y-55198336D01*
X23287051Y-55001413D01*
X23241760Y-54772678D01*
X23152904Y-54557097D01*
X23023867Y-54362881D01*
X22859564Y-54197427D01*
X22666253Y-54067037D01*
X22451298Y-53976678D01*
X22222886Y-53929792D01*
X21989716Y-53928164D01*
X21760672Y-53971857D01*
X21544476Y-54059206D01*
X21349363Y-54186884D01*
X21182766Y-54350028D01*
X21051030Y-54542423D01*
X20959173Y-54756743D01*
X20910693Y-54984822D01*
X20907437Y-55217974D01*
X20949530Y-55447319D01*
X21035367Y-55664119D01*
X21161680Y-55860118D01*
X21323657Y-56027850D01*
X21515128Y-56160926D01*
X21728801Y-56254278D01*
X21956537Y-56304349D01*
X22179936Y-56309028D01*
X22177437Y-56487974D01*
X22219530Y-56717319D01*
X22305367Y-56934119D01*
X22431680Y-57130118D01*
X22593657Y-57297850D01*
X22785128Y-57430926D01*
X22998801Y-57524278D01*
X23226537Y-57574349D01*
X23459660Y-57579232D01*
X23689293Y-57538741D01*
X23906687Y-57454420D01*
X24103563Y-57329478D01*
X24272422Y-57168676D01*
X24406832Y-56978139D01*
X24501672Y-56765123D01*
X24553332Y-56537742D01*
X24556574Y-56305607D01*
X24719936Y-56309028D01*
X24717437Y-56487974D01*
X24759530Y-56717319D01*
X24845367Y-56934119D01*
X24971680Y-57130118D01*
X25133657Y-57297850D01*
X25325128Y-57430926D01*
X25538801Y-57524278D01*
X25766537Y-57574349D01*
X25999660Y-57579232D01*
X26229293Y-57538741D01*
X26446687Y-57454420D01*
X26643563Y-57329478D01*
X26812422Y-57168676D01*
X26946832Y-56978139D01*
X27041672Y-56765123D01*
X27093332Y-56537742D01*
X27096574Y-56305607D01*
X27259936Y-56309028D01*
X27257437Y-56487974D01*
X27299530Y-56717319D01*
X27385367Y-56934119D01*
X27511680Y-57130118D01*
X27673657Y-57297850D01*
X27865128Y-57430926D01*
X28078801Y-57524278D01*
X28306537Y-57574349D01*
X28539660Y-57579232D01*
X28769293Y-57538741D01*
X28986687Y-57454420D01*
X29183563Y-57329478D01*
X29352422Y-57168676D01*
X29486832Y-56978139D01*
X29581672Y-56765123D01*
X29633332Y-56537742D01*
X29636574Y-56305607D01*
X29799936Y-56309028D01*
X29797437Y-56487974D01*
X29839530Y-56717319D01*
X29925367Y-56934119D01*
X30051680Y-57130118D01*
X30213657Y-57297850D01*
X30405128Y-57430926D01*
X30618801Y-57524278D01*
X30846537Y-57574349D01*
X31079660Y-57579232D01*
X31168448Y-57563576D01*
X27792512Y-60939512D01*
X27738159Y-61005682D01*
X27683120Y-61071276D01*
X27680772Y-61075548D01*
X27677678Y-61079314D01*
X27637202Y-61154800D01*
X27595962Y-61229816D01*
X27594489Y-61234459D01*
X27592184Y-61238758D01*
X27567148Y-61320649D01*
X27541257Y-61402266D01*
X27540713Y-61407113D01*
X27539289Y-61411772D01*
X27530642Y-61496901D01*
X27521090Y-61582057D01*
X27521024Y-61591590D01*
X27521006Y-61591764D01*
X27521021Y-61591927D01*
X27521000Y-61595000D01*
X27521000Y-63257212D01*
X27401030Y-63432423D01*
X27309173Y-63646743D01*
X27260693Y-63874822D01*
X27257695Y-64089476D01*
X27094301Y-64088336D01*
X27097051Y-63891413D01*
X27051760Y-63662678D01*
X26962904Y-63447097D01*
X26833867Y-63252881D01*
X26669564Y-63087427D01*
X26476253Y-62957037D01*
X26261298Y-62866678D01*
X26032886Y-62819792D01*
X25799716Y-62818164D01*
X25570672Y-62861857D01*
X25354476Y-62949206D01*
X25159363Y-63076884D01*
X24992766Y-63240028D01*
X24861030Y-63432423D01*
X24769173Y-63646743D01*
X24720693Y-63874822D01*
X24717695Y-64089476D01*
X24554301Y-64088336D01*
X24557051Y-63891413D01*
X24511760Y-63662678D01*
X24422904Y-63447097D01*
X24293867Y-63252881D01*
X24129564Y-63087427D01*
X23936253Y-62957037D01*
X23721298Y-62866678D01*
X23492886Y-62819792D01*
X23259716Y-62818164D01*
X23030672Y-62861857D01*
X22814476Y-62949206D01*
X22619363Y-63076884D01*
X22452766Y-63240028D01*
X22321030Y-63432423D01*
X22229173Y-63646743D01*
X22180693Y-63874822D01*
X22177695Y-64089476D01*
X21989716Y-64088164D01*
X21760672Y-64131857D01*
X21544476Y-64219206D01*
X21349363Y-64346884D01*
X21182766Y-64510028D01*
X21051030Y-64702423D01*
X20959173Y-64916743D01*
X20910693Y-65144822D01*
X20907437Y-65377974D01*
X20949530Y-65607319D01*
X21035367Y-65824119D01*
X21161680Y-66020118D01*
X21323657Y-66187850D01*
X21515128Y-66320926D01*
X21728801Y-66414278D01*
X21956537Y-66464349D01*
X22189660Y-66469232D01*
X22419293Y-66428741D01*
X22636687Y-66344420D01*
X22833563Y-66219478D01*
X23002422Y-66058676D01*
X23136832Y-65868139D01*
X23231672Y-65655123D01*
X23283332Y-65427742D01*
X23286574Y-65195607D01*
X23449936Y-65199028D01*
X23447437Y-65377974D01*
X23489530Y-65607319D01*
X23575367Y-65824119D01*
X23701680Y-66020118D01*
X23863657Y-66187850D01*
X24055128Y-66320926D01*
X24268801Y-66414278D01*
X24496537Y-66464349D01*
X24729660Y-66469232D01*
X24959293Y-66428741D01*
X25176687Y-66344420D01*
X25373563Y-66219478D01*
X25542422Y-66058676D01*
X25676832Y-65868139D01*
X25771672Y-65655123D01*
X25823332Y-65427742D01*
X25826574Y-65195607D01*
X25989936Y-65199028D01*
X25987437Y-65377974D01*
X26029530Y-65607319D01*
X26115367Y-65824119D01*
X26241680Y-66020118D01*
X26403657Y-66187850D01*
X26595128Y-66320926D01*
X26808801Y-66414278D01*
X27036537Y-66464349D01*
X27269660Y-66469232D01*
X27499293Y-66428741D01*
X27716687Y-66344420D01*
X27913563Y-66219478D01*
X28082422Y-66058676D01*
X28216832Y-65868139D01*
X28311672Y-65655123D01*
X28363332Y-65427742D01*
X28366574Y-65195607D01*
X28529936Y-65199028D01*
X28527437Y-65377974D01*
X28569530Y-65607319D01*
X28655367Y-65824119D01*
X28781680Y-66020118D01*
X28943657Y-66187850D01*
X29135128Y-66320926D01*
X29348801Y-66414278D01*
X29576537Y-66464349D01*
X29809660Y-66469232D01*
X30039293Y-66428741D01*
X30256687Y-66344420D01*
X30453563Y-66219478D01*
X30622422Y-66058676D01*
X30756832Y-65868139D01*
X30851672Y-65655123D01*
X30903332Y-65427742D01*
X30906574Y-65195607D01*
X31079660Y-65199232D01*
X31309293Y-65158741D01*
X31526687Y-65074420D01*
X31723563Y-64949478D01*
X31892422Y-64788676D01*
X32026832Y-64598139D01*
X32121672Y-64385123D01*
X32173332Y-64157742D01*
X32177051Y-63891413D01*
X32131760Y-63662678D01*
X32042904Y-63447097D01*
X31915000Y-63254586D01*
X31915000Y-60581976D01*
X32872832Y-59624144D01*
X32860400Y-59686644D01*
X32860400Y-61006250D01*
X32967150Y-61113000D01*
X33643000Y-61113000D01*
X33643000Y-59408450D01*
X33897000Y-59408450D01*
X33897000Y-61113000D01*
X34572850Y-61113000D01*
X34679600Y-61006250D01*
X34679600Y-59686644D01*
X34663191Y-59604149D01*
X34631003Y-59526440D01*
X34584273Y-59456503D01*
X34524797Y-59397028D01*
X34454861Y-59350298D01*
X34377151Y-59318109D01*
X34294656Y-59301700D01*
X34003750Y-59301700D01*
X33897000Y-59408450D01*
X33643000Y-59408450D01*
X33536250Y-59301700D01*
X33245344Y-59301700D01*
X33182844Y-59314132D01*
X34437488Y-58059488D01*
X34491841Y-57993318D01*
X34546880Y-57927724D01*
X34549228Y-57923452D01*
X34552322Y-57919686D01*
X34592798Y-57844200D01*
X34634038Y-57769184D01*
X34635511Y-57764541D01*
X34637816Y-57760242D01*
X34662865Y-57678309D01*
X34688743Y-57596734D01*
X34689286Y-57591892D01*
X34690712Y-57587228D01*
X34699369Y-57502005D01*
X34708910Y-57416943D01*
X34708976Y-57407421D01*
X34708995Y-57407236D01*
X34708979Y-57407064D01*
X34709000Y-57404000D01*
X34709000Y-50292000D01*
X34700645Y-50206791D01*
X34693181Y-50121477D01*
X34691820Y-50116794D01*
X34691345Y-50111945D01*
X34666596Y-50029973D01*
X34645500Y-49957360D01*
X34645500Y-49466500D01*
X34637145Y-49381291D01*
X34629681Y-49295977D01*
X34628320Y-49291294D01*
X34627845Y-49286445D01*
X34603100Y-49204486D01*
X34579206Y-49122242D01*
X34576963Y-49117915D01*
X34575554Y-49113248D01*
X34569090Y-49101091D01*
X34729000Y-49261001D01*
X34729000Y-54737000D01*
X34739989Y-54849073D01*
X34744000Y-54862358D01*
X34744000Y-55196000D01*
X34749066Y-55247670D01*
X34753591Y-55299381D01*
X34754414Y-55302215D01*
X34754703Y-55305160D01*
X34769721Y-55354903D01*
X34784191Y-55404709D01*
X34785550Y-55407332D01*
X34786405Y-55410162D01*
X34810785Y-55456014D01*
X34834667Y-55502087D01*
X34836510Y-55504396D01*
X34837898Y-55507006D01*
X34870721Y-55547251D01*
X34903096Y-55587806D01*
X34907152Y-55591920D01*
X34907221Y-55592004D01*
X34907299Y-55592069D01*
X34908606Y-55593394D01*
X35973326Y-56658114D01*
X35997781Y-56791358D01*
X36050265Y-56923918D01*
X36127498Y-57043760D01*
X36226537Y-57146317D01*
X36343610Y-57227685D01*
X36474258Y-57284764D01*
X36613504Y-57315379D01*
X36756045Y-57318365D01*
X36896451Y-57293608D01*
X37029374Y-57242050D01*
X37149752Y-57165656D01*
X37252999Y-57067336D01*
X37335182Y-56950833D01*
X37393171Y-56820587D01*
X37424758Y-56681558D01*
X37427032Y-56518714D01*
X37399339Y-56378857D01*
X37364411Y-56294115D01*
X37366537Y-56296317D01*
X37483610Y-56377685D01*
X37614258Y-56434764D01*
X37753504Y-56465379D01*
X37770957Y-56465745D01*
X38288000Y-56982788D01*
X38288000Y-59308587D01*
X38184070Y-59340773D01*
X38083254Y-59407206D01*
X38004937Y-59499095D01*
X37955321Y-59609165D01*
X37938334Y-59728700D01*
X37938334Y-62751300D01*
X37943756Y-62819298D01*
X37979473Y-62934630D01*
X38045906Y-63035446D01*
X38137795Y-63113763D01*
X38247865Y-63163379D01*
X38288000Y-63169083D01*
X38288000Y-63695822D01*
X38264035Y-63808570D01*
X38262044Y-63951128D01*
X38287781Y-64091358D01*
X38340265Y-64223918D01*
X38417498Y-64343760D01*
X38516537Y-64446317D01*
X38633610Y-64527685D01*
X38764258Y-64584764D01*
X38903504Y-64615379D01*
X39046045Y-64618365D01*
X39186451Y-64593608D01*
X39319374Y-64542050D01*
X39439752Y-64465656D01*
X39542999Y-64367336D01*
X39625182Y-64250833D01*
X39683171Y-64120587D01*
X39714758Y-63981558D01*
X39717032Y-63818714D01*
X39689339Y-63678857D01*
X39635009Y-63547043D01*
X39556111Y-63428291D01*
X39455650Y-63327126D01*
X39412000Y-63297684D01*
X39412000Y-63171413D01*
X39515930Y-63139227D01*
X39616746Y-63072794D01*
X39695063Y-62980905D01*
X39744679Y-62870835D01*
X39761666Y-62751300D01*
X39761666Y-59728700D01*
X39756244Y-59660702D01*
X39720527Y-59545370D01*
X39654094Y-59444554D01*
X39562205Y-59366237D01*
X39452135Y-59316621D01*
X39412000Y-59310917D01*
X39412000Y-56750000D01*
X39406939Y-56698380D01*
X39402410Y-56646619D01*
X39401585Y-56643780D01*
X39401297Y-56640840D01*
X39386291Y-56591139D01*
X39371809Y-56541291D01*
X39370450Y-56538668D01*
X39369595Y-56535838D01*
X39345215Y-56489986D01*
X39321333Y-56443913D01*
X39319490Y-56441604D01*
X39318102Y-56438994D01*
X39285279Y-56398749D01*
X39252904Y-56358194D01*
X39248848Y-56354080D01*
X39248779Y-56353996D01*
X39248701Y-56353931D01*
X39247394Y-56352606D01*
X38566983Y-55672195D01*
X38567032Y-55668714D01*
X38539339Y-55528857D01*
X38485009Y-55397043D01*
X38406111Y-55278291D01*
X38305650Y-55177126D01*
X38187452Y-55097401D01*
X38056020Y-55042152D01*
X37916360Y-55013484D01*
X37908215Y-55013427D01*
X37280000Y-54385212D01*
X37280000Y-47356002D01*
X37686400Y-46949602D01*
X37788451Y-46931608D01*
X37921374Y-46880050D01*
X38041752Y-46803656D01*
X38144999Y-46705336D01*
X38227182Y-46588833D01*
X38285171Y-46458587D01*
X38316758Y-46319558D01*
X38318625Y-46185801D01*
X38668429Y-46185801D01*
X38732996Y-46857766D01*
X38927417Y-47504223D01*
X39244220Y-48100329D01*
X39253331Y-48113964D01*
X39664411Y-48461984D01*
X41932395Y-46194000D01*
X39664411Y-43926016D01*
X39253331Y-44274036D01*
X38933693Y-44868627D01*
X38736196Y-45514151D01*
X38668429Y-46185801D01*
X38318625Y-46185801D01*
X38319032Y-46156714D01*
X38291339Y-46016857D01*
X38237009Y-45885043D01*
X38158111Y-45766291D01*
X38057650Y-45665126D01*
X37939452Y-45585401D01*
X37808020Y-45530152D01*
X37668360Y-45501484D01*
X37525791Y-45500489D01*
X37385744Y-45527204D01*
X37253554Y-45580612D01*
X37134255Y-45658680D01*
X37122000Y-45670681D01*
X37122000Y-43746411D01*
X39844016Y-43746411D01*
X42112000Y-46014395D01*
X44379984Y-43746411D01*
X64244016Y-43746411D01*
X66512000Y-46014395D01*
X68779984Y-43746411D01*
X68431964Y-43335331D01*
X67837373Y-43015693D01*
X67191849Y-42818196D01*
X66520199Y-42750429D01*
X65848234Y-42814996D01*
X65201777Y-43009417D01*
X64605671Y-43326220D01*
X64592036Y-43335331D01*
X64244016Y-43746411D01*
X44379984Y-43746411D01*
X44031964Y-43335331D01*
X43437373Y-43015693D01*
X42791849Y-42818196D01*
X42120199Y-42750429D01*
X41448234Y-42814996D01*
X40801777Y-43009417D01*
X40205671Y-43326220D01*
X40192036Y-43335331D01*
X39844016Y-43746411D01*
X37122000Y-43746411D01*
X37122000Y-43436976D01*
X38356976Y-42202000D01*
X39497000Y-42202000D01*
X39582209Y-42193645D01*
X39667523Y-42186181D01*
X39672206Y-42184820D01*
X39677055Y-42184345D01*
X39759014Y-42159600D01*
X39841258Y-42135706D01*
X39845585Y-42133463D01*
X39850252Y-42132054D01*
X39925832Y-42091868D01*
X40001881Y-42052448D01*
X40005693Y-42049405D01*
X40009994Y-42047118D01*
X40076334Y-41993012D01*
X40143272Y-41939576D01*
X40150056Y-41932886D01*
X40150196Y-41932772D01*
X40150303Y-41932643D01*
X40152488Y-41930488D01*
X44851488Y-37231488D01*
X44905841Y-37165318D01*
X44960880Y-37099724D01*
X44963228Y-37095452D01*
X44966322Y-37091686D01*
X45006787Y-37016219D01*
X45048038Y-36941184D01*
X45049512Y-36936539D01*
X45051816Y-36932241D01*
X45076861Y-36850323D01*
X45102743Y-36768734D01*
X45103286Y-36763892D01*
X45104712Y-36759228D01*
X45113368Y-36674009D01*
X45122910Y-36588943D01*
X45122976Y-36579420D01*
X45122995Y-36579235D01*
X45122979Y-36579063D01*
X45123000Y-36576000D01*
X45123000Y-35979000D01*
X47244000Y-35979000D01*
X47329209Y-35970645D01*
X47414523Y-35963181D01*
X47419206Y-35961820D01*
X47424055Y-35961345D01*
X47506014Y-35936600D01*
X47588258Y-35912706D01*
X47592585Y-35910463D01*
X47597252Y-35909054D01*
X47672832Y-35868868D01*
X47748881Y-35829448D01*
X47752693Y-35826405D01*
X47756994Y-35824118D01*
X47823334Y-35770012D01*
X47890272Y-35716576D01*
X47897056Y-35709886D01*
X47897196Y-35709772D01*
X47897303Y-35709643D01*
X47899488Y-35707488D01*
X48643976Y-34963000D01*
X60229118Y-34963000D01*
X60094370Y-35094955D01*
X59927457Y-35338727D01*
X59811070Y-35610276D01*
X59749645Y-35899260D01*
X59745520Y-36194671D01*
X59759025Y-36268253D01*
X59727120Y-36306276D01*
X59724772Y-36310548D01*
X59721678Y-36314314D01*
X59681202Y-36389800D01*
X59639962Y-36464816D01*
X59638489Y-36469459D01*
X59636184Y-36473758D01*
X59611148Y-36555649D01*
X59585257Y-36637266D01*
X59584713Y-36642113D01*
X59583289Y-36646772D01*
X59574642Y-36731901D01*
X59565090Y-36817057D01*
X59565024Y-36826590D01*
X59565006Y-36826764D01*
X59565021Y-36826927D01*
X59565000Y-36830000D01*
X59565000Y-37681000D01*
X48768000Y-37681000D01*
X48730957Y-37684632D01*
X48693745Y-37683979D01*
X48641139Y-37693439D01*
X48587945Y-37698655D01*
X48552314Y-37709413D01*
X48515683Y-37716000D01*
X48465921Y-37735496D01*
X48414748Y-37750946D01*
X48381881Y-37768422D01*
X48347231Y-37781997D01*
X48302204Y-37810786D01*
X48255006Y-37835882D01*
X48226163Y-37859406D01*
X48194806Y-37879455D01*
X48156224Y-37916447D01*
X48114804Y-37950228D01*
X48091080Y-37978906D01*
X48064214Y-38004664D01*
X48055859Y-38014549D01*
X46812779Y-39506245D01*
X46080512Y-40238512D01*
X45965678Y-40378314D01*
X45880184Y-40537758D01*
X45827289Y-40710772D01*
X45809006Y-40890764D01*
X45826031Y-41070880D01*
X45877718Y-41244258D01*
X45962096Y-41404296D01*
X46075952Y-41544895D01*
X46124522Y-41585362D01*
X46081289Y-41726772D01*
X46063006Y-41906764D01*
X46080031Y-42086880D01*
X46131718Y-42260258D01*
X46216096Y-42420296D01*
X46329952Y-42560895D01*
X46468949Y-42676703D01*
X46627792Y-42763307D01*
X46800432Y-42817410D01*
X46980293Y-42836949D01*
X47160523Y-42821181D01*
X47334258Y-42770706D01*
X47494881Y-42687448D01*
X47636272Y-42574576D01*
X47645488Y-42565488D01*
X48153488Y-42057488D01*
X48207841Y-41991318D01*
X48262880Y-41925724D01*
X48265228Y-41921452D01*
X48268322Y-41917686D01*
X48308778Y-41842235D01*
X48350038Y-41767184D01*
X48351512Y-41762537D01*
X48353815Y-41758242D01*
X48378842Y-41676384D01*
X48404743Y-41594734D01*
X48405287Y-41589888D01*
X48406711Y-41585229D01*
X48415359Y-41500094D01*
X48424910Y-41414943D01*
X48424976Y-41405410D01*
X48424994Y-41405236D01*
X48424979Y-41405073D01*
X48425000Y-41402000D01*
X48425000Y-40467620D01*
X49202184Y-39535000D01*
X60322024Y-39535000D01*
X61574512Y-40787488D01*
X61640682Y-40841841D01*
X61706276Y-40896880D01*
X61710548Y-40899228D01*
X61714314Y-40902322D01*
X61789765Y-40942778D01*
X61864816Y-40984038D01*
X61869463Y-40985512D01*
X61873758Y-40987815D01*
X61955604Y-41012838D01*
X62037266Y-41038743D01*
X62042113Y-41039287D01*
X62046772Y-41040711D01*
X62131901Y-41049358D01*
X62217057Y-41058910D01*
X62226590Y-41058976D01*
X62226764Y-41058994D01*
X62226927Y-41058979D01*
X62230000Y-41059000D01*
X73530024Y-41059000D01*
X74020512Y-41549488D01*
X74160314Y-41664322D01*
X74319758Y-41749816D01*
X74492772Y-41802712D01*
X74672764Y-41820995D01*
X74852880Y-41803969D01*
X75026258Y-41752282D01*
X75186296Y-41667904D01*
X75326896Y-41554048D01*
X75442703Y-41415052D01*
X75529308Y-41256208D01*
X75583411Y-41083568D01*
X75602949Y-40903707D01*
X75587181Y-40723477D01*
X75536706Y-40549742D01*
X75453448Y-40389120D01*
X75340577Y-40247728D01*
X75331488Y-40238512D01*
X74569488Y-39476512D01*
X74503318Y-39422159D01*
X74437724Y-39367120D01*
X74433452Y-39364772D01*
X74429686Y-39361678D01*
X74370068Y-39329710D01*
X83195853Y-39329710D01*
X83543873Y-39740790D01*
X84138464Y-40060428D01*
X84783988Y-40257925D01*
X85455638Y-40325692D01*
X86127603Y-40261125D01*
X86774060Y-40066704D01*
X87370166Y-39749901D01*
X87383801Y-39740790D01*
X87731821Y-39329710D01*
X85463837Y-37061726D01*
X83195853Y-39329710D01*
X74370068Y-39329710D01*
X74354200Y-39321202D01*
X74279184Y-39279962D01*
X74274541Y-39278489D01*
X74270242Y-39276184D01*
X74188351Y-39251148D01*
X74106734Y-39225257D01*
X74101887Y-39224713D01*
X74097228Y-39223289D01*
X74012099Y-39214642D01*
X73926943Y-39205090D01*
X73917410Y-39205024D01*
X73917236Y-39205006D01*
X73917073Y-39205021D01*
X73914000Y-39205000D01*
X62613976Y-39205000D01*
X61419000Y-38010024D01*
X61419000Y-37568711D01*
X61661088Y-37526025D01*
X61936533Y-37419187D01*
X62185982Y-37260882D01*
X62303818Y-37148668D01*
X65352937Y-37148668D01*
X65470099Y-37363012D01*
X65737806Y-37491060D01*
X66025349Y-37564421D01*
X66321680Y-37580275D01*
X66615410Y-37538013D01*
X66895251Y-37439260D01*
X67037901Y-37363012D01*
X67155063Y-37148668D01*
X66254000Y-36247605D01*
X65352937Y-37148668D01*
X62303818Y-37148668D01*
X62399931Y-37057141D01*
X62570232Y-36815724D01*
X62690398Y-36545826D01*
X62755852Y-36257728D01*
X62757556Y-36135680D01*
X64741725Y-36135680D01*
X64783987Y-36429410D01*
X64882740Y-36709251D01*
X64958988Y-36851901D01*
X65173332Y-36969063D01*
X66074395Y-36068000D01*
X66433605Y-36068000D01*
X67334668Y-36969063D01*
X67549012Y-36851901D01*
X67677060Y-36584194D01*
X67750421Y-36296651D01*
X67766275Y-36000320D01*
X67724013Y-35706590D01*
X67625260Y-35426749D01*
X67549012Y-35284099D01*
X67334668Y-35166937D01*
X66433605Y-36068000D01*
X66074395Y-36068000D01*
X65173332Y-35166937D01*
X64958988Y-35284099D01*
X64830940Y-35551806D01*
X64757579Y-35839349D01*
X64741725Y-36135680D01*
X62757556Y-36135680D01*
X62760564Y-35920280D01*
X62703180Y-35630467D01*
X62590596Y-35357319D01*
X62427102Y-35111241D01*
X62279892Y-34963000D01*
X65366237Y-34963000D01*
X65352937Y-34987332D01*
X66254000Y-35888395D01*
X67155063Y-34987332D01*
X67141763Y-34963000D01*
X68196024Y-34963000D01*
X69956512Y-36723488D01*
X70022682Y-36777841D01*
X70088276Y-36832880D01*
X70092548Y-36835228D01*
X70096314Y-36838322D01*
X70171800Y-36878798D01*
X70246816Y-36920038D01*
X70251459Y-36921511D01*
X70255758Y-36923816D01*
X70337649Y-36948852D01*
X70419266Y-36974743D01*
X70424113Y-36975287D01*
X70428772Y-36976711D01*
X70513901Y-36985358D01*
X70599057Y-36994910D01*
X70608590Y-36994976D01*
X70608764Y-36994994D01*
X70608927Y-36994979D01*
X70612000Y-36995000D01*
X71489090Y-36995000D01*
X71497653Y-37008287D01*
X71702883Y-37220808D01*
X71945483Y-37389420D01*
X72216213Y-37507699D01*
X72504761Y-37571140D01*
X72800136Y-37577327D01*
X73091088Y-37526025D01*
X73366533Y-37419187D01*
X73615982Y-37260882D01*
X73733818Y-37148668D01*
X76782937Y-37148668D01*
X76900099Y-37363012D01*
X77167806Y-37491060D01*
X77455349Y-37564421D01*
X77751680Y-37580275D01*
X78045410Y-37538013D01*
X78325251Y-37439260D01*
X78467901Y-37363012D01*
X78585063Y-37148668D01*
X77684000Y-36247605D01*
X76782937Y-37148668D01*
X73733818Y-37148668D01*
X73829931Y-37057141D01*
X74000232Y-36815724D01*
X74120398Y-36545826D01*
X74185852Y-36257728D01*
X74187556Y-36135680D01*
X76171725Y-36135680D01*
X76213987Y-36429410D01*
X76312740Y-36709251D01*
X76388988Y-36851901D01*
X76603332Y-36969063D01*
X77504395Y-36068000D01*
X77863605Y-36068000D01*
X78764668Y-36969063D01*
X78938725Y-36873922D01*
X82020266Y-36873922D01*
X82084833Y-37545887D01*
X82279254Y-38192344D01*
X82596057Y-38788450D01*
X82605168Y-38802085D01*
X83016248Y-39150105D01*
X85284232Y-36882121D01*
X83016248Y-34614137D01*
X82605168Y-34962157D01*
X82285530Y-35556748D01*
X82088033Y-36202272D01*
X82020266Y-36873922D01*
X78938725Y-36873922D01*
X78979012Y-36851901D01*
X79107060Y-36584194D01*
X79180421Y-36296651D01*
X79196275Y-36000320D01*
X79154013Y-35706590D01*
X79055260Y-35426749D01*
X78979012Y-35284099D01*
X78764668Y-35166937D01*
X77863605Y-36068000D01*
X77504395Y-36068000D01*
X76603332Y-35166937D01*
X76388988Y-35284099D01*
X76260940Y-35551806D01*
X76187579Y-35839349D01*
X76171725Y-36135680D01*
X74187556Y-36135680D01*
X74190564Y-35920280D01*
X74133180Y-35630467D01*
X74020596Y-35357319D01*
X73857102Y-35111241D01*
X73734055Y-34987332D01*
X76782937Y-34987332D01*
X77684000Y-35888395D01*
X78585063Y-34987332D01*
X78467901Y-34772988D01*
X78200194Y-34644940D01*
X77912651Y-34571579D01*
X77616320Y-34555725D01*
X77322590Y-34597987D01*
X77042749Y-34696740D01*
X76900099Y-34772988D01*
X76782937Y-34987332D01*
X73734055Y-34987332D01*
X73648925Y-34901606D01*
X73403995Y-34736398D01*
X73131640Y-34621910D01*
X72842234Y-34562504D01*
X72546801Y-34560441D01*
X72256595Y-34615801D01*
X71982668Y-34726475D01*
X71735454Y-34888247D01*
X71524370Y-35094955D01*
X71492843Y-35141000D01*
X70995976Y-35141000D01*
X69630976Y-33776000D01*
X84005978Y-33776000D01*
X83557508Y-34014341D01*
X83543873Y-34023452D01*
X83195853Y-34434532D01*
X85463837Y-36702516D01*
X85477980Y-36688374D01*
X85657585Y-36867979D01*
X85643442Y-36882121D01*
X87911426Y-39150105D01*
X88322506Y-38802085D01*
X88398000Y-38661651D01*
X88398000Y-42678000D01*
X79248000Y-42678000D01*
X79201010Y-42682608D01*
X79153935Y-42686892D01*
X79152245Y-42687389D01*
X79150494Y-42687561D01*
X79105276Y-42701213D01*
X79059947Y-42714554D01*
X79058387Y-42715370D01*
X79056703Y-42715878D01*
X79015043Y-42738029D01*
X78973123Y-42759944D01*
X78971749Y-42761049D01*
X78970197Y-42761874D01*
X78933593Y-42791727D01*
X78896769Y-42821335D01*
X78895639Y-42822682D01*
X78894274Y-42823795D01*
X78864129Y-42860234D01*
X78833793Y-42896387D01*
X78832946Y-42897927D01*
X78831823Y-42899285D01*
X78809351Y-42940847D01*
X78786594Y-42982241D01*
X78786061Y-42983920D01*
X78785225Y-42985467D01*
X78771259Y-43030585D01*
X78756970Y-43075628D01*
X78756774Y-43077376D01*
X78756253Y-43079059D01*
X78751310Y-43126086D01*
X78746049Y-43172991D01*
X78746025Y-43176368D01*
X78746012Y-43176495D01*
X78746024Y-43176623D01*
X78746000Y-43180000D01*
X78746000Y-46996000D01*
X70104000Y-46996000D01*
X70057010Y-47000608D01*
X70009935Y-47004892D01*
X70008245Y-47005389D01*
X70006494Y-47005561D01*
X69961276Y-47019213D01*
X69915947Y-47032554D01*
X69914387Y-47033370D01*
X69912703Y-47033878D01*
X69871043Y-47056029D01*
X69829123Y-47077944D01*
X69827749Y-47079049D01*
X69826197Y-47079874D01*
X69824297Y-47081424D01*
X69887804Y-46873849D01*
X69955571Y-46202199D01*
X69891004Y-45530234D01*
X69696583Y-44883777D01*
X69379780Y-44287671D01*
X69370669Y-44274036D01*
X68959589Y-43926016D01*
X66691605Y-46194000D01*
X68959589Y-48461984D01*
X69370669Y-48113964D01*
X69602000Y-47683642D01*
X69602000Y-63754000D01*
X69606608Y-63800990D01*
X69610892Y-63848065D01*
X69611389Y-63849755D01*
X69611561Y-63851506D01*
X69625213Y-63896724D01*
X69638554Y-63942053D01*
X69639370Y-63943613D01*
X69639878Y-63945297D01*
X69662029Y-63986957D01*
X69683944Y-64028877D01*
X69685049Y-64030251D01*
X69685874Y-64031803D01*
X69715727Y-64068407D01*
X69745335Y-64105231D01*
X69746682Y-64106361D01*
X69747795Y-64107726D01*
X69784234Y-64137871D01*
X69820387Y-64168207D01*
X69821927Y-64169054D01*
X69823285Y-64170177D01*
X69864847Y-64192649D01*
X69906241Y-64215406D01*
X69907920Y-64215939D01*
X69909467Y-64216775D01*
X69954585Y-64230741D01*
X69999628Y-64245030D01*
X70001376Y-64245226D01*
X70003059Y-64245747D01*
X70050086Y-64250690D01*
X70096991Y-64255951D01*
X70100368Y-64255975D01*
X70100495Y-64255988D01*
X70100623Y-64255976D01*
X70104000Y-64256000D01*
X70116669Y-64256000D01*
X70095446Y-64294605D01*
X70095149Y-64295542D01*
X70094676Y-64296409D01*
X70078521Y-64347958D01*
X70062281Y-64399154D01*
X70062172Y-64400130D01*
X70061876Y-64401073D01*
X70056035Y-64454841D01*
X70054690Y-64466835D01*
X70052285Y-64467071D01*
X70000619Y-64471591D01*
X69997786Y-64472414D01*
X69994840Y-64472703D01*
X69945051Y-64487735D01*
X69895291Y-64502192D01*
X69892673Y-64503549D01*
X69889838Y-64504405D01*
X69843931Y-64528814D01*
X69797912Y-64552668D01*
X69795605Y-64554510D01*
X69792994Y-64555898D01*
X69752738Y-64588730D01*
X69712193Y-64621097D01*
X69708081Y-64625152D01*
X69707996Y-64625221D01*
X69707931Y-64625299D01*
X69706606Y-64626606D01*
X69198606Y-65134606D01*
X69165649Y-65174728D01*
X69132286Y-65214489D01*
X69130864Y-65217076D01*
X69128986Y-65219362D01*
X69104418Y-65265180D01*
X69079446Y-65310605D01*
X69078554Y-65313417D01*
X69077155Y-65316026D01*
X69061952Y-65365753D01*
X69046281Y-65415154D01*
X69045952Y-65418086D01*
X69045087Y-65420916D01*
X69039840Y-65472581D01*
X69034055Y-65524153D01*
X69034014Y-65529935D01*
X69034004Y-65530038D01*
X69034013Y-65530134D01*
X69034000Y-65532000D01*
X69034000Y-66040000D01*
X69039168Y-66092705D01*
X69043955Y-66145308D01*
X69044510Y-66147195D01*
X69044703Y-66149160D01*
X69060017Y-66199882D01*
X69074923Y-66250529D01*
X69075835Y-66252273D01*
X69076405Y-66254162D01*
X69101239Y-66300868D01*
X69125738Y-66347731D01*
X69126974Y-66349268D01*
X69127898Y-66351006D01*
X69161283Y-66391940D01*
X69194466Y-66433211D01*
X69195977Y-66434479D01*
X69197221Y-66436004D01*
X69237932Y-66469683D01*
X69278489Y-66503714D01*
X69280217Y-66504664D01*
X69281734Y-66505919D01*
X69328257Y-66531074D01*
X69374605Y-66556554D01*
X69376482Y-66557149D01*
X69378216Y-66558087D01*
X69428740Y-66573727D01*
X69479154Y-66589719D01*
X69481113Y-66589939D01*
X69482994Y-66590521D01*
X69535563Y-66596046D01*
X69588153Y-66601945D01*
X69591939Y-66601972D01*
X69592077Y-66601986D01*
X69592215Y-66601973D01*
X69596000Y-66602000D01*
X70104000Y-66602000D01*
X70155670Y-66596934D01*
X70207381Y-66592409D01*
X70210215Y-66591586D01*
X70213160Y-66591297D01*
X70262903Y-66576279D01*
X70312709Y-66561809D01*
X70315332Y-66560450D01*
X70318162Y-66559595D01*
X70364014Y-66535215D01*
X70410087Y-66511333D01*
X70412396Y-66509490D01*
X70415006Y-66508102D01*
X70455251Y-66475279D01*
X70495806Y-66442904D01*
X70499920Y-66438848D01*
X70500004Y-66438779D01*
X70500069Y-66438701D01*
X70501394Y-66437394D01*
X71009394Y-65929394D01*
X71042329Y-65889298D01*
X71075714Y-65849511D01*
X71077138Y-65846921D01*
X71079013Y-65844638D01*
X71103541Y-65798894D01*
X71128554Y-65753395D01*
X71129447Y-65750579D01*
X71130844Y-65747974D01*
X71146020Y-65698334D01*
X71161719Y-65648846D01*
X71162049Y-65645908D01*
X71162912Y-65643084D01*
X71168155Y-65591464D01*
X71169310Y-65581165D01*
X71173802Y-65580725D01*
X71227235Y-65575674D01*
X71228176Y-65575393D01*
X71229160Y-65575297D01*
X71280904Y-65559674D01*
X71332346Y-65544339D01*
X71333215Y-65543881D01*
X71334162Y-65543595D01*
X71381977Y-65518171D01*
X71429369Y-65493184D01*
X71430130Y-65492568D01*
X71431006Y-65492102D01*
X71472939Y-65457902D01*
X71514610Y-65424158D01*
X71515239Y-65423403D01*
X71516004Y-65422779D01*
X71550473Y-65381114D01*
X71584818Y-65339890D01*
X71585287Y-65339030D01*
X71585919Y-65338266D01*
X71611697Y-65290591D01*
X71634000Y-65249685D01*
X71634000Y-72898000D01*
X71638608Y-72944990D01*
X71642892Y-72992065D01*
X71643389Y-72993755D01*
X71643561Y-72995506D01*
X71657213Y-73040724D01*
X71670554Y-73086053D01*
X71671370Y-73087613D01*
X71671878Y-73089297D01*
X71694029Y-73130957D01*
X71715944Y-73172877D01*
X71717049Y-73174251D01*
X71717874Y-73175803D01*
X71747727Y-73212407D01*
X71777335Y-73249231D01*
X71778682Y-73250361D01*
X71779795Y-73251726D01*
X71816234Y-73281871D01*
X71852387Y-73312207D01*
X71853927Y-73313054D01*
X71855285Y-73314177D01*
X71896847Y-73336649D01*
X71938241Y-73359406D01*
X71939920Y-73359939D01*
X71941467Y-73360775D01*
X71986585Y-73374741D01*
X72031628Y-73389030D01*
X72033376Y-73389226D01*
X72035059Y-73389747D01*
X72082086Y-73394690D01*
X72128991Y-73399951D01*
X72132368Y-73399975D01*
X72132495Y-73399988D01*
X72132623Y-73399976D01*
X72136000Y-73400000D01*
X88398000Y-73400000D01*
X88398000Y-77212579D01*
X88331617Y-77087671D01*
X88322506Y-77074036D01*
X87911426Y-76726016D01*
X85643442Y-78994000D01*
X85657585Y-79008143D01*
X85477980Y-79187748D01*
X85463837Y-79173605D01*
X83195853Y-81441589D01*
X83279168Y-81540000D01*
X24536669Y-81540000D01*
X24619984Y-81441589D01*
X22352000Y-79173605D01*
X22337858Y-79187748D01*
X22158253Y-79008143D01*
X22172395Y-78994000D01*
X22531605Y-78994000D01*
X24799589Y-81261984D01*
X25210669Y-80913964D01*
X25530307Y-80319373D01*
X25727804Y-79673849D01*
X25795571Y-79002199D01*
X25731004Y-78330234D01*
X25536583Y-77683777D01*
X25219780Y-77087671D01*
X25210669Y-77074036D01*
X24892537Y-76804705D01*
X28471986Y-76804705D01*
X28494815Y-77055549D01*
X28565932Y-77297182D01*
X28682627Y-77520400D01*
X28840457Y-77716701D01*
X29033409Y-77878606D01*
X29254134Y-77999951D01*
X29446739Y-78061049D01*
X28905200Y-78061049D01*
X28837202Y-78066471D01*
X28721870Y-78102188D01*
X28621054Y-78168621D01*
X28542737Y-78260510D01*
X28493121Y-78370580D01*
X28476134Y-78490115D01*
X28476134Y-80217315D01*
X28481556Y-80285313D01*
X28517273Y-80400645D01*
X28583706Y-80501461D01*
X28675595Y-80579778D01*
X28785665Y-80629394D01*
X28905200Y-80646381D01*
X30632400Y-80646381D01*
X30700398Y-80640959D01*
X30815730Y-80605242D01*
X30916546Y-80538809D01*
X30994863Y-80446920D01*
X31044479Y-80336850D01*
X31061466Y-80217315D01*
X31061466Y-79686101D01*
X31105932Y-79837182D01*
X31222627Y-80060400D01*
X31380457Y-80256701D01*
X31573409Y-80418606D01*
X31794134Y-80539951D01*
X32034224Y-80616112D01*
X32284535Y-80644189D01*
X32302555Y-80644315D01*
X32315045Y-80644315D01*
X32565724Y-80619736D01*
X32806854Y-80546934D01*
X33029252Y-80428683D01*
X33224446Y-80269487D01*
X33385001Y-80075409D01*
X33504802Y-79853843D01*
X33579285Y-79613226D01*
X33579478Y-79611392D01*
X33645932Y-79837182D01*
X33762627Y-80060400D01*
X33920457Y-80256701D01*
X34113409Y-80418606D01*
X34334134Y-80539951D01*
X34574224Y-80616112D01*
X34824535Y-80644189D01*
X34842555Y-80644315D01*
X34855045Y-80644315D01*
X35105724Y-80619736D01*
X35346854Y-80546934D01*
X35569252Y-80428683D01*
X35764446Y-80269487D01*
X35925001Y-80075409D01*
X36044802Y-79853843D01*
X36119285Y-79613226D01*
X36119478Y-79611392D01*
X36185932Y-79837182D01*
X36302627Y-80060400D01*
X36460457Y-80256701D01*
X36653409Y-80418606D01*
X36874134Y-80539951D01*
X37114224Y-80616112D01*
X37364535Y-80644189D01*
X37382555Y-80644315D01*
X37395045Y-80644315D01*
X37645724Y-80619736D01*
X37886854Y-80546934D01*
X38109252Y-80428683D01*
X38304446Y-80269487D01*
X38465001Y-80075409D01*
X38584802Y-79853843D01*
X38659285Y-79613226D01*
X38673212Y-79480717D01*
X38751781Y-79480717D01*
X38680143Y-79680066D01*
X38709264Y-79776083D01*
X38815097Y-80005887D01*
X38963729Y-80210628D01*
X39149448Y-80382439D01*
X39365117Y-80514716D01*
X39602448Y-80602377D01*
X39801800Y-80531307D01*
X39801800Y-79480715D01*
X39781800Y-79480715D01*
X39781800Y-79226715D01*
X39801800Y-79226715D01*
X39801800Y-79206715D01*
X40055800Y-79206715D01*
X40055800Y-79226715D01*
X40075800Y-79226715D01*
X40075800Y-79480715D01*
X40055800Y-79480715D01*
X40055800Y-80531307D01*
X40255152Y-80602377D01*
X40492483Y-80514716D01*
X40708152Y-80382439D01*
X40893871Y-80210628D01*
X41042503Y-80005887D01*
X41148336Y-79776083D01*
X41177457Y-79680066D01*
X41105819Y-79480717D01*
X41184364Y-79480717D01*
X41194815Y-79595549D01*
X41265932Y-79837182D01*
X41382627Y-80060400D01*
X41540457Y-80256701D01*
X41733409Y-80418606D01*
X41954134Y-80539951D01*
X42194224Y-80616112D01*
X42444535Y-80644189D01*
X42462555Y-80644315D01*
X42475045Y-80644315D01*
X42725724Y-80619736D01*
X42966854Y-80546934D01*
X43189252Y-80428683D01*
X43384446Y-80269487D01*
X43545001Y-80075409D01*
X43664802Y-79853843D01*
X43739285Y-79613226D01*
X43739478Y-79611392D01*
X43805932Y-79837182D01*
X43922627Y-80060400D01*
X44080457Y-80256701D01*
X44273409Y-80418606D01*
X44494134Y-80539951D01*
X44734224Y-80616112D01*
X44984535Y-80644189D01*
X45002555Y-80644315D01*
X45015045Y-80644315D01*
X45265724Y-80619736D01*
X45506854Y-80546934D01*
X45729252Y-80428683D01*
X45924446Y-80269487D01*
X46085001Y-80075409D01*
X46204802Y-79853843D01*
X46279285Y-79613226D01*
X46279478Y-79611392D01*
X46345932Y-79837182D01*
X46462627Y-80060400D01*
X46620457Y-80256701D01*
X46813409Y-80418606D01*
X47034134Y-80539951D01*
X47274224Y-80616112D01*
X47524535Y-80644189D01*
X47542555Y-80644315D01*
X47555045Y-80644315D01*
X47805724Y-80619736D01*
X48046854Y-80546934D01*
X48269252Y-80428683D01*
X48464446Y-80269487D01*
X48625001Y-80075409D01*
X48744802Y-79853843D01*
X48819285Y-79613226D01*
X48819478Y-79611392D01*
X48885932Y-79837182D01*
X49002627Y-80060400D01*
X49160457Y-80256701D01*
X49353409Y-80418606D01*
X49574134Y-80539951D01*
X49814224Y-80616112D01*
X50064535Y-80644189D01*
X50082555Y-80644315D01*
X50095045Y-80644315D01*
X50345724Y-80619736D01*
X50586854Y-80546934D01*
X50809252Y-80428683D01*
X51004446Y-80269487D01*
X51165001Y-80075409D01*
X51284802Y-79853843D01*
X51359285Y-79613226D01*
X51359478Y-79611392D01*
X51425932Y-79837182D01*
X51542627Y-80060400D01*
X51700457Y-80256701D01*
X51893409Y-80418606D01*
X52114134Y-80539951D01*
X52354224Y-80616112D01*
X52604535Y-80644189D01*
X52622555Y-80644315D01*
X52635045Y-80644315D01*
X52885724Y-80619736D01*
X53126854Y-80546934D01*
X53349252Y-80428683D01*
X53544446Y-80269487D01*
X53705001Y-80075409D01*
X53824802Y-79853843D01*
X53899285Y-79613226D01*
X53899478Y-79611392D01*
X53965932Y-79837182D01*
X54082627Y-80060400D01*
X54240457Y-80256701D01*
X54433409Y-80418606D01*
X54654134Y-80539951D01*
X54894224Y-80616112D01*
X55144535Y-80644189D01*
X55162555Y-80644315D01*
X55175045Y-80644315D01*
X55425724Y-80619736D01*
X55666854Y-80546934D01*
X55889252Y-80428683D01*
X56084446Y-80269487D01*
X56245001Y-80075409D01*
X56364802Y-79853843D01*
X56439285Y-79613226D01*
X56439478Y-79611392D01*
X56505932Y-79837182D01*
X56622627Y-80060400D01*
X56780457Y-80256701D01*
X56973409Y-80418606D01*
X57194134Y-80539951D01*
X57434224Y-80616112D01*
X57684535Y-80644189D01*
X57702555Y-80644315D01*
X57715045Y-80644315D01*
X57965724Y-80619736D01*
X58206854Y-80546934D01*
X58429252Y-80428683D01*
X58624446Y-80269487D01*
X58785001Y-80075409D01*
X58904802Y-79853843D01*
X58979285Y-79613226D01*
X58993212Y-79480717D01*
X59071781Y-79480717D01*
X59000143Y-79680066D01*
X59029264Y-79776083D01*
X59135097Y-80005887D01*
X59283729Y-80210628D01*
X59469448Y-80382439D01*
X59685117Y-80514716D01*
X59922448Y-80602377D01*
X60121800Y-80531307D01*
X60121800Y-79480715D01*
X60101800Y-79480715D01*
X60101800Y-79226715D01*
X60121800Y-79226715D01*
X60121800Y-79206715D01*
X60375800Y-79206715D01*
X60375800Y-79226715D01*
X60395800Y-79226715D01*
X60395800Y-79480715D01*
X60375800Y-79480715D01*
X60375800Y-80531307D01*
X60575152Y-80602377D01*
X60812483Y-80514716D01*
X61028152Y-80382439D01*
X61213871Y-80210628D01*
X61362503Y-80005887D01*
X61468336Y-79776083D01*
X61497457Y-79680066D01*
X61425819Y-79480717D01*
X61504364Y-79480717D01*
X61514815Y-79595549D01*
X61585932Y-79837182D01*
X61702627Y-80060400D01*
X61860457Y-80256701D01*
X62053409Y-80418606D01*
X62274134Y-80539951D01*
X62514224Y-80616112D01*
X62764535Y-80644189D01*
X62782555Y-80644315D01*
X62795045Y-80644315D01*
X63045724Y-80619736D01*
X63286854Y-80546934D01*
X63509252Y-80428683D01*
X63704446Y-80269487D01*
X63865001Y-80075409D01*
X63984802Y-79853843D01*
X64059285Y-79613226D01*
X64059478Y-79611392D01*
X64125932Y-79837182D01*
X64242627Y-80060400D01*
X64400457Y-80256701D01*
X64593409Y-80418606D01*
X64814134Y-80539951D01*
X65054224Y-80616112D01*
X65304535Y-80644189D01*
X65322555Y-80644315D01*
X65335045Y-80644315D01*
X65585724Y-80619736D01*
X65826854Y-80546934D01*
X66049252Y-80428683D01*
X66244446Y-80269487D01*
X66405001Y-80075409D01*
X66524802Y-79853843D01*
X66599285Y-79613226D01*
X66599478Y-79611392D01*
X66665932Y-79837182D01*
X66782627Y-80060400D01*
X66940457Y-80256701D01*
X67133409Y-80418606D01*
X67354134Y-80539951D01*
X67594224Y-80616112D01*
X67844535Y-80644189D01*
X67862555Y-80644315D01*
X67875045Y-80644315D01*
X68125724Y-80619736D01*
X68366854Y-80546934D01*
X68589252Y-80428683D01*
X68784446Y-80269487D01*
X68945001Y-80075409D01*
X69064802Y-79853843D01*
X69139285Y-79613226D01*
X69139478Y-79611392D01*
X69205932Y-79837182D01*
X69322627Y-80060400D01*
X69480457Y-80256701D01*
X69673409Y-80418606D01*
X69894134Y-80539951D01*
X70134224Y-80616112D01*
X70384535Y-80644189D01*
X70402555Y-80644315D01*
X70415045Y-80644315D01*
X70665724Y-80619736D01*
X70906854Y-80546934D01*
X71129252Y-80428683D01*
X71324446Y-80269487D01*
X71485001Y-80075409D01*
X71604802Y-79853843D01*
X71679285Y-79613226D01*
X71679478Y-79611392D01*
X71745932Y-79837182D01*
X71862627Y-80060400D01*
X72020457Y-80256701D01*
X72213409Y-80418606D01*
X72434134Y-80539951D01*
X72674224Y-80616112D01*
X72924535Y-80644189D01*
X72942555Y-80644315D01*
X72955045Y-80644315D01*
X73205724Y-80619736D01*
X73446854Y-80546934D01*
X73669252Y-80428683D01*
X73864446Y-80269487D01*
X74025001Y-80075409D01*
X74144802Y-79853843D01*
X74219285Y-79613226D01*
X74219478Y-79611392D01*
X74285932Y-79837182D01*
X74402627Y-80060400D01*
X74560457Y-80256701D01*
X74753409Y-80418606D01*
X74974134Y-80539951D01*
X75214224Y-80616112D01*
X75464535Y-80644189D01*
X75482555Y-80644315D01*
X75495045Y-80644315D01*
X75745724Y-80619736D01*
X75986854Y-80546934D01*
X76209252Y-80428683D01*
X76404446Y-80269487D01*
X76565001Y-80075409D01*
X76684802Y-79853843D01*
X76759285Y-79613226D01*
X76773212Y-79480717D01*
X76851781Y-79480717D01*
X76780143Y-79680066D01*
X76809264Y-79776083D01*
X76915097Y-80005887D01*
X77063729Y-80210628D01*
X77249448Y-80382439D01*
X77465117Y-80514716D01*
X77702448Y-80602377D01*
X77901800Y-80531307D01*
X77901800Y-79480715D01*
X78155800Y-79480715D01*
X78155800Y-80531307D01*
X78355152Y-80602377D01*
X78592483Y-80514716D01*
X78808152Y-80382439D01*
X78993871Y-80210628D01*
X79142503Y-80005887D01*
X79248336Y-79776083D01*
X79277457Y-79680066D01*
X79205818Y-79480715D01*
X78155800Y-79480715D01*
X77901800Y-79480715D01*
X77881800Y-79480715D01*
X77881800Y-79226715D01*
X77901800Y-79226715D01*
X77901800Y-79206715D01*
X78155800Y-79206715D01*
X78155800Y-79226715D01*
X79205818Y-79226715D01*
X79277457Y-79027364D01*
X79264852Y-78985801D01*
X82020266Y-78985801D01*
X82084833Y-79657766D01*
X82279254Y-80304223D01*
X82596057Y-80900329D01*
X82605168Y-80913964D01*
X83016248Y-81261984D01*
X85284232Y-78994000D01*
X83016248Y-76726016D01*
X82605168Y-77074036D01*
X82285530Y-77668627D01*
X82088033Y-78314151D01*
X82020266Y-78985801D01*
X79264852Y-78985801D01*
X79248336Y-78931347D01*
X79142503Y-78701543D01*
X78993871Y-78496802D01*
X78808152Y-78324991D01*
X78592483Y-78192714D01*
X78355152Y-78105053D01*
X78155802Y-78176122D01*
X78155802Y-78092475D01*
X78285724Y-78079736D01*
X78526854Y-78006934D01*
X78749252Y-77888683D01*
X78944446Y-77729487D01*
X79105001Y-77535409D01*
X79224802Y-77313843D01*
X79299285Y-77073226D01*
X79325614Y-76822725D01*
X79302785Y-76571881D01*
X79295289Y-76546411D01*
X83195853Y-76546411D01*
X85463837Y-78814395D01*
X87731821Y-76546411D01*
X87383801Y-76135331D01*
X86789210Y-75815693D01*
X86143686Y-75618196D01*
X85472036Y-75550429D01*
X84800071Y-75614996D01*
X84153614Y-75809417D01*
X83557508Y-76126220D01*
X83543873Y-76135331D01*
X83195853Y-76546411D01*
X79295289Y-76546411D01*
X79231668Y-76330248D01*
X79114973Y-76107030D01*
X78957143Y-75910729D01*
X78764191Y-75748824D01*
X78543466Y-75627479D01*
X78303376Y-75551318D01*
X78053065Y-75523241D01*
X78035045Y-75523115D01*
X78022555Y-75523115D01*
X77771876Y-75547694D01*
X77530746Y-75620496D01*
X77308348Y-75738747D01*
X77113154Y-75897943D01*
X76952599Y-76092021D01*
X76832798Y-76313587D01*
X76758315Y-76554204D01*
X76758122Y-76556038D01*
X76691668Y-76330248D01*
X76574973Y-76107030D01*
X76417143Y-75910729D01*
X76224191Y-75748824D01*
X76003466Y-75627479D01*
X75763376Y-75551318D01*
X75513065Y-75523241D01*
X75495045Y-75523115D01*
X75482555Y-75523115D01*
X75231876Y-75547694D01*
X74990746Y-75620496D01*
X74768348Y-75738747D01*
X74573154Y-75897943D01*
X74412599Y-76092021D01*
X74292798Y-76313587D01*
X74218315Y-76554204D01*
X74218122Y-76556038D01*
X74151668Y-76330248D01*
X74034973Y-76107030D01*
X73877143Y-75910729D01*
X73684191Y-75748824D01*
X73463466Y-75627479D01*
X73223376Y-75551318D01*
X72973065Y-75523241D01*
X72955045Y-75523115D01*
X72942555Y-75523115D01*
X72691876Y-75547694D01*
X72450746Y-75620496D01*
X72228348Y-75738747D01*
X72033154Y-75897943D01*
X71872599Y-76092021D01*
X71752798Y-76313587D01*
X71678315Y-76554204D01*
X71664388Y-76686713D01*
X71585819Y-76686713D01*
X71657457Y-76487364D01*
X71628336Y-76391347D01*
X71522503Y-76161543D01*
X71373871Y-75956802D01*
X71188152Y-75784991D01*
X70972483Y-75652714D01*
X70735152Y-75565053D01*
X70535800Y-75636123D01*
X70535800Y-76686715D01*
X70555800Y-76686715D01*
X70555800Y-76940715D01*
X70535800Y-76940715D01*
X70535800Y-76960715D01*
X70281800Y-76960715D01*
X70281800Y-76940715D01*
X70261800Y-76940715D01*
X70261800Y-76686715D01*
X70281800Y-76686715D01*
X70281800Y-75636123D01*
X70082448Y-75565053D01*
X69845117Y-75652714D01*
X69629448Y-75784991D01*
X69443729Y-75956802D01*
X69295097Y-76161543D01*
X69189264Y-76391347D01*
X69160143Y-76487364D01*
X69231781Y-76686713D01*
X69153236Y-76686713D01*
X69142785Y-76571881D01*
X69071668Y-76330248D01*
X68954973Y-76107030D01*
X68797143Y-75910729D01*
X68604191Y-75748824D01*
X68383466Y-75627479D01*
X68143376Y-75551318D01*
X67893065Y-75523241D01*
X67875045Y-75523115D01*
X67862555Y-75523115D01*
X67611876Y-75547694D01*
X67370746Y-75620496D01*
X67148348Y-75738747D01*
X66953154Y-75897943D01*
X66792599Y-76092021D01*
X66672798Y-76313587D01*
X66598315Y-76554204D01*
X66584388Y-76686713D01*
X66505819Y-76686713D01*
X66577457Y-76487364D01*
X66548336Y-76391347D01*
X66442503Y-76161543D01*
X66293871Y-75956802D01*
X66108152Y-75784991D01*
X65892483Y-75652714D01*
X65655152Y-75565053D01*
X65455800Y-75636123D01*
X65455800Y-76686715D01*
X65475800Y-76686715D01*
X65475800Y-76940715D01*
X65455800Y-76940715D01*
X65455800Y-76960715D01*
X65201800Y-76960715D01*
X65201800Y-76940715D01*
X65181800Y-76940715D01*
X65181800Y-76686715D01*
X65201800Y-76686715D01*
X65201800Y-75636123D01*
X65002448Y-75565053D01*
X64765117Y-75652714D01*
X64549448Y-75784991D01*
X64363729Y-75956802D01*
X64215097Y-76161543D01*
X64109264Y-76391347D01*
X64080143Y-76487364D01*
X64151781Y-76686713D01*
X64073236Y-76686713D01*
X64062785Y-76571881D01*
X63991668Y-76330248D01*
X63874973Y-76107030D01*
X63717143Y-75910729D01*
X63524191Y-75748824D01*
X63303466Y-75627479D01*
X63063376Y-75551318D01*
X62813065Y-75523241D01*
X62795045Y-75523115D01*
X62782555Y-75523115D01*
X62531876Y-75547694D01*
X62290746Y-75620496D01*
X62068348Y-75738747D01*
X61873154Y-75897943D01*
X61712599Y-76092021D01*
X61592798Y-76313587D01*
X61518315Y-76554204D01*
X61518122Y-76556038D01*
X61451668Y-76330248D01*
X61334973Y-76107030D01*
X61177143Y-75910729D01*
X60984191Y-75748824D01*
X60763466Y-75627479D01*
X60523376Y-75551318D01*
X60273065Y-75523241D01*
X60255045Y-75523115D01*
X60242555Y-75523115D01*
X59991876Y-75547694D01*
X59750746Y-75620496D01*
X59528348Y-75738747D01*
X59333154Y-75897943D01*
X59172599Y-76092021D01*
X59052798Y-76313587D01*
X58978315Y-76554204D01*
X58978122Y-76556038D01*
X58911668Y-76330248D01*
X58794973Y-76107030D01*
X58637143Y-75910729D01*
X58444191Y-75748824D01*
X58223466Y-75627479D01*
X57983376Y-75551318D01*
X57733065Y-75523241D01*
X57715045Y-75523115D01*
X57702555Y-75523115D01*
X57451876Y-75547694D01*
X57210746Y-75620496D01*
X56988348Y-75738747D01*
X56793154Y-75897943D01*
X56632599Y-76092021D01*
X56512798Y-76313587D01*
X56438315Y-76554204D01*
X56438122Y-76556038D01*
X56371668Y-76330248D01*
X56254973Y-76107030D01*
X56097143Y-75910729D01*
X55904191Y-75748824D01*
X55683466Y-75627479D01*
X55443376Y-75551318D01*
X55193065Y-75523241D01*
X55175045Y-75523115D01*
X55162555Y-75523115D01*
X54911876Y-75547694D01*
X54670746Y-75620496D01*
X54448348Y-75738747D01*
X54253154Y-75897943D01*
X54092599Y-76092021D01*
X53972798Y-76313587D01*
X53898315Y-76554204D01*
X53884388Y-76686713D01*
X53805819Y-76686713D01*
X53877457Y-76487364D01*
X53848336Y-76391347D01*
X53742503Y-76161543D01*
X53593871Y-75956802D01*
X53408152Y-75784991D01*
X53192483Y-75652714D01*
X52955152Y-75565053D01*
X52755800Y-75636123D01*
X52755800Y-76686715D01*
X52775800Y-76686715D01*
X52775800Y-76940715D01*
X52755800Y-76940715D01*
X52755800Y-76960715D01*
X52501800Y-76960715D01*
X52501800Y-76940715D01*
X52481800Y-76940715D01*
X52481800Y-76686715D01*
X52501800Y-76686715D01*
X52501800Y-75636123D01*
X52302448Y-75565053D01*
X52065117Y-75652714D01*
X51849448Y-75784991D01*
X51663729Y-75956802D01*
X51515097Y-76161543D01*
X51409264Y-76391347D01*
X51380143Y-76487364D01*
X51451781Y-76686713D01*
X51373236Y-76686713D01*
X51362785Y-76571881D01*
X51291668Y-76330248D01*
X51174973Y-76107030D01*
X51017143Y-75910729D01*
X50824191Y-75748824D01*
X50603466Y-75627479D01*
X50363376Y-75551318D01*
X50113065Y-75523241D01*
X50095045Y-75523115D01*
X50082555Y-75523115D01*
X49831876Y-75547694D01*
X49590746Y-75620496D01*
X49368348Y-75738747D01*
X49173154Y-75897943D01*
X49012599Y-76092021D01*
X48892798Y-76313587D01*
X48818315Y-76554204D01*
X48818122Y-76556038D01*
X48751668Y-76330248D01*
X48634973Y-76107030D01*
X48477143Y-75910729D01*
X48284191Y-75748824D01*
X48063466Y-75627479D01*
X47823376Y-75551318D01*
X47573065Y-75523241D01*
X47555045Y-75523115D01*
X47542555Y-75523115D01*
X47291876Y-75547694D01*
X47050746Y-75620496D01*
X46828348Y-75738747D01*
X46633154Y-75897943D01*
X46472599Y-76092021D01*
X46352798Y-76313587D01*
X46278315Y-76554204D01*
X46264388Y-76686713D01*
X46185819Y-76686713D01*
X46257457Y-76487364D01*
X46228336Y-76391347D01*
X46122503Y-76161543D01*
X45973871Y-75956802D01*
X45788152Y-75784991D01*
X45572483Y-75652714D01*
X45335152Y-75565053D01*
X45135800Y-75636123D01*
X45135800Y-76686715D01*
X45155800Y-76686715D01*
X45155800Y-76940715D01*
X45135800Y-76940715D01*
X45135800Y-76960715D01*
X44881800Y-76960715D01*
X44881800Y-76940715D01*
X44861800Y-76940715D01*
X44861800Y-76686715D01*
X44881800Y-76686715D01*
X44881800Y-75636123D01*
X44682448Y-75565053D01*
X44445117Y-75652714D01*
X44229448Y-75784991D01*
X44043729Y-75956802D01*
X43895097Y-76161543D01*
X43789264Y-76391347D01*
X43760143Y-76487364D01*
X43831781Y-76686713D01*
X43753236Y-76686713D01*
X43742785Y-76571881D01*
X43671668Y-76330248D01*
X43554973Y-76107030D01*
X43397143Y-75910729D01*
X43204191Y-75748824D01*
X42983466Y-75627479D01*
X42743376Y-75551318D01*
X42493065Y-75523241D01*
X42475045Y-75523115D01*
X42462555Y-75523115D01*
X42211876Y-75547694D01*
X41970746Y-75620496D01*
X41748348Y-75738747D01*
X41553154Y-75897943D01*
X41392599Y-76092021D01*
X41272798Y-76313587D01*
X41198315Y-76554204D01*
X41198122Y-76556038D01*
X41131668Y-76330248D01*
X41014973Y-76107030D01*
X40857143Y-75910729D01*
X40664191Y-75748824D01*
X40490800Y-75653501D01*
X40490800Y-73613277D01*
X40786627Y-73772307D01*
X41432151Y-73969804D01*
X42103801Y-74037571D01*
X42775766Y-73973004D01*
X43422223Y-73778583D01*
X44018329Y-73461780D01*
X44031964Y-73452669D01*
X44379984Y-73041589D01*
X64244016Y-73041589D01*
X64592036Y-73452669D01*
X65186627Y-73772307D01*
X65832151Y-73969804D01*
X66503801Y-74037571D01*
X67175766Y-73973004D01*
X67822223Y-73778583D01*
X68418329Y-73461780D01*
X68431964Y-73452669D01*
X68779984Y-73041589D01*
X66512000Y-70773605D01*
X64244016Y-73041589D01*
X44379984Y-73041589D01*
X42112000Y-70773605D01*
X42097858Y-70787748D01*
X41918253Y-70608143D01*
X41932395Y-70594000D01*
X41918253Y-70579858D01*
X42097858Y-70400253D01*
X42112000Y-70414395D01*
X42126143Y-70400253D01*
X42305748Y-70579858D01*
X42291605Y-70594000D01*
X44559589Y-72861984D01*
X44970669Y-72513964D01*
X45290307Y-71919373D01*
X45487804Y-71273849D01*
X45555571Y-70602199D01*
X45491004Y-69930234D01*
X45338375Y-69422736D01*
X47362148Y-70829295D01*
X49909869Y-71942367D01*
X52625265Y-72539385D01*
X55404908Y-72597611D01*
X58142923Y-72114825D01*
X60735019Y-71109417D01*
X63082465Y-69619683D01*
X63285419Y-69426413D01*
X63136196Y-69914151D01*
X63068429Y-70585801D01*
X63132996Y-71257766D01*
X63327417Y-71904223D01*
X63644220Y-72500329D01*
X63653331Y-72513964D01*
X64064411Y-72861984D01*
X66332395Y-70594000D01*
X66691605Y-70594000D01*
X68959589Y-72861984D01*
X69370669Y-72513964D01*
X69690307Y-71919373D01*
X69887804Y-71273849D01*
X69955571Y-70602199D01*
X69891004Y-69930234D01*
X69696583Y-69283777D01*
X69379780Y-68687671D01*
X69370669Y-68674036D01*
X68959589Y-68326016D01*
X66691605Y-70594000D01*
X66332395Y-70594000D01*
X66318253Y-70579858D01*
X66497858Y-70400253D01*
X66512000Y-70414395D01*
X68779984Y-68146411D01*
X68431964Y-67735331D01*
X67837373Y-67415693D01*
X67191849Y-67218196D01*
X66520199Y-67150429D01*
X65848234Y-67214996D01*
X65329621Y-67370968D01*
X66698473Y-65430496D01*
X67829304Y-62890609D01*
X68445265Y-60179447D01*
X68489607Y-57003873D01*
X67949587Y-54276570D01*
X66890115Y-51706098D01*
X65378563Y-49431029D01*
X65832151Y-49569804D01*
X66503801Y-49637571D01*
X67175766Y-49573004D01*
X67822223Y-49378583D01*
X68418329Y-49061780D01*
X68431964Y-49052669D01*
X68779984Y-48641589D01*
X66512000Y-46373605D01*
X66497858Y-46387748D01*
X66318253Y-46208143D01*
X66332395Y-46194000D01*
X64064411Y-43926016D01*
X63653331Y-44274036D01*
X63333693Y-44868627D01*
X63136196Y-45514151D01*
X63068429Y-46185801D01*
X63132996Y-46857766D01*
X63278169Y-47340473D01*
X61087550Y-45862882D01*
X58524537Y-44785490D01*
X55801070Y-44226443D01*
X53020885Y-44207033D01*
X50289878Y-44728001D01*
X47712072Y-45769502D01*
X45385655Y-47291866D01*
X45348900Y-47327859D01*
X45487804Y-46873849D01*
X45555571Y-46202199D01*
X45491004Y-45530234D01*
X45296583Y-44883777D01*
X44979780Y-44287671D01*
X44970669Y-44274036D01*
X44559589Y-43926016D01*
X42291605Y-46194000D01*
X42305748Y-46208143D01*
X42126143Y-46387748D01*
X42112000Y-46373605D01*
X39844016Y-48641589D01*
X40192036Y-49052669D01*
X40786627Y-49372307D01*
X41432151Y-49569804D01*
X42103801Y-49637571D01*
X42775766Y-49573004D01*
X43271288Y-49423977D01*
X41828489Y-51531132D01*
X40733231Y-54086561D01*
X40155184Y-56806059D01*
X40116365Y-59586041D01*
X40618254Y-62320618D01*
X41641734Y-64905632D01*
X43147820Y-67242620D01*
X43263619Y-67362533D01*
X42791849Y-67218196D01*
X42120199Y-67150429D01*
X41448234Y-67214996D01*
X40801777Y-67409417D01*
X40205671Y-67726220D01*
X40192036Y-67735331D01*
X39844017Y-68146409D01*
X39767259Y-68069651D01*
X39761666Y-68075244D01*
X39761666Y-65265900D01*
X39756244Y-65197902D01*
X39720527Y-65082570D01*
X39654094Y-64981754D01*
X39562205Y-64903437D01*
X39452135Y-64853821D01*
X39332600Y-64836834D01*
X38367400Y-64836834D01*
X38299402Y-64842256D01*
X38184070Y-64877973D01*
X38083254Y-64944406D01*
X38004937Y-65036295D01*
X37955321Y-65146365D01*
X37938334Y-65265900D01*
X37938334Y-67268328D01*
X37933744Y-67269204D01*
X37801554Y-67322612D01*
X37682255Y-67400680D01*
X37580391Y-67500432D01*
X37499842Y-67618070D01*
X37443677Y-67749113D01*
X37414035Y-67888570D01*
X37412044Y-68031128D01*
X37437781Y-68171358D01*
X37490265Y-68303918D01*
X37567498Y-68423760D01*
X37578000Y-68434635D01*
X37578000Y-69117212D01*
X36872000Y-69823212D01*
X36872000Y-68708613D01*
X36975930Y-68676427D01*
X37076746Y-68609994D01*
X37155063Y-68518105D01*
X37204679Y-68408035D01*
X37221666Y-68288500D01*
X37221666Y-65265900D01*
X37216244Y-65197902D01*
X37180527Y-65082570D01*
X37114094Y-64981754D01*
X37022205Y-64903437D01*
X36912135Y-64853821D01*
X36792600Y-64836834D01*
X35827400Y-64836834D01*
X35759402Y-64842256D01*
X35644070Y-64877973D01*
X35543254Y-64944406D01*
X35464937Y-65036295D01*
X35415321Y-65146365D01*
X35398334Y-65265900D01*
X35398334Y-68288500D01*
X35403756Y-68356498D01*
X35439473Y-68471830D01*
X35505906Y-68572646D01*
X35597795Y-68650963D01*
X35707865Y-68700579D01*
X35748000Y-68706283D01*
X35748000Y-69767212D01*
X35392471Y-70122741D01*
X35253744Y-70149204D01*
X35121554Y-70202612D01*
X35002255Y-70280680D01*
X34900391Y-70380432D01*
X34819842Y-70498070D01*
X34763677Y-70629113D01*
X34734035Y-70768570D01*
X34733888Y-70779100D01*
X34332000Y-70377212D01*
X34332000Y-68708613D01*
X34435930Y-68676427D01*
X34536746Y-68609994D01*
X34615063Y-68518105D01*
X34664679Y-68408035D01*
X34681666Y-68288500D01*
X34681666Y-65265900D01*
X34676244Y-65197902D01*
X34640527Y-65082570D01*
X34574094Y-64981754D01*
X34482205Y-64903437D01*
X34372135Y-64853821D01*
X34332000Y-64848117D01*
X34332000Y-63885424D01*
X34392999Y-63827336D01*
X34395487Y-63823809D01*
X34436537Y-63866317D01*
X34553610Y-63947685D01*
X34684258Y-64004764D01*
X34823504Y-64035379D01*
X34966045Y-64038365D01*
X35106451Y-64013608D01*
X35239374Y-63962050D01*
X35359752Y-63885656D01*
X35462999Y-63787336D01*
X35545182Y-63670833D01*
X35603171Y-63540587D01*
X35634758Y-63401558D01*
X35635063Y-63379725D01*
X35834422Y-63180366D01*
X36792600Y-63180366D01*
X36860598Y-63174944D01*
X36975930Y-63139227D01*
X37076746Y-63072794D01*
X37155063Y-62980905D01*
X37204679Y-62870835D01*
X37221666Y-62751300D01*
X37221666Y-59728700D01*
X37216244Y-59660702D01*
X37180527Y-59545370D01*
X37114094Y-59444554D01*
X37022205Y-59366237D01*
X36912135Y-59316621D01*
X36792600Y-59299634D01*
X35827400Y-59299634D01*
X35759402Y-59305056D01*
X35644070Y-59340773D01*
X35543254Y-59407206D01*
X35464937Y-59499095D01*
X35415321Y-59609165D01*
X35398334Y-59728700D01*
X35398334Y-62026878D01*
X34842471Y-62582741D01*
X34703744Y-62609204D01*
X34679600Y-62618959D01*
X34679600Y-61473750D01*
X34572850Y-61367000D01*
X33897000Y-61367000D01*
X33897000Y-61387000D01*
X33643000Y-61387000D01*
X33643000Y-61367000D01*
X32967150Y-61367000D01*
X32860400Y-61473750D01*
X32860400Y-62793356D01*
X32876809Y-62875851D01*
X32908997Y-62953560D01*
X32955727Y-63023497D01*
X33015203Y-63082972D01*
X33085139Y-63129702D01*
X33138825Y-63151940D01*
X33114035Y-63268570D01*
X33112044Y-63411128D01*
X33137781Y-63551358D01*
X33190265Y-63683918D01*
X33208000Y-63711437D01*
X33208000Y-64845787D01*
X33104070Y-64877973D01*
X33003254Y-64944406D01*
X32924937Y-65036295D01*
X32875321Y-65146365D01*
X32858334Y-65265900D01*
X32858334Y-68288500D01*
X32863756Y-68356498D01*
X32899473Y-68471830D01*
X32965906Y-68572646D01*
X33057795Y-68650963D01*
X33167865Y-68700579D01*
X33208000Y-68706283D01*
X33208000Y-70610000D01*
X33213066Y-70661670D01*
X33217591Y-70713381D01*
X33218414Y-70716215D01*
X33218703Y-70719160D01*
X33233721Y-70768903D01*
X33248191Y-70818709D01*
X33249550Y-70821332D01*
X33250405Y-70824162D01*
X33274785Y-70870014D01*
X33298667Y-70916087D01*
X33300510Y-70918396D01*
X33301898Y-70921006D01*
X33334721Y-70961251D01*
X33367096Y-71001806D01*
X33371152Y-71005920D01*
X33371221Y-71006004D01*
X33371299Y-71006069D01*
X33372606Y-71007394D01*
X35558000Y-73192788D01*
X35558000Y-75741964D01*
X35412483Y-75652714D01*
X35175152Y-75565053D01*
X34975800Y-75636123D01*
X34975800Y-76686715D01*
X34995800Y-76686715D01*
X34995800Y-76940715D01*
X34975800Y-76940715D01*
X34975800Y-76960715D01*
X34721800Y-76960715D01*
X34721800Y-76940715D01*
X34701800Y-76940715D01*
X34701800Y-76686715D01*
X34721800Y-76686715D01*
X34721800Y-75636123D01*
X34522448Y-75565053D01*
X34285117Y-75652714D01*
X34069448Y-75784991D01*
X33883729Y-75956802D01*
X33735097Y-76161543D01*
X33629264Y-76391347D01*
X33600143Y-76487364D01*
X33671781Y-76686713D01*
X33593236Y-76686713D01*
X33582785Y-76571881D01*
X33511668Y-76330248D01*
X33394973Y-76107030D01*
X33237143Y-75910729D01*
X33044191Y-75748824D01*
X32823466Y-75627479D01*
X32583376Y-75551318D01*
X32333065Y-75523241D01*
X32315045Y-75523115D01*
X32302555Y-75523115D01*
X32051876Y-75547694D01*
X31810746Y-75620496D01*
X31588348Y-75738747D01*
X31393154Y-75897943D01*
X31232599Y-76092021D01*
X31112798Y-76313587D01*
X31038315Y-76554204D01*
X31038122Y-76556038D01*
X30971668Y-76330248D01*
X30854973Y-76107030D01*
X30697143Y-75910729D01*
X30504191Y-75748824D01*
X30283466Y-75627479D01*
X30043376Y-75551318D01*
X29793065Y-75523241D01*
X29775045Y-75523115D01*
X29762555Y-75523115D01*
X29511876Y-75547694D01*
X29270746Y-75620496D01*
X29048348Y-75738747D01*
X28853154Y-75897943D01*
X28692599Y-76092021D01*
X28572798Y-76313587D01*
X28498315Y-76554204D01*
X28471986Y-76804705D01*
X24892537Y-76804705D01*
X24799589Y-76726016D01*
X22531605Y-78994000D01*
X22172395Y-78994000D01*
X19904411Y-76726016D01*
X19552000Y-77024367D01*
X19552000Y-76546411D01*
X20084016Y-76546411D01*
X22352000Y-78814395D01*
X24619984Y-76546411D01*
X24271964Y-76135331D01*
X23677373Y-75815693D01*
X23031849Y-75618196D01*
X22360199Y-75550429D01*
X21688234Y-75614996D01*
X21041777Y-75809417D01*
X20445671Y-76126220D01*
X20432036Y-76135331D01*
X20084016Y-76546411D01*
X19552000Y-76546411D01*
X19552000Y-68003528D01*
X29613023Y-68003528D01*
X29629420Y-68183702D01*
X29680501Y-68357260D01*
X29764319Y-68517591D01*
X29877684Y-68658588D01*
X30016276Y-68774880D01*
X30174816Y-68862038D01*
X30213256Y-68874232D01*
X30294512Y-68955488D01*
X30434314Y-69070322D01*
X30593758Y-69155816D01*
X30766772Y-69208711D01*
X30946764Y-69226994D01*
X31126880Y-69209969D01*
X31300258Y-69158282D01*
X31460296Y-69073904D01*
X31600895Y-68960048D01*
X31716703Y-68821051D01*
X31803308Y-68662208D01*
X31857410Y-68489568D01*
X31876949Y-68309707D01*
X31861181Y-68129477D01*
X31810706Y-67955742D01*
X31727448Y-67795119D01*
X31614576Y-67653728D01*
X31605488Y-67644512D01*
X31315488Y-67354512D01*
X31249318Y-67300159D01*
X31183724Y-67245120D01*
X31179452Y-67242772D01*
X31175686Y-67239678D01*
X31100200Y-67199202D01*
X31025184Y-67157962D01*
X31020541Y-67156489D01*
X31016242Y-67154184D01*
X30934351Y-67129148D01*
X30852734Y-67103257D01*
X30847887Y-67102713D01*
X30843228Y-67101289D01*
X30758099Y-67092642D01*
X30672943Y-67083090D01*
X30663410Y-67083024D01*
X30663236Y-67083006D01*
X30663073Y-67083021D01*
X30660000Y-67083000D01*
X30540000Y-67083000D01*
X30359945Y-67100655D01*
X30186748Y-67152946D01*
X30027006Y-67237882D01*
X29886804Y-67352228D01*
X29771482Y-67491628D01*
X29685433Y-67650773D01*
X29631934Y-67823601D01*
X29613023Y-68003528D01*
X19552000Y-68003528D01*
X19552000Y-39329710D01*
X20084016Y-39329710D01*
X20432036Y-39740790D01*
X21026627Y-40060428D01*
X21672151Y-40257925D01*
X22343801Y-40325692D01*
X23015766Y-40261125D01*
X23662223Y-40066704D01*
X23666840Y-40064250D01*
X27422000Y-40064250D01*
X27422000Y-40460056D01*
X27438409Y-40542551D01*
X27470598Y-40620261D01*
X27517328Y-40690197D01*
X27576803Y-40749673D01*
X27646740Y-40796403D01*
X27724449Y-40828591D01*
X27806944Y-40845000D01*
X28865250Y-40845000D01*
X28972000Y-40738250D01*
X28972000Y-39957500D01*
X29226000Y-39957500D01*
X29226000Y-40738250D01*
X29332750Y-40845000D01*
X30865250Y-40845000D01*
X30972000Y-40738250D01*
X30972000Y-39957500D01*
X29226000Y-39957500D01*
X28972000Y-39957500D01*
X27528750Y-39957500D01*
X27422000Y-40064250D01*
X23666840Y-40064250D01*
X24258329Y-39749901D01*
X24271964Y-39740790D01*
X24619984Y-39329710D01*
X22352000Y-37061726D01*
X20084016Y-39329710D01*
X19552000Y-39329710D01*
X19552000Y-38851754D01*
X19904411Y-39150105D01*
X22172395Y-36882121D01*
X22531605Y-36882121D01*
X24799589Y-39150105D01*
X25107710Y-38889250D01*
X27422000Y-38889250D01*
X27422000Y-39596750D01*
X27528750Y-39703500D01*
X28972000Y-39703500D01*
X28972000Y-38782500D01*
X29226000Y-38782500D01*
X29226000Y-39703500D01*
X30972000Y-39703500D01*
X30972000Y-38782500D01*
X29226000Y-38782500D01*
X28972000Y-38782500D01*
X27528750Y-38782500D01*
X27422000Y-38889250D01*
X25107710Y-38889250D01*
X25210669Y-38802085D01*
X25530307Y-38207494D01*
X25585851Y-38025944D01*
X27422000Y-38025944D01*
X27422000Y-38421750D01*
X27528750Y-38528500D01*
X28972000Y-38528500D01*
X28972000Y-37747750D01*
X29226000Y-37747750D01*
X29226000Y-38528500D01*
X30972000Y-38528500D01*
X30972000Y-37747750D01*
X30865250Y-37641000D01*
X29332750Y-37641000D01*
X29226000Y-37747750D01*
X28972000Y-37747750D01*
X28865250Y-37641000D01*
X27806944Y-37641000D01*
X27724449Y-37657409D01*
X27646740Y-37689597D01*
X27576803Y-37736327D01*
X27517328Y-37795803D01*
X27470598Y-37865739D01*
X27438409Y-37943449D01*
X27422000Y-38025944D01*
X25585851Y-38025944D01*
X25727804Y-37561970D01*
X25795571Y-36890320D01*
X25731004Y-36218355D01*
X25536583Y-35571898D01*
X25219780Y-34975792D01*
X25210669Y-34962157D01*
X24799589Y-34614137D01*
X22531605Y-36882121D01*
X22172395Y-36882121D01*
X22158253Y-36867979D01*
X22337858Y-36688374D01*
X22352000Y-36702516D01*
X24619984Y-34434532D01*
X24271964Y-34023452D01*
X23811653Y-33776000D01*
X47209024Y-33776000D01*
X46860024Y-34125000D01*
M02*
